%TF.GenerationSoftware,KiCad,Pcbnew,(5.99.0-9801-g46d71f0d23)*%
%TF.CreationDate,2021-03-18T00:24:41-04:00*%
%TF.ProjectId,PCB-S,5043422d-532e-46b6-9963-61645f706362,rev?*%
%TF.SameCoordinates,Original*%
%TF.FileFunction,Legend,Top*%
%TF.FilePolarity,Positive*%
%FSLAX46Y46*%
G04 Gerber Fmt 4.6, Leading zero omitted, Abs format (unit mm)*
G04 Created by KiCad (PCBNEW (5.99.0-9801-g46d71f0d23)) date 2021-03-18 00:24:41*
%MOMM*%
%LPD*%
G01*
G04 APERTURE LIST*
%ADD10C,0.120000*%
%ADD11C,0.150000*%
%ADD12C,0.203200*%
%ADD13C,0.177800*%
G04 APERTURE END LIST*
D10*
X214690000Y-73025000D02*
G75*
G02*
X212150000Y-75565000I-2540000J0D01*
G01*
D11*
X201930000Y-74295000D02*
X203200000Y-74295000D01*
X203200000Y-74295000D02*
X203200000Y-71755000D01*
X200660000Y-74295000D02*
X200660000Y-71755000D01*
D12*
X206498786Y-68303706D02*
X206497372Y-68305148D01*
X206497372Y-68305148D02*
X206495902Y-68306527D01*
X206495902Y-68306527D02*
X206494382Y-68307843D01*
X206494382Y-68307843D02*
X206492813Y-68309096D01*
X206492813Y-68309096D02*
X206491202Y-68310279D01*
X206491202Y-68310279D02*
X206489540Y-68311396D01*
X206489540Y-68311396D02*
X206487836Y-68312447D01*
X206487836Y-68312447D02*
X206486099Y-68313426D01*
X206486099Y-68313426D02*
X206484319Y-68314336D01*
X206484319Y-68314336D02*
X206482501Y-68315173D01*
X206482501Y-68315173D02*
X206480651Y-68315937D01*
X206480651Y-68315937D02*
X206478772Y-68316626D01*
X206478772Y-68316626D02*
X206476857Y-68317241D01*
X206476857Y-68317241D02*
X206474923Y-68317776D01*
X206474923Y-68317776D02*
X206472960Y-68318235D01*
X206472960Y-68318235D02*
X206470978Y-68318616D01*
X206470978Y-68318616D02*
X204638565Y-68575974D01*
X204638565Y-68575974D02*
X204634458Y-68576310D01*
X204634458Y-68576310D02*
X204630447Y-68576327D01*
X204630447Y-68576327D02*
X204626547Y-68576037D01*
X204626547Y-68576037D02*
X204622764Y-68575460D01*
X204622764Y-68575460D02*
X204619105Y-68574601D01*
X204619105Y-68574601D02*
X204615579Y-68573476D01*
X204615579Y-68573476D02*
X204612190Y-68572103D01*
X204612190Y-68572103D02*
X204608945Y-68570491D01*
X204608945Y-68570491D02*
X204605850Y-68568651D01*
X204605850Y-68568651D02*
X204602922Y-68566607D01*
X204602922Y-68566607D02*
X204600158Y-68564359D01*
X204600158Y-68564359D02*
X204597574Y-68561928D01*
X204597574Y-68561928D02*
X204595170Y-68559328D01*
X204595170Y-68559328D02*
X204592952Y-68556570D01*
X204592952Y-68556570D02*
X204590938Y-68553665D01*
X204590938Y-68553665D02*
X204589126Y-68550633D01*
X204589126Y-68550633D02*
X204587530Y-68547484D01*
X204587530Y-68547484D02*
X204586149Y-68544230D01*
X204586149Y-68544230D02*
X204584999Y-68540884D01*
X204584999Y-68540884D02*
X204584080Y-68537461D01*
X204584080Y-68537461D02*
X204583406Y-68533977D01*
X204583406Y-68533977D02*
X204582983Y-68530444D01*
X204582983Y-68530444D02*
X204582812Y-68526874D01*
X204582812Y-68526874D02*
X204582909Y-68523279D01*
X204582909Y-68523279D02*
X204583272Y-68519673D01*
X204583272Y-68519673D02*
X204583920Y-68516075D01*
X204583920Y-68516075D02*
X204584857Y-68512490D01*
X204584857Y-68512490D02*
X204586082Y-68508937D01*
X204586082Y-68508937D02*
X204587609Y-68505428D01*
X204587609Y-68505428D02*
X204589445Y-68501980D01*
X204589445Y-68501980D02*
X204591597Y-68498596D01*
X204591597Y-68498596D02*
X204594076Y-68495301D01*
X204594076Y-68495301D02*
X205823138Y-67109564D01*
X205823138Y-67109564D02*
X205826262Y-67106265D01*
X205826262Y-67106265D02*
X205829539Y-67103342D01*
X205829539Y-67103342D02*
X205832948Y-67100778D01*
X205832948Y-67100778D02*
X205836470Y-67098575D01*
X205836470Y-67098575D02*
X205840086Y-67096723D01*
X205840086Y-67096723D02*
X205843782Y-67095208D01*
X205843782Y-67095208D02*
X205847541Y-67094029D01*
X205847541Y-67094029D02*
X205851341Y-67093174D01*
X205851341Y-67093174D02*
X205855170Y-67092631D01*
X205855170Y-67092631D02*
X205859003Y-67092402D01*
X205859003Y-67092402D02*
X205862829Y-67092473D01*
X205862829Y-67092473D02*
X205866625Y-67092834D01*
X205866625Y-67092834D02*
X205870381Y-67093485D01*
X205870381Y-67093485D02*
X205874075Y-67094402D01*
X205874075Y-67094402D02*
X205877687Y-67095595D01*
X205877687Y-67095595D02*
X205881202Y-67097045D01*
X205881202Y-67097045D02*
X205884597Y-67098754D01*
X205884597Y-67098754D02*
X205887864Y-67100699D01*
X205887864Y-67100699D02*
X205890982Y-67102887D01*
X205890982Y-67102887D02*
X205893930Y-67105301D01*
X205893930Y-67105301D02*
X205896692Y-67107935D01*
X205896692Y-67107935D02*
X205899249Y-67110777D01*
X205899249Y-67110777D02*
X205901587Y-67113825D01*
X205901587Y-67113825D02*
X205903691Y-67117070D01*
X205903691Y-67117070D02*
X205905532Y-67120505D01*
X205905532Y-67120505D02*
X205907100Y-67124118D01*
X205907100Y-67124118D02*
X205908379Y-67127901D01*
X205908379Y-67127901D02*
X205909347Y-67131850D01*
X205909347Y-67131850D02*
X205909990Y-67135955D01*
X205909990Y-67135955D02*
X205910288Y-67140201D01*
X205910288Y-67140201D02*
X205910224Y-67144596D01*
X205910224Y-67144596D02*
X205909779Y-67149118D01*
X205909779Y-67149118D02*
X205905116Y-67191113D01*
X205905116Y-67191113D02*
X205902135Y-67232982D01*
X205902135Y-67232982D02*
X205900815Y-67274694D01*
X205900815Y-67274694D02*
X205901134Y-67316197D01*
X205901134Y-67316197D02*
X205903072Y-67357456D01*
X205903072Y-67357456D02*
X205906600Y-67398422D01*
X205906600Y-67398422D02*
X205911704Y-67439056D01*
X205911704Y-67439056D02*
X205918359Y-67479319D01*
X205918359Y-67479319D02*
X205926543Y-67519172D01*
X205926543Y-67519172D02*
X205936232Y-67558559D01*
X205936232Y-67558559D02*
X205947407Y-67597451D01*
X205947407Y-67597451D02*
X205960047Y-67635800D01*
X205960047Y-67635800D02*
X205974125Y-67673565D01*
X205974125Y-67673565D02*
X205989624Y-67710706D01*
X205989624Y-67710706D02*
X206006521Y-67747182D01*
X206006521Y-67747182D02*
X206024794Y-67782948D01*
X206024794Y-67782948D02*
X206044421Y-67817959D01*
X206044421Y-67817959D02*
X206065377Y-67852179D01*
X206065377Y-67852179D02*
X206087643Y-67885561D01*
X206087643Y-67885561D02*
X206111199Y-67918067D01*
X206111199Y-67918067D02*
X206136020Y-67949654D01*
X206136020Y-67949654D02*
X206162083Y-67980278D01*
X206162083Y-67980278D02*
X206189368Y-68009898D01*
X206189368Y-68009898D02*
X206217851Y-68038475D01*
X206217851Y-68038475D02*
X206247516Y-68065964D01*
X206247516Y-68065964D02*
X206278335Y-68092319D01*
X206278335Y-68092319D02*
X206310288Y-68117507D01*
X206310288Y-68117507D02*
X206343356Y-68141478D01*
X206343356Y-68141478D02*
X206377510Y-68164195D01*
X206377510Y-68164195D02*
X206412735Y-68185614D01*
X206412735Y-68185614D02*
X206449006Y-68205693D01*
X206449006Y-68205693D02*
X206486303Y-68224391D01*
X206486303Y-68224391D02*
X206489042Y-68225905D01*
X206489042Y-68225905D02*
X206491641Y-68227551D01*
X206491641Y-68227551D02*
X206494098Y-68229329D01*
X206494098Y-68229329D02*
X206496414Y-68231234D01*
X206496414Y-68231234D02*
X206498590Y-68233251D01*
X206498590Y-68233251D02*
X206500614Y-68235377D01*
X206500614Y-68235377D02*
X206502501Y-68237602D01*
X206502501Y-68237602D02*
X206504237Y-68239918D01*
X206504237Y-68239918D02*
X206505827Y-68242321D01*
X206505827Y-68242321D02*
X206507264Y-68244799D01*
X206507264Y-68244799D02*
X206508550Y-68247347D01*
X206508550Y-68247347D02*
X206509690Y-68249957D01*
X206509690Y-68249957D02*
X206510676Y-68252626D01*
X206510676Y-68252626D02*
X206511505Y-68255338D01*
X206511505Y-68255338D02*
X206512181Y-68258089D01*
X206512181Y-68258089D02*
X206512700Y-68260876D01*
X206512700Y-68260876D02*
X206513062Y-68263684D01*
X206513062Y-68263684D02*
X206513265Y-68266512D01*
X206513265Y-68266512D02*
X206513305Y-68269347D01*
X206513305Y-68269347D02*
X206513189Y-68272188D01*
X206513189Y-68272188D02*
X206512911Y-68275023D01*
X206512911Y-68275023D02*
X206512464Y-68277843D01*
X206512464Y-68277843D02*
X206511860Y-68280645D01*
X206511860Y-68280645D02*
X206511083Y-68283418D01*
X206511083Y-68283418D02*
X206510143Y-68286159D01*
X206510143Y-68286159D02*
X206509034Y-68288852D01*
X206509034Y-68288852D02*
X206507758Y-68291496D01*
X206507758Y-68291496D02*
X206506309Y-68294083D01*
X206506309Y-68294083D02*
X206504687Y-68296604D01*
X206504687Y-68296604D02*
X206502893Y-68299053D01*
X206502893Y-68299053D02*
X206500928Y-68301425D01*
X206500928Y-68301425D02*
X206498786Y-68303706D01*
X206498786Y-68303706D02*
X206498786Y-68303706D01*
G36*
X205862829Y-67092473D02*
G01*
X205866625Y-67092834D01*
X205870381Y-67093485D01*
X205874075Y-67094402D01*
X205877687Y-67095595D01*
X205881202Y-67097045D01*
X205884597Y-67098754D01*
X205887864Y-67100699D01*
X205890982Y-67102887D01*
X205893930Y-67105301D01*
X205896692Y-67107935D01*
X205899249Y-67110777D01*
X205901587Y-67113825D01*
X205903691Y-67117070D01*
X205905532Y-67120505D01*
X205907100Y-67124118D01*
X205908379Y-67127901D01*
X205909347Y-67131850D01*
X205909990Y-67135955D01*
X205910288Y-67140201D01*
X205910224Y-67144596D01*
X205909779Y-67149118D01*
X205905116Y-67191113D01*
X205902135Y-67232982D01*
X205900815Y-67274694D01*
X205901134Y-67316197D01*
X205903072Y-67357456D01*
X205906600Y-67398422D01*
X205911704Y-67439056D01*
X205918359Y-67479319D01*
X205926543Y-67519172D01*
X205936232Y-67558559D01*
X205947407Y-67597451D01*
X205960047Y-67635800D01*
X205974125Y-67673565D01*
X205989624Y-67710706D01*
X206006521Y-67747182D01*
X206024794Y-67782948D01*
X206044421Y-67817959D01*
X206065377Y-67852179D01*
X206087643Y-67885561D01*
X206111199Y-67918067D01*
X206136020Y-67949654D01*
X206162083Y-67980278D01*
X206189368Y-68009898D01*
X206217851Y-68038475D01*
X206247516Y-68065964D01*
X206278335Y-68092319D01*
X206310288Y-68117507D01*
X206343356Y-68141478D01*
X206377510Y-68164195D01*
X206412735Y-68185614D01*
X206449006Y-68205693D01*
X206486303Y-68224391D01*
X206489042Y-68225905D01*
X206491641Y-68227551D01*
X206494098Y-68229329D01*
X206496414Y-68231234D01*
X206498590Y-68233251D01*
X206500614Y-68235377D01*
X206502501Y-68237602D01*
X206504237Y-68239918D01*
X206505827Y-68242321D01*
X206507264Y-68244799D01*
X206508550Y-68247347D01*
X206509690Y-68249957D01*
X206510676Y-68252626D01*
X206511505Y-68255338D01*
X206512181Y-68258089D01*
X206512700Y-68260876D01*
X206513062Y-68263684D01*
X206513265Y-68266512D01*
X206513305Y-68269347D01*
X206513189Y-68272188D01*
X206512911Y-68275023D01*
X206512464Y-68277843D01*
X206511860Y-68280645D01*
X206511083Y-68283418D01*
X206510143Y-68286159D01*
X206509034Y-68288852D01*
X206507758Y-68291496D01*
X206506309Y-68294083D01*
X206504687Y-68296604D01*
X206502893Y-68299053D01*
X206500928Y-68301425D01*
X206498786Y-68303706D01*
X206497372Y-68305148D01*
X206495902Y-68306527D01*
X206494382Y-68307843D01*
X206492813Y-68309096D01*
X206491202Y-68310279D01*
X206489540Y-68311396D01*
X206487836Y-68312447D01*
X206486099Y-68313426D01*
X206484319Y-68314336D01*
X206482501Y-68315173D01*
X206480651Y-68315937D01*
X206478772Y-68316626D01*
X206476857Y-68317241D01*
X206474923Y-68317776D01*
X206472960Y-68318235D01*
X206470978Y-68318616D01*
X204638565Y-68575974D01*
X204634458Y-68576310D01*
X204630447Y-68576327D01*
X204626547Y-68576037D01*
X204622764Y-68575460D01*
X204619105Y-68574601D01*
X204615579Y-68573476D01*
X204612190Y-68572103D01*
X204608945Y-68570491D01*
X204605850Y-68568651D01*
X204602922Y-68566607D01*
X204600158Y-68564359D01*
X204597574Y-68561928D01*
X204595170Y-68559328D01*
X204592952Y-68556570D01*
X204590938Y-68553665D01*
X204589126Y-68550633D01*
X204587530Y-68547484D01*
X204586149Y-68544230D01*
X204584999Y-68540884D01*
X204584080Y-68537461D01*
X204583406Y-68533977D01*
X204582983Y-68530444D01*
X204582812Y-68526874D01*
X204582909Y-68523279D01*
X204583272Y-68519673D01*
X204583920Y-68516075D01*
X204584857Y-68512490D01*
X204586082Y-68508937D01*
X204587609Y-68505428D01*
X204589445Y-68501980D01*
X204591597Y-68498596D01*
X204594076Y-68495301D01*
X205823138Y-67109564D01*
X205826262Y-67106265D01*
X205829539Y-67103342D01*
X205832948Y-67100778D01*
X205836470Y-67098575D01*
X205840086Y-67096723D01*
X205843782Y-67095208D01*
X205847541Y-67094029D01*
X205851341Y-67093174D01*
X205855170Y-67092631D01*
X205859003Y-67092402D01*
X205862829Y-67092473D01*
G37*
X205862829Y-67092473D02*
X205866625Y-67092834D01*
X205870381Y-67093485D01*
X205874075Y-67094402D01*
X205877687Y-67095595D01*
X205881202Y-67097045D01*
X205884597Y-67098754D01*
X205887864Y-67100699D01*
X205890982Y-67102887D01*
X205893930Y-67105301D01*
X205896692Y-67107935D01*
X205899249Y-67110777D01*
X205901587Y-67113825D01*
X205903691Y-67117070D01*
X205905532Y-67120505D01*
X205907100Y-67124118D01*
X205908379Y-67127901D01*
X205909347Y-67131850D01*
X205909990Y-67135955D01*
X205910288Y-67140201D01*
X205910224Y-67144596D01*
X205909779Y-67149118D01*
X205905116Y-67191113D01*
X205902135Y-67232982D01*
X205900815Y-67274694D01*
X205901134Y-67316197D01*
X205903072Y-67357456D01*
X205906600Y-67398422D01*
X205911704Y-67439056D01*
X205918359Y-67479319D01*
X205926543Y-67519172D01*
X205936232Y-67558559D01*
X205947407Y-67597451D01*
X205960047Y-67635800D01*
X205974125Y-67673565D01*
X205989624Y-67710706D01*
X206006521Y-67747182D01*
X206024794Y-67782948D01*
X206044421Y-67817959D01*
X206065377Y-67852179D01*
X206087643Y-67885561D01*
X206111199Y-67918067D01*
X206136020Y-67949654D01*
X206162083Y-67980278D01*
X206189368Y-68009898D01*
X206217851Y-68038475D01*
X206247516Y-68065964D01*
X206278335Y-68092319D01*
X206310288Y-68117507D01*
X206343356Y-68141478D01*
X206377510Y-68164195D01*
X206412735Y-68185614D01*
X206449006Y-68205693D01*
X206486303Y-68224391D01*
X206489042Y-68225905D01*
X206491641Y-68227551D01*
X206494098Y-68229329D01*
X206496414Y-68231234D01*
X206498590Y-68233251D01*
X206500614Y-68235377D01*
X206502501Y-68237602D01*
X206504237Y-68239918D01*
X206505827Y-68242321D01*
X206507264Y-68244799D01*
X206508550Y-68247347D01*
X206509690Y-68249957D01*
X206510676Y-68252626D01*
X206511505Y-68255338D01*
X206512181Y-68258089D01*
X206512700Y-68260876D01*
X206513062Y-68263684D01*
X206513265Y-68266512D01*
X206513305Y-68269347D01*
X206513189Y-68272188D01*
X206512911Y-68275023D01*
X206512464Y-68277843D01*
X206511860Y-68280645D01*
X206511083Y-68283418D01*
X206510143Y-68286159D01*
X206509034Y-68288852D01*
X206507758Y-68291496D01*
X206506309Y-68294083D01*
X206504687Y-68296604D01*
X206502893Y-68299053D01*
X206500928Y-68301425D01*
X206498786Y-68303706D01*
X206497372Y-68305148D01*
X206495902Y-68306527D01*
X206494382Y-68307843D01*
X206492813Y-68309096D01*
X206491202Y-68310279D01*
X206489540Y-68311396D01*
X206487836Y-68312447D01*
X206486099Y-68313426D01*
X206484319Y-68314336D01*
X206482501Y-68315173D01*
X206480651Y-68315937D01*
X206478772Y-68316626D01*
X206476857Y-68317241D01*
X206474923Y-68317776D01*
X206472960Y-68318235D01*
X206470978Y-68318616D01*
X204638565Y-68575974D01*
X204634458Y-68576310D01*
X204630447Y-68576327D01*
X204626547Y-68576037D01*
X204622764Y-68575460D01*
X204619105Y-68574601D01*
X204615579Y-68573476D01*
X204612190Y-68572103D01*
X204608945Y-68570491D01*
X204605850Y-68568651D01*
X204602922Y-68566607D01*
X204600158Y-68564359D01*
X204597574Y-68561928D01*
X204595170Y-68559328D01*
X204592952Y-68556570D01*
X204590938Y-68553665D01*
X204589126Y-68550633D01*
X204587530Y-68547484D01*
X204586149Y-68544230D01*
X204584999Y-68540884D01*
X204584080Y-68537461D01*
X204583406Y-68533977D01*
X204582983Y-68530444D01*
X204582812Y-68526874D01*
X204582909Y-68523279D01*
X204583272Y-68519673D01*
X204583920Y-68516075D01*
X204584857Y-68512490D01*
X204586082Y-68508937D01*
X204587609Y-68505428D01*
X204589445Y-68501980D01*
X204591597Y-68498596D01*
X204594076Y-68495301D01*
X205823138Y-67109564D01*
X205826262Y-67106265D01*
X205829539Y-67103342D01*
X205832948Y-67100778D01*
X205836470Y-67098575D01*
X205840086Y-67096723D01*
X205843782Y-67095208D01*
X205847541Y-67094029D01*
X205851341Y-67093174D01*
X205855170Y-67092631D01*
X205859003Y-67092402D01*
X205862829Y-67092473D01*
D11*
X200660000Y-71755000D02*
X201930000Y-71755000D01*
X195580000Y-75565000D02*
X195580000Y-56515000D01*
X195580000Y-56515000D02*
X208280000Y-56515000D01*
X204470000Y-74295000D02*
X205740000Y-74295000D01*
X205740000Y-32385000D02*
X205740000Y-27305000D01*
X201930000Y-71755000D02*
X201930000Y-74295000D01*
X204470000Y-71755000D02*
X204470000Y-74295000D01*
D10*
X189170000Y-32325000D02*
X189170000Y-29845000D01*
X214690000Y-67945000D02*
X214690000Y-73025000D01*
D11*
X198120000Y-32385000D02*
X205740000Y-32385000D01*
X205740000Y-74295000D02*
X205740000Y-70485000D01*
D12*
X207121082Y-66796375D02*
X207063988Y-66889730D01*
X207063988Y-66889730D02*
X206998267Y-66984384D01*
X206998267Y-66984384D02*
X206923624Y-67080398D01*
X206923624Y-67080398D02*
X206839749Y-67177834D01*
X206839749Y-67177834D02*
X206746347Y-67276753D01*
X206746347Y-67276753D02*
X206643123Y-67377215D01*
X206643123Y-67377215D02*
X206529771Y-67479281D01*
X206529771Y-67479281D02*
X206405996Y-67583015D01*
X206405996Y-67583015D02*
X206271494Y-67688475D01*
X206271494Y-67688475D02*
X206125968Y-67795721D01*
X206125968Y-67795721D02*
X205969119Y-67904818D01*
X205969119Y-67904818D02*
X205800642Y-68015826D01*
X205800642Y-68015826D02*
X205620238Y-68128806D01*
X205620238Y-68128806D02*
X205427617Y-68243818D01*
X205427617Y-68243818D02*
X205222468Y-68360925D01*
X205222468Y-68360925D02*
X205004497Y-68480189D01*
X205004497Y-68480189D02*
X204878751Y-68247193D01*
X204878751Y-68247193D02*
X205092499Y-68130095D01*
X205092499Y-68130095D02*
X205293038Y-68015233D01*
X205293038Y-68015233D02*
X205480682Y-67902644D01*
X205480682Y-67902644D02*
X205655747Y-67792370D01*
X205655747Y-67792370D02*
X205818555Y-67684451D01*
X205818555Y-67684451D02*
X205969416Y-67578922D01*
X205969416Y-67578922D02*
X206108646Y-67475829D01*
X206108646Y-67475829D02*
X206236563Y-67375208D01*
X206236563Y-67375208D02*
X206353481Y-67277101D01*
X206353481Y-67277101D02*
X206459716Y-67181547D01*
X206459716Y-67181547D02*
X206555584Y-67088584D01*
X206555584Y-67088584D02*
X206641397Y-66998250D01*
X206641397Y-66998250D02*
X206717479Y-66910596D01*
X206717479Y-66910596D02*
X206784142Y-66825647D01*
X206784142Y-66825647D02*
X206841696Y-66743454D01*
X206841696Y-66743454D02*
X206890463Y-66664052D01*
X206890463Y-66664052D02*
X206911757Y-66625439D01*
X206911757Y-66625439D02*
X206931190Y-66587577D01*
X206931190Y-66587577D02*
X206948800Y-66550448D01*
X206948800Y-66550448D02*
X206964615Y-66514035D01*
X206964615Y-66514035D02*
X206978669Y-66478312D01*
X206978669Y-66478312D02*
X206990996Y-66443265D01*
X206990996Y-66443265D02*
X207001635Y-66408871D01*
X207001635Y-66408871D02*
X207010617Y-66375111D01*
X207010617Y-66375111D02*
X207017981Y-66341967D01*
X207017981Y-66341967D02*
X207023759Y-66309417D01*
X207023759Y-66309417D02*
X207027980Y-66277441D01*
X207027980Y-66277441D02*
X207030685Y-66246022D01*
X207030685Y-66246022D02*
X207031904Y-66215139D01*
X207031904Y-66215139D02*
X207031680Y-66184774D01*
X207031680Y-66184774D02*
X207030033Y-66154907D01*
X207030033Y-66154907D02*
X207027010Y-66125513D01*
X207027010Y-66125513D02*
X207022643Y-66096578D01*
X207022643Y-66096578D02*
X207016961Y-66068080D01*
X207016961Y-66068080D02*
X207010000Y-66040000D01*
X207010000Y-66040000D02*
X207001797Y-66012318D01*
X207001797Y-66012318D02*
X206981801Y-65958070D01*
X206981801Y-65958070D02*
X206957249Y-65905179D01*
X206957249Y-65905179D02*
X206928412Y-65853484D01*
X206928412Y-65853484D02*
X206895563Y-65802835D01*
X206895563Y-65802835D02*
X206858985Y-65753070D01*
X206858985Y-65753070D02*
X206818949Y-65704029D01*
X206818949Y-65704029D02*
X206775480Y-65655940D01*
X206775480Y-65655940D02*
X206728637Y-65609162D01*
X206728637Y-65609162D02*
X206678731Y-65563713D01*
X206678731Y-65563713D02*
X206626067Y-65519622D01*
X206626067Y-65519622D02*
X206570973Y-65476913D01*
X206570973Y-65476913D02*
X206513749Y-65435611D01*
X206513749Y-65435611D02*
X206454704Y-65395744D01*
X206454704Y-65395744D02*
X206394160Y-65357336D01*
X206394160Y-65357336D02*
X206332428Y-65320416D01*
X206332428Y-65320416D02*
X206269817Y-65285003D01*
X206269817Y-65285003D02*
X206143210Y-65218819D01*
X206143210Y-65218819D02*
X206016839Y-65158986D01*
X206016839Y-65158986D02*
X205893205Y-65105714D01*
X205893205Y-65105714D02*
X205775010Y-65059030D01*
X205775010Y-65059030D02*
X205664874Y-65018794D01*
X205664874Y-65018794D02*
X205565168Y-64984935D01*
X205565168Y-64984935D02*
X205478267Y-64957386D01*
X205478267Y-64957386D02*
X205352382Y-64920939D01*
X205352382Y-64920939D02*
X205306201Y-64908914D01*
X205306201Y-64908914D02*
X205369595Y-64651053D01*
X205369595Y-64651053D02*
X205418796Y-64663605D01*
X205418796Y-64663605D02*
X205476469Y-64679453D01*
X205476469Y-64679453D02*
X205552794Y-64701815D01*
X205552794Y-64701815D02*
X205645217Y-64730796D01*
X205645217Y-64730796D02*
X205696668Y-64747800D01*
X205696668Y-64747800D02*
X205751188Y-64766498D01*
X205751188Y-64766498D02*
X205808457Y-64786901D01*
X205808457Y-64786901D02*
X205868157Y-64809027D01*
X205868157Y-64809027D02*
X205929968Y-64832881D01*
X205929968Y-64832881D02*
X205993572Y-64858480D01*
X205993572Y-64858480D02*
X206125136Y-64914885D01*
X206125136Y-64914885D02*
X206260618Y-64978447D01*
X206260618Y-64978447D02*
X206329074Y-65013026D01*
X206329074Y-65013026D02*
X206397601Y-65049538D01*
X206397601Y-65049538D02*
X206465895Y-65088024D01*
X206465895Y-65088024D02*
X206533653Y-65128539D01*
X206533653Y-65128539D02*
X206600577Y-65171124D01*
X206600577Y-65171124D02*
X206666358Y-65215828D01*
X206666358Y-65215828D02*
X206730692Y-65262696D01*
X206730692Y-65262696D02*
X206793280Y-65311772D01*
X206793280Y-65311772D02*
X206853820Y-65363112D01*
X206853820Y-65363112D02*
X206912001Y-65416759D01*
X206912001Y-65416759D02*
X206967531Y-65472761D01*
X206967531Y-65472761D02*
X207020092Y-65531160D01*
X207020092Y-65531160D02*
X207069136Y-65592332D01*
X207069136Y-65592332D02*
X207114071Y-65656532D01*
X207114071Y-65656532D02*
X207154554Y-65723610D01*
X207154554Y-65723610D02*
X207190246Y-65793440D01*
X207190246Y-65793440D02*
X207220810Y-65865886D01*
X207220810Y-65865886D02*
X207245902Y-65940808D01*
X207245902Y-65940808D02*
X207256294Y-65979161D01*
X207256294Y-65979161D02*
X207265185Y-66018076D01*
X207265185Y-66018076D02*
X207272538Y-66057545D01*
X207272538Y-66057545D02*
X207278316Y-66097547D01*
X207278316Y-66097547D02*
X207282467Y-66138067D01*
X207282467Y-66138067D02*
X207284952Y-66179087D01*
X207284952Y-66179087D02*
X207285732Y-66220590D01*
X207285732Y-66220590D02*
X207284762Y-66262561D01*
X207284762Y-66262561D02*
X207281993Y-66304980D01*
X207281993Y-66304980D02*
X207277399Y-66347832D01*
X207277399Y-66347832D02*
X207270918Y-66391097D01*
X207270918Y-66391097D02*
X207262521Y-66434762D01*
X207262521Y-66434762D02*
X207252159Y-66478808D01*
X207252159Y-66478808D02*
X207239790Y-66523218D01*
X207239790Y-66523218D02*
X207225372Y-66567974D01*
X207225372Y-66567974D02*
X207208865Y-66613062D01*
X207208865Y-66613062D02*
X207190226Y-66658464D01*
X207190226Y-66658464D02*
X207169414Y-66704159D01*
X207169414Y-66704159D02*
X207146374Y-66750136D01*
X207146374Y-66750136D02*
X207121082Y-66796375D01*
X207121082Y-66796375D02*
X207121082Y-66796375D01*
G36*
X205418796Y-64663605D02*
G01*
X205476469Y-64679453D01*
X205552794Y-64701815D01*
X205645217Y-64730796D01*
X205696668Y-64747800D01*
X205751188Y-64766498D01*
X205808457Y-64786901D01*
X205868157Y-64809027D01*
X205929968Y-64832881D01*
X205993572Y-64858480D01*
X206125136Y-64914885D01*
X206260618Y-64978447D01*
X206329074Y-65013026D01*
X206397601Y-65049538D01*
X206465895Y-65088024D01*
X206533653Y-65128539D01*
X206600577Y-65171124D01*
X206666358Y-65215828D01*
X206730692Y-65262696D01*
X206793280Y-65311772D01*
X206853820Y-65363112D01*
X206912001Y-65416759D01*
X206967531Y-65472761D01*
X207020092Y-65531160D01*
X207069136Y-65592332D01*
X207114071Y-65656532D01*
X207154554Y-65723610D01*
X207190246Y-65793440D01*
X207220810Y-65865886D01*
X207245902Y-65940808D01*
X207256294Y-65979161D01*
X207265185Y-66018076D01*
X207272538Y-66057545D01*
X207278316Y-66097547D01*
X207282467Y-66138067D01*
X207284952Y-66179087D01*
X207285732Y-66220590D01*
X207284762Y-66262561D01*
X207281993Y-66304980D01*
X207277399Y-66347832D01*
X207270918Y-66391097D01*
X207262521Y-66434762D01*
X207252159Y-66478808D01*
X207239790Y-66523218D01*
X207225372Y-66567974D01*
X207208865Y-66613062D01*
X207190226Y-66658464D01*
X207169414Y-66704159D01*
X207146374Y-66750136D01*
X207121082Y-66796375D01*
X207063988Y-66889730D01*
X206998267Y-66984384D01*
X206923624Y-67080398D01*
X206839749Y-67177834D01*
X206746347Y-67276753D01*
X206643123Y-67377215D01*
X206529771Y-67479281D01*
X206405996Y-67583015D01*
X206271494Y-67688475D01*
X206125968Y-67795721D01*
X205969119Y-67904818D01*
X205800642Y-68015826D01*
X205620238Y-68128806D01*
X205427617Y-68243818D01*
X205222468Y-68360925D01*
X205004497Y-68480189D01*
X204878751Y-68247193D01*
X205092499Y-68130095D01*
X205293038Y-68015233D01*
X205480682Y-67902644D01*
X205655747Y-67792370D01*
X205818555Y-67684451D01*
X205969416Y-67578922D01*
X206108646Y-67475829D01*
X206236563Y-67375208D01*
X206353481Y-67277101D01*
X206459716Y-67181547D01*
X206555584Y-67088584D01*
X206641397Y-66998250D01*
X206717479Y-66910596D01*
X206784142Y-66825647D01*
X206841696Y-66743454D01*
X206890463Y-66664052D01*
X206911757Y-66625439D01*
X206931190Y-66587577D01*
X206948800Y-66550448D01*
X206964615Y-66514035D01*
X206978669Y-66478312D01*
X206990996Y-66443265D01*
X207001635Y-66408871D01*
X207010617Y-66375111D01*
X207017981Y-66341967D01*
X207023759Y-66309417D01*
X207027980Y-66277441D01*
X207030685Y-66246022D01*
X207031904Y-66215139D01*
X207031680Y-66184774D01*
X207030033Y-66154907D01*
X207027010Y-66125513D01*
X207022643Y-66096578D01*
X207016961Y-66068080D01*
X207010000Y-66040000D01*
X207001797Y-66012318D01*
X206981801Y-65958070D01*
X206957249Y-65905179D01*
X206928412Y-65853484D01*
X206895563Y-65802835D01*
X206858985Y-65753070D01*
X206818949Y-65704029D01*
X206775480Y-65655940D01*
X206728637Y-65609162D01*
X206678731Y-65563713D01*
X206626067Y-65519622D01*
X206570973Y-65476913D01*
X206513749Y-65435611D01*
X206454704Y-65395744D01*
X206394160Y-65357336D01*
X206332428Y-65320416D01*
X206269817Y-65285003D01*
X206143210Y-65218819D01*
X206016839Y-65158986D01*
X205893205Y-65105714D01*
X205775010Y-65059030D01*
X205664874Y-65018794D01*
X205565168Y-64984935D01*
X205478267Y-64957386D01*
X205352382Y-64920939D01*
X205306201Y-64908914D01*
X205369595Y-64651053D01*
X205418796Y-64663605D01*
G37*
X205418796Y-64663605D02*
X205476469Y-64679453D01*
X205552794Y-64701815D01*
X205645217Y-64730796D01*
X205696668Y-64747800D01*
X205751188Y-64766498D01*
X205808457Y-64786901D01*
X205868157Y-64809027D01*
X205929968Y-64832881D01*
X205993572Y-64858480D01*
X206125136Y-64914885D01*
X206260618Y-64978447D01*
X206329074Y-65013026D01*
X206397601Y-65049538D01*
X206465895Y-65088024D01*
X206533653Y-65128539D01*
X206600577Y-65171124D01*
X206666358Y-65215828D01*
X206730692Y-65262696D01*
X206793280Y-65311772D01*
X206853820Y-65363112D01*
X206912001Y-65416759D01*
X206967531Y-65472761D01*
X207020092Y-65531160D01*
X207069136Y-65592332D01*
X207114071Y-65656532D01*
X207154554Y-65723610D01*
X207190246Y-65793440D01*
X207220810Y-65865886D01*
X207245902Y-65940808D01*
X207256294Y-65979161D01*
X207265185Y-66018076D01*
X207272538Y-66057545D01*
X207278316Y-66097547D01*
X207282467Y-66138067D01*
X207284952Y-66179087D01*
X207285732Y-66220590D01*
X207284762Y-66262561D01*
X207281993Y-66304980D01*
X207277399Y-66347832D01*
X207270918Y-66391097D01*
X207262521Y-66434762D01*
X207252159Y-66478808D01*
X207239790Y-66523218D01*
X207225372Y-66567974D01*
X207208865Y-66613062D01*
X207190226Y-66658464D01*
X207169414Y-66704159D01*
X207146374Y-66750136D01*
X207121082Y-66796375D01*
X207063988Y-66889730D01*
X206998267Y-66984384D01*
X206923624Y-67080398D01*
X206839749Y-67177834D01*
X206746347Y-67276753D01*
X206643123Y-67377215D01*
X206529771Y-67479281D01*
X206405996Y-67583015D01*
X206271494Y-67688475D01*
X206125968Y-67795721D01*
X205969119Y-67904818D01*
X205800642Y-68015826D01*
X205620238Y-68128806D01*
X205427617Y-68243818D01*
X205222468Y-68360925D01*
X205004497Y-68480189D01*
X204878751Y-68247193D01*
X205092499Y-68130095D01*
X205293038Y-68015233D01*
X205480682Y-67902644D01*
X205655747Y-67792370D01*
X205818555Y-67684451D01*
X205969416Y-67578922D01*
X206108646Y-67475829D01*
X206236563Y-67375208D01*
X206353481Y-67277101D01*
X206459716Y-67181547D01*
X206555584Y-67088584D01*
X206641397Y-66998250D01*
X206717479Y-66910596D01*
X206784142Y-66825647D01*
X206841696Y-66743454D01*
X206890463Y-66664052D01*
X206911757Y-66625439D01*
X206931190Y-66587577D01*
X206948800Y-66550448D01*
X206964615Y-66514035D01*
X206978669Y-66478312D01*
X206990996Y-66443265D01*
X207001635Y-66408871D01*
X207010617Y-66375111D01*
X207017981Y-66341967D01*
X207023759Y-66309417D01*
X207027980Y-66277441D01*
X207030685Y-66246022D01*
X207031904Y-66215139D01*
X207031680Y-66184774D01*
X207030033Y-66154907D01*
X207027010Y-66125513D01*
X207022643Y-66096578D01*
X207016961Y-66068080D01*
X207010000Y-66040000D01*
X207001797Y-66012318D01*
X206981801Y-65958070D01*
X206957249Y-65905179D01*
X206928412Y-65853484D01*
X206895563Y-65802835D01*
X206858985Y-65753070D01*
X206818949Y-65704029D01*
X206775480Y-65655940D01*
X206728637Y-65609162D01*
X206678731Y-65563713D01*
X206626067Y-65519622D01*
X206570973Y-65476913D01*
X206513749Y-65435611D01*
X206454704Y-65395744D01*
X206394160Y-65357336D01*
X206332428Y-65320416D01*
X206269817Y-65285003D01*
X206143210Y-65218819D01*
X206016839Y-65158986D01*
X205893205Y-65105714D01*
X205775010Y-65059030D01*
X205664874Y-65018794D01*
X205565168Y-64984935D01*
X205478267Y-64957386D01*
X205352382Y-64920939D01*
X205306201Y-64908914D01*
X205369595Y-64651053D01*
X205418796Y-64663605D01*
D11*
X198120000Y-27305000D02*
X198120000Y-32385000D01*
D10*
X189170000Y-29845000D02*
G75*
G02*
X191710000Y-27305000I2540000J0D01*
G01*
X189170000Y-67945000D02*
X189170000Y-73025000D01*
D11*
X196850000Y-74295000D02*
X200660000Y-74295000D01*
X203200000Y-71755000D02*
X204470000Y-71755000D01*
X208280000Y-56515000D02*
X208280000Y-75565000D01*
D10*
X214690000Y-32325000D02*
X214690000Y-29845000D01*
X212150000Y-27305000D02*
G75*
G02*
X214690000Y-29845000I0J-2540000D01*
G01*
X191710000Y-75565000D02*
G75*
G02*
X189170000Y-73025000I0J2540000D01*
G01*
D13*
X236773357Y-67808928D02*
X236827785Y-67645642D01*
X236882214Y-67591214D01*
X236991071Y-67536785D01*
X237154357Y-67536785D01*
X237263214Y-67591214D01*
X237317642Y-67645642D01*
X237372071Y-67754500D01*
X237372071Y-68189928D01*
X236229071Y-68189928D01*
X236229071Y-67808928D01*
X236283500Y-67700071D01*
X236337928Y-67645642D01*
X236446785Y-67591214D01*
X236555642Y-67591214D01*
X236664500Y-67645642D01*
X236718928Y-67700071D01*
X236773357Y-67808928D01*
X236773357Y-68189928D01*
X236610071Y-66557071D02*
X237372071Y-66557071D01*
X236610071Y-67046928D02*
X237208785Y-67046928D01*
X237317642Y-66992500D01*
X237372071Y-66883642D01*
X237372071Y-66720357D01*
X237317642Y-66611500D01*
X237263214Y-66557071D01*
X236610071Y-66176071D02*
X236610071Y-65740642D01*
X236229071Y-66012785D02*
X237208785Y-66012785D01*
X237317642Y-65958357D01*
X237372071Y-65849500D01*
X237372071Y-65740642D01*
X236610071Y-65522928D02*
X236610071Y-65087500D01*
X236229071Y-65359642D02*
X237208785Y-65359642D01*
X237317642Y-65305214D01*
X237372071Y-65196357D01*
X237372071Y-65087500D01*
X237372071Y-64543214D02*
X237317642Y-64652071D01*
X237263214Y-64706500D01*
X237154357Y-64760928D01*
X236827785Y-64760928D01*
X236718928Y-64706500D01*
X236664500Y-64652071D01*
X236610071Y-64543214D01*
X236610071Y-64379928D01*
X236664500Y-64271071D01*
X236718928Y-64216642D01*
X236827785Y-64162214D01*
X237154357Y-64162214D01*
X237263214Y-64216642D01*
X237317642Y-64271071D01*
X237372071Y-64379928D01*
X237372071Y-64543214D01*
X236610071Y-63672357D02*
X237372071Y-63672357D01*
X236718928Y-63672357D02*
X236664500Y-63617928D01*
X236610071Y-63509071D01*
X236610071Y-63345785D01*
X236664500Y-63236928D01*
X236773357Y-63182500D01*
X237372071Y-63182500D01*
X236610071Y-61821785D02*
X236610071Y-61005357D01*
X236120214Y-61495214D02*
X237589785Y-61821785D01*
X237099928Y-61114214D02*
X237099928Y-61930642D01*
X237589785Y-61440785D02*
X236120214Y-61114214D01*
X237372071Y-60025642D02*
X237372071Y-60678785D01*
X237372071Y-60352214D02*
X236229071Y-60352214D01*
X236392357Y-60461071D01*
X236501214Y-60569928D01*
X236555642Y-60678785D01*
X236773357Y-55108928D02*
X236827785Y-54945642D01*
X236882214Y-54891214D01*
X236991071Y-54836785D01*
X237154357Y-54836785D01*
X237263214Y-54891214D01*
X237317642Y-54945642D01*
X237372071Y-55054500D01*
X237372071Y-55489928D01*
X236229071Y-55489928D01*
X236229071Y-55108928D01*
X236283500Y-55000071D01*
X236337928Y-54945642D01*
X236446785Y-54891214D01*
X236555642Y-54891214D01*
X236664500Y-54945642D01*
X236718928Y-55000071D01*
X236773357Y-55108928D01*
X236773357Y-55489928D01*
X236610071Y-53857071D02*
X237372071Y-53857071D01*
X236610071Y-54346928D02*
X237208785Y-54346928D01*
X237317642Y-54292500D01*
X237372071Y-54183642D01*
X237372071Y-54020357D01*
X237317642Y-53911500D01*
X237263214Y-53857071D01*
X236610071Y-53476071D02*
X236610071Y-53040642D01*
X236229071Y-53312785D02*
X237208785Y-53312785D01*
X237317642Y-53258357D01*
X237372071Y-53149500D01*
X237372071Y-53040642D01*
X236610071Y-52822928D02*
X236610071Y-52387500D01*
X236229071Y-52659642D02*
X237208785Y-52659642D01*
X237317642Y-52605214D01*
X237372071Y-52496357D01*
X237372071Y-52387500D01*
X237372071Y-51843214D02*
X237317642Y-51952071D01*
X237263214Y-52006500D01*
X237154357Y-52060928D01*
X236827785Y-52060928D01*
X236718928Y-52006500D01*
X236664500Y-51952071D01*
X236610071Y-51843214D01*
X236610071Y-51679928D01*
X236664500Y-51571071D01*
X236718928Y-51516642D01*
X236827785Y-51462214D01*
X237154357Y-51462214D01*
X237263214Y-51516642D01*
X237317642Y-51571071D01*
X237372071Y-51679928D01*
X237372071Y-51843214D01*
X236610071Y-50972357D02*
X237372071Y-50972357D01*
X236718928Y-50972357D02*
X236664500Y-50917928D01*
X236610071Y-50809071D01*
X236610071Y-50645785D01*
X236664500Y-50536928D01*
X236773357Y-50482500D01*
X237372071Y-50482500D01*
X236610071Y-49121785D02*
X236610071Y-48305357D01*
X236120214Y-48795214D02*
X237589785Y-49121785D01*
X237099928Y-48414214D02*
X237099928Y-49230642D01*
X237589785Y-48740785D02*
X236120214Y-48414214D01*
X236337928Y-47978785D02*
X236283500Y-47924357D01*
X236229071Y-47815500D01*
X236229071Y-47543357D01*
X236283500Y-47434500D01*
X236337928Y-47380071D01*
X236446785Y-47325642D01*
X236555642Y-47325642D01*
X236718928Y-47380071D01*
X237372071Y-48033214D01*
X237372071Y-47325642D01*
D11*
X203191904Y-30392619D02*
X203191904Y-29583095D01*
X203144285Y-29487857D01*
X203096666Y-29440238D01*
X203001428Y-29392619D01*
X202810952Y-29392619D01*
X202715714Y-29440238D01*
X202668095Y-29487857D01*
X202620476Y-29583095D01*
X202620476Y-30392619D01*
X202191904Y-29440238D02*
X202049047Y-29392619D01*
X201810952Y-29392619D01*
X201715714Y-29440238D01*
X201668095Y-29487857D01*
X201620476Y-29583095D01*
X201620476Y-29678333D01*
X201668095Y-29773571D01*
X201715714Y-29821190D01*
X201810952Y-29868809D01*
X202001428Y-29916428D01*
X202096666Y-29964047D01*
X202144285Y-30011666D01*
X202191904Y-30106904D01*
X202191904Y-30202142D01*
X202144285Y-30297380D01*
X202096666Y-30345000D01*
X202001428Y-30392619D01*
X201763333Y-30392619D01*
X201620476Y-30345000D01*
X200858571Y-29916428D02*
X200715714Y-29868809D01*
X200668095Y-29821190D01*
X200620476Y-29725952D01*
X200620476Y-29583095D01*
X200668095Y-29487857D01*
X200715714Y-29440238D01*
X200810952Y-29392619D01*
X201191904Y-29392619D01*
X201191904Y-30392619D01*
X200858571Y-30392619D01*
X200763333Y-30345000D01*
X200715714Y-30297380D01*
X200668095Y-30202142D01*
X200668095Y-30106904D01*
X200715714Y-30011666D01*
X200763333Y-29964047D01*
X200858571Y-29916428D01*
X201191904Y-29916428D01*
D13*
X236773357Y-43043928D02*
X236827785Y-42880642D01*
X236882214Y-42826214D01*
X236991071Y-42771785D01*
X237154357Y-42771785D01*
X237263214Y-42826214D01*
X237317642Y-42880642D01*
X237372071Y-42989500D01*
X237372071Y-43424928D01*
X236229071Y-43424928D01*
X236229071Y-43043928D01*
X236283500Y-42935071D01*
X236337928Y-42880642D01*
X236446785Y-42826214D01*
X236555642Y-42826214D01*
X236664500Y-42880642D01*
X236718928Y-42935071D01*
X236773357Y-43043928D01*
X236773357Y-43424928D01*
X236610071Y-41792071D02*
X237372071Y-41792071D01*
X236610071Y-42281928D02*
X237208785Y-42281928D01*
X237317642Y-42227500D01*
X237372071Y-42118642D01*
X237372071Y-41955357D01*
X237317642Y-41846500D01*
X237263214Y-41792071D01*
X236610071Y-41411071D02*
X236610071Y-40975642D01*
X236229071Y-41247785D02*
X237208785Y-41247785D01*
X237317642Y-41193357D01*
X237372071Y-41084500D01*
X237372071Y-40975642D01*
X236610071Y-40757928D02*
X236610071Y-40322500D01*
X236229071Y-40594642D02*
X237208785Y-40594642D01*
X237317642Y-40540214D01*
X237372071Y-40431357D01*
X237372071Y-40322500D01*
X237372071Y-39778214D02*
X237317642Y-39887071D01*
X237263214Y-39941500D01*
X237154357Y-39995928D01*
X236827785Y-39995928D01*
X236718928Y-39941500D01*
X236664500Y-39887071D01*
X236610071Y-39778214D01*
X236610071Y-39614928D01*
X236664500Y-39506071D01*
X236718928Y-39451642D01*
X236827785Y-39397214D01*
X237154357Y-39397214D01*
X237263214Y-39451642D01*
X237317642Y-39506071D01*
X237372071Y-39614928D01*
X237372071Y-39778214D01*
X236610071Y-38907357D02*
X237372071Y-38907357D01*
X236718928Y-38907357D02*
X236664500Y-38852928D01*
X236610071Y-38744071D01*
X236610071Y-38580785D01*
X236664500Y-38471928D01*
X236773357Y-38417500D01*
X237372071Y-38417500D01*
X236610071Y-37056785D02*
X236610071Y-36240357D01*
X236120214Y-36730214D02*
X237589785Y-37056785D01*
X237099928Y-36349214D02*
X237099928Y-37165642D01*
X237589785Y-36675785D02*
X236120214Y-36349214D01*
X236229071Y-35968214D02*
X236229071Y-35260642D01*
X236664500Y-35641642D01*
X236664500Y-35478357D01*
X236718928Y-35369500D01*
X236773357Y-35315071D01*
X236882214Y-35260642D01*
X237154357Y-35260642D01*
X237263214Y-35315071D01*
X237317642Y-35369500D01*
X237372071Y-35478357D01*
X237372071Y-35804928D01*
X237317642Y-35913785D01*
X237263214Y-35968214D01*
D12*
X202959269Y-64066198D02*
X202959269Y-64550007D01*
X201943269Y-64550007D01*
X202959269Y-63727531D02*
X201943269Y-63727531D01*
X202668983Y-63388864D01*
X201943269Y-63050198D01*
X202959269Y-63050198D01*
X201943269Y-62663150D02*
X201943269Y-62034198D01*
X202330316Y-62372864D01*
X202330316Y-62227722D01*
X202378697Y-62130960D01*
X202427078Y-62082579D01*
X202523840Y-62034198D01*
X202765745Y-62034198D01*
X202862507Y-62082579D01*
X202910888Y-62130960D01*
X202959269Y-62227722D01*
X202959269Y-62518007D01*
X202910888Y-62614769D01*
X202862507Y-62663150D01*
X202281935Y-61163341D02*
X202959269Y-61163341D01*
X201894888Y-61405245D02*
X202620602Y-61647150D01*
X202620602Y-61018198D01*
X204595029Y-66219150D02*
X204546648Y-66315912D01*
X204498267Y-66364293D01*
X204401505Y-66412674D01*
X204111219Y-66412674D01*
X204014457Y-66364293D01*
X203966076Y-66315912D01*
X203917695Y-66219150D01*
X203917695Y-66074007D01*
X203966076Y-65977245D01*
X204014457Y-65928864D01*
X204111219Y-65880484D01*
X204401505Y-65880484D01*
X204498267Y-65928864D01*
X204546648Y-65977245D01*
X204595029Y-66074007D01*
X204595029Y-66219150D01*
X204595029Y-65445055D02*
X203917695Y-65445055D01*
X204111219Y-65445055D02*
X204014457Y-65396674D01*
X203966076Y-65348293D01*
X203917695Y-65251531D01*
X203917695Y-65154769D01*
X204546648Y-64090388D02*
X204595029Y-63993626D01*
X204595029Y-63800103D01*
X204546648Y-63703341D01*
X204449886Y-63654960D01*
X204401505Y-63654960D01*
X204304743Y-63703341D01*
X204256362Y-63800103D01*
X204256362Y-63945245D01*
X204207981Y-64042007D01*
X204111219Y-64090388D01*
X204062838Y-64090388D01*
X203966076Y-64042007D01*
X203917695Y-63945245D01*
X203917695Y-63800103D01*
X203966076Y-63703341D01*
X204595029Y-63219531D02*
X203917695Y-63219531D01*
X203579029Y-63219531D02*
X203627410Y-63267912D01*
X203675790Y-63219531D01*
X203627410Y-63171150D01*
X203579029Y-63219531D01*
X203675790Y-63219531D01*
X204595029Y-62735722D02*
X203917695Y-62735722D01*
X204014457Y-62735722D02*
X203966076Y-62687341D01*
X203917695Y-62590579D01*
X203917695Y-62445436D01*
X203966076Y-62348674D01*
X204062838Y-62300293D01*
X204595029Y-62300293D01*
X204062838Y-62300293D02*
X203966076Y-62251912D01*
X203917695Y-62155150D01*
X203917695Y-62010007D01*
X203966076Y-61913245D01*
X204062838Y-61864864D01*
X204595029Y-61864864D01*
X204595029Y-61381055D02*
X203917695Y-61381055D01*
X203579029Y-61381055D02*
X203627410Y-61429436D01*
X203675790Y-61381055D01*
X203627410Y-61332674D01*
X203579029Y-61381055D01*
X203675790Y-61381055D01*
X204595029Y-60752103D02*
X204546648Y-60848864D01*
X204449886Y-60897245D01*
X203579029Y-60897245D01*
X204595029Y-59929626D02*
X204062838Y-59929626D01*
X203966076Y-59978007D01*
X203917695Y-60074769D01*
X203917695Y-60268293D01*
X203966076Y-60365055D01*
X204546648Y-59929626D02*
X204595029Y-60026388D01*
X204595029Y-60268293D01*
X204546648Y-60365055D01*
X204449886Y-60413436D01*
X204353124Y-60413436D01*
X204256362Y-60365055D01*
X204207981Y-60268293D01*
X204207981Y-60026388D01*
X204159600Y-59929626D01*
X204595029Y-59445817D02*
X203917695Y-59445817D01*
X204111219Y-59445817D02*
X204014457Y-59397436D01*
X203966076Y-59349055D01*
X203917695Y-59252293D01*
X203917695Y-59155531D01*
D11*
%TO.C,R2*%
X170632380Y-55411666D02*
X170156190Y-55745000D01*
X170632380Y-55983095D02*
X169632380Y-55983095D01*
X169632380Y-55602142D01*
X169680000Y-55506904D01*
X169727619Y-55459285D01*
X169822857Y-55411666D01*
X169965714Y-55411666D01*
X170060952Y-55459285D01*
X170108571Y-55506904D01*
X170156190Y-55602142D01*
X170156190Y-55983095D01*
X169727619Y-55030714D02*
X169680000Y-54983095D01*
X169632380Y-54887857D01*
X169632380Y-54649761D01*
X169680000Y-54554523D01*
X169727619Y-54506904D01*
X169822857Y-54459285D01*
X169918095Y-54459285D01*
X170060952Y-54506904D01*
X170632380Y-55078333D01*
X170632380Y-54459285D01*
%TO.C,R9*%
X176363333Y-37917380D02*
X176030000Y-37441190D01*
X175791904Y-37917380D02*
X175791904Y-36917380D01*
X176172857Y-36917380D01*
X176268095Y-36965000D01*
X176315714Y-37012619D01*
X176363333Y-37107857D01*
X176363333Y-37250714D01*
X176315714Y-37345952D01*
X176268095Y-37393571D01*
X176172857Y-37441190D01*
X175791904Y-37441190D01*
X176839523Y-37917380D02*
X177030000Y-37917380D01*
X177125238Y-37869761D01*
X177172857Y-37822142D01*
X177268095Y-37679285D01*
X177315714Y-37488809D01*
X177315714Y-37107857D01*
X177268095Y-37012619D01*
X177220476Y-36965000D01*
X177125238Y-36917380D01*
X176934761Y-36917380D01*
X176839523Y-36965000D01*
X176791904Y-37012619D01*
X176744285Y-37107857D01*
X176744285Y-37345952D01*
X176791904Y-37441190D01*
X176839523Y-37488809D01*
X176934761Y-37536428D01*
X177125238Y-37536428D01*
X177220476Y-37488809D01*
X177268095Y-37441190D01*
X177315714Y-37345952D01*
%TO.C,R7*%
X183332380Y-55411666D02*
X182856190Y-55745000D01*
X183332380Y-55983095D02*
X182332380Y-55983095D01*
X182332380Y-55602142D01*
X182380000Y-55506904D01*
X182427619Y-55459285D01*
X182522857Y-55411666D01*
X182665714Y-55411666D01*
X182760952Y-55459285D01*
X182808571Y-55506904D01*
X182856190Y-55602142D01*
X182856190Y-55983095D01*
X182332380Y-55078333D02*
X182332380Y-54411666D01*
X183332380Y-54840238D01*
%TO.C,SW3*%
X230909761Y-40703333D02*
X230957380Y-40560476D01*
X230957380Y-40322380D01*
X230909761Y-40227142D01*
X230862142Y-40179523D01*
X230766904Y-40131904D01*
X230671666Y-40131904D01*
X230576428Y-40179523D01*
X230528809Y-40227142D01*
X230481190Y-40322380D01*
X230433571Y-40512857D01*
X230385952Y-40608095D01*
X230338333Y-40655714D01*
X230243095Y-40703333D01*
X230147857Y-40703333D01*
X230052619Y-40655714D01*
X230005000Y-40608095D01*
X229957380Y-40512857D01*
X229957380Y-40274761D01*
X230005000Y-40131904D01*
X229957380Y-39798571D02*
X230957380Y-39560476D01*
X230243095Y-39370000D01*
X230957380Y-39179523D01*
X229957380Y-38941428D01*
X229957380Y-38655714D02*
X229957380Y-38036666D01*
X230338333Y-38370000D01*
X230338333Y-38227142D01*
X230385952Y-38131904D01*
X230433571Y-38084285D01*
X230528809Y-38036666D01*
X230766904Y-38036666D01*
X230862142Y-38084285D01*
X230909761Y-38131904D01*
X230957380Y-38227142D01*
X230957380Y-38512857D01*
X230909761Y-38608095D01*
X230862142Y-38655714D01*
%TO.C,R12*%
X221517380Y-64777857D02*
X221041190Y-65111190D01*
X221517380Y-65349285D02*
X220517380Y-65349285D01*
X220517380Y-64968333D01*
X220565000Y-64873095D01*
X220612619Y-64825476D01*
X220707857Y-64777857D01*
X220850714Y-64777857D01*
X220945952Y-64825476D01*
X220993571Y-64873095D01*
X221041190Y-64968333D01*
X221041190Y-65349285D01*
X221517380Y-63825476D02*
X221517380Y-64396904D01*
X221517380Y-64111190D02*
X220517380Y-64111190D01*
X220660238Y-64206428D01*
X220755476Y-64301666D01*
X220803095Y-64396904D01*
X220612619Y-63444523D02*
X220565000Y-63396904D01*
X220517380Y-63301666D01*
X220517380Y-63063571D01*
X220565000Y-62968333D01*
X220612619Y-62920714D01*
X220707857Y-62873095D01*
X220803095Y-62873095D01*
X220945952Y-62920714D01*
X221517380Y-63492142D01*
X221517380Y-62873095D01*
%TO.C,R3*%
X173172380Y-55411666D02*
X172696190Y-55745000D01*
X173172380Y-55983095D02*
X172172380Y-55983095D01*
X172172380Y-55602142D01*
X172220000Y-55506904D01*
X172267619Y-55459285D01*
X172362857Y-55411666D01*
X172505714Y-55411666D01*
X172600952Y-55459285D01*
X172648571Y-55506904D01*
X172696190Y-55602142D01*
X172696190Y-55983095D01*
X172172380Y-55078333D02*
X172172380Y-54459285D01*
X172553333Y-54792619D01*
X172553333Y-54649761D01*
X172600952Y-54554523D01*
X172648571Y-54506904D01*
X172743809Y-54459285D01*
X172981904Y-54459285D01*
X173077142Y-54506904D01*
X173124761Y-54554523D01*
X173172380Y-54649761D01*
X173172380Y-54935476D01*
X173124761Y-55030714D01*
X173077142Y-55078333D01*
%TO.C,R8*%
X185872380Y-55411666D02*
X185396190Y-55745000D01*
X185872380Y-55983095D02*
X184872380Y-55983095D01*
X184872380Y-55602142D01*
X184920000Y-55506904D01*
X184967619Y-55459285D01*
X185062857Y-55411666D01*
X185205714Y-55411666D01*
X185300952Y-55459285D01*
X185348571Y-55506904D01*
X185396190Y-55602142D01*
X185396190Y-55983095D01*
X185300952Y-54840238D02*
X185253333Y-54935476D01*
X185205714Y-54983095D01*
X185110476Y-55030714D01*
X185062857Y-55030714D01*
X184967619Y-54983095D01*
X184920000Y-54935476D01*
X184872380Y-54840238D01*
X184872380Y-54649761D01*
X184920000Y-54554523D01*
X184967619Y-54506904D01*
X185062857Y-54459285D01*
X185110476Y-54459285D01*
X185205714Y-54506904D01*
X185253333Y-54554523D01*
X185300952Y-54649761D01*
X185300952Y-54840238D01*
X185348571Y-54935476D01*
X185396190Y-54983095D01*
X185491428Y-55030714D01*
X185681904Y-55030714D01*
X185777142Y-54983095D01*
X185824761Y-54935476D01*
X185872380Y-54840238D01*
X185872380Y-54649761D01*
X185824761Y-54554523D01*
X185777142Y-54506904D01*
X185681904Y-54459285D01*
X185491428Y-54459285D01*
X185396190Y-54506904D01*
X185348571Y-54554523D01*
X185300952Y-54649761D01*
%TO.C,R14*%
X221517380Y-39377857D02*
X221041190Y-39711190D01*
X221517380Y-39949285D02*
X220517380Y-39949285D01*
X220517380Y-39568333D01*
X220565000Y-39473095D01*
X220612619Y-39425476D01*
X220707857Y-39377857D01*
X220850714Y-39377857D01*
X220945952Y-39425476D01*
X220993571Y-39473095D01*
X221041190Y-39568333D01*
X221041190Y-39949285D01*
X221517380Y-38425476D02*
X221517380Y-38996904D01*
X221517380Y-38711190D02*
X220517380Y-38711190D01*
X220660238Y-38806428D01*
X220755476Y-38901666D01*
X220803095Y-38996904D01*
X220850714Y-37568333D02*
X221517380Y-37568333D01*
X220469761Y-37806428D02*
X221184047Y-38044523D01*
X221184047Y-37425476D01*
%TO.C,R13*%
X221517380Y-52077857D02*
X221041190Y-52411190D01*
X221517380Y-52649285D02*
X220517380Y-52649285D01*
X220517380Y-52268333D01*
X220565000Y-52173095D01*
X220612619Y-52125476D01*
X220707857Y-52077857D01*
X220850714Y-52077857D01*
X220945952Y-52125476D01*
X220993571Y-52173095D01*
X221041190Y-52268333D01*
X221041190Y-52649285D01*
X221517380Y-51125476D02*
X221517380Y-51696904D01*
X221517380Y-51411190D02*
X220517380Y-51411190D01*
X220660238Y-51506428D01*
X220755476Y-51601666D01*
X220803095Y-51696904D01*
X220517380Y-50792142D02*
X220517380Y-50173095D01*
X220898333Y-50506428D01*
X220898333Y-50363571D01*
X220945952Y-50268333D01*
X220993571Y-50220714D01*
X221088809Y-50173095D01*
X221326904Y-50173095D01*
X221422142Y-50220714D01*
X221469761Y-50268333D01*
X221517380Y-50363571D01*
X221517380Y-50649285D01*
X221469761Y-50744523D01*
X221422142Y-50792142D01*
%TO.C,R11*%
X175887142Y-34107380D02*
X175553809Y-33631190D01*
X175315714Y-34107380D02*
X175315714Y-33107380D01*
X175696666Y-33107380D01*
X175791904Y-33155000D01*
X175839523Y-33202619D01*
X175887142Y-33297857D01*
X175887142Y-33440714D01*
X175839523Y-33535952D01*
X175791904Y-33583571D01*
X175696666Y-33631190D01*
X175315714Y-33631190D01*
X176839523Y-34107380D02*
X176268095Y-34107380D01*
X176553809Y-34107380D02*
X176553809Y-33107380D01*
X176458571Y-33250238D01*
X176363333Y-33345476D01*
X176268095Y-33393095D01*
X177791904Y-34107380D02*
X177220476Y-34107380D01*
X177506190Y-34107380D02*
X177506190Y-33107380D01*
X177410952Y-33250238D01*
X177315714Y-33345476D01*
X177220476Y-33393095D01*
%TO.C,SW1*%
X230909761Y-65468333D02*
X230957380Y-65325476D01*
X230957380Y-65087380D01*
X230909761Y-64992142D01*
X230862142Y-64944523D01*
X230766904Y-64896904D01*
X230671666Y-64896904D01*
X230576428Y-64944523D01*
X230528809Y-64992142D01*
X230481190Y-65087380D01*
X230433571Y-65277857D01*
X230385952Y-65373095D01*
X230338333Y-65420714D01*
X230243095Y-65468333D01*
X230147857Y-65468333D01*
X230052619Y-65420714D01*
X230005000Y-65373095D01*
X229957380Y-65277857D01*
X229957380Y-65039761D01*
X230005000Y-64896904D01*
X229957380Y-64563571D02*
X230957380Y-64325476D01*
X230243095Y-64135000D01*
X230957380Y-63944523D01*
X229957380Y-63706428D01*
X230957380Y-62801666D02*
X230957380Y-63373095D01*
X230957380Y-63087380D02*
X229957380Y-63087380D01*
X230100238Y-63182619D01*
X230195476Y-63277857D01*
X230243095Y-63373095D01*
%TO.C,U1*%
X199236380Y-70230904D02*
X200045904Y-70230904D01*
X200141142Y-70183285D01*
X200188761Y-70135666D01*
X200236380Y-70040428D01*
X200236380Y-69849952D01*
X200188761Y-69754714D01*
X200141142Y-69707095D01*
X200045904Y-69659476D01*
X199236380Y-69659476D01*
X200236380Y-68659476D02*
X200236380Y-69230904D01*
X200236380Y-68945190D02*
X199236380Y-68945190D01*
X199379238Y-69040428D01*
X199474476Y-69135666D01*
X199522095Y-69230904D01*
%TO.C,R6*%
X180792380Y-55411666D02*
X180316190Y-55745000D01*
X180792380Y-55983095D02*
X179792380Y-55983095D01*
X179792380Y-55602142D01*
X179840000Y-55506904D01*
X179887619Y-55459285D01*
X179982857Y-55411666D01*
X180125714Y-55411666D01*
X180220952Y-55459285D01*
X180268571Y-55506904D01*
X180316190Y-55602142D01*
X180316190Y-55983095D01*
X179792380Y-54554523D02*
X179792380Y-54745000D01*
X179840000Y-54840238D01*
X179887619Y-54887857D01*
X180030476Y-54983095D01*
X180220952Y-55030714D01*
X180601904Y-55030714D01*
X180697142Y-54983095D01*
X180744761Y-54935476D01*
X180792380Y-54840238D01*
X180792380Y-54649761D01*
X180744761Y-54554523D01*
X180697142Y-54506904D01*
X180601904Y-54459285D01*
X180363809Y-54459285D01*
X180268571Y-54506904D01*
X180220952Y-54554523D01*
X180173333Y-54649761D01*
X180173333Y-54840238D01*
X180220952Y-54935476D01*
X180268571Y-54983095D01*
X180363809Y-55030714D01*
%TO.C,R10*%
X175887142Y-41727380D02*
X175553809Y-41251190D01*
X175315714Y-41727380D02*
X175315714Y-40727380D01*
X175696666Y-40727380D01*
X175791904Y-40775000D01*
X175839523Y-40822619D01*
X175887142Y-40917857D01*
X175887142Y-41060714D01*
X175839523Y-41155952D01*
X175791904Y-41203571D01*
X175696666Y-41251190D01*
X175315714Y-41251190D01*
X176839523Y-41727380D02*
X176268095Y-41727380D01*
X176553809Y-41727380D02*
X176553809Y-40727380D01*
X176458571Y-40870238D01*
X176363333Y-40965476D01*
X176268095Y-41013095D01*
X177458571Y-40727380D02*
X177553809Y-40727380D01*
X177649047Y-40775000D01*
X177696666Y-40822619D01*
X177744285Y-40917857D01*
X177791904Y-41108333D01*
X177791904Y-41346428D01*
X177744285Y-41536904D01*
X177696666Y-41632142D01*
X177649047Y-41679761D01*
X177553809Y-41727380D01*
X177458571Y-41727380D01*
X177363333Y-41679761D01*
X177315714Y-41632142D01*
X177268095Y-41536904D01*
X177220476Y-41346428D01*
X177220476Y-41108333D01*
X177268095Y-40917857D01*
X177315714Y-40822619D01*
X177363333Y-40775000D01*
X177458571Y-40727380D01*
%TO.C,R1*%
X168092380Y-55411666D02*
X167616190Y-55745000D01*
X168092380Y-55983095D02*
X167092380Y-55983095D01*
X167092380Y-55602142D01*
X167140000Y-55506904D01*
X167187619Y-55459285D01*
X167282857Y-55411666D01*
X167425714Y-55411666D01*
X167520952Y-55459285D01*
X167568571Y-55506904D01*
X167616190Y-55602142D01*
X167616190Y-55983095D01*
X168092380Y-54459285D02*
X168092380Y-55030714D01*
X168092380Y-54745000D02*
X167092380Y-54745000D01*
X167235238Y-54840238D01*
X167330476Y-54935476D01*
X167378095Y-55030714D01*
%TO.C,J1*%
X213026666Y-71437380D02*
X213026666Y-72151666D01*
X212979047Y-72294523D01*
X212883809Y-72389761D01*
X212740952Y-72437380D01*
X212645714Y-72437380D01*
X214026666Y-72437380D02*
X213455238Y-72437380D01*
X213740952Y-72437380D02*
X213740952Y-71437380D01*
X213645714Y-71580238D01*
X213550476Y-71675476D01*
X213455238Y-71723095D01*
%TO.C,J2*%
X190166666Y-71437380D02*
X190166666Y-72151666D01*
X190119047Y-72294523D01*
X190023809Y-72389761D01*
X189880952Y-72437380D01*
X189785714Y-72437380D01*
X190595238Y-71532619D02*
X190642857Y-71485000D01*
X190738095Y-71437380D01*
X190976190Y-71437380D01*
X191071428Y-71485000D01*
X191119047Y-71532619D01*
X191166666Y-71627857D01*
X191166666Y-71723095D01*
X191119047Y-71865952D01*
X190547619Y-72437380D01*
X191166666Y-72437380D01*
%TO.C,R4*%
X175712380Y-55411666D02*
X175236190Y-55745000D01*
X175712380Y-55983095D02*
X174712380Y-55983095D01*
X174712380Y-55602142D01*
X174760000Y-55506904D01*
X174807619Y-55459285D01*
X174902857Y-55411666D01*
X175045714Y-55411666D01*
X175140952Y-55459285D01*
X175188571Y-55506904D01*
X175236190Y-55602142D01*
X175236190Y-55983095D01*
X175045714Y-54554523D02*
X175712380Y-54554523D01*
X174664761Y-54792619D02*
X175379047Y-55030714D01*
X175379047Y-54411666D01*
%TO.C,R5*%
X178252380Y-55411666D02*
X177776190Y-55745000D01*
X178252380Y-55983095D02*
X177252380Y-55983095D01*
X177252380Y-55602142D01*
X177300000Y-55506904D01*
X177347619Y-55459285D01*
X177442857Y-55411666D01*
X177585714Y-55411666D01*
X177680952Y-55459285D01*
X177728571Y-55506904D01*
X177776190Y-55602142D01*
X177776190Y-55983095D01*
X177252380Y-54506904D02*
X177252380Y-54983095D01*
X177728571Y-55030714D01*
X177680952Y-54983095D01*
X177633333Y-54887857D01*
X177633333Y-54649761D01*
X177680952Y-54554523D01*
X177728571Y-54506904D01*
X177823809Y-54459285D01*
X178061904Y-54459285D01*
X178157142Y-54506904D01*
X178204761Y-54554523D01*
X178252380Y-54649761D01*
X178252380Y-54887857D01*
X178204761Y-54983095D01*
X178157142Y-55030714D01*
%TO.C,SW2*%
X230909761Y-52768333D02*
X230957380Y-52625476D01*
X230957380Y-52387380D01*
X230909761Y-52292142D01*
X230862142Y-52244523D01*
X230766904Y-52196904D01*
X230671666Y-52196904D01*
X230576428Y-52244523D01*
X230528809Y-52292142D01*
X230481190Y-52387380D01*
X230433571Y-52577857D01*
X230385952Y-52673095D01*
X230338333Y-52720714D01*
X230243095Y-52768333D01*
X230147857Y-52768333D01*
X230052619Y-52720714D01*
X230005000Y-52673095D01*
X229957380Y-52577857D01*
X229957380Y-52339761D01*
X230005000Y-52196904D01*
X229957380Y-51863571D02*
X230957380Y-51625476D01*
X230243095Y-51435000D01*
X230957380Y-51244523D01*
X229957380Y-51006428D01*
X230052619Y-50673095D02*
X230005000Y-50625476D01*
X229957380Y-50530238D01*
X229957380Y-50292142D01*
X230005000Y-50196904D01*
X230052619Y-50149285D01*
X230147857Y-50101666D01*
X230243095Y-50101666D01*
X230385952Y-50149285D01*
X230957380Y-50720714D01*
X230957380Y-50101666D01*
%TO.C,D1*%
X187904380Y-71223095D02*
X186904380Y-71223095D01*
X186904380Y-70985000D01*
X186952000Y-70842142D01*
X187047238Y-70746904D01*
X187142476Y-70699285D01*
X187332952Y-70651666D01*
X187475809Y-70651666D01*
X187666285Y-70699285D01*
X187761523Y-70746904D01*
X187856761Y-70842142D01*
X187904380Y-70985000D01*
X187904380Y-71223095D01*
X187904380Y-69699285D02*
X187904380Y-70270714D01*
X187904380Y-69985000D02*
X186904380Y-69985000D01*
X187047238Y-70080238D01*
X187142476Y-70175476D01*
X187190095Y-70270714D01*
%TO.C,D2*%
X170711904Y-41417380D02*
X170711904Y-40417380D01*
X170950000Y-40417380D01*
X171092857Y-40465000D01*
X171188095Y-40560238D01*
X171235714Y-40655476D01*
X171283333Y-40845952D01*
X171283333Y-40988809D01*
X171235714Y-41179285D01*
X171188095Y-41274523D01*
X171092857Y-41369761D01*
X170950000Y-41417380D01*
X170711904Y-41417380D01*
X171664285Y-40512619D02*
X171711904Y-40465000D01*
X171807142Y-40417380D01*
X172045238Y-40417380D01*
X172140476Y-40465000D01*
X172188095Y-40512619D01*
X172235714Y-40607857D01*
X172235714Y-40703095D01*
X172188095Y-40845952D01*
X171616666Y-41417380D01*
X172235714Y-41417380D01*
D10*
%TO.C,R2*%
X171090000Y-50707936D02*
X171090000Y-52162064D01*
X169270000Y-50707936D02*
X169270000Y-52162064D01*
%TO.C,R9*%
X181702064Y-38375000D02*
X180247936Y-38375000D01*
X181702064Y-36555000D02*
X180247936Y-36555000D01*
%TO.C,R7*%
X183790000Y-50707936D02*
X183790000Y-52162064D01*
X181970000Y-50707936D02*
X181970000Y-52162064D01*
%TO.C,SW3*%
X233735000Y-42600000D02*
X233735000Y-36140000D01*
X227305000Y-42600000D02*
X227275000Y-42600000D01*
X233735000Y-42600000D02*
X233705000Y-42600000D01*
X227275000Y-36140000D02*
X227305000Y-36140000D01*
X227275000Y-42600000D02*
X227275000Y-36140000D01*
X229205000Y-42600000D02*
X231805000Y-42600000D01*
X233735000Y-36140000D02*
X233705000Y-36140000D01*
X229205000Y-36140000D02*
X231805000Y-36140000D01*
%TO.C,R12*%
X221975000Y-64862064D02*
X221975000Y-63407936D01*
X223795000Y-64862064D02*
X223795000Y-63407936D01*
%TO.C,R3*%
X171810000Y-50707936D02*
X171810000Y-52162064D01*
X173630000Y-50707936D02*
X173630000Y-52162064D01*
%TO.C,R8*%
X184510000Y-50707936D02*
X184510000Y-52162064D01*
X186330000Y-50707936D02*
X186330000Y-52162064D01*
%TO.C,R14*%
X223795000Y-39462064D02*
X223795000Y-38007936D01*
X221975000Y-39462064D02*
X221975000Y-38007936D01*
%TO.C,R13*%
X223795000Y-52162064D02*
X223795000Y-50707936D01*
X221975000Y-52162064D02*
X221975000Y-50707936D01*
%TO.C,R11*%
X181702064Y-32745000D02*
X180247936Y-32745000D01*
X181702064Y-34565000D02*
X180247936Y-34565000D01*
%TO.C,SW1*%
X229205000Y-60905000D02*
X231805000Y-60905000D01*
X227275000Y-60905000D02*
X227305000Y-60905000D01*
X233735000Y-60905000D02*
X233705000Y-60905000D01*
X233735000Y-67365000D02*
X233705000Y-67365000D01*
X227275000Y-67365000D02*
X227275000Y-60905000D01*
X233735000Y-67365000D02*
X233735000Y-60905000D01*
X227305000Y-67365000D02*
X227275000Y-67365000D01*
X229205000Y-67365000D02*
X231805000Y-67365000D01*
%TO.C,U1*%
X200624000Y-69469000D02*
X200624000Y-68819000D01*
X200624000Y-69469000D02*
X200624000Y-71144000D01*
X203744000Y-69469000D02*
X203744000Y-68819000D01*
X203744000Y-69469000D02*
X203744000Y-70119000D01*
%TO.C,R6*%
X179430000Y-50707936D02*
X179430000Y-52162064D01*
X181250000Y-50707936D02*
X181250000Y-52162064D01*
%TO.C,R10*%
X181702064Y-40365000D02*
X180247936Y-40365000D01*
X181702064Y-42185000D02*
X180247936Y-42185000D01*
%TO.C,R1*%
X168550000Y-50707936D02*
X168550000Y-52162064D01*
X166730000Y-50707936D02*
X166730000Y-52162064D01*
%TO.C,J1*%
X212030000Y-70545000D02*
X212030000Y-69215000D01*
X214690000Y-67945000D02*
X214690000Y-32325000D01*
X213360000Y-70545000D02*
X212030000Y-70545000D01*
X212030000Y-67945000D02*
X212030000Y-32325000D01*
X214690000Y-32325000D02*
X212030000Y-32325000D01*
X214690000Y-67945000D02*
X212030000Y-67945000D01*
%TO.C,J2*%
X191830000Y-67945000D02*
X189170000Y-67945000D01*
X189170000Y-67945000D02*
X189170000Y-32325000D01*
X189170000Y-70545000D02*
X189170000Y-69215000D01*
X191830000Y-67945000D02*
X191830000Y-32325000D01*
X190500000Y-70545000D02*
X189170000Y-70545000D01*
X191830000Y-32325000D02*
X189170000Y-32325000D01*
%TO.C,R4*%
X174350000Y-50707936D02*
X174350000Y-52162064D01*
X176170000Y-50707936D02*
X176170000Y-52162064D01*
%TO.C,R5*%
X178710000Y-50707936D02*
X178710000Y-52162064D01*
X176890000Y-50707936D02*
X176890000Y-52162064D01*
%TO.C,SW2*%
X233735000Y-48205000D02*
X233705000Y-48205000D01*
X233735000Y-54665000D02*
X233705000Y-54665000D01*
X227275000Y-48205000D02*
X227305000Y-48205000D01*
X229205000Y-54665000D02*
X231805000Y-54665000D01*
X233735000Y-54665000D02*
X233735000Y-48205000D01*
X229205000Y-48205000D02*
X231805000Y-48205000D01*
X227275000Y-54665000D02*
X227275000Y-48205000D01*
X227305000Y-54665000D02*
X227275000Y-54665000D01*
%TO.C,D1*%
X181530000Y-63405000D02*
X176530000Y-62405000D01*
X181530000Y-70405000D02*
X181530000Y-63405000D01*
X171530000Y-61405000D02*
X176530000Y-62405000D01*
X171530000Y-68405000D02*
X176530000Y-69405000D01*
X171530000Y-68405000D02*
X171530000Y-61405000D01*
X176530000Y-62405000D02*
X176530000Y-69405000D01*
X186165000Y-70705000D02*
X186165000Y-59105000D01*
X176530000Y-69405000D02*
X181530000Y-70405000D01*
X166895000Y-59105000D02*
X166895000Y-71705000D01*
X182245000Y-58995000D02*
X170815000Y-58995000D01*
X182245000Y-71815000D02*
X170815000Y-71815000D01*
X181977214Y-61405000D02*
G75*
G03*
X181977214Y-61405000I-447214J0D01*
G01*
%TO.C,D2*%
X175050000Y-39065000D02*
X175050000Y-40165000D01*
X168950000Y-34765000D02*
X173950000Y-34765000D01*
X175050000Y-40165000D02*
X168950000Y-40165000D01*
%TD*%
M02*
