%FSLAX45Y45*%
G04 Gerber Fmt 4.5, Leading zero omitted, Abs format (unit mm)*
G04 Created by KiCad (PCBNEW (5.99.0-9801-g46d71f0d23)) date 2021-03-18 00:24:44*
%MOMM*%
%LPD*%
G01*
G04 APERTURE LIST*
%TA.AperFunction,Profile*%
%ADD10C,0.100000*%
%TD*%
%ADD11C,0.200000*%
%ADD12C,0.038100*%
%ADD13C,0.080000*%
%ADD14C,0.100000*%
G04 APERTURE END LIST*
D10*
X23876000Y-3111500D02*
G75*
G03*
X23495000Y-2730500I-381000J0D01*
G01*
X23495000Y-2730500D02*
X16891000Y-2730500D01*
X23876000Y-7175500D02*
G75*
G02*
X23495000Y-7556500I-381000J0D01*
G01*
X23876000Y-7175500D02*
X23876000Y-3111500D01*
X16510000Y-3111500D02*
G75*
G02*
X16891000Y-2730500I381000J0D01*
G01*
X16891000Y-7556500D02*
X23495000Y-7556500D01*
X16891000Y-7556500D02*
G75*
G02*
X16510000Y-7175500I0J381000D01*
G01*
X16510000Y-3111500D02*
X16510000Y-7175500D01*
D11*
D12*
X16617950Y-6521450D02*
X16656050Y-6559550D01*
X16656050Y-6521450D02*
X16617950Y-6559550D01*
X16681450Y-3727450D02*
X16719550Y-3765550D01*
X16719550Y-3727450D02*
X16681450Y-3765550D01*
X17252950Y-5505450D02*
X17291050Y-5543550D01*
X17291050Y-5505450D02*
X17252950Y-5543550D01*
X17506950Y-4819650D02*
X17545050Y-4857750D01*
X17545050Y-4819650D02*
X17506950Y-4857750D01*
X17506950Y-6724650D02*
X17545050Y-6762750D01*
X17545050Y-6724650D02*
X17506950Y-6762750D01*
X17760950Y-4819650D02*
X17799050Y-4857750D01*
X17799050Y-4819650D02*
X17760950Y-4857750D01*
X17760950Y-6724650D02*
X17799050Y-6762750D01*
X17799050Y-6724650D02*
X17760950Y-6762750D01*
X18014950Y-4819650D02*
X18053050Y-4857750D01*
X18053050Y-4819650D02*
X18014950Y-4857750D01*
X18268950Y-4819650D02*
X18307050Y-4857750D01*
X18307050Y-4819650D02*
X18268950Y-4857750D01*
X18459450Y-4108450D02*
X18497550Y-4146550D01*
X18497550Y-4108450D02*
X18459450Y-4146550D01*
X18586450Y-3346450D02*
X18624550Y-3384550D01*
X18624550Y-3346450D02*
X18586450Y-3384550D01*
X18649950Y-6521450D02*
X18688050Y-6559550D01*
X18688050Y-6521450D02*
X18649950Y-6559550D01*
X18802350Y-5314950D02*
X18840450Y-5353050D01*
X18840450Y-5314950D02*
X18802350Y-5353050D01*
X21761450Y-4552950D02*
X21799550Y-4591050D01*
X21799550Y-4552950D02*
X21761450Y-4591050D01*
X22448450Y-3520450D02*
X22486550Y-3558550D01*
X22486550Y-3520450D02*
X22448450Y-3558550D01*
X22511950Y-4726950D02*
X22550050Y-4765050D01*
X22550050Y-4726950D02*
X22511950Y-4765050D01*
X22511950Y-5996950D02*
X22550050Y-6035050D01*
X22550050Y-5996950D02*
X22511950Y-6035050D01*
D13*
X16931000Y-6032500D02*
G75*
G03*
X16931000Y-6032500I-40000J0D01*
G01*
X16931000Y-6286500D02*
G75*
G03*
X16931000Y-6286500I-40000J0D01*
G01*
X16931000Y-6540500D02*
G75*
G03*
X16931000Y-6540500I-40000J0D01*
G01*
X16931000Y-6794500D02*
G75*
G03*
X16931000Y-6794500I-40000J0D01*
G01*
X16931000Y-7048500D02*
G75*
G03*
X16931000Y-7048500I-40000J0D01*
G01*
X18455000Y-6032500D02*
G75*
G03*
X18455000Y-6032500I-40000J0D01*
G01*
X18455000Y-6286500D02*
G75*
G03*
X18455000Y-6286500I-40000J0D01*
G01*
X18455000Y-6540500D02*
G75*
G03*
X18455000Y-6540500I-40000J0D01*
G01*
X18455000Y-6794500D02*
G75*
G03*
X18455000Y-6794500I-40000J0D01*
G01*
X18455000Y-7048500D02*
G75*
G03*
X18455000Y-7048500I-40000J0D01*
G01*
D14*
X19050000Y-3315500D02*
X19050000Y-3415500D01*
X19000000Y-3365500D02*
X19100000Y-3365500D01*
X19050000Y-3569500D02*
X19050000Y-3669500D01*
X19000000Y-3619500D02*
X19100000Y-3619500D01*
X19050000Y-3823500D02*
X19050000Y-3923500D01*
X19000000Y-3873500D02*
X19100000Y-3873500D01*
X19050000Y-4077500D02*
X19050000Y-4177500D01*
X19000000Y-4127500D02*
X19100000Y-4127500D01*
X19050000Y-4331500D02*
X19050000Y-4431500D01*
X19000000Y-4381500D02*
X19100000Y-4381500D01*
X19050000Y-4585500D02*
X19050000Y-4685500D01*
X19000000Y-4635500D02*
X19100000Y-4635500D01*
X19050000Y-4839500D02*
X19050000Y-4939500D01*
X19000000Y-4889500D02*
X19100000Y-4889500D01*
X19050000Y-5093500D02*
X19050000Y-5193500D01*
X19000000Y-5143500D02*
X19100000Y-5143500D01*
X19050000Y-5347500D02*
X19050000Y-5447500D01*
X19000000Y-5397500D02*
X19100000Y-5397500D01*
X19050000Y-5601500D02*
X19050000Y-5701500D01*
X19000000Y-5651500D02*
X19100000Y-5651500D01*
X19050000Y-5855500D02*
X19050000Y-5955500D01*
X19000000Y-5905500D02*
X19100000Y-5905500D01*
X19050000Y-6109500D02*
X19050000Y-6209500D01*
X19000000Y-6159500D02*
X19100000Y-6159500D01*
X19050000Y-6363500D02*
X19050000Y-6463500D01*
X19000000Y-6413500D02*
X19100000Y-6413500D01*
X19050000Y-6617500D02*
X19050000Y-6717500D01*
X19000000Y-6667500D02*
X19100000Y-6667500D01*
X19050000Y-6871500D02*
X19050000Y-6971500D01*
X19000000Y-6921500D02*
X19100000Y-6921500D01*
X21336000Y-3315500D02*
X21336000Y-3415500D01*
X21286000Y-3365500D02*
X21386000Y-3365500D01*
X21336000Y-3569500D02*
X21336000Y-3669500D01*
X21286000Y-3619500D02*
X21386000Y-3619500D01*
X21336000Y-3823500D02*
X21336000Y-3923500D01*
X21286000Y-3873500D02*
X21386000Y-3873500D01*
X21336000Y-4077500D02*
X21336000Y-4177500D01*
X21286000Y-4127500D02*
X21386000Y-4127500D01*
X21336000Y-4331500D02*
X21336000Y-4431500D01*
X21286000Y-4381500D02*
X21386000Y-4381500D01*
X21336000Y-4585500D02*
X21336000Y-4685500D01*
X21286000Y-4635500D02*
X21386000Y-4635500D01*
X21336000Y-4839500D02*
X21336000Y-4939500D01*
X21286000Y-4889500D02*
X21386000Y-4889500D01*
X21336000Y-5093500D02*
X21336000Y-5193500D01*
X21286000Y-5143500D02*
X21386000Y-5143500D01*
X21336000Y-5347500D02*
X21336000Y-5447500D01*
X21286000Y-5397500D02*
X21386000Y-5397500D01*
X21336000Y-5601500D02*
X21336000Y-5701500D01*
X21286000Y-5651500D02*
X21386000Y-5651500D01*
X21336000Y-5855500D02*
X21336000Y-5955500D01*
X21286000Y-5905500D02*
X21386000Y-5905500D01*
X21336000Y-6109500D02*
X21336000Y-6209500D01*
X21286000Y-6159500D02*
X21386000Y-6159500D01*
X21336000Y-6363500D02*
X21336000Y-6463500D01*
X21286000Y-6413500D02*
X21386000Y-6413500D01*
X21336000Y-6617500D02*
X21336000Y-6717500D01*
X21286000Y-6667500D02*
X21386000Y-6667500D01*
X21336000Y-6871500D02*
X21336000Y-6971500D01*
X21286000Y-6921500D02*
X21386000Y-6921500D01*
D11*
X16752619Y-7881976D02*
X16752619Y-7681976D01*
X16800238Y-7681976D01*
X16828810Y-7691500D01*
X16847857Y-7710548D01*
X16857381Y-7729595D01*
X16866905Y-7767690D01*
X16866905Y-7796262D01*
X16857381Y-7834357D01*
X16847857Y-7853405D01*
X16828810Y-7872452D01*
X16800238Y-7881976D01*
X16752619Y-7881976D01*
X16952619Y-7881976D02*
X16952619Y-7748643D01*
X16952619Y-7786738D02*
X16962143Y-7767690D01*
X16971667Y-7758167D01*
X16990714Y-7748643D01*
X17009762Y-7748643D01*
X17076429Y-7881976D02*
X17076429Y-7748643D01*
X17076429Y-7681976D02*
X17066905Y-7691500D01*
X17076429Y-7701024D01*
X17085952Y-7691500D01*
X17076429Y-7681976D01*
X17076429Y-7701024D01*
X17200238Y-7881976D02*
X17181190Y-7872452D01*
X17171667Y-7853405D01*
X17171667Y-7681976D01*
X17305000Y-7881976D02*
X17285952Y-7872452D01*
X17276429Y-7853405D01*
X17276429Y-7681976D01*
X17533571Y-7881976D02*
X17533571Y-7681976D01*
X17600238Y-7824833D01*
X17666905Y-7681976D01*
X17666905Y-7881976D01*
X17847857Y-7881976D02*
X17847857Y-7777214D01*
X17838333Y-7758167D01*
X17819286Y-7748643D01*
X17781190Y-7748643D01*
X17762143Y-7758167D01*
X17847857Y-7872452D02*
X17828810Y-7881976D01*
X17781190Y-7881976D01*
X17762143Y-7872452D01*
X17752619Y-7853405D01*
X17752619Y-7834357D01*
X17762143Y-7815309D01*
X17781190Y-7805786D01*
X17828810Y-7805786D01*
X17847857Y-7796262D01*
X17943095Y-7748643D02*
X17943095Y-7948643D01*
X17943095Y-7758167D02*
X17962143Y-7748643D01*
X18000238Y-7748643D01*
X18019286Y-7758167D01*
X18028810Y-7767690D01*
X18038333Y-7786738D01*
X18038333Y-7843881D01*
X18028810Y-7862928D01*
X18019286Y-7872452D01*
X18000238Y-7881976D01*
X17962143Y-7881976D01*
X17943095Y-7872452D01*
X18124048Y-7862928D02*
X18133571Y-7872452D01*
X18124048Y-7881976D01*
X18114524Y-7872452D01*
X18124048Y-7862928D01*
X18124048Y-7881976D01*
X18124048Y-7758167D02*
X18133571Y-7767690D01*
X18124048Y-7777214D01*
X18114524Y-7767690D01*
X18124048Y-7758167D01*
X18124048Y-7777214D01*
D12*
X16456900Y-8192450D02*
X16495000Y-8230550D01*
X16495000Y-8192450D02*
X16456900Y-8230550D01*
D11*
X16790714Y-8101976D02*
X16809762Y-8101976D01*
X16828810Y-8111500D01*
X16838333Y-8121024D01*
X16847857Y-8140071D01*
X16857381Y-8178167D01*
X16857381Y-8225786D01*
X16847857Y-8263881D01*
X16838333Y-8282928D01*
X16828810Y-8292452D01*
X16809762Y-8301976D01*
X16790714Y-8301976D01*
X16771667Y-8292452D01*
X16762143Y-8282928D01*
X16752619Y-8263881D01*
X16743095Y-8225786D01*
X16743095Y-8178167D01*
X16752619Y-8140071D01*
X16762143Y-8121024D01*
X16771667Y-8111500D01*
X16790714Y-8101976D01*
X16943095Y-8282928D02*
X16952619Y-8292452D01*
X16943095Y-8301976D01*
X16933571Y-8292452D01*
X16943095Y-8282928D01*
X16943095Y-8301976D01*
X17019286Y-8101976D02*
X17143095Y-8101976D01*
X17076429Y-8178167D01*
X17105000Y-8178167D01*
X17124048Y-8187690D01*
X17133571Y-8197214D01*
X17143095Y-8216262D01*
X17143095Y-8263881D01*
X17133571Y-8282928D01*
X17124048Y-8292452D01*
X17105000Y-8301976D01*
X17047857Y-8301976D01*
X17028810Y-8292452D01*
X17019286Y-8282928D01*
X17257381Y-8187690D02*
X17238333Y-8178167D01*
X17228810Y-8168643D01*
X17219286Y-8149595D01*
X17219286Y-8140071D01*
X17228810Y-8121024D01*
X17238333Y-8111500D01*
X17257381Y-8101976D01*
X17295476Y-8101976D01*
X17314524Y-8111500D01*
X17324048Y-8121024D01*
X17333571Y-8140071D01*
X17333571Y-8149595D01*
X17324048Y-8168643D01*
X17314524Y-8178167D01*
X17295476Y-8187690D01*
X17257381Y-8187690D01*
X17238333Y-8197214D01*
X17228810Y-8206738D01*
X17219286Y-8225786D01*
X17219286Y-8263881D01*
X17228810Y-8282928D01*
X17238333Y-8292452D01*
X17257381Y-8301976D01*
X17295476Y-8301976D01*
X17314524Y-8292452D01*
X17324048Y-8282928D01*
X17333571Y-8263881D01*
X17333571Y-8225786D01*
X17324048Y-8206738D01*
X17314524Y-8197214D01*
X17295476Y-8187690D01*
X17524048Y-8301976D02*
X17409762Y-8301976D01*
X17466905Y-8301976D02*
X17466905Y-8101976D01*
X17447857Y-8130548D01*
X17428810Y-8149595D01*
X17409762Y-8159119D01*
X17609762Y-8301976D02*
X17609762Y-8168643D01*
X17609762Y-8187690D02*
X17619286Y-8178167D01*
X17638333Y-8168643D01*
X17666905Y-8168643D01*
X17685952Y-8178167D01*
X17695476Y-8197214D01*
X17695476Y-8301976D01*
X17695476Y-8197214D02*
X17705000Y-8178167D01*
X17724048Y-8168643D01*
X17752619Y-8168643D01*
X17771667Y-8178167D01*
X17781190Y-8197214D01*
X17781190Y-8301976D01*
X17876429Y-8301976D02*
X17876429Y-8168643D01*
X17876429Y-8187690D02*
X17885952Y-8178167D01*
X17905000Y-8168643D01*
X17933571Y-8168643D01*
X17952619Y-8178167D01*
X17962143Y-8197214D01*
X17962143Y-8301976D01*
X17962143Y-8197214D02*
X17971667Y-8178167D01*
X17990714Y-8168643D01*
X18019286Y-8168643D01*
X18038333Y-8178167D01*
X18047857Y-8197214D01*
X18047857Y-8301976D01*
X18438333Y-8092452D02*
X18266905Y-8349595D01*
X18695476Y-8101976D02*
X18714524Y-8101976D01*
X18733571Y-8111500D01*
X18743095Y-8121024D01*
X18752619Y-8140071D01*
X18762143Y-8178167D01*
X18762143Y-8225786D01*
X18752619Y-8263881D01*
X18743095Y-8282928D01*
X18733571Y-8292452D01*
X18714524Y-8301976D01*
X18695476Y-8301976D01*
X18676429Y-8292452D01*
X18666905Y-8282928D01*
X18657381Y-8263881D01*
X18647857Y-8225786D01*
X18647857Y-8178167D01*
X18657381Y-8140071D01*
X18666905Y-8121024D01*
X18676429Y-8111500D01*
X18695476Y-8101976D01*
X18847857Y-8282928D02*
X18857381Y-8292452D01*
X18847857Y-8301976D01*
X18838333Y-8292452D01*
X18847857Y-8282928D01*
X18847857Y-8301976D01*
X18981190Y-8101976D02*
X19000238Y-8101976D01*
X19019286Y-8111500D01*
X19028810Y-8121024D01*
X19038333Y-8140071D01*
X19047857Y-8178167D01*
X19047857Y-8225786D01*
X19038333Y-8263881D01*
X19028810Y-8282928D01*
X19019286Y-8292452D01*
X19000238Y-8301976D01*
X18981190Y-8301976D01*
X18962143Y-8292452D01*
X18952619Y-8282928D01*
X18943095Y-8263881D01*
X18933571Y-8225786D01*
X18933571Y-8178167D01*
X18943095Y-8140071D01*
X18952619Y-8121024D01*
X18962143Y-8111500D01*
X18981190Y-8101976D01*
X19238333Y-8301976D02*
X19124048Y-8301976D01*
X19181190Y-8301976D02*
X19181190Y-8101976D01*
X19162143Y-8130548D01*
X19143095Y-8149595D01*
X19124048Y-8159119D01*
X19419286Y-8101976D02*
X19324048Y-8101976D01*
X19314524Y-8197214D01*
X19324048Y-8187690D01*
X19343095Y-8178167D01*
X19390714Y-8178167D01*
X19409762Y-8187690D01*
X19419286Y-8197214D01*
X19428810Y-8216262D01*
X19428810Y-8263881D01*
X19419286Y-8282928D01*
X19409762Y-8292452D01*
X19390714Y-8301976D01*
X19343095Y-8301976D01*
X19324048Y-8292452D01*
X19314524Y-8282928D01*
X19552619Y-8101976D02*
X19571667Y-8101976D01*
X19590714Y-8111500D01*
X19600238Y-8121024D01*
X19609762Y-8140071D01*
X19619286Y-8178167D01*
X19619286Y-8225786D01*
X19609762Y-8263881D01*
X19600238Y-8282928D01*
X19590714Y-8292452D01*
X19571667Y-8301976D01*
X19552619Y-8301976D01*
X19533571Y-8292452D01*
X19524048Y-8282928D01*
X19514524Y-8263881D01*
X19505000Y-8225786D01*
X19505000Y-8178167D01*
X19514524Y-8140071D01*
X19524048Y-8121024D01*
X19533571Y-8111500D01*
X19552619Y-8101976D01*
X19695476Y-8101976D02*
X19695476Y-8140071D01*
X19771667Y-8101976D02*
X19771667Y-8140071D01*
X20066905Y-8378167D02*
X20057381Y-8368643D01*
X20038333Y-8340071D01*
X20028810Y-8321024D01*
X20019286Y-8292452D01*
X20009762Y-8244833D01*
X20009762Y-8206738D01*
X20019286Y-8159119D01*
X20028810Y-8130548D01*
X20038333Y-8111500D01*
X20057381Y-8082928D01*
X20066905Y-8073405D01*
X20247857Y-8301976D02*
X20133571Y-8301976D01*
X20190714Y-8301976D02*
X20190714Y-8101976D01*
X20171667Y-8130548D01*
X20152619Y-8149595D01*
X20133571Y-8159119D01*
X20314524Y-8101976D02*
X20447857Y-8101976D01*
X20362143Y-8301976D01*
X20676429Y-8301976D02*
X20676429Y-8101976D01*
X20762143Y-8301976D02*
X20762143Y-8197214D01*
X20752619Y-8178167D01*
X20733571Y-8168643D01*
X20705000Y-8168643D01*
X20685952Y-8178167D01*
X20676429Y-8187690D01*
X20885952Y-8301976D02*
X20866905Y-8292452D01*
X20857381Y-8282928D01*
X20847857Y-8263881D01*
X20847857Y-8206738D01*
X20857381Y-8187690D01*
X20866905Y-8178167D01*
X20885952Y-8168643D01*
X20914524Y-8168643D01*
X20933571Y-8178167D01*
X20943095Y-8187690D01*
X20952619Y-8206738D01*
X20952619Y-8263881D01*
X20943095Y-8282928D01*
X20933571Y-8292452D01*
X20914524Y-8301976D01*
X20885952Y-8301976D01*
X21066905Y-8301976D02*
X21047857Y-8292452D01*
X21038333Y-8273405D01*
X21038333Y-8101976D01*
X21219286Y-8292452D02*
X21200238Y-8301976D01*
X21162143Y-8301976D01*
X21143095Y-8292452D01*
X21133571Y-8273405D01*
X21133571Y-8197214D01*
X21143095Y-8178167D01*
X21162143Y-8168643D01*
X21200238Y-8168643D01*
X21219286Y-8178167D01*
X21228810Y-8197214D01*
X21228810Y-8216262D01*
X21133571Y-8235309D01*
X21305000Y-8292452D02*
X21324048Y-8301976D01*
X21362143Y-8301976D01*
X21381190Y-8292452D01*
X21390714Y-8273405D01*
X21390714Y-8263881D01*
X21381190Y-8244833D01*
X21362143Y-8235309D01*
X21333571Y-8235309D01*
X21314524Y-8225786D01*
X21305000Y-8206738D01*
X21305000Y-8197214D01*
X21314524Y-8178167D01*
X21333571Y-8168643D01*
X21362143Y-8168643D01*
X21381190Y-8178167D01*
X21457381Y-8378167D02*
X21466905Y-8368643D01*
X21485952Y-8340071D01*
X21495476Y-8321024D01*
X21505000Y-8292452D01*
X21514524Y-8244833D01*
X21514524Y-8206738D01*
X21505000Y-8159119D01*
X21495476Y-8130548D01*
X21485952Y-8111500D01*
X21466905Y-8082928D01*
X21457381Y-8073405D01*
D13*
X16495000Y-8475500D02*
G75*
G03*
X16495000Y-8475500I-40000J0D01*
G01*
D11*
X16790714Y-8365976D02*
X16809762Y-8365976D01*
X16828810Y-8375500D01*
X16838333Y-8385024D01*
X16847857Y-8404071D01*
X16857381Y-8442167D01*
X16857381Y-8489786D01*
X16847857Y-8527881D01*
X16838333Y-8546929D01*
X16828810Y-8556452D01*
X16809762Y-8565976D01*
X16790714Y-8565976D01*
X16771667Y-8556452D01*
X16762143Y-8546929D01*
X16752619Y-8527881D01*
X16743095Y-8489786D01*
X16743095Y-8442167D01*
X16752619Y-8404071D01*
X16762143Y-8385024D01*
X16771667Y-8375500D01*
X16790714Y-8365976D01*
X16943095Y-8546929D02*
X16952619Y-8556452D01*
X16943095Y-8565976D01*
X16933571Y-8556452D01*
X16943095Y-8546929D01*
X16943095Y-8565976D01*
X17066905Y-8451690D02*
X17047857Y-8442167D01*
X17038333Y-8432643D01*
X17028810Y-8413595D01*
X17028810Y-8404071D01*
X17038333Y-8385024D01*
X17047857Y-8375500D01*
X17066905Y-8365976D01*
X17105000Y-8365976D01*
X17124048Y-8375500D01*
X17133571Y-8385024D01*
X17143095Y-8404071D01*
X17143095Y-8413595D01*
X17133571Y-8432643D01*
X17124048Y-8442167D01*
X17105000Y-8451690D01*
X17066905Y-8451690D01*
X17047857Y-8461214D01*
X17038333Y-8470738D01*
X17028810Y-8489786D01*
X17028810Y-8527881D01*
X17038333Y-8546929D01*
X17047857Y-8556452D01*
X17066905Y-8565976D01*
X17105000Y-8565976D01*
X17124048Y-8556452D01*
X17133571Y-8546929D01*
X17143095Y-8527881D01*
X17143095Y-8489786D01*
X17133571Y-8470738D01*
X17124048Y-8461214D01*
X17105000Y-8451690D01*
X17266905Y-8365976D02*
X17285952Y-8365976D01*
X17305000Y-8375500D01*
X17314524Y-8385024D01*
X17324048Y-8404071D01*
X17333571Y-8442167D01*
X17333571Y-8489786D01*
X17324048Y-8527881D01*
X17314524Y-8546929D01*
X17305000Y-8556452D01*
X17285952Y-8565976D01*
X17266905Y-8565976D01*
X17247857Y-8556452D01*
X17238333Y-8546929D01*
X17228810Y-8527881D01*
X17219286Y-8489786D01*
X17219286Y-8442167D01*
X17228810Y-8404071D01*
X17238333Y-8385024D01*
X17247857Y-8375500D01*
X17266905Y-8365976D01*
X17457381Y-8365976D02*
X17476429Y-8365976D01*
X17495476Y-8375500D01*
X17505000Y-8385024D01*
X17514524Y-8404071D01*
X17524048Y-8442167D01*
X17524048Y-8489786D01*
X17514524Y-8527881D01*
X17505000Y-8546929D01*
X17495476Y-8556452D01*
X17476429Y-8565976D01*
X17457381Y-8565976D01*
X17438333Y-8556452D01*
X17428810Y-8546929D01*
X17419286Y-8527881D01*
X17409762Y-8489786D01*
X17409762Y-8442167D01*
X17419286Y-8404071D01*
X17428810Y-8385024D01*
X17438333Y-8375500D01*
X17457381Y-8365976D01*
X17609762Y-8565976D02*
X17609762Y-8432643D01*
X17609762Y-8451690D02*
X17619286Y-8442167D01*
X17638333Y-8432643D01*
X17666905Y-8432643D01*
X17685952Y-8442167D01*
X17695476Y-8461214D01*
X17695476Y-8565976D01*
X17695476Y-8461214D02*
X17705000Y-8442167D01*
X17724048Y-8432643D01*
X17752619Y-8432643D01*
X17771667Y-8442167D01*
X17781190Y-8461214D01*
X17781190Y-8565976D01*
X17876429Y-8565976D02*
X17876429Y-8432643D01*
X17876429Y-8451690D02*
X17885952Y-8442167D01*
X17905000Y-8432643D01*
X17933571Y-8432643D01*
X17952619Y-8442167D01*
X17962143Y-8461214D01*
X17962143Y-8565976D01*
X17962143Y-8461214D02*
X17971667Y-8442167D01*
X17990714Y-8432643D01*
X18019286Y-8432643D01*
X18038333Y-8442167D01*
X18047857Y-8461214D01*
X18047857Y-8565976D01*
X18438333Y-8356452D02*
X18266905Y-8613595D01*
X18695476Y-8365976D02*
X18714524Y-8365976D01*
X18733571Y-8375500D01*
X18743095Y-8385024D01*
X18752619Y-8404071D01*
X18762143Y-8442167D01*
X18762143Y-8489786D01*
X18752619Y-8527881D01*
X18743095Y-8546929D01*
X18733571Y-8556452D01*
X18714524Y-8565976D01*
X18695476Y-8565976D01*
X18676429Y-8556452D01*
X18666905Y-8546929D01*
X18657381Y-8527881D01*
X18647857Y-8489786D01*
X18647857Y-8442167D01*
X18657381Y-8404071D01*
X18666905Y-8385024D01*
X18676429Y-8375500D01*
X18695476Y-8365976D01*
X18847857Y-8546929D02*
X18857381Y-8556452D01*
X18847857Y-8565976D01*
X18838333Y-8556452D01*
X18847857Y-8546929D01*
X18847857Y-8565976D01*
X18981190Y-8365976D02*
X19000238Y-8365976D01*
X19019286Y-8375500D01*
X19028810Y-8385024D01*
X19038333Y-8404071D01*
X19047857Y-8442167D01*
X19047857Y-8489786D01*
X19038333Y-8527881D01*
X19028810Y-8546929D01*
X19019286Y-8556452D01*
X19000238Y-8565976D01*
X18981190Y-8565976D01*
X18962143Y-8556452D01*
X18952619Y-8546929D01*
X18943095Y-8527881D01*
X18933571Y-8489786D01*
X18933571Y-8442167D01*
X18943095Y-8404071D01*
X18952619Y-8385024D01*
X18962143Y-8375500D01*
X18981190Y-8365976D01*
X19114524Y-8365976D02*
X19238333Y-8365976D01*
X19171667Y-8442167D01*
X19200238Y-8442167D01*
X19219286Y-8451690D01*
X19228810Y-8461214D01*
X19238333Y-8480262D01*
X19238333Y-8527881D01*
X19228810Y-8546929D01*
X19219286Y-8556452D01*
X19200238Y-8565976D01*
X19143095Y-8565976D01*
X19124048Y-8556452D01*
X19114524Y-8546929D01*
X19428810Y-8565976D02*
X19314524Y-8565976D01*
X19371667Y-8565976D02*
X19371667Y-8365976D01*
X19352619Y-8394548D01*
X19333571Y-8413595D01*
X19314524Y-8423119D01*
X19609762Y-8365976D02*
X19514524Y-8365976D01*
X19505000Y-8461214D01*
X19514524Y-8451690D01*
X19533571Y-8442167D01*
X19581190Y-8442167D01*
X19600238Y-8451690D01*
X19609762Y-8461214D01*
X19619286Y-8480262D01*
X19619286Y-8527881D01*
X19609762Y-8546929D01*
X19600238Y-8556452D01*
X19581190Y-8565976D01*
X19533571Y-8565976D01*
X19514524Y-8556452D01*
X19505000Y-8546929D01*
X19695476Y-8365976D02*
X19695476Y-8404071D01*
X19771667Y-8365976D02*
X19771667Y-8404071D01*
X20066905Y-8642167D02*
X20057381Y-8632643D01*
X20038333Y-8604071D01*
X20028810Y-8585024D01*
X20019286Y-8556452D01*
X20009762Y-8508833D01*
X20009762Y-8470738D01*
X20019286Y-8423119D01*
X20028810Y-8394548D01*
X20038333Y-8375500D01*
X20057381Y-8346928D01*
X20066905Y-8337405D01*
X20247857Y-8565976D02*
X20133571Y-8565976D01*
X20190714Y-8565976D02*
X20190714Y-8365976D01*
X20171667Y-8394548D01*
X20152619Y-8413595D01*
X20133571Y-8423119D01*
X20371667Y-8365976D02*
X20390714Y-8365976D01*
X20409762Y-8375500D01*
X20419286Y-8385024D01*
X20428810Y-8404071D01*
X20438333Y-8442167D01*
X20438333Y-8489786D01*
X20428810Y-8527881D01*
X20419286Y-8546929D01*
X20409762Y-8556452D01*
X20390714Y-8565976D01*
X20371667Y-8565976D01*
X20352619Y-8556452D01*
X20343095Y-8546929D01*
X20333571Y-8527881D01*
X20324048Y-8489786D01*
X20324048Y-8442167D01*
X20333571Y-8404071D01*
X20343095Y-8385024D01*
X20352619Y-8375500D01*
X20371667Y-8365976D01*
X20676429Y-8565976D02*
X20676429Y-8365976D01*
X20762143Y-8565976D02*
X20762143Y-8461214D01*
X20752619Y-8442167D01*
X20733571Y-8432643D01*
X20705000Y-8432643D01*
X20685952Y-8442167D01*
X20676429Y-8451690D01*
X20885952Y-8565976D02*
X20866905Y-8556452D01*
X20857381Y-8546929D01*
X20847857Y-8527881D01*
X20847857Y-8470738D01*
X20857381Y-8451690D01*
X20866905Y-8442167D01*
X20885952Y-8432643D01*
X20914524Y-8432643D01*
X20933571Y-8442167D01*
X20943095Y-8451690D01*
X20952619Y-8470738D01*
X20952619Y-8527881D01*
X20943095Y-8546929D01*
X20933571Y-8556452D01*
X20914524Y-8565976D01*
X20885952Y-8565976D01*
X21066905Y-8565976D02*
X21047857Y-8556452D01*
X21038333Y-8537405D01*
X21038333Y-8365976D01*
X21219286Y-8556452D02*
X21200238Y-8565976D01*
X21162143Y-8565976D01*
X21143095Y-8556452D01*
X21133571Y-8537405D01*
X21133571Y-8461214D01*
X21143095Y-8442167D01*
X21162143Y-8432643D01*
X21200238Y-8432643D01*
X21219286Y-8442167D01*
X21228810Y-8461214D01*
X21228810Y-8480262D01*
X21133571Y-8499310D01*
X21305000Y-8556452D02*
X21324048Y-8565976D01*
X21362143Y-8565976D01*
X21381190Y-8556452D01*
X21390714Y-8537405D01*
X21390714Y-8527881D01*
X21381190Y-8508833D01*
X21362143Y-8499310D01*
X21333571Y-8499310D01*
X21314524Y-8489786D01*
X21305000Y-8470738D01*
X21305000Y-8461214D01*
X21314524Y-8442167D01*
X21333571Y-8432643D01*
X21362143Y-8432643D01*
X21381190Y-8442167D01*
X21457381Y-8642167D02*
X21466905Y-8632643D01*
X21485952Y-8604071D01*
X21495476Y-8585024D01*
X21505000Y-8556452D01*
X21514524Y-8508833D01*
X21514524Y-8470738D01*
X21505000Y-8423119D01*
X21495476Y-8394548D01*
X21485952Y-8375500D01*
X21466905Y-8346928D01*
X21457381Y-8337405D01*
D14*
X16445000Y-8689500D02*
X16445000Y-8789500D01*
X16395000Y-8739500D02*
X16495000Y-8739500D01*
D11*
X16857381Y-8829976D02*
X16743095Y-8829976D01*
X16800238Y-8829976D02*
X16800238Y-8629976D01*
X16781190Y-8658548D01*
X16762143Y-8677595D01*
X16743095Y-8687119D01*
X16943095Y-8810929D02*
X16952619Y-8820452D01*
X16943095Y-8829976D01*
X16933571Y-8820452D01*
X16943095Y-8810929D01*
X16943095Y-8829976D01*
X17076429Y-8629976D02*
X17095476Y-8629976D01*
X17114524Y-8639500D01*
X17124048Y-8649024D01*
X17133571Y-8668071D01*
X17143095Y-8706167D01*
X17143095Y-8753786D01*
X17133571Y-8791881D01*
X17124048Y-8810929D01*
X17114524Y-8820452D01*
X17095476Y-8829976D01*
X17076429Y-8829976D01*
X17057381Y-8820452D01*
X17047857Y-8810929D01*
X17038333Y-8791881D01*
X17028810Y-8753786D01*
X17028810Y-8706167D01*
X17038333Y-8668071D01*
X17047857Y-8649024D01*
X17057381Y-8639500D01*
X17076429Y-8629976D01*
X17266905Y-8629976D02*
X17285952Y-8629976D01*
X17305000Y-8639500D01*
X17314524Y-8649024D01*
X17324048Y-8668071D01*
X17333571Y-8706167D01*
X17333571Y-8753786D01*
X17324048Y-8791881D01*
X17314524Y-8810929D01*
X17305000Y-8820452D01*
X17285952Y-8829976D01*
X17266905Y-8829976D01*
X17247857Y-8820452D01*
X17238333Y-8810929D01*
X17228810Y-8791881D01*
X17219286Y-8753786D01*
X17219286Y-8706167D01*
X17228810Y-8668071D01*
X17238333Y-8649024D01*
X17247857Y-8639500D01*
X17266905Y-8629976D01*
X17457381Y-8629976D02*
X17476429Y-8629976D01*
X17495476Y-8639500D01*
X17505000Y-8649024D01*
X17514524Y-8668071D01*
X17524048Y-8706167D01*
X17524048Y-8753786D01*
X17514524Y-8791881D01*
X17505000Y-8810929D01*
X17495476Y-8820452D01*
X17476429Y-8829976D01*
X17457381Y-8829976D01*
X17438333Y-8820452D01*
X17428810Y-8810929D01*
X17419286Y-8791881D01*
X17409762Y-8753786D01*
X17409762Y-8706167D01*
X17419286Y-8668071D01*
X17428810Y-8649024D01*
X17438333Y-8639500D01*
X17457381Y-8629976D01*
X17609762Y-8829976D02*
X17609762Y-8696643D01*
X17609762Y-8715690D02*
X17619286Y-8706167D01*
X17638333Y-8696643D01*
X17666905Y-8696643D01*
X17685952Y-8706167D01*
X17695476Y-8725214D01*
X17695476Y-8829976D01*
X17695476Y-8725214D02*
X17705000Y-8706167D01*
X17724048Y-8696643D01*
X17752619Y-8696643D01*
X17771667Y-8706167D01*
X17781190Y-8725214D01*
X17781190Y-8829976D01*
X17876429Y-8829976D02*
X17876429Y-8696643D01*
X17876429Y-8715690D02*
X17885952Y-8706167D01*
X17905000Y-8696643D01*
X17933571Y-8696643D01*
X17952619Y-8706167D01*
X17962143Y-8725214D01*
X17962143Y-8829976D01*
X17962143Y-8725214D02*
X17971667Y-8706167D01*
X17990714Y-8696643D01*
X18019286Y-8696643D01*
X18038333Y-8706167D01*
X18047857Y-8725214D01*
X18047857Y-8829976D01*
X18438333Y-8620452D02*
X18266905Y-8877595D01*
X18695476Y-8629976D02*
X18714524Y-8629976D01*
X18733571Y-8639500D01*
X18743095Y-8649024D01*
X18752619Y-8668071D01*
X18762143Y-8706167D01*
X18762143Y-8753786D01*
X18752619Y-8791881D01*
X18743095Y-8810929D01*
X18733571Y-8820452D01*
X18714524Y-8829976D01*
X18695476Y-8829976D01*
X18676429Y-8820452D01*
X18666905Y-8810929D01*
X18657381Y-8791881D01*
X18647857Y-8753786D01*
X18647857Y-8706167D01*
X18657381Y-8668071D01*
X18666905Y-8649024D01*
X18676429Y-8639500D01*
X18695476Y-8629976D01*
X18847857Y-8810929D02*
X18857381Y-8820452D01*
X18847857Y-8829976D01*
X18838333Y-8820452D01*
X18847857Y-8810929D01*
X18847857Y-8829976D01*
X18981190Y-8629976D02*
X19000238Y-8629976D01*
X19019286Y-8639500D01*
X19028810Y-8649024D01*
X19038333Y-8668071D01*
X19047857Y-8706167D01*
X19047857Y-8753786D01*
X19038333Y-8791881D01*
X19028810Y-8810929D01*
X19019286Y-8820452D01*
X19000238Y-8829976D01*
X18981190Y-8829976D01*
X18962143Y-8820452D01*
X18952619Y-8810929D01*
X18943095Y-8791881D01*
X18933571Y-8753786D01*
X18933571Y-8706167D01*
X18943095Y-8668071D01*
X18952619Y-8649024D01*
X18962143Y-8639500D01*
X18981190Y-8629976D01*
X19114524Y-8629976D02*
X19238333Y-8629976D01*
X19171667Y-8706167D01*
X19200238Y-8706167D01*
X19219286Y-8715690D01*
X19228810Y-8725214D01*
X19238333Y-8744262D01*
X19238333Y-8791881D01*
X19228810Y-8810929D01*
X19219286Y-8820452D01*
X19200238Y-8829976D01*
X19143095Y-8829976D01*
X19124048Y-8820452D01*
X19114524Y-8810929D01*
X19333571Y-8829976D02*
X19371667Y-8829976D01*
X19390714Y-8820452D01*
X19400238Y-8810929D01*
X19419286Y-8782357D01*
X19428810Y-8744262D01*
X19428810Y-8668071D01*
X19419286Y-8649024D01*
X19409762Y-8639500D01*
X19390714Y-8629976D01*
X19352619Y-8629976D01*
X19333571Y-8639500D01*
X19324048Y-8649024D01*
X19314524Y-8668071D01*
X19314524Y-8715690D01*
X19324048Y-8734738D01*
X19333571Y-8744262D01*
X19352619Y-8753786D01*
X19390714Y-8753786D01*
X19409762Y-8744262D01*
X19419286Y-8734738D01*
X19428810Y-8715690D01*
X19600238Y-8696643D02*
X19600238Y-8829976D01*
X19552619Y-8620452D02*
X19505000Y-8763310D01*
X19628810Y-8763310D01*
X19695476Y-8629976D02*
X19695476Y-8668071D01*
X19771667Y-8629976D02*
X19771667Y-8668071D01*
X20066905Y-8906167D02*
X20057381Y-8896643D01*
X20038333Y-8868071D01*
X20028810Y-8849024D01*
X20019286Y-8820452D01*
X20009762Y-8772833D01*
X20009762Y-8734738D01*
X20019286Y-8687119D01*
X20028810Y-8658548D01*
X20038333Y-8639500D01*
X20057381Y-8610929D01*
X20066905Y-8601405D01*
X20124048Y-8629976D02*
X20247857Y-8629976D01*
X20181190Y-8706167D01*
X20209762Y-8706167D01*
X20228810Y-8715690D01*
X20238333Y-8725214D01*
X20247857Y-8744262D01*
X20247857Y-8791881D01*
X20238333Y-8810929D01*
X20228810Y-8820452D01*
X20209762Y-8829976D01*
X20152619Y-8829976D01*
X20133571Y-8820452D01*
X20124048Y-8810929D01*
X20371667Y-8629976D02*
X20390714Y-8629976D01*
X20409762Y-8639500D01*
X20419286Y-8649024D01*
X20428810Y-8668071D01*
X20438333Y-8706167D01*
X20438333Y-8753786D01*
X20428810Y-8791881D01*
X20419286Y-8810929D01*
X20409762Y-8820452D01*
X20390714Y-8829976D01*
X20371667Y-8829976D01*
X20352619Y-8820452D01*
X20343095Y-8810929D01*
X20333571Y-8791881D01*
X20324048Y-8753786D01*
X20324048Y-8706167D01*
X20333571Y-8668071D01*
X20343095Y-8649024D01*
X20352619Y-8639500D01*
X20371667Y-8629976D01*
X20676429Y-8829976D02*
X20676429Y-8629976D01*
X20762143Y-8829976D02*
X20762143Y-8725214D01*
X20752619Y-8706167D01*
X20733571Y-8696643D01*
X20705000Y-8696643D01*
X20685952Y-8706167D01*
X20676429Y-8715690D01*
X20885952Y-8829976D02*
X20866905Y-8820452D01*
X20857381Y-8810929D01*
X20847857Y-8791881D01*
X20847857Y-8734738D01*
X20857381Y-8715690D01*
X20866905Y-8706167D01*
X20885952Y-8696643D01*
X20914524Y-8696643D01*
X20933571Y-8706167D01*
X20943095Y-8715690D01*
X20952619Y-8734738D01*
X20952619Y-8791881D01*
X20943095Y-8810929D01*
X20933571Y-8820452D01*
X20914524Y-8829976D01*
X20885952Y-8829976D01*
X21066905Y-8829976D02*
X21047857Y-8820452D01*
X21038333Y-8801405D01*
X21038333Y-8629976D01*
X21219286Y-8820452D02*
X21200238Y-8829976D01*
X21162143Y-8829976D01*
X21143095Y-8820452D01*
X21133571Y-8801405D01*
X21133571Y-8725214D01*
X21143095Y-8706167D01*
X21162143Y-8696643D01*
X21200238Y-8696643D01*
X21219286Y-8706167D01*
X21228810Y-8725214D01*
X21228810Y-8744262D01*
X21133571Y-8763310D01*
X21305000Y-8820452D02*
X21324048Y-8829976D01*
X21362143Y-8829976D01*
X21381190Y-8820452D01*
X21390714Y-8801405D01*
X21390714Y-8791881D01*
X21381190Y-8772833D01*
X21362143Y-8763310D01*
X21333571Y-8763310D01*
X21314524Y-8753786D01*
X21305000Y-8734738D01*
X21305000Y-8725214D01*
X21314524Y-8706167D01*
X21333571Y-8696643D01*
X21362143Y-8696643D01*
X21381190Y-8706167D01*
X21457381Y-8906167D02*
X21466905Y-8896643D01*
X21485952Y-8868071D01*
X21495476Y-8849024D01*
X21505000Y-8820452D01*
X21514524Y-8772833D01*
X21514524Y-8734738D01*
X21505000Y-8687119D01*
X21495476Y-8658548D01*
X21485952Y-8639500D01*
X21466905Y-8610929D01*
X21457381Y-8601405D01*
M02*
