M48
; DRILL file {KiCad (5.99.0-9801-g46d71f0d23)} date Thu Mar 18 00:24:43 2021
; FORMAT={-:-/ absolute / inch / decimal}
; #@! TF.CreationDate,2021-03-18T00:24:43-04:00
; #@! TF.GenerationSoftware,Kicad,Pcbnew,(5.99.0-9801-g46d71f0d23)
; #@! TF.FileFunction,Plated,1,2,PTH
FMAT,2
INCH
; #@! TA.AperFunction,ViaDrill
T1C0.0150
; #@! TA.AperFunction,ComponentDrill,Plated,PTH
T2C0.0315
; #@! TA.AperFunction,ComponentDrill,Plated,PTH
T3C0.0394
%
G90
G05
T1
; via hole
X6.55Y-2.575
X6.575Y-1.475
X6.8Y-2.175
X6.9Y-1.905
X6.9Y-2.655
X7.0Y-1.905
X7.0Y-2.655
X7.1Y-1.905
X7.2Y-1.905
X7.275Y-1.625
X7.325Y-1.325
X7.35Y-2.575
X7.41Y-2.1
X8.575Y-1.8
X8.8455Y-1.3935
X8.8705Y-1.8685
X8.8705Y-2.3685
T2
; plated pad hole
X6.65Y-2.375
X6.65Y-2.475
X6.65Y-2.575
X6.65Y-2.675
X6.65Y-2.775
X7.25Y-2.375
X7.25Y-2.475
X7.25Y-2.575
X7.25Y-2.675
X7.25Y-2.775
T3
X7.5Y-1.325
X7.5Y-1.425
X7.5Y-1.525
X7.5Y-1.625
X7.5Y-1.725
X7.5Y-1.825
X7.5Y-1.925
X7.5Y-2.025
X7.5Y-2.125
X7.5Y-2.225
X7.5Y-2.325
X7.5Y-2.425
X7.5Y-2.525
X7.5Y-2.625
X7.5Y-2.725
X8.4Y-1.325
X8.4Y-1.425
X8.4Y-1.525
X8.4Y-1.625
X8.4Y-1.725
X8.4Y-1.825
X8.4Y-1.925
X8.4Y-2.025
X8.4Y-2.125
X8.4Y-2.225
X8.4Y-2.325
X8.4Y-2.425
X8.4Y-2.525
X8.4Y-2.625
X8.4Y-2.725
T0
M30
