%FSLAX45Y45*%
G04 Gerber Fmt 4.5, Leading zero omitted, Abs format (unit mm)*
G04 Created by KiCad (PCBNEW (5.99.0-9801-g46d71f0d23)) date 2021-03-18 00:24:44*
%MOMM*%
%LPD*%
G01*
G04 APERTURE LIST*
%TA.AperFunction,Profile*%
%ADD10C,0.100000*%
%TD*%
%ADD11C,0.200000*%
G04 APERTURE END LIST*
D10*
X23876000Y-3111500D02*
G75*
G03*
X23495000Y-2730500I-381000J0D01*
G01*
X23495000Y-2730500D02*
X16891000Y-2730500D01*
X23876000Y-7175500D02*
G75*
G02*
X23495000Y-7556500I-381000J0D01*
G01*
X23876000Y-7175500D02*
X23876000Y-3111500D01*
X16510000Y-3111500D02*
G75*
G02*
X16891000Y-2730500I381000J0D01*
G01*
X16891000Y-7556500D02*
X23495000Y-7556500D01*
X16891000Y-7556500D02*
G75*
G02*
X16510000Y-7175500I0J381000D01*
G01*
X16510000Y-3111500D02*
X16510000Y-7175500D01*
D11*
X16752619Y-7881976D02*
X16752619Y-7681976D01*
X16800238Y-7681976D01*
X16828810Y-7691500D01*
X16847857Y-7710548D01*
X16857381Y-7729595D01*
X16866905Y-7767690D01*
X16866905Y-7796262D01*
X16857381Y-7834357D01*
X16847857Y-7853405D01*
X16828810Y-7872452D01*
X16800238Y-7881976D01*
X16752619Y-7881976D01*
X16952619Y-7881976D02*
X16952619Y-7748643D01*
X16952619Y-7786738D02*
X16962143Y-7767690D01*
X16971667Y-7758167D01*
X16990714Y-7748643D01*
X17009762Y-7748643D01*
X17076429Y-7881976D02*
X17076429Y-7748643D01*
X17076429Y-7681976D02*
X17066905Y-7691500D01*
X17076429Y-7701024D01*
X17085952Y-7691500D01*
X17076429Y-7681976D01*
X17076429Y-7701024D01*
X17200238Y-7881976D02*
X17181190Y-7872452D01*
X17171667Y-7853405D01*
X17171667Y-7681976D01*
X17305000Y-7881976D02*
X17285952Y-7872452D01*
X17276429Y-7853405D01*
X17276429Y-7681976D01*
X17533571Y-7881976D02*
X17533571Y-7681976D01*
X17600238Y-7824833D01*
X17666905Y-7681976D01*
X17666905Y-7881976D01*
X17847857Y-7881976D02*
X17847857Y-7777214D01*
X17838333Y-7758167D01*
X17819286Y-7748643D01*
X17781190Y-7748643D01*
X17762143Y-7758167D01*
X17847857Y-7872452D02*
X17828810Y-7881976D01*
X17781190Y-7881976D01*
X17762143Y-7872452D01*
X17752619Y-7853405D01*
X17752619Y-7834357D01*
X17762143Y-7815309D01*
X17781190Y-7805786D01*
X17828810Y-7805786D01*
X17847857Y-7796262D01*
X17943095Y-7748643D02*
X17943095Y-7948643D01*
X17943095Y-7758167D02*
X17962143Y-7748643D01*
X18000238Y-7748643D01*
X18019286Y-7758167D01*
X18028810Y-7767690D01*
X18038333Y-7786738D01*
X18038333Y-7843881D01*
X18028810Y-7862928D01*
X18019286Y-7872452D01*
X18000238Y-7881976D01*
X17962143Y-7881976D01*
X17943095Y-7872452D01*
X18124048Y-7862928D02*
X18133571Y-7872452D01*
X18124048Y-7881976D01*
X18114524Y-7872452D01*
X18124048Y-7862928D01*
X18124048Y-7881976D01*
X18124048Y-7758167D02*
X18133571Y-7767690D01*
X18124048Y-7777214D01*
X18114524Y-7767690D01*
X18124048Y-7758167D01*
X18124048Y-7777214D01*
M02*
