%TF.GenerationSoftware,KiCad,Pcbnew,(5.99.0-9801-g46d71f0d23)*%
%TF.CreationDate,2021-03-18T00:24:41-04:00*%
%TF.ProjectId,PCB-S,5043422d-532e-46b6-9963-61645f706362,rev?*%
%TF.SameCoordinates,Original*%
%TF.FileFunction,Soldermask,Top*%
%TF.FilePolarity,Negative*%
%FSLAX46Y46*%
G04 Gerber Fmt 4.6, Leading zero omitted, Abs format (unit mm)*
G04 Created by KiCad (PCBNEW (5.99.0-9801-g46d71f0d23)) date 2021-03-18 00:24:41*
%MOMM*%
%LPD*%
G01*
G04 APERTURE LIST*
G04 Aperture macros list*
%AMRoundRect*
0 Rectangle with rounded corners*
0 $1 Rounding radius*
0 $2 $3 $4 $5 $6 $7 $8 $9 X,Y pos of 4 corners*
0 Add a 4 corners polygon primitive as box body*
4,1,4,$2,$3,$4,$5,$6,$7,$8,$9,$2,$3,0*
0 Add four circle primitives for the rounded corners*
1,1,$1+$1,$2,$3*
1,1,$1+$1,$4,$5*
1,1,$1+$1,$6,$7*
1,1,$1+$1,$8,$9*
0 Add four rect primitives between the rounded corners*
20,1,$1+$1,$2,$3,$4,$5,0*
20,1,$1+$1,$4,$5,$6,$7,0*
20,1,$1+$1,$6,$7,$8,$9,0*
20,1,$1+$1,$8,$9,$2,$3,0*%
G04 Aperture macros list end*
%ADD10RoundRect,0.250000X-0.625000X0.400000X-0.625000X-0.400000X0.625000X-0.400000X0.625000X0.400000X0*%
%ADD11RoundRect,0.250000X0.400000X0.625000X-0.400000X0.625000X-0.400000X-0.625000X0.400000X-0.625000X0*%
%ADD12R,1.300000X1.550000*%
%ADD13RoundRect,0.250000X0.625000X-0.400000X0.625000X0.400000X-0.625000X0.400000X-0.625000X-0.400000X0*%
%ADD14RoundRect,0.150000X0.150000X-0.587500X0.150000X0.587500X-0.150000X0.587500X-0.150000X-0.587500X0*%
%ADD15R,1.700000X1.700000*%
%ADD16O,1.700000X1.700000*%
%ADD17R,2.524000X1.524000*%
%ADD18O,2.524000X1.524000*%
%ADD19R,2.000000X1.100000*%
G04 APERTURE END LIST*
D10*
%TO.C,R2*%
X170180000Y-49885000D03*
X170180000Y-52985000D03*
%TD*%
D11*
%TO.C,R9*%
X182525000Y-37465000D03*
X179425000Y-37465000D03*
%TD*%
D10*
%TO.C,R7*%
X182880000Y-49885000D03*
X182880000Y-52985000D03*
%TD*%
D12*
%TO.C,SW3*%
X228255000Y-43345000D03*
X228255000Y-35395000D03*
X232755000Y-43345000D03*
X232755000Y-35395000D03*
%TD*%
D13*
%TO.C,R12*%
X222885000Y-65685000D03*
X222885000Y-62585000D03*
%TD*%
D10*
%TO.C,R3*%
X172720000Y-49885000D03*
X172720000Y-52985000D03*
%TD*%
%TO.C,R8*%
X185420000Y-49885000D03*
X185420000Y-52985000D03*
%TD*%
D13*
%TO.C,R14*%
X222885000Y-40285000D03*
X222885000Y-37185000D03*
%TD*%
%TO.C,R13*%
X222885000Y-52985000D03*
X222885000Y-49885000D03*
%TD*%
D11*
%TO.C,R11*%
X182525000Y-33655000D03*
X179425000Y-33655000D03*
%TD*%
D12*
%TO.C,SW1*%
X228255000Y-60160000D03*
X228255000Y-68110000D03*
X232755000Y-60160000D03*
X232755000Y-68110000D03*
%TD*%
D14*
%TO.C,U1*%
X201234000Y-70406500D03*
X203134000Y-70406500D03*
X202184000Y-68531500D03*
%TD*%
D10*
%TO.C,R6*%
X180340000Y-49885000D03*
X180340000Y-52985000D03*
%TD*%
D11*
%TO.C,R10*%
X182525000Y-41275000D03*
X179425000Y-41275000D03*
%TD*%
D10*
%TO.C,R1*%
X167640000Y-49885000D03*
X167640000Y-52985000D03*
%TD*%
D15*
%TO.C,J1*%
X213360000Y-69215000D03*
D16*
X213360000Y-66675000D03*
X213360000Y-64135000D03*
X213360000Y-61595000D03*
X213360000Y-59055000D03*
X213360000Y-56515000D03*
X213360000Y-53975000D03*
X213360000Y-51435000D03*
X213360000Y-48895000D03*
X213360000Y-46355000D03*
X213360000Y-43815000D03*
X213360000Y-41275000D03*
X213360000Y-38735000D03*
X213360000Y-36195000D03*
X213360000Y-33655000D03*
%TD*%
D15*
%TO.C,J2*%
X190500000Y-69215000D03*
D16*
X190500000Y-66675000D03*
X190500000Y-64135000D03*
X190500000Y-61595000D03*
X190500000Y-59055000D03*
X190500000Y-56515000D03*
X190500000Y-53975000D03*
X190500000Y-51435000D03*
X190500000Y-48895000D03*
X190500000Y-46355000D03*
X190500000Y-43815000D03*
X190500000Y-41275000D03*
X190500000Y-38735000D03*
X190500000Y-36195000D03*
X190500000Y-33655000D03*
%TD*%
D10*
%TO.C,R4*%
X175260000Y-49885000D03*
X175260000Y-52985000D03*
%TD*%
%TO.C,R5*%
X177800000Y-49885000D03*
X177800000Y-52985000D03*
%TD*%
D12*
%TO.C,SW2*%
X228255000Y-47460000D03*
X228255000Y-55410000D03*
X232755000Y-55410000D03*
X232755000Y-47460000D03*
%TD*%
D17*
%TO.C,D1*%
X184150000Y-70485000D03*
D18*
X184150000Y-67945000D03*
X184150000Y-65405000D03*
X184150000Y-62865000D03*
X184150000Y-60325000D03*
X168910000Y-60325000D03*
X168910000Y-62865000D03*
X168910000Y-65405000D03*
X168910000Y-67945000D03*
X168910000Y-70485000D03*
%TD*%
D19*
%TO.C,D2*%
X173850000Y-39165000D03*
X173850000Y-37465000D03*
X173850000Y-35765000D03*
X169050000Y-35765000D03*
X169050000Y-37465000D03*
X169050000Y-39165000D03*
%TD*%
M02*
