%TF.GenerationSoftware,KiCad,Pcbnew,(5.99.0-9801-g46d71f0d23)*%
%TF.CreationDate,2021-03-17T23:59:57-04:00*%
%TF.ProjectId,PCB-S-Panelization,5043422d-532d-4506-916e-656c697a6174,rev?*%
%TF.SameCoordinates,Original*%
%TF.FileFunction,Legend,Bot*%
%TF.FilePolarity,Positive*%
%FSLAX46Y46*%
G04 Gerber Fmt 4.6, Leading zero omitted, Abs format (unit mm)*
G04 Created by KiCad (PCBNEW (5.99.0-9801-g46d71f0d23)) date 2021-03-17 23:59:57*
%MOMM*%
%LPD*%
G01*
G04 APERTURE LIST*
%ADD10C,0.152400*%
%ADD11C,0.203200*%
%ADD12C,0.150000*%
%ADD13C,0.120000*%
G04 APERTURE END LIST*
D10*
X118800638Y-131255104D02*
X118800638Y-130674533D01*
X118761933Y-130558419D01*
X118684523Y-130481009D01*
X118568409Y-130442304D01*
X118491000Y-130442304D01*
X119574733Y-130442304D02*
X119187685Y-130442304D01*
X119187685Y-131255104D01*
X120310123Y-130519714D02*
X120271419Y-130481009D01*
X120155304Y-130442304D01*
X120077895Y-130442304D01*
X119961780Y-130481009D01*
X119884371Y-130558419D01*
X119845666Y-130635828D01*
X119806961Y-130790647D01*
X119806961Y-130906761D01*
X119845666Y-131061580D01*
X119884371Y-131138990D01*
X119961780Y-131216400D01*
X120077895Y-131255104D01*
X120155304Y-131255104D01*
X120271419Y-131216400D01*
X120310123Y-131177695D01*
X120890695Y-131255104D02*
X120890695Y-130674533D01*
X120851990Y-130558419D01*
X120774580Y-130481009D01*
X120658466Y-130442304D01*
X120581057Y-130442304D01*
X121664790Y-130442304D02*
X121277742Y-130442304D01*
X121277742Y-131255104D01*
X122400180Y-130519714D02*
X122361476Y-130481009D01*
X122245361Y-130442304D01*
X122167952Y-130442304D01*
X122051838Y-130481009D01*
X121974428Y-130558419D01*
X121935723Y-130635828D01*
X121897019Y-130790647D01*
X121897019Y-130906761D01*
X121935723Y-131061580D01*
X121974428Y-131138990D01*
X122051838Y-131216400D01*
X122167952Y-131255104D01*
X122245361Y-131255104D01*
X122361476Y-131216400D01*
X122400180Y-131177695D01*
X122980752Y-131255104D02*
X122980752Y-130674533D01*
X122942047Y-130558419D01*
X122864638Y-130481009D01*
X122748523Y-130442304D01*
X122671114Y-130442304D01*
X123754847Y-130442304D02*
X123367800Y-130442304D01*
X123367800Y-131255104D01*
X124490238Y-130519714D02*
X124451533Y-130481009D01*
X124335419Y-130442304D01*
X124258009Y-130442304D01*
X124141895Y-130481009D01*
X124064485Y-130558419D01*
X124025780Y-130635828D01*
X123987076Y-130790647D01*
X123987076Y-130906761D01*
X124025780Y-131061580D01*
X124064485Y-131138990D01*
X124141895Y-131216400D01*
X124258009Y-131255104D01*
X124335419Y-131255104D01*
X124451533Y-131216400D01*
X124490238Y-131177695D01*
X125070809Y-131255104D02*
X125070809Y-130674533D01*
X125032104Y-130558419D01*
X124954695Y-130481009D01*
X124838580Y-130442304D01*
X124761171Y-130442304D01*
X125844904Y-130442304D02*
X125457857Y-130442304D01*
X125457857Y-131255104D01*
X126580295Y-130519714D02*
X126541590Y-130481009D01*
X126425476Y-130442304D01*
X126348066Y-130442304D01*
X126231952Y-130481009D01*
X126154542Y-130558419D01*
X126115838Y-130635828D01*
X126077133Y-130790647D01*
X126077133Y-130906761D01*
X126115838Y-131061580D01*
X126154542Y-131138990D01*
X126231952Y-131216400D01*
X126348066Y-131255104D01*
X126425476Y-131255104D01*
X126541590Y-131216400D01*
X126580295Y-131177695D01*
X172720000Y-172720000D02*
G75*
G03*
X172720000Y-172720000I-3810000J0D01*
G01*
X119380000Y-134620000D02*
G75*
G03*
X119380000Y-134620000I-3810000J0D01*
G01*
D11*
X140904322Y-137559142D02*
X140904322Y-138067142D01*
X141702608Y-138284857D02*
X141702608Y-137559142D01*
X140178608Y-137559142D01*
X140178608Y-138284857D01*
X140178608Y-138792857D02*
X140178608Y-139808857D01*
X141702608Y-139155714D01*
X140178608Y-140679714D02*
X140178608Y-140824857D01*
X140251180Y-140970000D01*
X140323751Y-141042571D01*
X140468894Y-141115142D01*
X140759180Y-141187714D01*
X141122037Y-141187714D01*
X141412322Y-141115142D01*
X141557465Y-141042571D01*
X141630037Y-140970000D01*
X141702608Y-140824857D01*
X141702608Y-140679714D01*
X141630037Y-140534571D01*
X141557465Y-140462000D01*
X141412322Y-140389428D01*
X141122037Y-140316857D01*
X140759180Y-140316857D01*
X140468894Y-140389428D01*
X140323751Y-140462000D01*
X140251180Y-140534571D01*
X140178608Y-140679714D01*
X140178608Y-141695714D02*
X140178608Y-142711714D01*
X141702608Y-142058571D01*
X140904322Y-144961428D02*
X140976894Y-145179142D01*
X141049465Y-145251714D01*
X141194608Y-145324285D01*
X141412322Y-145324285D01*
X141557465Y-145251714D01*
X141630037Y-145179142D01*
X141702608Y-145034000D01*
X141702608Y-144453428D01*
X140178608Y-144453428D01*
X140178608Y-144961428D01*
X140251180Y-145106571D01*
X140323751Y-145179142D01*
X140468894Y-145251714D01*
X140614037Y-145251714D01*
X140759180Y-145179142D01*
X140831751Y-145106571D01*
X140904322Y-144961428D01*
X140904322Y-144453428D01*
X141702608Y-146630571D02*
X140904322Y-146630571D01*
X140759180Y-146558000D01*
X140686608Y-146412857D01*
X140686608Y-146122571D01*
X140759180Y-145977428D01*
X141630037Y-146630571D02*
X141702608Y-146485428D01*
X141702608Y-146122571D01*
X141630037Y-145977428D01*
X141484894Y-145904857D01*
X141339751Y-145904857D01*
X141194608Y-145977428D01*
X141122037Y-146122571D01*
X141122037Y-146485428D01*
X141049465Y-146630571D01*
X141630037Y-147283714D02*
X141702608Y-147428857D01*
X141702608Y-147719142D01*
X141630037Y-147864285D01*
X141484894Y-147936857D01*
X141412322Y-147936857D01*
X141267180Y-147864285D01*
X141194608Y-147719142D01*
X141194608Y-147501428D01*
X141122037Y-147356285D01*
X140976894Y-147283714D01*
X140904322Y-147283714D01*
X140759180Y-147356285D01*
X140686608Y-147501428D01*
X140686608Y-147719142D01*
X140759180Y-147864285D01*
X141702608Y-148590000D02*
X140686608Y-148590000D01*
X140178608Y-148590000D02*
X140251180Y-148517428D01*
X140323751Y-148590000D01*
X140251180Y-148662571D01*
X140178608Y-148590000D01*
X140323751Y-148590000D01*
X141630037Y-149968857D02*
X141702608Y-149823714D01*
X141702608Y-149533428D01*
X141630037Y-149388285D01*
X141557465Y-149315714D01*
X141412322Y-149243142D01*
X140976894Y-149243142D01*
X140831751Y-149315714D01*
X140759180Y-149388285D01*
X140686608Y-149533428D01*
X140686608Y-149823714D01*
X140759180Y-149968857D01*
X141702608Y-151783142D02*
X140178608Y-151783142D01*
X141702608Y-152654000D01*
X140178608Y-152654000D01*
X141702608Y-153597428D02*
X141630037Y-153452285D01*
X141557465Y-153379714D01*
X141412322Y-153307142D01*
X140976894Y-153307142D01*
X140831751Y-153379714D01*
X140759180Y-153452285D01*
X140686608Y-153597428D01*
X140686608Y-153815142D01*
X140759180Y-153960285D01*
X140831751Y-154032857D01*
X140976894Y-154105428D01*
X141412322Y-154105428D01*
X141557465Y-154032857D01*
X141630037Y-153960285D01*
X141702608Y-153815142D01*
X141702608Y-153597428D01*
X141702608Y-155411714D02*
X140178608Y-155411714D01*
X141630037Y-155411714D02*
X141702608Y-155266571D01*
X141702608Y-154976285D01*
X141630037Y-154831142D01*
X141557465Y-154758571D01*
X141412322Y-154686000D01*
X140976894Y-154686000D01*
X140831751Y-154758571D01*
X140759180Y-154831142D01*
X140686608Y-154976285D01*
X140686608Y-155266571D01*
X140759180Y-155411714D01*
X141630037Y-156718000D02*
X141702608Y-156572857D01*
X141702608Y-156282571D01*
X141630037Y-156137428D01*
X141484894Y-156064857D01*
X140904322Y-156064857D01*
X140759180Y-156137428D01*
X140686608Y-156282571D01*
X140686608Y-156572857D01*
X140759180Y-156718000D01*
X140904322Y-156790571D01*
X141049465Y-156790571D01*
X141194608Y-156064857D01*
X141702608Y-157443714D02*
X140178608Y-157443714D01*
X141267180Y-157951714D01*
X140178608Y-158459714D01*
X141702608Y-158459714D01*
X141557465Y-160056285D02*
X141630037Y-159983714D01*
X141702608Y-159766000D01*
X141702608Y-159620857D01*
X141630037Y-159403142D01*
X141484894Y-159258000D01*
X141339751Y-159185428D01*
X141049465Y-159112857D01*
X140831751Y-159112857D01*
X140541465Y-159185428D01*
X140396322Y-159258000D01*
X140251180Y-159403142D01*
X140178608Y-159620857D01*
X140178608Y-159766000D01*
X140251180Y-159983714D01*
X140323751Y-160056285D01*
X140178608Y-160709428D02*
X141412322Y-160709428D01*
X141557465Y-160782000D01*
X141630037Y-160854571D01*
X141702608Y-160999714D01*
X141702608Y-161290000D01*
X141630037Y-161435142D01*
X141557465Y-161507714D01*
X141412322Y-161580285D01*
X140178608Y-161580285D01*
X141630037Y-163394571D02*
X141702608Y-163612285D01*
X141702608Y-163975142D01*
X141630037Y-164120285D01*
X141557465Y-164192857D01*
X141412322Y-164265428D01*
X141267180Y-164265428D01*
X141122037Y-164192857D01*
X141049465Y-164120285D01*
X140976894Y-163975142D01*
X140904322Y-163684857D01*
X140831751Y-163539714D01*
X140759180Y-163467142D01*
X140614037Y-163394571D01*
X140468894Y-163394571D01*
X140323751Y-163467142D01*
X140251180Y-163539714D01*
X140178608Y-163684857D01*
X140178608Y-164047714D01*
X140251180Y-164265428D01*
X141702608Y-164918571D02*
X140178608Y-164918571D01*
X141702608Y-165571714D02*
X140904322Y-165571714D01*
X140759180Y-165499142D01*
X140686608Y-165354000D01*
X140686608Y-165136285D01*
X140759180Y-164991142D01*
X140831751Y-164918571D01*
X141702608Y-166297428D02*
X140686608Y-166297428D01*
X140178608Y-166297428D02*
X140251180Y-166224857D01*
X140323751Y-166297428D01*
X140251180Y-166370000D01*
X140178608Y-166297428D01*
X140323751Y-166297428D01*
X141630037Y-167603714D02*
X141702608Y-167458571D01*
X141702608Y-167168285D01*
X141630037Y-167023142D01*
X141484894Y-166950571D01*
X140904322Y-166950571D01*
X140759180Y-167023142D01*
X140686608Y-167168285D01*
X140686608Y-167458571D01*
X140759180Y-167603714D01*
X140904322Y-167676285D01*
X141049465Y-167676285D01*
X141194608Y-166950571D01*
X141702608Y-168547142D02*
X141630037Y-168402000D01*
X141484894Y-168329428D01*
X140178608Y-168329428D01*
X141702608Y-169780857D02*
X140178608Y-169780857D01*
X141630037Y-169780857D02*
X141702608Y-169635714D01*
X141702608Y-169345428D01*
X141630037Y-169200285D01*
X141557465Y-169127714D01*
X141412322Y-169055142D01*
X140976894Y-169055142D01*
X140831751Y-169127714D01*
X140759180Y-169200285D01*
X140686608Y-169345428D01*
X140686608Y-169635714D01*
X140759180Y-169780857D01*
X142632248Y-150622000D02*
X144156248Y-151130000D01*
X142632248Y-151638000D01*
X144156248Y-152944285D02*
X144156248Y-152073428D01*
X144156248Y-152508857D02*
X142632248Y-152508857D01*
X142849962Y-152363714D01*
X142995105Y-152218571D01*
X143067677Y-152073428D01*
X144011105Y-153597428D02*
X144083677Y-153670000D01*
X144156248Y-153597428D01*
X144083677Y-153524857D01*
X144011105Y-153597428D01*
X144156248Y-153597428D01*
X144156248Y-155121428D02*
X144156248Y-154250571D01*
X144156248Y-154686000D02*
X142632248Y-154686000D01*
X142849962Y-154540857D01*
X142995105Y-154395714D01*
X143067677Y-154250571D01*
X144083677Y-155702000D02*
X144156248Y-155919714D01*
X144156248Y-156282571D01*
X144083677Y-156427714D01*
X144011105Y-156500285D01*
X143865962Y-156572857D01*
X143720820Y-156572857D01*
X143575677Y-156500285D01*
X143503105Y-156427714D01*
X143430534Y-156282571D01*
X143357962Y-155992285D01*
X143285391Y-155847142D01*
X143212820Y-155774571D01*
X143067677Y-155702000D01*
X142922534Y-155702000D01*
X142777391Y-155774571D01*
X142704820Y-155847142D01*
X142632248Y-155992285D01*
X142632248Y-156355142D01*
X142704820Y-156572857D01*
D10*
X172720000Y-134620000D02*
G75*
G03*
X172720000Y-134620000I-3810000J0D01*
G01*
X119380000Y-172720000D02*
G75*
G03*
X119380000Y-172720000I-3810000J0D01*
G01*
X116202097Y-141950288D02*
X116250478Y-141895860D01*
X116298859Y-141744669D01*
X116298859Y-141647907D01*
X116250478Y-141508812D01*
X116153716Y-141424145D01*
X116056954Y-141387860D01*
X115863430Y-141363669D01*
X115718287Y-141381812D01*
X115524763Y-141454384D01*
X115428001Y-141514860D01*
X115331240Y-141623717D01*
X115282859Y-141774907D01*
X115282859Y-141871669D01*
X115331240Y-142010765D01*
X115379620Y-142053098D01*
X116298859Y-142518765D02*
X116250478Y-142428050D01*
X116202097Y-142385717D01*
X116105335Y-142349431D01*
X115815049Y-142385717D01*
X115718287Y-142446193D01*
X115669906Y-142500622D01*
X115621525Y-142603431D01*
X115621525Y-142748574D01*
X115669906Y-142839288D01*
X115718287Y-142881622D01*
X115815049Y-142917907D01*
X116105335Y-142881622D01*
X116202097Y-142821145D01*
X116250478Y-142766717D01*
X116298859Y-142663907D01*
X116298859Y-142518765D01*
X115621525Y-143377526D02*
X116298859Y-143292860D01*
X115718287Y-143365431D02*
X115669906Y-143419860D01*
X115621525Y-143522669D01*
X115621525Y-143667812D01*
X115669906Y-143758526D01*
X115766668Y-143794812D01*
X116298859Y-143728288D01*
X116250478Y-144653574D02*
X116298859Y-144550765D01*
X116298859Y-144357241D01*
X116250478Y-144266526D01*
X116202097Y-144224193D01*
X116105335Y-144187907D01*
X115815049Y-144224193D01*
X115718287Y-144284669D01*
X115669906Y-144339098D01*
X115621525Y-144441907D01*
X115621525Y-144635431D01*
X115669906Y-144726145D01*
X116250478Y-145476050D02*
X116298859Y-145373241D01*
X116298859Y-145179717D01*
X116250478Y-145089003D01*
X116153716Y-145052717D01*
X115766668Y-145101098D01*
X115669906Y-145161574D01*
X115621525Y-145264384D01*
X115621525Y-145457907D01*
X115669906Y-145548622D01*
X115766668Y-145584907D01*
X115863430Y-145572812D01*
X115960192Y-145076907D01*
X115621525Y-146038479D02*
X116637525Y-145911479D01*
X115669906Y-146032431D02*
X115621525Y-146135241D01*
X115621525Y-146328765D01*
X115669906Y-146419479D01*
X115718287Y-146461812D01*
X115815049Y-146498098D01*
X116105335Y-146461812D01*
X116202097Y-146401336D01*
X116250478Y-146346907D01*
X116298859Y-146244098D01*
X116298859Y-146050574D01*
X116250478Y-145959860D01*
X115621525Y-146812574D02*
X115621525Y-147199622D01*
X115282859Y-147000050D02*
X116153716Y-146891193D01*
X116250478Y-146927479D01*
X116298859Y-147018193D01*
X116298859Y-147114955D01*
X116298859Y-148227717D02*
X115282859Y-148354717D01*
X115669906Y-148306336D02*
X115621525Y-148409145D01*
X115621525Y-148602669D01*
X115669906Y-148693384D01*
X115718287Y-148735717D01*
X115815049Y-148772003D01*
X116105335Y-148735717D01*
X116202097Y-148675241D01*
X116250478Y-148620812D01*
X116298859Y-148518003D01*
X116298859Y-148324479D01*
X116250478Y-148233765D01*
X115621525Y-149134860D02*
X116298859Y-149292098D01*
X115621525Y-149618669D02*
X116298859Y-149292098D01*
X116540763Y-149165098D01*
X116589144Y-149110669D01*
X116637525Y-149007860D01*
X116298859Y-150695145D02*
X115282859Y-150822145D01*
X116008573Y-151070098D01*
X115282859Y-151499479D01*
X116298859Y-151372479D01*
X116298859Y-152291717D02*
X115766668Y-152358241D01*
X115669906Y-152321955D01*
X115621525Y-152231241D01*
X115621525Y-152037717D01*
X115669906Y-151934907D01*
X116250478Y-152297765D02*
X116298859Y-152194955D01*
X116298859Y-151953050D01*
X116250478Y-151862336D01*
X116153716Y-151826050D01*
X116056954Y-151838145D01*
X115960192Y-151898622D01*
X115911811Y-152001431D01*
X115911811Y-152243336D01*
X115863430Y-152346145D01*
X116298859Y-152775526D02*
X115621525Y-152860193D01*
X115815049Y-152836003D02*
X115718287Y-152896479D01*
X115669906Y-152950907D01*
X115621525Y-153053717D01*
X115621525Y-153150479D01*
X116298859Y-153404479D02*
X115282859Y-153531479D01*
X115911811Y-153549622D02*
X116298859Y-153791526D01*
X115621525Y-153876193D02*
X116008573Y-153440765D01*
X116298859Y-155001050D02*
X115282859Y-155128050D01*
X116008573Y-155376003D01*
X115282859Y-155805384D01*
X116298859Y-155678384D01*
X116298859Y-156307336D02*
X116250478Y-156216622D01*
X116202097Y-156174288D01*
X116105335Y-156138003D01*
X115815049Y-156174288D01*
X115718287Y-156234765D01*
X115669906Y-156289193D01*
X115621525Y-156392003D01*
X115621525Y-156537145D01*
X115669906Y-156627860D01*
X115718287Y-156670193D01*
X115815049Y-156706479D01*
X116105335Y-156670193D01*
X116202097Y-156609717D01*
X116250478Y-156555288D01*
X116298859Y-156452479D01*
X116298859Y-156307336D01*
X116298859Y-157081431D02*
X115621525Y-157166098D01*
X115815049Y-157141907D02*
X115718287Y-157202384D01*
X115669906Y-157256812D01*
X115621525Y-157359622D01*
X115621525Y-157456384D01*
X115621525Y-157649907D02*
X115621525Y-158036955D01*
X115282859Y-157837384D02*
X116153716Y-157728526D01*
X116250478Y-157764812D01*
X116298859Y-157855526D01*
X116298859Y-157952288D01*
X116298859Y-158436098D02*
X116250478Y-158345384D01*
X116202097Y-158303050D01*
X116105335Y-158266765D01*
X115815049Y-158303050D01*
X115718287Y-158363526D01*
X115669906Y-158417955D01*
X115621525Y-158520765D01*
X115621525Y-158665907D01*
X115669906Y-158756622D01*
X115718287Y-158798955D01*
X115815049Y-158835241D01*
X116105335Y-158798955D01*
X116202097Y-158738479D01*
X116250478Y-158684050D01*
X116298859Y-158581241D01*
X116298859Y-158436098D01*
X115621525Y-159294860D02*
X116298859Y-159210193D01*
X115718287Y-159282765D02*
X115669906Y-159337193D01*
X115621525Y-159440003D01*
X115621525Y-159585145D01*
X115669906Y-159675860D01*
X115766668Y-159712145D01*
X116298859Y-159645622D01*
X115282859Y-160933765D02*
X116298859Y-161048669D01*
X115573144Y-161332907D01*
X116298859Y-161435717D01*
X115282859Y-161804622D01*
X116298859Y-162596860D02*
X116298859Y-162016288D01*
X116298859Y-162306574D02*
X115282859Y-162433574D01*
X115428001Y-162318669D01*
X115524763Y-162209812D01*
X115573144Y-162107003D01*
X116298859Y-163032288D02*
X115282859Y-163159288D01*
X116008573Y-163407241D01*
X115282859Y-163836622D01*
X116298859Y-163709622D01*
X115766668Y-164259955D02*
X115766668Y-164598622D01*
X116298859Y-164677241D02*
X116298859Y-164193431D01*
X115282859Y-164320431D01*
X115282859Y-164804241D01*
X116298859Y-165112669D02*
X115282859Y-165239669D01*
X116008573Y-165487622D01*
X115282859Y-165917003D01*
X116298859Y-165790003D01*
X119570379Y-138285431D02*
X118554379Y-138412431D01*
X118554379Y-138654336D01*
X118602760Y-138793431D01*
X118699521Y-138878098D01*
X118796283Y-138914384D01*
X118989807Y-138938574D01*
X119134950Y-138920431D01*
X119328474Y-138847860D01*
X119425236Y-138787384D01*
X119521998Y-138678526D01*
X119570379Y-138527336D01*
X119570379Y-138285431D01*
X119521998Y-139694526D02*
X119570379Y-139591717D01*
X119570379Y-139398193D01*
X119521998Y-139307479D01*
X119425236Y-139271193D01*
X119038188Y-139319574D01*
X118941426Y-139380050D01*
X118893045Y-139482860D01*
X118893045Y-139676384D01*
X118941426Y-139767098D01*
X119038188Y-139803384D01*
X119134950Y-139791288D01*
X119231712Y-139295384D01*
X119521998Y-140129955D02*
X119570379Y-140220669D01*
X119570379Y-140414193D01*
X119521998Y-140517003D01*
X119425236Y-140577479D01*
X119376855Y-140583526D01*
X119280093Y-140547241D01*
X119231712Y-140456526D01*
X119231712Y-140311384D01*
X119183331Y-140220669D01*
X119086569Y-140184384D01*
X119038188Y-140190431D01*
X118941426Y-140250907D01*
X118893045Y-140353717D01*
X118893045Y-140498860D01*
X118941426Y-140589574D01*
X119570379Y-140994765D02*
X118893045Y-141079431D01*
X118554379Y-141121765D02*
X118602760Y-141067336D01*
X118651140Y-141109669D01*
X118602760Y-141164098D01*
X118554379Y-141121765D01*
X118651140Y-141109669D01*
X118893045Y-141998669D02*
X119715521Y-141895860D01*
X119812283Y-141835384D01*
X119860664Y-141780955D01*
X119909045Y-141678145D01*
X119909045Y-141533003D01*
X119860664Y-141442288D01*
X119521998Y-141920050D02*
X119570379Y-141817241D01*
X119570379Y-141623717D01*
X119521998Y-141533003D01*
X119473617Y-141490669D01*
X119376855Y-141454384D01*
X119086569Y-141490669D01*
X118989807Y-141551145D01*
X118941426Y-141605574D01*
X118893045Y-141708384D01*
X118893045Y-141901907D01*
X118941426Y-141992622D01*
X118893045Y-142482479D02*
X119570379Y-142397812D01*
X118989807Y-142470384D02*
X118941426Y-142524812D01*
X118893045Y-142627622D01*
X118893045Y-142772765D01*
X118941426Y-142863479D01*
X119038188Y-142899765D01*
X119570379Y-142833241D01*
X119521998Y-143710145D02*
X119570379Y-143607336D01*
X119570379Y-143413812D01*
X119521998Y-143323098D01*
X119425236Y-143286812D01*
X119038188Y-143335193D01*
X118941426Y-143395669D01*
X118893045Y-143498479D01*
X118893045Y-143692003D01*
X118941426Y-143782717D01*
X119038188Y-143819003D01*
X119134950Y-143806907D01*
X119231712Y-143311003D01*
X119570379Y-144623336D02*
X118554379Y-144750336D01*
X119521998Y-144629384D02*
X119570379Y-144526574D01*
X119570379Y-144333050D01*
X119521998Y-144242336D01*
X119473617Y-144200003D01*
X119376855Y-144163717D01*
X119086569Y-144200003D01*
X118989807Y-144260479D01*
X118941426Y-144314907D01*
X118893045Y-144417717D01*
X118893045Y-144611241D01*
X118941426Y-144701955D01*
X119570379Y-145881241D02*
X118554379Y-146008241D01*
X118941426Y-145959860D02*
X118893045Y-146062669D01*
X118893045Y-146256193D01*
X118941426Y-146346907D01*
X118989807Y-146389241D01*
X119086569Y-146425526D01*
X119376855Y-146389241D01*
X119473617Y-146328765D01*
X119521998Y-146274336D01*
X119570379Y-146171526D01*
X119570379Y-145978003D01*
X119521998Y-145887288D01*
X118893045Y-146788384D02*
X119570379Y-146945622D01*
X118893045Y-147272193D02*
X119570379Y-146945622D01*
X119812283Y-146818622D01*
X119860664Y-146764193D01*
X119909045Y-146661384D01*
X118554379Y-148765955D02*
X119280093Y-148675241D01*
X119425236Y-148608717D01*
X119521998Y-148499860D01*
X119570379Y-148348669D01*
X119570379Y-148251907D01*
X119570379Y-149558193D02*
X119038188Y-149624717D01*
X118941426Y-149588431D01*
X118893045Y-149497717D01*
X118893045Y-149304193D01*
X118941426Y-149201384D01*
X119521998Y-149564241D02*
X119570379Y-149461431D01*
X119570379Y-149219526D01*
X119521998Y-149128812D01*
X119425236Y-149092526D01*
X119328474Y-149104622D01*
X119231712Y-149165098D01*
X119183331Y-149267907D01*
X119183331Y-149509812D01*
X119134950Y-149612622D01*
X119570379Y-150042003D02*
X118893045Y-150126669D01*
X118989807Y-150114574D02*
X118941426Y-150169003D01*
X118893045Y-150271812D01*
X118893045Y-150416955D01*
X118941426Y-150507669D01*
X119038188Y-150543955D01*
X119570379Y-150477431D01*
X119038188Y-150543955D02*
X118941426Y-150604431D01*
X118893045Y-150707241D01*
X118893045Y-150852384D01*
X118941426Y-150943098D01*
X119038188Y-150979384D01*
X119570379Y-150912860D01*
X119570379Y-151832098D02*
X119038188Y-151898622D01*
X118941426Y-151862336D01*
X118893045Y-151771622D01*
X118893045Y-151578098D01*
X118941426Y-151475288D01*
X119521998Y-151838145D02*
X119570379Y-151735336D01*
X119570379Y-151493431D01*
X119521998Y-151402717D01*
X119425236Y-151366431D01*
X119328474Y-151378526D01*
X119231712Y-151439003D01*
X119183331Y-151541812D01*
X119183331Y-151783717D01*
X119134950Y-151886526D01*
X119570379Y-152461050D02*
X119521998Y-152370336D01*
X119425236Y-152334050D01*
X118554379Y-152442907D01*
X119038188Y-154027384D02*
X119086569Y-154166479D01*
X119134950Y-154208812D01*
X119231712Y-154245098D01*
X119376855Y-154226955D01*
X119473617Y-154166479D01*
X119521998Y-154112050D01*
X119570379Y-154009241D01*
X119570379Y-153622193D01*
X118554379Y-153749193D01*
X118554379Y-154087860D01*
X118602760Y-154178574D01*
X118651140Y-154220907D01*
X118747902Y-154257193D01*
X118844664Y-154245098D01*
X118941426Y-154184622D01*
X118989807Y-154130193D01*
X119038188Y-154027384D01*
X119038188Y-153688717D01*
X119570379Y-154783336D02*
X119521998Y-154692622D01*
X119473617Y-154650288D01*
X119376855Y-154614003D01*
X119086569Y-154650288D01*
X118989807Y-154710765D01*
X118941426Y-154765193D01*
X118893045Y-154868003D01*
X118893045Y-155013145D01*
X118941426Y-155103860D01*
X118989807Y-155146193D01*
X119086569Y-155182479D01*
X119376855Y-155146193D01*
X119473617Y-155085717D01*
X119521998Y-155031288D01*
X119570379Y-154928479D01*
X119570379Y-154783336D01*
X118893045Y-156077526D02*
X119570379Y-155992860D01*
X118893045Y-155642098D02*
X119425236Y-155575574D01*
X119521998Y-155611860D01*
X119570379Y-155702574D01*
X119570379Y-155847717D01*
X119521998Y-155950526D01*
X119473617Y-156004955D01*
X119570379Y-156912098D02*
X119038188Y-156978622D01*
X118941426Y-156942336D01*
X118893045Y-156851622D01*
X118893045Y-156658098D01*
X118941426Y-156555288D01*
X119521998Y-156918145D02*
X119570379Y-156815336D01*
X119570379Y-156573431D01*
X119521998Y-156482717D01*
X119425236Y-156446431D01*
X119328474Y-156458526D01*
X119231712Y-156519003D01*
X119183331Y-156621812D01*
X119183331Y-156863717D01*
X119134950Y-156966526D01*
X118893045Y-157480574D02*
X119763902Y-157371717D01*
X119860664Y-157311241D01*
X119909045Y-157208431D01*
X119909045Y-157160050D01*
X118554379Y-157522907D02*
X118602760Y-157468479D01*
X118651140Y-157510812D01*
X118602760Y-157565241D01*
X118554379Y-157522907D01*
X118651140Y-157510812D01*
X118893045Y-157964384D02*
X119763902Y-157855526D01*
X119860664Y-157795050D01*
X119909045Y-157692241D01*
X119909045Y-157643860D01*
X118554379Y-158006717D02*
X118602760Y-157952288D01*
X118651140Y-157994622D01*
X118602760Y-158049050D01*
X118554379Y-158006717D01*
X118651140Y-157994622D01*
X119570379Y-158798955D02*
X119038188Y-158865479D01*
X118941426Y-158829193D01*
X118893045Y-158738479D01*
X118893045Y-158544955D01*
X118941426Y-158442145D01*
X119521998Y-158805003D02*
X119570379Y-158702193D01*
X119570379Y-158460288D01*
X119521998Y-158369574D01*
X119425236Y-158333288D01*
X119328474Y-158345384D01*
X119231712Y-158405860D01*
X119183331Y-158508669D01*
X119183331Y-158750574D01*
X119134950Y-158853384D01*
X118893045Y-159367431D02*
X119763902Y-159258574D01*
X119860664Y-159198098D01*
X119909045Y-159095288D01*
X119909045Y-159046907D01*
X118554379Y-159409765D02*
X118602760Y-159355336D01*
X118651140Y-159397669D01*
X118602760Y-159452098D01*
X118554379Y-159409765D01*
X118651140Y-159397669D01*
X119957426Y-160008479D02*
X119909045Y-159966145D01*
X119763902Y-159887526D01*
X119667140Y-159851241D01*
X119521998Y-159821003D01*
X119280093Y-159802860D01*
X119086569Y-159827050D01*
X118844664Y-159905669D01*
X118699521Y-159972193D01*
X118602760Y-160032669D01*
X118457617Y-160147574D01*
X118409236Y-160202003D01*
X119038188Y-160510431D02*
X119038188Y-160849098D01*
X119570379Y-160927717D02*
X119570379Y-160443907D01*
X118554379Y-160570907D01*
X118554379Y-161054717D01*
X119570379Y-161508288D02*
X119521998Y-161417574D01*
X119425236Y-161381288D01*
X118554379Y-161490145D01*
X119521998Y-162288431D02*
X119570379Y-162185622D01*
X119570379Y-161992098D01*
X119521998Y-161901384D01*
X119425236Y-161865098D01*
X119038188Y-161913479D01*
X118941426Y-161973955D01*
X118893045Y-162076765D01*
X118893045Y-162270288D01*
X118941426Y-162361003D01*
X119038188Y-162397288D01*
X119134950Y-162385193D01*
X119231712Y-161889288D01*
X119521998Y-163207669D02*
X119570379Y-163104860D01*
X119570379Y-162911336D01*
X119521998Y-162820622D01*
X119473617Y-162778288D01*
X119376855Y-162742003D01*
X119086569Y-162778288D01*
X118989807Y-162838765D01*
X118941426Y-162893193D01*
X118893045Y-162996003D01*
X118893045Y-163189526D01*
X118941426Y-163280241D01*
X118893045Y-163576574D02*
X118893045Y-163963622D01*
X118554379Y-163764050D02*
X119425236Y-163655193D01*
X119521998Y-163691479D01*
X119570379Y-163782193D01*
X119570379Y-163878955D01*
X119570379Y-164217622D02*
X118893045Y-164302288D01*
X119086569Y-164278098D02*
X118989807Y-164338574D01*
X118941426Y-164393003D01*
X118893045Y-164495812D01*
X118893045Y-164592574D01*
X119570379Y-164991717D02*
X119521998Y-164901003D01*
X119473617Y-164858669D01*
X119376855Y-164822384D01*
X119086569Y-164858669D01*
X118989807Y-164919145D01*
X118941426Y-164973574D01*
X118893045Y-165076384D01*
X118893045Y-165221526D01*
X118941426Y-165312241D01*
X118989807Y-165354574D01*
X119086569Y-165390860D01*
X119376855Y-165354574D01*
X119473617Y-165294098D01*
X119521998Y-165239669D01*
X119570379Y-165136860D01*
X119570379Y-164991717D01*
X118554379Y-165796050D02*
X118554379Y-166473384D01*
X119570379Y-165910955D01*
X118554379Y-167053955D02*
X118554379Y-167150717D01*
X118602760Y-167241431D01*
X118651140Y-167283765D01*
X118747902Y-167320050D01*
X118941426Y-167344241D01*
X119183331Y-167314003D01*
X119376855Y-167241431D01*
X119473617Y-167180955D01*
X119521998Y-167126526D01*
X119570379Y-167023717D01*
X119570379Y-166926955D01*
X119521998Y-166836241D01*
X119473617Y-166793907D01*
X119376855Y-166757622D01*
X119183331Y-166733431D01*
X118941426Y-166763669D01*
X118747902Y-166836241D01*
X118651140Y-166896717D01*
X118602760Y-166951145D01*
X118554379Y-167053955D01*
X118554379Y-167731288D02*
X118554379Y-168408622D01*
X119570379Y-167846193D01*
X119957426Y-168523526D02*
X119909045Y-168577955D01*
X119763902Y-168692860D01*
X119667140Y-168753336D01*
X119521998Y-168819860D01*
X119280093Y-168898479D01*
X119086569Y-168922669D01*
X118844664Y-168904526D01*
X118699521Y-168874288D01*
X118602760Y-168838003D01*
X118457617Y-168759384D01*
X118409236Y-168717050D01*
X42600638Y-131255104D02*
X42600638Y-130674533D01*
X42561933Y-130558419D01*
X42484523Y-130481009D01*
X42368409Y-130442304D01*
X42291000Y-130442304D01*
X43374733Y-130442304D02*
X42987685Y-130442304D01*
X42987685Y-131255104D01*
X44110123Y-130519714D02*
X44071419Y-130481009D01*
X43955304Y-130442304D01*
X43877895Y-130442304D01*
X43761780Y-130481009D01*
X43684371Y-130558419D01*
X43645666Y-130635828D01*
X43606961Y-130790647D01*
X43606961Y-130906761D01*
X43645666Y-131061580D01*
X43684371Y-131138990D01*
X43761780Y-131216400D01*
X43877895Y-131255104D01*
X43955304Y-131255104D01*
X44071419Y-131216400D01*
X44110123Y-131177695D01*
X44690695Y-131255104D02*
X44690695Y-130674533D01*
X44651990Y-130558419D01*
X44574580Y-130481009D01*
X44458466Y-130442304D01*
X44381057Y-130442304D01*
X45464790Y-130442304D02*
X45077742Y-130442304D01*
X45077742Y-131255104D01*
X46200180Y-130519714D02*
X46161476Y-130481009D01*
X46045361Y-130442304D01*
X45967952Y-130442304D01*
X45851838Y-130481009D01*
X45774428Y-130558419D01*
X45735723Y-130635828D01*
X45697019Y-130790647D01*
X45697019Y-130906761D01*
X45735723Y-131061580D01*
X45774428Y-131138990D01*
X45851838Y-131216400D01*
X45967952Y-131255104D01*
X46045361Y-131255104D01*
X46161476Y-131216400D01*
X46200180Y-131177695D01*
X46780752Y-131255104D02*
X46780752Y-130674533D01*
X46742047Y-130558419D01*
X46664638Y-130481009D01*
X46548523Y-130442304D01*
X46471114Y-130442304D01*
X47554847Y-130442304D02*
X47167800Y-130442304D01*
X47167800Y-131255104D01*
X48290238Y-130519714D02*
X48251533Y-130481009D01*
X48135419Y-130442304D01*
X48058009Y-130442304D01*
X47941895Y-130481009D01*
X47864485Y-130558419D01*
X47825780Y-130635828D01*
X47787076Y-130790647D01*
X47787076Y-130906761D01*
X47825780Y-131061580D01*
X47864485Y-131138990D01*
X47941895Y-131216400D01*
X48058009Y-131255104D01*
X48135419Y-131255104D01*
X48251533Y-131216400D01*
X48290238Y-131177695D01*
X48870809Y-131255104D02*
X48870809Y-130674533D01*
X48832104Y-130558419D01*
X48754695Y-130481009D01*
X48638580Y-130442304D01*
X48561171Y-130442304D01*
X49644904Y-130442304D02*
X49257857Y-130442304D01*
X49257857Y-131255104D01*
X50380295Y-130519714D02*
X50341590Y-130481009D01*
X50225476Y-130442304D01*
X50148066Y-130442304D01*
X50031952Y-130481009D01*
X49954542Y-130558419D01*
X49915838Y-130635828D01*
X49877133Y-130790647D01*
X49877133Y-130906761D01*
X49915838Y-131061580D01*
X49954542Y-131138990D01*
X50031952Y-131216400D01*
X50148066Y-131255104D01*
X50225476Y-131255104D01*
X50341590Y-131216400D01*
X50380295Y-131177695D01*
X96520000Y-172720000D02*
G75*
G03*
X96520000Y-172720000I-3810000J0D01*
G01*
X43180000Y-134620000D02*
G75*
G03*
X43180000Y-134620000I-3810000J0D01*
G01*
D11*
X64704322Y-137559142D02*
X64704322Y-138067142D01*
X65502608Y-138284857D02*
X65502608Y-137559142D01*
X63978608Y-137559142D01*
X63978608Y-138284857D01*
X63978608Y-138792857D02*
X63978608Y-139808857D01*
X65502608Y-139155714D01*
X63978608Y-140679714D02*
X63978608Y-140824857D01*
X64051180Y-140970000D01*
X64123751Y-141042571D01*
X64268894Y-141115142D01*
X64559180Y-141187714D01*
X64922037Y-141187714D01*
X65212322Y-141115142D01*
X65357465Y-141042571D01*
X65430037Y-140970000D01*
X65502608Y-140824857D01*
X65502608Y-140679714D01*
X65430037Y-140534571D01*
X65357465Y-140462000D01*
X65212322Y-140389428D01*
X64922037Y-140316857D01*
X64559180Y-140316857D01*
X64268894Y-140389428D01*
X64123751Y-140462000D01*
X64051180Y-140534571D01*
X63978608Y-140679714D01*
X63978608Y-141695714D02*
X63978608Y-142711714D01*
X65502608Y-142058571D01*
X64704322Y-144961428D02*
X64776894Y-145179142D01*
X64849465Y-145251714D01*
X64994608Y-145324285D01*
X65212322Y-145324285D01*
X65357465Y-145251714D01*
X65430037Y-145179142D01*
X65502608Y-145034000D01*
X65502608Y-144453428D01*
X63978608Y-144453428D01*
X63978608Y-144961428D01*
X64051180Y-145106571D01*
X64123751Y-145179142D01*
X64268894Y-145251714D01*
X64414037Y-145251714D01*
X64559180Y-145179142D01*
X64631751Y-145106571D01*
X64704322Y-144961428D01*
X64704322Y-144453428D01*
X65502608Y-146630571D02*
X64704322Y-146630571D01*
X64559180Y-146558000D01*
X64486608Y-146412857D01*
X64486608Y-146122571D01*
X64559180Y-145977428D01*
X65430037Y-146630571D02*
X65502608Y-146485428D01*
X65502608Y-146122571D01*
X65430037Y-145977428D01*
X65284894Y-145904857D01*
X65139751Y-145904857D01*
X64994608Y-145977428D01*
X64922037Y-146122571D01*
X64922037Y-146485428D01*
X64849465Y-146630571D01*
X65430037Y-147283714D02*
X65502608Y-147428857D01*
X65502608Y-147719142D01*
X65430037Y-147864285D01*
X65284894Y-147936857D01*
X65212322Y-147936857D01*
X65067180Y-147864285D01*
X64994608Y-147719142D01*
X64994608Y-147501428D01*
X64922037Y-147356285D01*
X64776894Y-147283714D01*
X64704322Y-147283714D01*
X64559180Y-147356285D01*
X64486608Y-147501428D01*
X64486608Y-147719142D01*
X64559180Y-147864285D01*
X65502608Y-148590000D02*
X64486608Y-148590000D01*
X63978608Y-148590000D02*
X64051180Y-148517428D01*
X64123751Y-148590000D01*
X64051180Y-148662571D01*
X63978608Y-148590000D01*
X64123751Y-148590000D01*
X65430037Y-149968857D02*
X65502608Y-149823714D01*
X65502608Y-149533428D01*
X65430037Y-149388285D01*
X65357465Y-149315714D01*
X65212322Y-149243142D01*
X64776894Y-149243142D01*
X64631751Y-149315714D01*
X64559180Y-149388285D01*
X64486608Y-149533428D01*
X64486608Y-149823714D01*
X64559180Y-149968857D01*
X65502608Y-151783142D02*
X63978608Y-151783142D01*
X65502608Y-152654000D01*
X63978608Y-152654000D01*
X65502608Y-153597428D02*
X65430037Y-153452285D01*
X65357465Y-153379714D01*
X65212322Y-153307142D01*
X64776894Y-153307142D01*
X64631751Y-153379714D01*
X64559180Y-153452285D01*
X64486608Y-153597428D01*
X64486608Y-153815142D01*
X64559180Y-153960285D01*
X64631751Y-154032857D01*
X64776894Y-154105428D01*
X65212322Y-154105428D01*
X65357465Y-154032857D01*
X65430037Y-153960285D01*
X65502608Y-153815142D01*
X65502608Y-153597428D01*
X65502608Y-155411714D02*
X63978608Y-155411714D01*
X65430037Y-155411714D02*
X65502608Y-155266571D01*
X65502608Y-154976285D01*
X65430037Y-154831142D01*
X65357465Y-154758571D01*
X65212322Y-154686000D01*
X64776894Y-154686000D01*
X64631751Y-154758571D01*
X64559180Y-154831142D01*
X64486608Y-154976285D01*
X64486608Y-155266571D01*
X64559180Y-155411714D01*
X65430037Y-156718000D02*
X65502608Y-156572857D01*
X65502608Y-156282571D01*
X65430037Y-156137428D01*
X65284894Y-156064857D01*
X64704322Y-156064857D01*
X64559180Y-156137428D01*
X64486608Y-156282571D01*
X64486608Y-156572857D01*
X64559180Y-156718000D01*
X64704322Y-156790571D01*
X64849465Y-156790571D01*
X64994608Y-156064857D01*
X65502608Y-157443714D02*
X63978608Y-157443714D01*
X65067180Y-157951714D01*
X63978608Y-158459714D01*
X65502608Y-158459714D01*
X65357465Y-160056285D02*
X65430037Y-159983714D01*
X65502608Y-159766000D01*
X65502608Y-159620857D01*
X65430037Y-159403142D01*
X65284894Y-159258000D01*
X65139751Y-159185428D01*
X64849465Y-159112857D01*
X64631751Y-159112857D01*
X64341465Y-159185428D01*
X64196322Y-159258000D01*
X64051180Y-159403142D01*
X63978608Y-159620857D01*
X63978608Y-159766000D01*
X64051180Y-159983714D01*
X64123751Y-160056285D01*
X63978608Y-160709428D02*
X65212322Y-160709428D01*
X65357465Y-160782000D01*
X65430037Y-160854571D01*
X65502608Y-160999714D01*
X65502608Y-161290000D01*
X65430037Y-161435142D01*
X65357465Y-161507714D01*
X65212322Y-161580285D01*
X63978608Y-161580285D01*
X65430037Y-163394571D02*
X65502608Y-163612285D01*
X65502608Y-163975142D01*
X65430037Y-164120285D01*
X65357465Y-164192857D01*
X65212322Y-164265428D01*
X65067180Y-164265428D01*
X64922037Y-164192857D01*
X64849465Y-164120285D01*
X64776894Y-163975142D01*
X64704322Y-163684857D01*
X64631751Y-163539714D01*
X64559180Y-163467142D01*
X64414037Y-163394571D01*
X64268894Y-163394571D01*
X64123751Y-163467142D01*
X64051180Y-163539714D01*
X63978608Y-163684857D01*
X63978608Y-164047714D01*
X64051180Y-164265428D01*
X65502608Y-164918571D02*
X63978608Y-164918571D01*
X65502608Y-165571714D02*
X64704322Y-165571714D01*
X64559180Y-165499142D01*
X64486608Y-165354000D01*
X64486608Y-165136285D01*
X64559180Y-164991142D01*
X64631751Y-164918571D01*
X65502608Y-166297428D02*
X64486608Y-166297428D01*
X63978608Y-166297428D02*
X64051180Y-166224857D01*
X64123751Y-166297428D01*
X64051180Y-166370000D01*
X63978608Y-166297428D01*
X64123751Y-166297428D01*
X65430037Y-167603714D02*
X65502608Y-167458571D01*
X65502608Y-167168285D01*
X65430037Y-167023142D01*
X65284894Y-166950571D01*
X64704322Y-166950571D01*
X64559180Y-167023142D01*
X64486608Y-167168285D01*
X64486608Y-167458571D01*
X64559180Y-167603714D01*
X64704322Y-167676285D01*
X64849465Y-167676285D01*
X64994608Y-166950571D01*
X65502608Y-168547142D02*
X65430037Y-168402000D01*
X65284894Y-168329428D01*
X63978608Y-168329428D01*
X65502608Y-169780857D02*
X63978608Y-169780857D01*
X65430037Y-169780857D02*
X65502608Y-169635714D01*
X65502608Y-169345428D01*
X65430037Y-169200285D01*
X65357465Y-169127714D01*
X65212322Y-169055142D01*
X64776894Y-169055142D01*
X64631751Y-169127714D01*
X64559180Y-169200285D01*
X64486608Y-169345428D01*
X64486608Y-169635714D01*
X64559180Y-169780857D01*
X66432248Y-150622000D02*
X67956248Y-151130000D01*
X66432248Y-151638000D01*
X67956248Y-152944285D02*
X67956248Y-152073428D01*
X67956248Y-152508857D02*
X66432248Y-152508857D01*
X66649962Y-152363714D01*
X66795105Y-152218571D01*
X66867677Y-152073428D01*
X67811105Y-153597428D02*
X67883677Y-153670000D01*
X67956248Y-153597428D01*
X67883677Y-153524857D01*
X67811105Y-153597428D01*
X67956248Y-153597428D01*
X67956248Y-155121428D02*
X67956248Y-154250571D01*
X67956248Y-154686000D02*
X66432248Y-154686000D01*
X66649962Y-154540857D01*
X66795105Y-154395714D01*
X66867677Y-154250571D01*
X67883677Y-155702000D02*
X67956248Y-155919714D01*
X67956248Y-156282571D01*
X67883677Y-156427714D01*
X67811105Y-156500285D01*
X67665962Y-156572857D01*
X67520820Y-156572857D01*
X67375677Y-156500285D01*
X67303105Y-156427714D01*
X67230534Y-156282571D01*
X67157962Y-155992285D01*
X67085391Y-155847142D01*
X67012820Y-155774571D01*
X66867677Y-155702000D01*
X66722534Y-155702000D01*
X66577391Y-155774571D01*
X66504820Y-155847142D01*
X66432248Y-155992285D01*
X66432248Y-156355142D01*
X66504820Y-156572857D01*
D10*
X96520000Y-134620000D02*
G75*
G03*
X96520000Y-134620000I-3810000J0D01*
G01*
X43180000Y-172720000D02*
G75*
G03*
X43180000Y-172720000I-3810000J0D01*
G01*
X40002097Y-141950288D02*
X40050478Y-141895860D01*
X40098859Y-141744669D01*
X40098859Y-141647907D01*
X40050478Y-141508812D01*
X39953716Y-141424145D01*
X39856954Y-141387860D01*
X39663430Y-141363669D01*
X39518287Y-141381812D01*
X39324763Y-141454384D01*
X39228001Y-141514860D01*
X39131240Y-141623717D01*
X39082859Y-141774907D01*
X39082859Y-141871669D01*
X39131240Y-142010765D01*
X39179620Y-142053098D01*
X40098859Y-142518765D02*
X40050478Y-142428050D01*
X40002097Y-142385717D01*
X39905335Y-142349431D01*
X39615049Y-142385717D01*
X39518287Y-142446193D01*
X39469906Y-142500622D01*
X39421525Y-142603431D01*
X39421525Y-142748574D01*
X39469906Y-142839288D01*
X39518287Y-142881622D01*
X39615049Y-142917907D01*
X39905335Y-142881622D01*
X40002097Y-142821145D01*
X40050478Y-142766717D01*
X40098859Y-142663907D01*
X40098859Y-142518765D01*
X39421525Y-143377526D02*
X40098859Y-143292860D01*
X39518287Y-143365431D02*
X39469906Y-143419860D01*
X39421525Y-143522669D01*
X39421525Y-143667812D01*
X39469906Y-143758526D01*
X39566668Y-143794812D01*
X40098859Y-143728288D01*
X40050478Y-144653574D02*
X40098859Y-144550765D01*
X40098859Y-144357241D01*
X40050478Y-144266526D01*
X40002097Y-144224193D01*
X39905335Y-144187907D01*
X39615049Y-144224193D01*
X39518287Y-144284669D01*
X39469906Y-144339098D01*
X39421525Y-144441907D01*
X39421525Y-144635431D01*
X39469906Y-144726145D01*
X40050478Y-145476050D02*
X40098859Y-145373241D01*
X40098859Y-145179717D01*
X40050478Y-145089003D01*
X39953716Y-145052717D01*
X39566668Y-145101098D01*
X39469906Y-145161574D01*
X39421525Y-145264384D01*
X39421525Y-145457907D01*
X39469906Y-145548622D01*
X39566668Y-145584907D01*
X39663430Y-145572812D01*
X39760192Y-145076907D01*
X39421525Y-146038479D02*
X40437525Y-145911479D01*
X39469906Y-146032431D02*
X39421525Y-146135241D01*
X39421525Y-146328765D01*
X39469906Y-146419479D01*
X39518287Y-146461812D01*
X39615049Y-146498098D01*
X39905335Y-146461812D01*
X40002097Y-146401336D01*
X40050478Y-146346907D01*
X40098859Y-146244098D01*
X40098859Y-146050574D01*
X40050478Y-145959860D01*
X39421525Y-146812574D02*
X39421525Y-147199622D01*
X39082859Y-147000050D02*
X39953716Y-146891193D01*
X40050478Y-146927479D01*
X40098859Y-147018193D01*
X40098859Y-147114955D01*
X40098859Y-148227717D02*
X39082859Y-148354717D01*
X39469906Y-148306336D02*
X39421525Y-148409145D01*
X39421525Y-148602669D01*
X39469906Y-148693384D01*
X39518287Y-148735717D01*
X39615049Y-148772003D01*
X39905335Y-148735717D01*
X40002097Y-148675241D01*
X40050478Y-148620812D01*
X40098859Y-148518003D01*
X40098859Y-148324479D01*
X40050478Y-148233765D01*
X39421525Y-149134860D02*
X40098859Y-149292098D01*
X39421525Y-149618669D02*
X40098859Y-149292098D01*
X40340763Y-149165098D01*
X40389144Y-149110669D01*
X40437525Y-149007860D01*
X40098859Y-150695145D02*
X39082859Y-150822145D01*
X39808573Y-151070098D01*
X39082859Y-151499479D01*
X40098859Y-151372479D01*
X40098859Y-152291717D02*
X39566668Y-152358241D01*
X39469906Y-152321955D01*
X39421525Y-152231241D01*
X39421525Y-152037717D01*
X39469906Y-151934907D01*
X40050478Y-152297765D02*
X40098859Y-152194955D01*
X40098859Y-151953050D01*
X40050478Y-151862336D01*
X39953716Y-151826050D01*
X39856954Y-151838145D01*
X39760192Y-151898622D01*
X39711811Y-152001431D01*
X39711811Y-152243336D01*
X39663430Y-152346145D01*
X40098859Y-152775526D02*
X39421525Y-152860193D01*
X39615049Y-152836003D02*
X39518287Y-152896479D01*
X39469906Y-152950907D01*
X39421525Y-153053717D01*
X39421525Y-153150479D01*
X40098859Y-153404479D02*
X39082859Y-153531479D01*
X39711811Y-153549622D02*
X40098859Y-153791526D01*
X39421525Y-153876193D02*
X39808573Y-153440765D01*
X40098859Y-155001050D02*
X39082859Y-155128050D01*
X39808573Y-155376003D01*
X39082859Y-155805384D01*
X40098859Y-155678384D01*
X40098859Y-156307336D02*
X40050478Y-156216622D01*
X40002097Y-156174288D01*
X39905335Y-156138003D01*
X39615049Y-156174288D01*
X39518287Y-156234765D01*
X39469906Y-156289193D01*
X39421525Y-156392003D01*
X39421525Y-156537145D01*
X39469906Y-156627860D01*
X39518287Y-156670193D01*
X39615049Y-156706479D01*
X39905335Y-156670193D01*
X40002097Y-156609717D01*
X40050478Y-156555288D01*
X40098859Y-156452479D01*
X40098859Y-156307336D01*
X40098859Y-157081431D02*
X39421525Y-157166098D01*
X39615049Y-157141907D02*
X39518287Y-157202384D01*
X39469906Y-157256812D01*
X39421525Y-157359622D01*
X39421525Y-157456384D01*
X39421525Y-157649907D02*
X39421525Y-158036955D01*
X39082859Y-157837384D02*
X39953716Y-157728526D01*
X40050478Y-157764812D01*
X40098859Y-157855526D01*
X40098859Y-157952288D01*
X40098859Y-158436098D02*
X40050478Y-158345384D01*
X40002097Y-158303050D01*
X39905335Y-158266765D01*
X39615049Y-158303050D01*
X39518287Y-158363526D01*
X39469906Y-158417955D01*
X39421525Y-158520765D01*
X39421525Y-158665907D01*
X39469906Y-158756622D01*
X39518287Y-158798955D01*
X39615049Y-158835241D01*
X39905335Y-158798955D01*
X40002097Y-158738479D01*
X40050478Y-158684050D01*
X40098859Y-158581241D01*
X40098859Y-158436098D01*
X39421525Y-159294860D02*
X40098859Y-159210193D01*
X39518287Y-159282765D02*
X39469906Y-159337193D01*
X39421525Y-159440003D01*
X39421525Y-159585145D01*
X39469906Y-159675860D01*
X39566668Y-159712145D01*
X40098859Y-159645622D01*
X39082859Y-160933765D02*
X40098859Y-161048669D01*
X39373144Y-161332907D01*
X40098859Y-161435717D01*
X39082859Y-161804622D01*
X40098859Y-162596860D02*
X40098859Y-162016288D01*
X40098859Y-162306574D02*
X39082859Y-162433574D01*
X39228001Y-162318669D01*
X39324763Y-162209812D01*
X39373144Y-162107003D01*
X40098859Y-163032288D02*
X39082859Y-163159288D01*
X39808573Y-163407241D01*
X39082859Y-163836622D01*
X40098859Y-163709622D01*
X39566668Y-164259955D02*
X39566668Y-164598622D01*
X40098859Y-164677241D02*
X40098859Y-164193431D01*
X39082859Y-164320431D01*
X39082859Y-164804241D01*
X40098859Y-165112669D02*
X39082859Y-165239669D01*
X39808573Y-165487622D01*
X39082859Y-165917003D01*
X40098859Y-165790003D01*
X43370379Y-138285431D02*
X42354379Y-138412431D01*
X42354379Y-138654336D01*
X42402760Y-138793431D01*
X42499521Y-138878098D01*
X42596283Y-138914384D01*
X42789807Y-138938574D01*
X42934950Y-138920431D01*
X43128474Y-138847860D01*
X43225236Y-138787384D01*
X43321998Y-138678526D01*
X43370379Y-138527336D01*
X43370379Y-138285431D01*
X43321998Y-139694526D02*
X43370379Y-139591717D01*
X43370379Y-139398193D01*
X43321998Y-139307479D01*
X43225236Y-139271193D01*
X42838188Y-139319574D01*
X42741426Y-139380050D01*
X42693045Y-139482860D01*
X42693045Y-139676384D01*
X42741426Y-139767098D01*
X42838188Y-139803384D01*
X42934950Y-139791288D01*
X43031712Y-139295384D01*
X43321998Y-140129955D02*
X43370379Y-140220669D01*
X43370379Y-140414193D01*
X43321998Y-140517003D01*
X43225236Y-140577479D01*
X43176855Y-140583526D01*
X43080093Y-140547241D01*
X43031712Y-140456526D01*
X43031712Y-140311384D01*
X42983331Y-140220669D01*
X42886569Y-140184384D01*
X42838188Y-140190431D01*
X42741426Y-140250907D01*
X42693045Y-140353717D01*
X42693045Y-140498860D01*
X42741426Y-140589574D01*
X43370379Y-140994765D02*
X42693045Y-141079431D01*
X42354379Y-141121765D02*
X42402760Y-141067336D01*
X42451140Y-141109669D01*
X42402760Y-141164098D01*
X42354379Y-141121765D01*
X42451140Y-141109669D01*
X42693045Y-141998669D02*
X43515521Y-141895860D01*
X43612283Y-141835384D01*
X43660664Y-141780955D01*
X43709045Y-141678145D01*
X43709045Y-141533003D01*
X43660664Y-141442288D01*
X43321998Y-141920050D02*
X43370379Y-141817241D01*
X43370379Y-141623717D01*
X43321998Y-141533003D01*
X43273617Y-141490669D01*
X43176855Y-141454384D01*
X42886569Y-141490669D01*
X42789807Y-141551145D01*
X42741426Y-141605574D01*
X42693045Y-141708384D01*
X42693045Y-141901907D01*
X42741426Y-141992622D01*
X42693045Y-142482479D02*
X43370379Y-142397812D01*
X42789807Y-142470384D02*
X42741426Y-142524812D01*
X42693045Y-142627622D01*
X42693045Y-142772765D01*
X42741426Y-142863479D01*
X42838188Y-142899765D01*
X43370379Y-142833241D01*
X43321998Y-143710145D02*
X43370379Y-143607336D01*
X43370379Y-143413812D01*
X43321998Y-143323098D01*
X43225236Y-143286812D01*
X42838188Y-143335193D01*
X42741426Y-143395669D01*
X42693045Y-143498479D01*
X42693045Y-143692003D01*
X42741426Y-143782717D01*
X42838188Y-143819003D01*
X42934950Y-143806907D01*
X43031712Y-143311003D01*
X43370379Y-144623336D02*
X42354379Y-144750336D01*
X43321998Y-144629384D02*
X43370379Y-144526574D01*
X43370379Y-144333050D01*
X43321998Y-144242336D01*
X43273617Y-144200003D01*
X43176855Y-144163717D01*
X42886569Y-144200003D01*
X42789807Y-144260479D01*
X42741426Y-144314907D01*
X42693045Y-144417717D01*
X42693045Y-144611241D01*
X42741426Y-144701955D01*
X43370379Y-145881241D02*
X42354379Y-146008241D01*
X42741426Y-145959860D02*
X42693045Y-146062669D01*
X42693045Y-146256193D01*
X42741426Y-146346907D01*
X42789807Y-146389241D01*
X42886569Y-146425526D01*
X43176855Y-146389241D01*
X43273617Y-146328765D01*
X43321998Y-146274336D01*
X43370379Y-146171526D01*
X43370379Y-145978003D01*
X43321998Y-145887288D01*
X42693045Y-146788384D02*
X43370379Y-146945622D01*
X42693045Y-147272193D02*
X43370379Y-146945622D01*
X43612283Y-146818622D01*
X43660664Y-146764193D01*
X43709045Y-146661384D01*
X42354379Y-148765955D02*
X43080093Y-148675241D01*
X43225236Y-148608717D01*
X43321998Y-148499860D01*
X43370379Y-148348669D01*
X43370379Y-148251907D01*
X43370379Y-149558193D02*
X42838188Y-149624717D01*
X42741426Y-149588431D01*
X42693045Y-149497717D01*
X42693045Y-149304193D01*
X42741426Y-149201384D01*
X43321998Y-149564241D02*
X43370379Y-149461431D01*
X43370379Y-149219526D01*
X43321998Y-149128812D01*
X43225236Y-149092526D01*
X43128474Y-149104622D01*
X43031712Y-149165098D01*
X42983331Y-149267907D01*
X42983331Y-149509812D01*
X42934950Y-149612622D01*
X43370379Y-150042003D02*
X42693045Y-150126669D01*
X42789807Y-150114574D02*
X42741426Y-150169003D01*
X42693045Y-150271812D01*
X42693045Y-150416955D01*
X42741426Y-150507669D01*
X42838188Y-150543955D01*
X43370379Y-150477431D01*
X42838188Y-150543955D02*
X42741426Y-150604431D01*
X42693045Y-150707241D01*
X42693045Y-150852384D01*
X42741426Y-150943098D01*
X42838188Y-150979384D01*
X43370379Y-150912860D01*
X43370379Y-151832098D02*
X42838188Y-151898622D01*
X42741426Y-151862336D01*
X42693045Y-151771622D01*
X42693045Y-151578098D01*
X42741426Y-151475288D01*
X43321998Y-151838145D02*
X43370379Y-151735336D01*
X43370379Y-151493431D01*
X43321998Y-151402717D01*
X43225236Y-151366431D01*
X43128474Y-151378526D01*
X43031712Y-151439003D01*
X42983331Y-151541812D01*
X42983331Y-151783717D01*
X42934950Y-151886526D01*
X43370379Y-152461050D02*
X43321998Y-152370336D01*
X43225236Y-152334050D01*
X42354379Y-152442907D01*
X42838188Y-154027384D02*
X42886569Y-154166479D01*
X42934950Y-154208812D01*
X43031712Y-154245098D01*
X43176855Y-154226955D01*
X43273617Y-154166479D01*
X43321998Y-154112050D01*
X43370379Y-154009241D01*
X43370379Y-153622193D01*
X42354379Y-153749193D01*
X42354379Y-154087860D01*
X42402760Y-154178574D01*
X42451140Y-154220907D01*
X42547902Y-154257193D01*
X42644664Y-154245098D01*
X42741426Y-154184622D01*
X42789807Y-154130193D01*
X42838188Y-154027384D01*
X42838188Y-153688717D01*
X43370379Y-154783336D02*
X43321998Y-154692622D01*
X43273617Y-154650288D01*
X43176855Y-154614003D01*
X42886569Y-154650288D01*
X42789807Y-154710765D01*
X42741426Y-154765193D01*
X42693045Y-154868003D01*
X42693045Y-155013145D01*
X42741426Y-155103860D01*
X42789807Y-155146193D01*
X42886569Y-155182479D01*
X43176855Y-155146193D01*
X43273617Y-155085717D01*
X43321998Y-155031288D01*
X43370379Y-154928479D01*
X43370379Y-154783336D01*
X42693045Y-156077526D02*
X43370379Y-155992860D01*
X42693045Y-155642098D02*
X43225236Y-155575574D01*
X43321998Y-155611860D01*
X43370379Y-155702574D01*
X43370379Y-155847717D01*
X43321998Y-155950526D01*
X43273617Y-156004955D01*
X43370379Y-156912098D02*
X42838188Y-156978622D01*
X42741426Y-156942336D01*
X42693045Y-156851622D01*
X42693045Y-156658098D01*
X42741426Y-156555288D01*
X43321998Y-156918145D02*
X43370379Y-156815336D01*
X43370379Y-156573431D01*
X43321998Y-156482717D01*
X43225236Y-156446431D01*
X43128474Y-156458526D01*
X43031712Y-156519003D01*
X42983331Y-156621812D01*
X42983331Y-156863717D01*
X42934950Y-156966526D01*
X42693045Y-157480574D02*
X43563902Y-157371717D01*
X43660664Y-157311241D01*
X43709045Y-157208431D01*
X43709045Y-157160050D01*
X42354379Y-157522907D02*
X42402760Y-157468479D01*
X42451140Y-157510812D01*
X42402760Y-157565241D01*
X42354379Y-157522907D01*
X42451140Y-157510812D01*
X42693045Y-157964384D02*
X43563902Y-157855526D01*
X43660664Y-157795050D01*
X43709045Y-157692241D01*
X43709045Y-157643860D01*
X42354379Y-158006717D02*
X42402760Y-157952288D01*
X42451140Y-157994622D01*
X42402760Y-158049050D01*
X42354379Y-158006717D01*
X42451140Y-157994622D01*
X43370379Y-158798955D02*
X42838188Y-158865479D01*
X42741426Y-158829193D01*
X42693045Y-158738479D01*
X42693045Y-158544955D01*
X42741426Y-158442145D01*
X43321998Y-158805003D02*
X43370379Y-158702193D01*
X43370379Y-158460288D01*
X43321998Y-158369574D01*
X43225236Y-158333288D01*
X43128474Y-158345384D01*
X43031712Y-158405860D01*
X42983331Y-158508669D01*
X42983331Y-158750574D01*
X42934950Y-158853384D01*
X42693045Y-159367431D02*
X43563902Y-159258574D01*
X43660664Y-159198098D01*
X43709045Y-159095288D01*
X43709045Y-159046907D01*
X42354379Y-159409765D02*
X42402760Y-159355336D01*
X42451140Y-159397669D01*
X42402760Y-159452098D01*
X42354379Y-159409765D01*
X42451140Y-159397669D01*
X43757426Y-160008479D02*
X43709045Y-159966145D01*
X43563902Y-159887526D01*
X43467140Y-159851241D01*
X43321998Y-159821003D01*
X43080093Y-159802860D01*
X42886569Y-159827050D01*
X42644664Y-159905669D01*
X42499521Y-159972193D01*
X42402760Y-160032669D01*
X42257617Y-160147574D01*
X42209236Y-160202003D01*
X42838188Y-160510431D02*
X42838188Y-160849098D01*
X43370379Y-160927717D02*
X43370379Y-160443907D01*
X42354379Y-160570907D01*
X42354379Y-161054717D01*
X43370379Y-161508288D02*
X43321998Y-161417574D01*
X43225236Y-161381288D01*
X42354379Y-161490145D01*
X43321998Y-162288431D02*
X43370379Y-162185622D01*
X43370379Y-161992098D01*
X43321998Y-161901384D01*
X43225236Y-161865098D01*
X42838188Y-161913479D01*
X42741426Y-161973955D01*
X42693045Y-162076765D01*
X42693045Y-162270288D01*
X42741426Y-162361003D01*
X42838188Y-162397288D01*
X42934950Y-162385193D01*
X43031712Y-161889288D01*
X43321998Y-163207669D02*
X43370379Y-163104860D01*
X43370379Y-162911336D01*
X43321998Y-162820622D01*
X43273617Y-162778288D01*
X43176855Y-162742003D01*
X42886569Y-162778288D01*
X42789807Y-162838765D01*
X42741426Y-162893193D01*
X42693045Y-162996003D01*
X42693045Y-163189526D01*
X42741426Y-163280241D01*
X42693045Y-163576574D02*
X42693045Y-163963622D01*
X42354379Y-163764050D02*
X43225236Y-163655193D01*
X43321998Y-163691479D01*
X43370379Y-163782193D01*
X43370379Y-163878955D01*
X43370379Y-164217622D02*
X42693045Y-164302288D01*
X42886569Y-164278098D02*
X42789807Y-164338574D01*
X42741426Y-164393003D01*
X42693045Y-164495812D01*
X42693045Y-164592574D01*
X43370379Y-164991717D02*
X43321998Y-164901003D01*
X43273617Y-164858669D01*
X43176855Y-164822384D01*
X42886569Y-164858669D01*
X42789807Y-164919145D01*
X42741426Y-164973574D01*
X42693045Y-165076384D01*
X42693045Y-165221526D01*
X42741426Y-165312241D01*
X42789807Y-165354574D01*
X42886569Y-165390860D01*
X43176855Y-165354574D01*
X43273617Y-165294098D01*
X43321998Y-165239669D01*
X43370379Y-165136860D01*
X43370379Y-164991717D01*
X42354379Y-165796050D02*
X42354379Y-166473384D01*
X43370379Y-165910955D01*
X42354379Y-167053955D02*
X42354379Y-167150717D01*
X42402760Y-167241431D01*
X42451140Y-167283765D01*
X42547902Y-167320050D01*
X42741426Y-167344241D01*
X42983331Y-167314003D01*
X43176855Y-167241431D01*
X43273617Y-167180955D01*
X43321998Y-167126526D01*
X43370379Y-167023717D01*
X43370379Y-166926955D01*
X43321998Y-166836241D01*
X43273617Y-166793907D01*
X43176855Y-166757622D01*
X42983331Y-166733431D01*
X42741426Y-166763669D01*
X42547902Y-166836241D01*
X42451140Y-166896717D01*
X42402760Y-166951145D01*
X42354379Y-167053955D01*
X42354379Y-167731288D02*
X42354379Y-168408622D01*
X43370379Y-167846193D01*
X43757426Y-168523526D02*
X43709045Y-168577955D01*
X43563902Y-168692860D01*
X43467140Y-168753336D01*
X43321998Y-168819860D01*
X43080093Y-168898479D01*
X42886569Y-168922669D01*
X42644664Y-168904526D01*
X42499521Y-168874288D01*
X42402760Y-168838003D01*
X42257617Y-168759384D01*
X42209236Y-168717050D01*
X118800638Y-80455104D02*
X118800638Y-79874533D01*
X118761933Y-79758419D01*
X118684523Y-79681009D01*
X118568409Y-79642304D01*
X118491000Y-79642304D01*
X119574733Y-79642304D02*
X119187685Y-79642304D01*
X119187685Y-80455104D01*
X120310123Y-79719714D02*
X120271419Y-79681009D01*
X120155304Y-79642304D01*
X120077895Y-79642304D01*
X119961780Y-79681009D01*
X119884371Y-79758419D01*
X119845666Y-79835828D01*
X119806961Y-79990647D01*
X119806961Y-80106761D01*
X119845666Y-80261580D01*
X119884371Y-80338990D01*
X119961780Y-80416400D01*
X120077895Y-80455104D01*
X120155304Y-80455104D01*
X120271419Y-80416400D01*
X120310123Y-80377695D01*
X120890695Y-80455104D02*
X120890695Y-79874533D01*
X120851990Y-79758419D01*
X120774580Y-79681009D01*
X120658466Y-79642304D01*
X120581057Y-79642304D01*
X121664790Y-79642304D02*
X121277742Y-79642304D01*
X121277742Y-80455104D01*
X122400180Y-79719714D02*
X122361476Y-79681009D01*
X122245361Y-79642304D01*
X122167952Y-79642304D01*
X122051838Y-79681009D01*
X121974428Y-79758419D01*
X121935723Y-79835828D01*
X121897019Y-79990647D01*
X121897019Y-80106761D01*
X121935723Y-80261580D01*
X121974428Y-80338990D01*
X122051838Y-80416400D01*
X122167952Y-80455104D01*
X122245361Y-80455104D01*
X122361476Y-80416400D01*
X122400180Y-80377695D01*
X122980752Y-80455104D02*
X122980752Y-79874533D01*
X122942047Y-79758419D01*
X122864638Y-79681009D01*
X122748523Y-79642304D01*
X122671114Y-79642304D01*
X123754847Y-79642304D02*
X123367800Y-79642304D01*
X123367800Y-80455104D01*
X124490238Y-79719714D02*
X124451533Y-79681009D01*
X124335419Y-79642304D01*
X124258009Y-79642304D01*
X124141895Y-79681009D01*
X124064485Y-79758419D01*
X124025780Y-79835828D01*
X123987076Y-79990647D01*
X123987076Y-80106761D01*
X124025780Y-80261580D01*
X124064485Y-80338990D01*
X124141895Y-80416400D01*
X124258009Y-80455104D01*
X124335419Y-80455104D01*
X124451533Y-80416400D01*
X124490238Y-80377695D01*
X125070809Y-80455104D02*
X125070809Y-79874533D01*
X125032104Y-79758419D01*
X124954695Y-79681009D01*
X124838580Y-79642304D01*
X124761171Y-79642304D01*
X125844904Y-79642304D02*
X125457857Y-79642304D01*
X125457857Y-80455104D01*
X126580295Y-79719714D02*
X126541590Y-79681009D01*
X126425476Y-79642304D01*
X126348066Y-79642304D01*
X126231952Y-79681009D01*
X126154542Y-79758419D01*
X126115838Y-79835828D01*
X126077133Y-79990647D01*
X126077133Y-80106761D01*
X126115838Y-80261580D01*
X126154542Y-80338990D01*
X126231952Y-80416400D01*
X126348066Y-80455104D01*
X126425476Y-80455104D01*
X126541590Y-80416400D01*
X126580295Y-80377695D01*
X172720000Y-121920000D02*
G75*
G03*
X172720000Y-121920000I-3810000J0D01*
G01*
X119380000Y-83820000D02*
G75*
G03*
X119380000Y-83820000I-3810000J0D01*
G01*
D11*
X140904322Y-86759142D02*
X140904322Y-87267142D01*
X141702608Y-87484857D02*
X141702608Y-86759142D01*
X140178608Y-86759142D01*
X140178608Y-87484857D01*
X140178608Y-87992857D02*
X140178608Y-89008857D01*
X141702608Y-88355714D01*
X140178608Y-89879714D02*
X140178608Y-90024857D01*
X140251180Y-90170000D01*
X140323751Y-90242571D01*
X140468894Y-90315142D01*
X140759180Y-90387714D01*
X141122037Y-90387714D01*
X141412322Y-90315142D01*
X141557465Y-90242571D01*
X141630037Y-90170000D01*
X141702608Y-90024857D01*
X141702608Y-89879714D01*
X141630037Y-89734571D01*
X141557465Y-89662000D01*
X141412322Y-89589428D01*
X141122037Y-89516857D01*
X140759180Y-89516857D01*
X140468894Y-89589428D01*
X140323751Y-89662000D01*
X140251180Y-89734571D01*
X140178608Y-89879714D01*
X140178608Y-90895714D02*
X140178608Y-91911714D01*
X141702608Y-91258571D01*
X140904322Y-94161428D02*
X140976894Y-94379142D01*
X141049465Y-94451714D01*
X141194608Y-94524285D01*
X141412322Y-94524285D01*
X141557465Y-94451714D01*
X141630037Y-94379142D01*
X141702608Y-94234000D01*
X141702608Y-93653428D01*
X140178608Y-93653428D01*
X140178608Y-94161428D01*
X140251180Y-94306571D01*
X140323751Y-94379142D01*
X140468894Y-94451714D01*
X140614037Y-94451714D01*
X140759180Y-94379142D01*
X140831751Y-94306571D01*
X140904322Y-94161428D01*
X140904322Y-93653428D01*
X141702608Y-95830571D02*
X140904322Y-95830571D01*
X140759180Y-95758000D01*
X140686608Y-95612857D01*
X140686608Y-95322571D01*
X140759180Y-95177428D01*
X141630037Y-95830571D02*
X141702608Y-95685428D01*
X141702608Y-95322571D01*
X141630037Y-95177428D01*
X141484894Y-95104857D01*
X141339751Y-95104857D01*
X141194608Y-95177428D01*
X141122037Y-95322571D01*
X141122037Y-95685428D01*
X141049465Y-95830571D01*
X141630037Y-96483714D02*
X141702608Y-96628857D01*
X141702608Y-96919142D01*
X141630037Y-97064285D01*
X141484894Y-97136857D01*
X141412322Y-97136857D01*
X141267180Y-97064285D01*
X141194608Y-96919142D01*
X141194608Y-96701428D01*
X141122037Y-96556285D01*
X140976894Y-96483714D01*
X140904322Y-96483714D01*
X140759180Y-96556285D01*
X140686608Y-96701428D01*
X140686608Y-96919142D01*
X140759180Y-97064285D01*
X141702608Y-97790000D02*
X140686608Y-97790000D01*
X140178608Y-97790000D02*
X140251180Y-97717428D01*
X140323751Y-97790000D01*
X140251180Y-97862571D01*
X140178608Y-97790000D01*
X140323751Y-97790000D01*
X141630037Y-99168857D02*
X141702608Y-99023714D01*
X141702608Y-98733428D01*
X141630037Y-98588285D01*
X141557465Y-98515714D01*
X141412322Y-98443142D01*
X140976894Y-98443142D01*
X140831751Y-98515714D01*
X140759180Y-98588285D01*
X140686608Y-98733428D01*
X140686608Y-99023714D01*
X140759180Y-99168857D01*
X141702608Y-100983142D02*
X140178608Y-100983142D01*
X141702608Y-101854000D01*
X140178608Y-101854000D01*
X141702608Y-102797428D02*
X141630037Y-102652285D01*
X141557465Y-102579714D01*
X141412322Y-102507142D01*
X140976894Y-102507142D01*
X140831751Y-102579714D01*
X140759180Y-102652285D01*
X140686608Y-102797428D01*
X140686608Y-103015142D01*
X140759180Y-103160285D01*
X140831751Y-103232857D01*
X140976894Y-103305428D01*
X141412322Y-103305428D01*
X141557465Y-103232857D01*
X141630037Y-103160285D01*
X141702608Y-103015142D01*
X141702608Y-102797428D01*
X141702608Y-104611714D02*
X140178608Y-104611714D01*
X141630037Y-104611714D02*
X141702608Y-104466571D01*
X141702608Y-104176285D01*
X141630037Y-104031142D01*
X141557465Y-103958571D01*
X141412322Y-103886000D01*
X140976894Y-103886000D01*
X140831751Y-103958571D01*
X140759180Y-104031142D01*
X140686608Y-104176285D01*
X140686608Y-104466571D01*
X140759180Y-104611714D01*
X141630037Y-105918000D02*
X141702608Y-105772857D01*
X141702608Y-105482571D01*
X141630037Y-105337428D01*
X141484894Y-105264857D01*
X140904322Y-105264857D01*
X140759180Y-105337428D01*
X140686608Y-105482571D01*
X140686608Y-105772857D01*
X140759180Y-105918000D01*
X140904322Y-105990571D01*
X141049465Y-105990571D01*
X141194608Y-105264857D01*
X141702608Y-106643714D02*
X140178608Y-106643714D01*
X141267180Y-107151714D01*
X140178608Y-107659714D01*
X141702608Y-107659714D01*
X141557465Y-109256285D02*
X141630037Y-109183714D01*
X141702608Y-108966000D01*
X141702608Y-108820857D01*
X141630037Y-108603142D01*
X141484894Y-108458000D01*
X141339751Y-108385428D01*
X141049465Y-108312857D01*
X140831751Y-108312857D01*
X140541465Y-108385428D01*
X140396322Y-108458000D01*
X140251180Y-108603142D01*
X140178608Y-108820857D01*
X140178608Y-108966000D01*
X140251180Y-109183714D01*
X140323751Y-109256285D01*
X140178608Y-109909428D02*
X141412322Y-109909428D01*
X141557465Y-109982000D01*
X141630037Y-110054571D01*
X141702608Y-110199714D01*
X141702608Y-110490000D01*
X141630037Y-110635142D01*
X141557465Y-110707714D01*
X141412322Y-110780285D01*
X140178608Y-110780285D01*
X141630037Y-112594571D02*
X141702608Y-112812285D01*
X141702608Y-113175142D01*
X141630037Y-113320285D01*
X141557465Y-113392857D01*
X141412322Y-113465428D01*
X141267180Y-113465428D01*
X141122037Y-113392857D01*
X141049465Y-113320285D01*
X140976894Y-113175142D01*
X140904322Y-112884857D01*
X140831751Y-112739714D01*
X140759180Y-112667142D01*
X140614037Y-112594571D01*
X140468894Y-112594571D01*
X140323751Y-112667142D01*
X140251180Y-112739714D01*
X140178608Y-112884857D01*
X140178608Y-113247714D01*
X140251180Y-113465428D01*
X141702608Y-114118571D02*
X140178608Y-114118571D01*
X141702608Y-114771714D02*
X140904322Y-114771714D01*
X140759180Y-114699142D01*
X140686608Y-114554000D01*
X140686608Y-114336285D01*
X140759180Y-114191142D01*
X140831751Y-114118571D01*
X141702608Y-115497428D02*
X140686608Y-115497428D01*
X140178608Y-115497428D02*
X140251180Y-115424857D01*
X140323751Y-115497428D01*
X140251180Y-115569999D01*
X140178608Y-115497428D01*
X140323751Y-115497428D01*
X141630037Y-116803714D02*
X141702608Y-116658571D01*
X141702608Y-116368285D01*
X141630037Y-116223142D01*
X141484894Y-116150571D01*
X140904322Y-116150571D01*
X140759180Y-116223142D01*
X140686608Y-116368285D01*
X140686608Y-116658571D01*
X140759180Y-116803714D01*
X140904322Y-116876285D01*
X141049465Y-116876285D01*
X141194608Y-116150571D01*
X141702608Y-117747142D02*
X141630037Y-117601999D01*
X141484894Y-117529428D01*
X140178608Y-117529428D01*
X141702608Y-118980857D02*
X140178608Y-118980857D01*
X141630037Y-118980857D02*
X141702608Y-118835714D01*
X141702608Y-118545428D01*
X141630037Y-118400285D01*
X141557465Y-118327714D01*
X141412322Y-118255142D01*
X140976894Y-118255142D01*
X140831751Y-118327714D01*
X140759180Y-118400285D01*
X140686608Y-118545428D01*
X140686608Y-118835714D01*
X140759180Y-118980857D01*
X142632248Y-99822000D02*
X144156248Y-100330000D01*
X142632248Y-100838000D01*
X144156248Y-102144285D02*
X144156248Y-101273428D01*
X144156248Y-101708857D02*
X142632248Y-101708857D01*
X142849962Y-101563714D01*
X142995105Y-101418571D01*
X143067677Y-101273428D01*
X144011105Y-102797428D02*
X144083677Y-102870000D01*
X144156248Y-102797428D01*
X144083677Y-102724857D01*
X144011105Y-102797428D01*
X144156248Y-102797428D01*
X144156248Y-104321428D02*
X144156248Y-103450571D01*
X144156248Y-103886000D02*
X142632248Y-103886000D01*
X142849962Y-103740857D01*
X142995105Y-103595714D01*
X143067677Y-103450571D01*
X144083677Y-104902000D02*
X144156248Y-105119714D01*
X144156248Y-105482571D01*
X144083677Y-105627714D01*
X144011105Y-105700285D01*
X143865962Y-105772857D01*
X143720820Y-105772857D01*
X143575677Y-105700285D01*
X143503105Y-105627714D01*
X143430534Y-105482571D01*
X143357962Y-105192285D01*
X143285391Y-105047142D01*
X143212820Y-104974571D01*
X143067677Y-104902000D01*
X142922534Y-104902000D01*
X142777391Y-104974571D01*
X142704820Y-105047142D01*
X142632248Y-105192285D01*
X142632248Y-105555142D01*
X142704820Y-105772857D01*
D10*
X172720000Y-83820000D02*
G75*
G03*
X172720000Y-83820000I-3810000J0D01*
G01*
X119380000Y-121920000D02*
G75*
G03*
X119380000Y-121920000I-3810000J0D01*
G01*
X116202097Y-91150288D02*
X116250478Y-91095860D01*
X116298859Y-90944669D01*
X116298859Y-90847907D01*
X116250478Y-90708812D01*
X116153716Y-90624145D01*
X116056954Y-90587860D01*
X115863430Y-90563669D01*
X115718287Y-90581812D01*
X115524763Y-90654384D01*
X115428001Y-90714860D01*
X115331240Y-90823717D01*
X115282859Y-90974907D01*
X115282859Y-91071669D01*
X115331240Y-91210765D01*
X115379620Y-91253098D01*
X116298859Y-91718765D02*
X116250478Y-91628050D01*
X116202097Y-91585717D01*
X116105335Y-91549431D01*
X115815049Y-91585717D01*
X115718287Y-91646193D01*
X115669906Y-91700622D01*
X115621525Y-91803431D01*
X115621525Y-91948574D01*
X115669906Y-92039288D01*
X115718287Y-92081622D01*
X115815049Y-92117907D01*
X116105335Y-92081622D01*
X116202097Y-92021145D01*
X116250478Y-91966717D01*
X116298859Y-91863907D01*
X116298859Y-91718765D01*
X115621525Y-92577526D02*
X116298859Y-92492860D01*
X115718287Y-92565431D02*
X115669906Y-92619860D01*
X115621525Y-92722669D01*
X115621525Y-92867812D01*
X115669906Y-92958526D01*
X115766668Y-92994812D01*
X116298859Y-92928288D01*
X116250478Y-93853574D02*
X116298859Y-93750765D01*
X116298859Y-93557241D01*
X116250478Y-93466526D01*
X116202097Y-93424193D01*
X116105335Y-93387907D01*
X115815049Y-93424193D01*
X115718287Y-93484669D01*
X115669906Y-93539098D01*
X115621525Y-93641907D01*
X115621525Y-93835431D01*
X115669906Y-93926145D01*
X116250478Y-94676050D02*
X116298859Y-94573241D01*
X116298859Y-94379717D01*
X116250478Y-94289003D01*
X116153716Y-94252717D01*
X115766668Y-94301098D01*
X115669906Y-94361574D01*
X115621525Y-94464384D01*
X115621525Y-94657907D01*
X115669906Y-94748622D01*
X115766668Y-94784907D01*
X115863430Y-94772812D01*
X115960192Y-94276907D01*
X115621525Y-95238479D02*
X116637525Y-95111479D01*
X115669906Y-95232431D02*
X115621525Y-95335241D01*
X115621525Y-95528765D01*
X115669906Y-95619479D01*
X115718287Y-95661812D01*
X115815049Y-95698098D01*
X116105335Y-95661812D01*
X116202097Y-95601336D01*
X116250478Y-95546907D01*
X116298859Y-95444098D01*
X116298859Y-95250574D01*
X116250478Y-95159860D01*
X115621525Y-96012574D02*
X115621525Y-96399622D01*
X115282859Y-96200050D02*
X116153716Y-96091193D01*
X116250478Y-96127479D01*
X116298859Y-96218193D01*
X116298859Y-96314955D01*
X116298859Y-97427717D02*
X115282859Y-97554717D01*
X115669906Y-97506336D02*
X115621525Y-97609145D01*
X115621525Y-97802669D01*
X115669906Y-97893384D01*
X115718287Y-97935717D01*
X115815049Y-97972003D01*
X116105335Y-97935717D01*
X116202097Y-97875241D01*
X116250478Y-97820812D01*
X116298859Y-97718003D01*
X116298859Y-97524479D01*
X116250478Y-97433765D01*
X115621525Y-98334860D02*
X116298859Y-98492098D01*
X115621525Y-98818669D02*
X116298859Y-98492098D01*
X116540763Y-98365098D01*
X116589144Y-98310669D01*
X116637525Y-98207860D01*
X116298859Y-99895145D02*
X115282859Y-100022145D01*
X116008573Y-100270098D01*
X115282859Y-100699479D01*
X116298859Y-100572479D01*
X116298859Y-101491717D02*
X115766668Y-101558241D01*
X115669906Y-101521955D01*
X115621525Y-101431241D01*
X115621525Y-101237717D01*
X115669906Y-101134907D01*
X116250478Y-101497765D02*
X116298859Y-101394955D01*
X116298859Y-101153050D01*
X116250478Y-101062336D01*
X116153716Y-101026050D01*
X116056954Y-101038145D01*
X115960192Y-101098622D01*
X115911811Y-101201431D01*
X115911811Y-101443336D01*
X115863430Y-101546145D01*
X116298859Y-101975526D02*
X115621525Y-102060193D01*
X115815049Y-102036003D02*
X115718287Y-102096479D01*
X115669906Y-102150907D01*
X115621525Y-102253717D01*
X115621525Y-102350479D01*
X116298859Y-102604479D02*
X115282859Y-102731479D01*
X115911811Y-102749622D02*
X116298859Y-102991526D01*
X115621525Y-103076193D02*
X116008573Y-102640765D01*
X116298859Y-104201050D02*
X115282859Y-104328050D01*
X116008573Y-104576003D01*
X115282859Y-105005384D01*
X116298859Y-104878384D01*
X116298859Y-105507336D02*
X116250478Y-105416622D01*
X116202097Y-105374288D01*
X116105335Y-105338003D01*
X115815049Y-105374288D01*
X115718287Y-105434765D01*
X115669906Y-105489193D01*
X115621525Y-105592003D01*
X115621525Y-105737145D01*
X115669906Y-105827860D01*
X115718287Y-105870193D01*
X115815049Y-105906479D01*
X116105335Y-105870193D01*
X116202097Y-105809717D01*
X116250478Y-105755288D01*
X116298859Y-105652479D01*
X116298859Y-105507336D01*
X116298859Y-106281431D02*
X115621525Y-106366098D01*
X115815049Y-106341907D02*
X115718287Y-106402384D01*
X115669906Y-106456812D01*
X115621525Y-106559622D01*
X115621525Y-106656384D01*
X115621525Y-106849907D02*
X115621525Y-107236955D01*
X115282859Y-107037384D02*
X116153716Y-106928526D01*
X116250478Y-106964812D01*
X116298859Y-107055526D01*
X116298859Y-107152288D01*
X116298859Y-107636098D02*
X116250478Y-107545384D01*
X116202097Y-107503050D01*
X116105335Y-107466765D01*
X115815049Y-107503050D01*
X115718287Y-107563526D01*
X115669906Y-107617955D01*
X115621525Y-107720765D01*
X115621525Y-107865907D01*
X115669906Y-107956622D01*
X115718287Y-107998955D01*
X115815049Y-108035241D01*
X116105335Y-107998955D01*
X116202097Y-107938479D01*
X116250478Y-107884050D01*
X116298859Y-107781241D01*
X116298859Y-107636098D01*
X115621525Y-108494860D02*
X116298859Y-108410193D01*
X115718287Y-108482765D02*
X115669906Y-108537193D01*
X115621525Y-108640003D01*
X115621525Y-108785145D01*
X115669906Y-108875860D01*
X115766668Y-108912145D01*
X116298859Y-108845622D01*
X115282859Y-110133765D02*
X116298859Y-110248669D01*
X115573144Y-110532907D01*
X116298859Y-110635717D01*
X115282859Y-111004622D01*
X116298859Y-111796860D02*
X116298859Y-111216288D01*
X116298859Y-111506574D02*
X115282859Y-111633574D01*
X115428001Y-111518669D01*
X115524763Y-111409812D01*
X115573144Y-111307003D01*
X116298859Y-112232288D02*
X115282859Y-112359288D01*
X116008573Y-112607241D01*
X115282859Y-113036622D01*
X116298859Y-112909622D01*
X115766668Y-113459955D02*
X115766668Y-113798622D01*
X116298859Y-113877241D02*
X116298859Y-113393431D01*
X115282859Y-113520431D01*
X115282859Y-114004241D01*
X116298859Y-114312669D02*
X115282859Y-114439669D01*
X116008573Y-114687622D01*
X115282859Y-115117003D01*
X116298859Y-114990003D01*
X119570379Y-87485431D02*
X118554379Y-87612431D01*
X118554379Y-87854336D01*
X118602760Y-87993431D01*
X118699521Y-88078098D01*
X118796283Y-88114384D01*
X118989807Y-88138574D01*
X119134950Y-88120431D01*
X119328474Y-88047860D01*
X119425236Y-87987384D01*
X119521998Y-87878526D01*
X119570379Y-87727336D01*
X119570379Y-87485431D01*
X119521998Y-88894526D02*
X119570379Y-88791717D01*
X119570379Y-88598193D01*
X119521998Y-88507479D01*
X119425236Y-88471193D01*
X119038188Y-88519574D01*
X118941426Y-88580050D01*
X118893045Y-88682860D01*
X118893045Y-88876384D01*
X118941426Y-88967098D01*
X119038188Y-89003384D01*
X119134950Y-88991288D01*
X119231712Y-88495384D01*
X119521998Y-89329955D02*
X119570379Y-89420669D01*
X119570379Y-89614193D01*
X119521998Y-89717003D01*
X119425236Y-89777479D01*
X119376855Y-89783526D01*
X119280093Y-89747241D01*
X119231712Y-89656526D01*
X119231712Y-89511384D01*
X119183331Y-89420669D01*
X119086569Y-89384384D01*
X119038188Y-89390431D01*
X118941426Y-89450907D01*
X118893045Y-89553717D01*
X118893045Y-89698860D01*
X118941426Y-89789574D01*
X119570379Y-90194765D02*
X118893045Y-90279431D01*
X118554379Y-90321765D02*
X118602760Y-90267336D01*
X118651140Y-90309669D01*
X118602760Y-90364098D01*
X118554379Y-90321765D01*
X118651140Y-90309669D01*
X118893045Y-91198669D02*
X119715521Y-91095860D01*
X119812283Y-91035384D01*
X119860664Y-90980955D01*
X119909045Y-90878145D01*
X119909045Y-90733003D01*
X119860664Y-90642288D01*
X119521998Y-91120050D02*
X119570379Y-91017241D01*
X119570379Y-90823717D01*
X119521998Y-90733003D01*
X119473617Y-90690669D01*
X119376855Y-90654384D01*
X119086569Y-90690669D01*
X118989807Y-90751145D01*
X118941426Y-90805574D01*
X118893045Y-90908384D01*
X118893045Y-91101907D01*
X118941426Y-91192622D01*
X118893045Y-91682479D02*
X119570379Y-91597812D01*
X118989807Y-91670384D02*
X118941426Y-91724812D01*
X118893045Y-91827622D01*
X118893045Y-91972765D01*
X118941426Y-92063479D01*
X119038188Y-92099765D01*
X119570379Y-92033241D01*
X119521998Y-92910145D02*
X119570379Y-92807336D01*
X119570379Y-92613812D01*
X119521998Y-92523098D01*
X119425236Y-92486812D01*
X119038188Y-92535193D01*
X118941426Y-92595669D01*
X118893045Y-92698479D01*
X118893045Y-92892003D01*
X118941426Y-92982717D01*
X119038188Y-93019003D01*
X119134950Y-93006907D01*
X119231712Y-92511003D01*
X119570379Y-93823336D02*
X118554379Y-93950336D01*
X119521998Y-93829384D02*
X119570379Y-93726574D01*
X119570379Y-93533050D01*
X119521998Y-93442336D01*
X119473617Y-93400003D01*
X119376855Y-93363717D01*
X119086569Y-93400003D01*
X118989807Y-93460479D01*
X118941426Y-93514907D01*
X118893045Y-93617717D01*
X118893045Y-93811241D01*
X118941426Y-93901955D01*
X119570379Y-95081241D02*
X118554379Y-95208241D01*
X118941426Y-95159860D02*
X118893045Y-95262669D01*
X118893045Y-95456193D01*
X118941426Y-95546907D01*
X118989807Y-95589241D01*
X119086569Y-95625526D01*
X119376855Y-95589241D01*
X119473617Y-95528765D01*
X119521998Y-95474336D01*
X119570379Y-95371526D01*
X119570379Y-95178003D01*
X119521998Y-95087288D01*
X118893045Y-95988384D02*
X119570379Y-96145622D01*
X118893045Y-96472193D02*
X119570379Y-96145622D01*
X119812283Y-96018622D01*
X119860664Y-95964193D01*
X119909045Y-95861384D01*
X118554379Y-97965955D02*
X119280093Y-97875241D01*
X119425236Y-97808717D01*
X119521998Y-97699860D01*
X119570379Y-97548669D01*
X119570379Y-97451907D01*
X119570379Y-98758193D02*
X119038188Y-98824717D01*
X118941426Y-98788431D01*
X118893045Y-98697717D01*
X118893045Y-98504193D01*
X118941426Y-98401384D01*
X119521998Y-98764241D02*
X119570379Y-98661431D01*
X119570379Y-98419526D01*
X119521998Y-98328812D01*
X119425236Y-98292526D01*
X119328474Y-98304622D01*
X119231712Y-98365098D01*
X119183331Y-98467907D01*
X119183331Y-98709812D01*
X119134950Y-98812622D01*
X119570379Y-99242003D02*
X118893045Y-99326669D01*
X118989807Y-99314574D02*
X118941426Y-99369003D01*
X118893045Y-99471812D01*
X118893045Y-99616955D01*
X118941426Y-99707669D01*
X119038188Y-99743955D01*
X119570379Y-99677431D01*
X119038188Y-99743955D02*
X118941426Y-99804431D01*
X118893045Y-99907241D01*
X118893045Y-100052384D01*
X118941426Y-100143098D01*
X119038188Y-100179384D01*
X119570379Y-100112860D01*
X119570379Y-101032098D02*
X119038188Y-101098622D01*
X118941426Y-101062336D01*
X118893045Y-100971622D01*
X118893045Y-100778098D01*
X118941426Y-100675288D01*
X119521998Y-101038145D02*
X119570379Y-100935336D01*
X119570379Y-100693431D01*
X119521998Y-100602717D01*
X119425236Y-100566431D01*
X119328474Y-100578526D01*
X119231712Y-100639003D01*
X119183331Y-100741812D01*
X119183331Y-100983717D01*
X119134950Y-101086526D01*
X119570379Y-101661050D02*
X119521998Y-101570336D01*
X119425236Y-101534050D01*
X118554379Y-101642907D01*
X119038188Y-103227384D02*
X119086569Y-103366479D01*
X119134950Y-103408812D01*
X119231712Y-103445098D01*
X119376855Y-103426955D01*
X119473617Y-103366479D01*
X119521998Y-103312050D01*
X119570379Y-103209241D01*
X119570379Y-102822193D01*
X118554379Y-102949193D01*
X118554379Y-103287860D01*
X118602760Y-103378574D01*
X118651140Y-103420907D01*
X118747902Y-103457193D01*
X118844664Y-103445098D01*
X118941426Y-103384622D01*
X118989807Y-103330193D01*
X119038188Y-103227384D01*
X119038188Y-102888717D01*
X119570379Y-103983336D02*
X119521998Y-103892622D01*
X119473617Y-103850288D01*
X119376855Y-103814003D01*
X119086569Y-103850288D01*
X118989807Y-103910765D01*
X118941426Y-103965193D01*
X118893045Y-104068003D01*
X118893045Y-104213145D01*
X118941426Y-104303860D01*
X118989807Y-104346193D01*
X119086569Y-104382479D01*
X119376855Y-104346193D01*
X119473617Y-104285717D01*
X119521998Y-104231288D01*
X119570379Y-104128479D01*
X119570379Y-103983336D01*
X118893045Y-105277526D02*
X119570379Y-105192860D01*
X118893045Y-104842098D02*
X119425236Y-104775574D01*
X119521998Y-104811860D01*
X119570379Y-104902574D01*
X119570379Y-105047717D01*
X119521998Y-105150526D01*
X119473617Y-105204955D01*
X119570379Y-106112098D02*
X119038188Y-106178622D01*
X118941426Y-106142336D01*
X118893045Y-106051622D01*
X118893045Y-105858098D01*
X118941426Y-105755288D01*
X119521998Y-106118145D02*
X119570379Y-106015336D01*
X119570379Y-105773431D01*
X119521998Y-105682717D01*
X119425236Y-105646431D01*
X119328474Y-105658526D01*
X119231712Y-105719003D01*
X119183331Y-105821812D01*
X119183331Y-106063717D01*
X119134950Y-106166526D01*
X118893045Y-106680574D02*
X119763902Y-106571717D01*
X119860664Y-106511241D01*
X119909045Y-106408431D01*
X119909045Y-106360050D01*
X118554379Y-106722907D02*
X118602760Y-106668479D01*
X118651140Y-106710812D01*
X118602760Y-106765241D01*
X118554379Y-106722907D01*
X118651140Y-106710812D01*
X118893045Y-107164384D02*
X119763902Y-107055526D01*
X119860664Y-106995050D01*
X119909045Y-106892241D01*
X119909045Y-106843860D01*
X118554379Y-107206717D02*
X118602760Y-107152288D01*
X118651140Y-107194622D01*
X118602760Y-107249050D01*
X118554379Y-107206717D01*
X118651140Y-107194622D01*
X119570379Y-107998955D02*
X119038188Y-108065479D01*
X118941426Y-108029193D01*
X118893045Y-107938479D01*
X118893045Y-107744955D01*
X118941426Y-107642145D01*
X119521998Y-108005003D02*
X119570379Y-107902193D01*
X119570379Y-107660288D01*
X119521998Y-107569574D01*
X119425236Y-107533288D01*
X119328474Y-107545384D01*
X119231712Y-107605860D01*
X119183331Y-107708669D01*
X119183331Y-107950574D01*
X119134950Y-108053384D01*
X118893045Y-108567431D02*
X119763902Y-108458574D01*
X119860664Y-108398098D01*
X119909045Y-108295288D01*
X119909045Y-108246907D01*
X118554379Y-108609765D02*
X118602760Y-108555336D01*
X118651140Y-108597669D01*
X118602760Y-108652098D01*
X118554379Y-108609765D01*
X118651140Y-108597669D01*
X119957426Y-109208479D02*
X119909045Y-109166145D01*
X119763902Y-109087526D01*
X119667140Y-109051241D01*
X119521998Y-109021003D01*
X119280093Y-109002860D01*
X119086569Y-109027050D01*
X118844664Y-109105669D01*
X118699521Y-109172193D01*
X118602760Y-109232669D01*
X118457617Y-109347574D01*
X118409236Y-109402003D01*
X119038188Y-109710431D02*
X119038188Y-110049098D01*
X119570379Y-110127717D02*
X119570379Y-109643907D01*
X118554379Y-109770907D01*
X118554379Y-110254717D01*
X119570379Y-110708288D02*
X119521998Y-110617574D01*
X119425236Y-110581288D01*
X118554379Y-110690145D01*
X119521998Y-111488431D02*
X119570379Y-111385622D01*
X119570379Y-111192098D01*
X119521998Y-111101384D01*
X119425236Y-111065098D01*
X119038188Y-111113479D01*
X118941426Y-111173955D01*
X118893045Y-111276765D01*
X118893045Y-111470288D01*
X118941426Y-111561003D01*
X119038188Y-111597288D01*
X119134950Y-111585193D01*
X119231712Y-111089288D01*
X119521998Y-112407669D02*
X119570379Y-112304860D01*
X119570379Y-112111336D01*
X119521998Y-112020622D01*
X119473617Y-111978288D01*
X119376855Y-111942003D01*
X119086569Y-111978288D01*
X118989807Y-112038765D01*
X118941426Y-112093193D01*
X118893045Y-112196003D01*
X118893045Y-112389526D01*
X118941426Y-112480241D01*
X118893045Y-112776574D02*
X118893045Y-113163622D01*
X118554379Y-112964050D02*
X119425236Y-112855193D01*
X119521998Y-112891479D01*
X119570379Y-112982193D01*
X119570379Y-113078955D01*
X119570379Y-113417622D02*
X118893045Y-113502288D01*
X119086569Y-113478098D02*
X118989807Y-113538574D01*
X118941426Y-113593003D01*
X118893045Y-113695812D01*
X118893045Y-113792574D01*
X119570379Y-114191717D02*
X119521998Y-114101003D01*
X119473617Y-114058669D01*
X119376855Y-114022384D01*
X119086569Y-114058669D01*
X118989807Y-114119145D01*
X118941426Y-114173574D01*
X118893045Y-114276384D01*
X118893045Y-114421526D01*
X118941426Y-114512241D01*
X118989807Y-114554574D01*
X119086569Y-114590860D01*
X119376855Y-114554574D01*
X119473617Y-114494098D01*
X119521998Y-114439669D01*
X119570379Y-114336860D01*
X119570379Y-114191717D01*
X118554379Y-114996050D02*
X118554379Y-115673384D01*
X119570379Y-115110955D01*
X118554379Y-116253955D02*
X118554379Y-116350717D01*
X118602760Y-116441431D01*
X118651140Y-116483765D01*
X118747902Y-116520050D01*
X118941426Y-116544241D01*
X119183331Y-116514003D01*
X119376855Y-116441431D01*
X119473617Y-116380955D01*
X119521998Y-116326526D01*
X119570379Y-116223717D01*
X119570379Y-116126955D01*
X119521998Y-116036241D01*
X119473617Y-115993907D01*
X119376855Y-115957622D01*
X119183331Y-115933431D01*
X118941426Y-115963669D01*
X118747902Y-116036241D01*
X118651140Y-116096717D01*
X118602760Y-116151145D01*
X118554379Y-116253955D01*
X118554379Y-116931288D02*
X118554379Y-117608622D01*
X119570379Y-117046193D01*
X119957426Y-117723526D02*
X119909045Y-117777955D01*
X119763902Y-117892860D01*
X119667140Y-117953336D01*
X119521998Y-118019860D01*
X119280093Y-118098479D01*
X119086569Y-118122669D01*
X118844664Y-118104526D01*
X118699521Y-118074288D01*
X118602760Y-118038003D01*
X118457617Y-117959384D01*
X118409236Y-117917050D01*
X118800638Y-29655104D02*
X118800638Y-29074533D01*
X118761933Y-28958419D01*
X118684523Y-28881009D01*
X118568409Y-28842304D01*
X118491000Y-28842304D01*
X119574733Y-28842304D02*
X119187685Y-28842304D01*
X119187685Y-29655104D01*
X120310123Y-28919714D02*
X120271419Y-28881009D01*
X120155304Y-28842304D01*
X120077895Y-28842304D01*
X119961780Y-28881009D01*
X119884371Y-28958419D01*
X119845666Y-29035828D01*
X119806961Y-29190647D01*
X119806961Y-29306761D01*
X119845666Y-29461580D01*
X119884371Y-29538990D01*
X119961780Y-29616400D01*
X120077895Y-29655104D01*
X120155304Y-29655104D01*
X120271419Y-29616400D01*
X120310123Y-29577695D01*
X120890695Y-29655104D02*
X120890695Y-29074533D01*
X120851990Y-28958419D01*
X120774580Y-28881009D01*
X120658466Y-28842304D01*
X120581057Y-28842304D01*
X121664790Y-28842304D02*
X121277742Y-28842304D01*
X121277742Y-29655104D01*
X122400180Y-28919714D02*
X122361476Y-28881009D01*
X122245361Y-28842304D01*
X122167952Y-28842304D01*
X122051838Y-28881009D01*
X121974428Y-28958419D01*
X121935723Y-29035828D01*
X121897019Y-29190647D01*
X121897019Y-29306761D01*
X121935723Y-29461580D01*
X121974428Y-29538990D01*
X122051838Y-29616400D01*
X122167952Y-29655104D01*
X122245361Y-29655104D01*
X122361476Y-29616400D01*
X122400180Y-29577695D01*
X122980752Y-29655104D02*
X122980752Y-29074533D01*
X122942047Y-28958419D01*
X122864638Y-28881009D01*
X122748523Y-28842304D01*
X122671114Y-28842304D01*
X123754847Y-28842304D02*
X123367800Y-28842304D01*
X123367800Y-29655104D01*
X124490238Y-28919714D02*
X124451533Y-28881009D01*
X124335419Y-28842304D01*
X124258009Y-28842304D01*
X124141895Y-28881009D01*
X124064485Y-28958419D01*
X124025780Y-29035828D01*
X123987076Y-29190647D01*
X123987076Y-29306761D01*
X124025780Y-29461580D01*
X124064485Y-29538990D01*
X124141895Y-29616400D01*
X124258009Y-29655104D01*
X124335419Y-29655104D01*
X124451533Y-29616400D01*
X124490238Y-29577695D01*
X125070809Y-29655104D02*
X125070809Y-29074533D01*
X125032104Y-28958419D01*
X124954695Y-28881009D01*
X124838580Y-28842304D01*
X124761171Y-28842304D01*
X125844904Y-28842304D02*
X125457857Y-28842304D01*
X125457857Y-29655104D01*
X126580295Y-28919714D02*
X126541590Y-28881009D01*
X126425476Y-28842304D01*
X126348066Y-28842304D01*
X126231952Y-28881009D01*
X126154542Y-28958419D01*
X126115838Y-29035828D01*
X126077133Y-29190647D01*
X126077133Y-29306761D01*
X126115838Y-29461580D01*
X126154542Y-29538990D01*
X126231952Y-29616400D01*
X126348066Y-29655104D01*
X126425476Y-29655104D01*
X126541590Y-29616400D01*
X126580295Y-29577695D01*
X172720000Y-71120000D02*
G75*
G03*
X172720000Y-71120000I-3810000J0D01*
G01*
X119380000Y-33020000D02*
G75*
G03*
X119380000Y-33020000I-3810000J0D01*
G01*
D11*
X140904322Y-35959142D02*
X140904322Y-36467142D01*
X141702608Y-36684857D02*
X141702608Y-35959142D01*
X140178608Y-35959142D01*
X140178608Y-36684857D01*
X140178608Y-37192857D02*
X140178608Y-38208857D01*
X141702608Y-37555714D01*
X140178608Y-39079714D02*
X140178608Y-39224857D01*
X140251180Y-39370000D01*
X140323751Y-39442571D01*
X140468894Y-39515142D01*
X140759180Y-39587714D01*
X141122037Y-39587714D01*
X141412322Y-39515142D01*
X141557465Y-39442571D01*
X141630037Y-39370000D01*
X141702608Y-39224857D01*
X141702608Y-39079714D01*
X141630037Y-38934571D01*
X141557465Y-38862000D01*
X141412322Y-38789428D01*
X141122037Y-38716857D01*
X140759180Y-38716857D01*
X140468894Y-38789428D01*
X140323751Y-38862000D01*
X140251180Y-38934571D01*
X140178608Y-39079714D01*
X140178608Y-40095714D02*
X140178608Y-41111714D01*
X141702608Y-40458571D01*
X140904322Y-43361428D02*
X140976894Y-43579142D01*
X141049465Y-43651714D01*
X141194608Y-43724285D01*
X141412322Y-43724285D01*
X141557465Y-43651714D01*
X141630037Y-43579142D01*
X141702608Y-43434000D01*
X141702608Y-42853428D01*
X140178608Y-42853428D01*
X140178608Y-43361428D01*
X140251180Y-43506571D01*
X140323751Y-43579142D01*
X140468894Y-43651714D01*
X140614037Y-43651714D01*
X140759180Y-43579142D01*
X140831751Y-43506571D01*
X140904322Y-43361428D01*
X140904322Y-42853428D01*
X141702608Y-45030571D02*
X140904322Y-45030571D01*
X140759180Y-44958000D01*
X140686608Y-44812857D01*
X140686608Y-44522571D01*
X140759180Y-44377428D01*
X141630037Y-45030571D02*
X141702608Y-44885428D01*
X141702608Y-44522571D01*
X141630037Y-44377428D01*
X141484894Y-44304857D01*
X141339751Y-44304857D01*
X141194608Y-44377428D01*
X141122037Y-44522571D01*
X141122037Y-44885428D01*
X141049465Y-45030571D01*
X141630037Y-45683714D02*
X141702608Y-45828857D01*
X141702608Y-46119142D01*
X141630037Y-46264285D01*
X141484894Y-46336857D01*
X141412322Y-46336857D01*
X141267180Y-46264285D01*
X141194608Y-46119142D01*
X141194608Y-45901428D01*
X141122037Y-45756285D01*
X140976894Y-45683714D01*
X140904322Y-45683714D01*
X140759180Y-45756285D01*
X140686608Y-45901428D01*
X140686608Y-46119142D01*
X140759180Y-46264285D01*
X141702608Y-46990000D02*
X140686608Y-46990000D01*
X140178608Y-46990000D02*
X140251180Y-46917428D01*
X140323751Y-46990000D01*
X140251180Y-47062571D01*
X140178608Y-46990000D01*
X140323751Y-46990000D01*
X141630037Y-48368857D02*
X141702608Y-48223714D01*
X141702608Y-47933428D01*
X141630037Y-47788285D01*
X141557465Y-47715714D01*
X141412322Y-47643142D01*
X140976894Y-47643142D01*
X140831751Y-47715714D01*
X140759180Y-47788285D01*
X140686608Y-47933428D01*
X140686608Y-48223714D01*
X140759180Y-48368857D01*
X141702608Y-50183142D02*
X140178608Y-50183142D01*
X141702608Y-51054000D01*
X140178608Y-51054000D01*
X141702608Y-51997428D02*
X141630037Y-51852285D01*
X141557465Y-51779714D01*
X141412322Y-51707142D01*
X140976894Y-51707142D01*
X140831751Y-51779714D01*
X140759180Y-51852285D01*
X140686608Y-51997428D01*
X140686608Y-52215142D01*
X140759180Y-52360285D01*
X140831751Y-52432857D01*
X140976894Y-52505428D01*
X141412322Y-52505428D01*
X141557465Y-52432857D01*
X141630037Y-52360285D01*
X141702608Y-52215142D01*
X141702608Y-51997428D01*
X141702608Y-53811714D02*
X140178608Y-53811714D01*
X141630037Y-53811714D02*
X141702608Y-53666571D01*
X141702608Y-53376285D01*
X141630037Y-53231142D01*
X141557465Y-53158571D01*
X141412322Y-53086000D01*
X140976894Y-53086000D01*
X140831751Y-53158571D01*
X140759180Y-53231142D01*
X140686608Y-53376285D01*
X140686608Y-53666571D01*
X140759180Y-53811714D01*
X141630037Y-55118000D02*
X141702608Y-54972857D01*
X141702608Y-54682571D01*
X141630037Y-54537428D01*
X141484894Y-54464857D01*
X140904322Y-54464857D01*
X140759180Y-54537428D01*
X140686608Y-54682571D01*
X140686608Y-54972857D01*
X140759180Y-55118000D01*
X140904322Y-55190571D01*
X141049465Y-55190571D01*
X141194608Y-54464857D01*
X141702608Y-55843714D02*
X140178608Y-55843714D01*
X141267180Y-56351714D01*
X140178608Y-56859714D01*
X141702608Y-56859714D01*
X141557465Y-58456285D02*
X141630037Y-58383714D01*
X141702608Y-58166000D01*
X141702608Y-58020857D01*
X141630037Y-57803142D01*
X141484894Y-57658000D01*
X141339751Y-57585428D01*
X141049465Y-57512857D01*
X140831751Y-57512857D01*
X140541465Y-57585428D01*
X140396322Y-57658000D01*
X140251180Y-57803142D01*
X140178608Y-58020857D01*
X140178608Y-58166000D01*
X140251180Y-58383714D01*
X140323751Y-58456285D01*
X140178608Y-59109428D02*
X141412322Y-59109428D01*
X141557465Y-59182000D01*
X141630037Y-59254571D01*
X141702608Y-59399714D01*
X141702608Y-59690000D01*
X141630037Y-59835142D01*
X141557465Y-59907714D01*
X141412322Y-59980285D01*
X140178608Y-59980285D01*
X141630037Y-61794571D02*
X141702608Y-62012285D01*
X141702608Y-62375142D01*
X141630037Y-62520285D01*
X141557465Y-62592857D01*
X141412322Y-62665428D01*
X141267180Y-62665428D01*
X141122037Y-62592857D01*
X141049465Y-62520285D01*
X140976894Y-62375142D01*
X140904322Y-62084857D01*
X140831751Y-61939714D01*
X140759180Y-61867142D01*
X140614037Y-61794571D01*
X140468894Y-61794571D01*
X140323751Y-61867142D01*
X140251180Y-61939714D01*
X140178608Y-62084857D01*
X140178608Y-62447714D01*
X140251180Y-62665428D01*
X141702608Y-63318571D02*
X140178608Y-63318571D01*
X141702608Y-63971714D02*
X140904322Y-63971714D01*
X140759180Y-63899142D01*
X140686608Y-63754000D01*
X140686608Y-63536285D01*
X140759180Y-63391142D01*
X140831751Y-63318571D01*
X141702608Y-64697428D02*
X140686608Y-64697428D01*
X140178608Y-64697428D02*
X140251180Y-64624857D01*
X140323751Y-64697428D01*
X140251180Y-64769999D01*
X140178608Y-64697428D01*
X140323751Y-64697428D01*
X141630037Y-66003714D02*
X141702608Y-65858571D01*
X141702608Y-65568285D01*
X141630037Y-65423142D01*
X141484894Y-65350571D01*
X140904322Y-65350571D01*
X140759180Y-65423142D01*
X140686608Y-65568285D01*
X140686608Y-65858571D01*
X140759180Y-66003714D01*
X140904322Y-66076285D01*
X141049465Y-66076285D01*
X141194608Y-65350571D01*
X141702608Y-66947142D02*
X141630037Y-66801999D01*
X141484894Y-66729428D01*
X140178608Y-66729428D01*
X141702608Y-68180857D02*
X140178608Y-68180857D01*
X141630037Y-68180857D02*
X141702608Y-68035714D01*
X141702608Y-67745428D01*
X141630037Y-67600285D01*
X141557465Y-67527714D01*
X141412322Y-67455142D01*
X140976894Y-67455142D01*
X140831751Y-67527714D01*
X140759180Y-67600285D01*
X140686608Y-67745428D01*
X140686608Y-68035714D01*
X140759180Y-68180857D01*
X142632248Y-49022000D02*
X144156248Y-49530000D01*
X142632248Y-50038000D01*
X144156248Y-51344285D02*
X144156248Y-50473428D01*
X144156248Y-50908857D02*
X142632248Y-50908857D01*
X142849962Y-50763714D01*
X142995105Y-50618571D01*
X143067677Y-50473428D01*
X144011105Y-51997428D02*
X144083677Y-52070000D01*
X144156248Y-51997428D01*
X144083677Y-51924857D01*
X144011105Y-51997428D01*
X144156248Y-51997428D01*
X144156248Y-53521428D02*
X144156248Y-52650571D01*
X144156248Y-53086000D02*
X142632248Y-53086000D01*
X142849962Y-52940857D01*
X142995105Y-52795714D01*
X143067677Y-52650571D01*
X144083677Y-54102000D02*
X144156248Y-54319714D01*
X144156248Y-54682571D01*
X144083677Y-54827714D01*
X144011105Y-54900285D01*
X143865962Y-54972857D01*
X143720820Y-54972857D01*
X143575677Y-54900285D01*
X143503105Y-54827714D01*
X143430534Y-54682571D01*
X143357962Y-54392285D01*
X143285391Y-54247142D01*
X143212820Y-54174571D01*
X143067677Y-54102000D01*
X142922534Y-54102000D01*
X142777391Y-54174571D01*
X142704820Y-54247142D01*
X142632248Y-54392285D01*
X142632248Y-54755142D01*
X142704820Y-54972857D01*
D10*
X172720000Y-33020000D02*
G75*
G03*
X172720000Y-33020000I-3810000J0D01*
G01*
X119380000Y-71120000D02*
G75*
G03*
X119380000Y-71120000I-3810000J0D01*
G01*
X116202097Y-40350288D02*
X116250478Y-40295860D01*
X116298859Y-40144669D01*
X116298859Y-40047907D01*
X116250478Y-39908812D01*
X116153716Y-39824145D01*
X116056954Y-39787860D01*
X115863430Y-39763669D01*
X115718287Y-39781812D01*
X115524763Y-39854384D01*
X115428001Y-39914860D01*
X115331240Y-40023717D01*
X115282859Y-40174907D01*
X115282859Y-40271669D01*
X115331240Y-40410765D01*
X115379620Y-40453098D01*
X116298859Y-40918765D02*
X116250478Y-40828050D01*
X116202097Y-40785717D01*
X116105335Y-40749431D01*
X115815049Y-40785717D01*
X115718287Y-40846193D01*
X115669906Y-40900622D01*
X115621525Y-41003431D01*
X115621525Y-41148574D01*
X115669906Y-41239288D01*
X115718287Y-41281622D01*
X115815049Y-41317907D01*
X116105335Y-41281622D01*
X116202097Y-41221145D01*
X116250478Y-41166717D01*
X116298859Y-41063907D01*
X116298859Y-40918765D01*
X115621525Y-41777526D02*
X116298859Y-41692860D01*
X115718287Y-41765431D02*
X115669906Y-41819860D01*
X115621525Y-41922669D01*
X115621525Y-42067812D01*
X115669906Y-42158526D01*
X115766668Y-42194812D01*
X116298859Y-42128288D01*
X116250478Y-43053574D02*
X116298859Y-42950765D01*
X116298859Y-42757241D01*
X116250478Y-42666526D01*
X116202097Y-42624193D01*
X116105335Y-42587907D01*
X115815049Y-42624193D01*
X115718287Y-42684669D01*
X115669906Y-42739098D01*
X115621525Y-42841907D01*
X115621525Y-43035431D01*
X115669906Y-43126145D01*
X116250478Y-43876050D02*
X116298859Y-43773241D01*
X116298859Y-43579717D01*
X116250478Y-43489003D01*
X116153716Y-43452717D01*
X115766668Y-43501098D01*
X115669906Y-43561574D01*
X115621525Y-43664384D01*
X115621525Y-43857907D01*
X115669906Y-43948622D01*
X115766668Y-43984907D01*
X115863430Y-43972812D01*
X115960192Y-43476907D01*
X115621525Y-44438479D02*
X116637525Y-44311479D01*
X115669906Y-44432431D02*
X115621525Y-44535241D01*
X115621525Y-44728765D01*
X115669906Y-44819479D01*
X115718287Y-44861812D01*
X115815049Y-44898098D01*
X116105335Y-44861812D01*
X116202097Y-44801336D01*
X116250478Y-44746907D01*
X116298859Y-44644098D01*
X116298859Y-44450574D01*
X116250478Y-44359860D01*
X115621525Y-45212574D02*
X115621525Y-45599622D01*
X115282859Y-45400050D02*
X116153716Y-45291193D01*
X116250478Y-45327479D01*
X116298859Y-45418193D01*
X116298859Y-45514955D01*
X116298859Y-46627717D02*
X115282859Y-46754717D01*
X115669906Y-46706336D02*
X115621525Y-46809145D01*
X115621525Y-47002669D01*
X115669906Y-47093384D01*
X115718287Y-47135717D01*
X115815049Y-47172003D01*
X116105335Y-47135717D01*
X116202097Y-47075241D01*
X116250478Y-47020812D01*
X116298859Y-46918003D01*
X116298859Y-46724479D01*
X116250478Y-46633765D01*
X115621525Y-47534860D02*
X116298859Y-47692098D01*
X115621525Y-48018669D02*
X116298859Y-47692098D01*
X116540763Y-47565098D01*
X116589144Y-47510669D01*
X116637525Y-47407860D01*
X116298859Y-49095145D02*
X115282859Y-49222145D01*
X116008573Y-49470098D01*
X115282859Y-49899479D01*
X116298859Y-49772479D01*
X116298859Y-50691717D02*
X115766668Y-50758241D01*
X115669906Y-50721955D01*
X115621525Y-50631241D01*
X115621525Y-50437717D01*
X115669906Y-50334907D01*
X116250478Y-50697765D02*
X116298859Y-50594955D01*
X116298859Y-50353050D01*
X116250478Y-50262336D01*
X116153716Y-50226050D01*
X116056954Y-50238145D01*
X115960192Y-50298622D01*
X115911811Y-50401431D01*
X115911811Y-50643336D01*
X115863430Y-50746145D01*
X116298859Y-51175526D02*
X115621525Y-51260193D01*
X115815049Y-51236003D02*
X115718287Y-51296479D01*
X115669906Y-51350907D01*
X115621525Y-51453717D01*
X115621525Y-51550479D01*
X116298859Y-51804479D02*
X115282859Y-51931479D01*
X115911811Y-51949622D02*
X116298859Y-52191526D01*
X115621525Y-52276193D02*
X116008573Y-51840765D01*
X116298859Y-53401050D02*
X115282859Y-53528050D01*
X116008573Y-53776003D01*
X115282859Y-54205384D01*
X116298859Y-54078384D01*
X116298859Y-54707336D02*
X116250478Y-54616622D01*
X116202097Y-54574288D01*
X116105335Y-54538003D01*
X115815049Y-54574288D01*
X115718287Y-54634765D01*
X115669906Y-54689193D01*
X115621525Y-54792003D01*
X115621525Y-54937145D01*
X115669906Y-55027860D01*
X115718287Y-55070193D01*
X115815049Y-55106479D01*
X116105335Y-55070193D01*
X116202097Y-55009717D01*
X116250478Y-54955288D01*
X116298859Y-54852479D01*
X116298859Y-54707336D01*
X116298859Y-55481431D02*
X115621525Y-55566098D01*
X115815049Y-55541907D02*
X115718287Y-55602384D01*
X115669906Y-55656812D01*
X115621525Y-55759622D01*
X115621525Y-55856384D01*
X115621525Y-56049907D02*
X115621525Y-56436955D01*
X115282859Y-56237384D02*
X116153716Y-56128526D01*
X116250478Y-56164812D01*
X116298859Y-56255526D01*
X116298859Y-56352288D01*
X116298859Y-56836098D02*
X116250478Y-56745384D01*
X116202097Y-56703050D01*
X116105335Y-56666765D01*
X115815049Y-56703050D01*
X115718287Y-56763526D01*
X115669906Y-56817955D01*
X115621525Y-56920765D01*
X115621525Y-57065907D01*
X115669906Y-57156622D01*
X115718287Y-57198955D01*
X115815049Y-57235241D01*
X116105335Y-57198955D01*
X116202097Y-57138479D01*
X116250478Y-57084050D01*
X116298859Y-56981241D01*
X116298859Y-56836098D01*
X115621525Y-57694860D02*
X116298859Y-57610193D01*
X115718287Y-57682765D02*
X115669906Y-57737193D01*
X115621525Y-57840003D01*
X115621525Y-57985145D01*
X115669906Y-58075860D01*
X115766668Y-58112145D01*
X116298859Y-58045622D01*
X115282859Y-59333765D02*
X116298859Y-59448669D01*
X115573144Y-59732907D01*
X116298859Y-59835717D01*
X115282859Y-60204622D01*
X116298859Y-60996860D02*
X116298859Y-60416288D01*
X116298859Y-60706574D02*
X115282859Y-60833574D01*
X115428001Y-60718669D01*
X115524763Y-60609812D01*
X115573144Y-60507003D01*
X116298859Y-61432288D02*
X115282859Y-61559288D01*
X116008573Y-61807241D01*
X115282859Y-62236622D01*
X116298859Y-62109622D01*
X115766668Y-62659955D02*
X115766668Y-62998622D01*
X116298859Y-63077241D02*
X116298859Y-62593431D01*
X115282859Y-62720431D01*
X115282859Y-63204241D01*
X116298859Y-63512669D02*
X115282859Y-63639669D01*
X116008573Y-63887622D01*
X115282859Y-64317003D01*
X116298859Y-64190003D01*
X119570379Y-36685431D02*
X118554379Y-36812431D01*
X118554379Y-37054336D01*
X118602760Y-37193431D01*
X118699521Y-37278098D01*
X118796283Y-37314384D01*
X118989807Y-37338574D01*
X119134950Y-37320431D01*
X119328474Y-37247860D01*
X119425236Y-37187384D01*
X119521998Y-37078526D01*
X119570379Y-36927336D01*
X119570379Y-36685431D01*
X119521998Y-38094526D02*
X119570379Y-37991717D01*
X119570379Y-37798193D01*
X119521998Y-37707479D01*
X119425236Y-37671193D01*
X119038188Y-37719574D01*
X118941426Y-37780050D01*
X118893045Y-37882860D01*
X118893045Y-38076384D01*
X118941426Y-38167098D01*
X119038188Y-38203384D01*
X119134950Y-38191288D01*
X119231712Y-37695384D01*
X119521998Y-38529955D02*
X119570379Y-38620669D01*
X119570379Y-38814193D01*
X119521998Y-38917003D01*
X119425236Y-38977479D01*
X119376855Y-38983526D01*
X119280093Y-38947241D01*
X119231712Y-38856526D01*
X119231712Y-38711384D01*
X119183331Y-38620669D01*
X119086569Y-38584384D01*
X119038188Y-38590431D01*
X118941426Y-38650907D01*
X118893045Y-38753717D01*
X118893045Y-38898860D01*
X118941426Y-38989574D01*
X119570379Y-39394765D02*
X118893045Y-39479431D01*
X118554379Y-39521765D02*
X118602760Y-39467336D01*
X118651140Y-39509669D01*
X118602760Y-39564098D01*
X118554379Y-39521765D01*
X118651140Y-39509669D01*
X118893045Y-40398669D02*
X119715521Y-40295860D01*
X119812283Y-40235384D01*
X119860664Y-40180955D01*
X119909045Y-40078145D01*
X119909045Y-39933003D01*
X119860664Y-39842288D01*
X119521998Y-40320050D02*
X119570379Y-40217241D01*
X119570379Y-40023717D01*
X119521998Y-39933003D01*
X119473617Y-39890669D01*
X119376855Y-39854384D01*
X119086569Y-39890669D01*
X118989807Y-39951145D01*
X118941426Y-40005574D01*
X118893045Y-40108384D01*
X118893045Y-40301907D01*
X118941426Y-40392622D01*
X118893045Y-40882479D02*
X119570379Y-40797812D01*
X118989807Y-40870384D02*
X118941426Y-40924812D01*
X118893045Y-41027622D01*
X118893045Y-41172765D01*
X118941426Y-41263479D01*
X119038188Y-41299765D01*
X119570379Y-41233241D01*
X119521998Y-42110145D02*
X119570379Y-42007336D01*
X119570379Y-41813812D01*
X119521998Y-41723098D01*
X119425236Y-41686812D01*
X119038188Y-41735193D01*
X118941426Y-41795669D01*
X118893045Y-41898479D01*
X118893045Y-42092003D01*
X118941426Y-42182717D01*
X119038188Y-42219003D01*
X119134950Y-42206907D01*
X119231712Y-41711003D01*
X119570379Y-43023336D02*
X118554379Y-43150336D01*
X119521998Y-43029384D02*
X119570379Y-42926574D01*
X119570379Y-42733050D01*
X119521998Y-42642336D01*
X119473617Y-42600003D01*
X119376855Y-42563717D01*
X119086569Y-42600003D01*
X118989807Y-42660479D01*
X118941426Y-42714907D01*
X118893045Y-42817717D01*
X118893045Y-43011241D01*
X118941426Y-43101955D01*
X119570379Y-44281241D02*
X118554379Y-44408241D01*
X118941426Y-44359860D02*
X118893045Y-44462669D01*
X118893045Y-44656193D01*
X118941426Y-44746907D01*
X118989807Y-44789241D01*
X119086569Y-44825526D01*
X119376855Y-44789241D01*
X119473617Y-44728765D01*
X119521998Y-44674336D01*
X119570379Y-44571526D01*
X119570379Y-44378003D01*
X119521998Y-44287288D01*
X118893045Y-45188384D02*
X119570379Y-45345622D01*
X118893045Y-45672193D02*
X119570379Y-45345622D01*
X119812283Y-45218622D01*
X119860664Y-45164193D01*
X119909045Y-45061384D01*
X118554379Y-47165955D02*
X119280093Y-47075241D01*
X119425236Y-47008717D01*
X119521998Y-46899860D01*
X119570379Y-46748669D01*
X119570379Y-46651907D01*
X119570379Y-47958193D02*
X119038188Y-48024717D01*
X118941426Y-47988431D01*
X118893045Y-47897717D01*
X118893045Y-47704193D01*
X118941426Y-47601384D01*
X119521998Y-47964241D02*
X119570379Y-47861431D01*
X119570379Y-47619526D01*
X119521998Y-47528812D01*
X119425236Y-47492526D01*
X119328474Y-47504622D01*
X119231712Y-47565098D01*
X119183331Y-47667907D01*
X119183331Y-47909812D01*
X119134950Y-48012622D01*
X119570379Y-48442003D02*
X118893045Y-48526669D01*
X118989807Y-48514574D02*
X118941426Y-48569003D01*
X118893045Y-48671812D01*
X118893045Y-48816955D01*
X118941426Y-48907669D01*
X119038188Y-48943955D01*
X119570379Y-48877431D01*
X119038188Y-48943955D02*
X118941426Y-49004431D01*
X118893045Y-49107241D01*
X118893045Y-49252384D01*
X118941426Y-49343098D01*
X119038188Y-49379384D01*
X119570379Y-49312860D01*
X119570379Y-50232098D02*
X119038188Y-50298622D01*
X118941426Y-50262336D01*
X118893045Y-50171622D01*
X118893045Y-49978098D01*
X118941426Y-49875288D01*
X119521998Y-50238145D02*
X119570379Y-50135336D01*
X119570379Y-49893431D01*
X119521998Y-49802717D01*
X119425236Y-49766431D01*
X119328474Y-49778526D01*
X119231712Y-49839003D01*
X119183331Y-49941812D01*
X119183331Y-50183717D01*
X119134950Y-50286526D01*
X119570379Y-50861050D02*
X119521998Y-50770336D01*
X119425236Y-50734050D01*
X118554379Y-50842907D01*
X119038188Y-52427384D02*
X119086569Y-52566479D01*
X119134950Y-52608812D01*
X119231712Y-52645098D01*
X119376855Y-52626955D01*
X119473617Y-52566479D01*
X119521998Y-52512050D01*
X119570379Y-52409241D01*
X119570379Y-52022193D01*
X118554379Y-52149193D01*
X118554379Y-52487860D01*
X118602760Y-52578574D01*
X118651140Y-52620907D01*
X118747902Y-52657193D01*
X118844664Y-52645098D01*
X118941426Y-52584622D01*
X118989807Y-52530193D01*
X119038188Y-52427384D01*
X119038188Y-52088717D01*
X119570379Y-53183336D02*
X119521998Y-53092622D01*
X119473617Y-53050288D01*
X119376855Y-53014003D01*
X119086569Y-53050288D01*
X118989807Y-53110765D01*
X118941426Y-53165193D01*
X118893045Y-53268003D01*
X118893045Y-53413145D01*
X118941426Y-53503860D01*
X118989807Y-53546193D01*
X119086569Y-53582479D01*
X119376855Y-53546193D01*
X119473617Y-53485717D01*
X119521998Y-53431288D01*
X119570379Y-53328479D01*
X119570379Y-53183336D01*
X118893045Y-54477526D02*
X119570379Y-54392860D01*
X118893045Y-54042098D02*
X119425236Y-53975574D01*
X119521998Y-54011860D01*
X119570379Y-54102574D01*
X119570379Y-54247717D01*
X119521998Y-54350526D01*
X119473617Y-54404955D01*
X119570379Y-55312098D02*
X119038188Y-55378622D01*
X118941426Y-55342336D01*
X118893045Y-55251622D01*
X118893045Y-55058098D01*
X118941426Y-54955288D01*
X119521998Y-55318145D02*
X119570379Y-55215336D01*
X119570379Y-54973431D01*
X119521998Y-54882717D01*
X119425236Y-54846431D01*
X119328474Y-54858526D01*
X119231712Y-54919003D01*
X119183331Y-55021812D01*
X119183331Y-55263717D01*
X119134950Y-55366526D01*
X118893045Y-55880574D02*
X119763902Y-55771717D01*
X119860664Y-55711241D01*
X119909045Y-55608431D01*
X119909045Y-55560050D01*
X118554379Y-55922907D02*
X118602760Y-55868479D01*
X118651140Y-55910812D01*
X118602760Y-55965241D01*
X118554379Y-55922907D01*
X118651140Y-55910812D01*
X118893045Y-56364384D02*
X119763902Y-56255526D01*
X119860664Y-56195050D01*
X119909045Y-56092241D01*
X119909045Y-56043860D01*
X118554379Y-56406717D02*
X118602760Y-56352288D01*
X118651140Y-56394622D01*
X118602760Y-56449050D01*
X118554379Y-56406717D01*
X118651140Y-56394622D01*
X119570379Y-57198955D02*
X119038188Y-57265479D01*
X118941426Y-57229193D01*
X118893045Y-57138479D01*
X118893045Y-56944955D01*
X118941426Y-56842145D01*
X119521998Y-57205003D02*
X119570379Y-57102193D01*
X119570379Y-56860288D01*
X119521998Y-56769574D01*
X119425236Y-56733288D01*
X119328474Y-56745384D01*
X119231712Y-56805860D01*
X119183331Y-56908669D01*
X119183331Y-57150574D01*
X119134950Y-57253384D01*
X118893045Y-57767431D02*
X119763902Y-57658574D01*
X119860664Y-57598098D01*
X119909045Y-57495288D01*
X119909045Y-57446907D01*
X118554379Y-57809765D02*
X118602760Y-57755336D01*
X118651140Y-57797669D01*
X118602760Y-57852098D01*
X118554379Y-57809765D01*
X118651140Y-57797669D01*
X119957426Y-58408479D02*
X119909045Y-58366145D01*
X119763902Y-58287526D01*
X119667140Y-58251241D01*
X119521998Y-58221003D01*
X119280093Y-58202860D01*
X119086569Y-58227050D01*
X118844664Y-58305669D01*
X118699521Y-58372193D01*
X118602760Y-58432669D01*
X118457617Y-58547574D01*
X118409236Y-58602003D01*
X119038188Y-58910431D02*
X119038188Y-59249098D01*
X119570379Y-59327717D02*
X119570379Y-58843907D01*
X118554379Y-58970907D01*
X118554379Y-59454717D01*
X119570379Y-59908288D02*
X119521998Y-59817574D01*
X119425236Y-59781288D01*
X118554379Y-59890145D01*
X119521998Y-60688431D02*
X119570379Y-60585622D01*
X119570379Y-60392098D01*
X119521998Y-60301384D01*
X119425236Y-60265098D01*
X119038188Y-60313479D01*
X118941426Y-60373955D01*
X118893045Y-60476765D01*
X118893045Y-60670288D01*
X118941426Y-60761003D01*
X119038188Y-60797288D01*
X119134950Y-60785193D01*
X119231712Y-60289288D01*
X119521998Y-61607669D02*
X119570379Y-61504860D01*
X119570379Y-61311336D01*
X119521998Y-61220622D01*
X119473617Y-61178288D01*
X119376855Y-61142003D01*
X119086569Y-61178288D01*
X118989807Y-61238765D01*
X118941426Y-61293193D01*
X118893045Y-61396003D01*
X118893045Y-61589526D01*
X118941426Y-61680241D01*
X118893045Y-61976574D02*
X118893045Y-62363622D01*
X118554379Y-62164050D02*
X119425236Y-62055193D01*
X119521998Y-62091479D01*
X119570379Y-62182193D01*
X119570379Y-62278955D01*
X119570379Y-62617622D02*
X118893045Y-62702288D01*
X119086569Y-62678098D02*
X118989807Y-62738574D01*
X118941426Y-62793003D01*
X118893045Y-62895812D01*
X118893045Y-62992574D01*
X119570379Y-63391717D02*
X119521998Y-63301003D01*
X119473617Y-63258669D01*
X119376855Y-63222384D01*
X119086569Y-63258669D01*
X118989807Y-63319145D01*
X118941426Y-63373574D01*
X118893045Y-63476384D01*
X118893045Y-63621526D01*
X118941426Y-63712241D01*
X118989807Y-63754574D01*
X119086569Y-63790860D01*
X119376855Y-63754574D01*
X119473617Y-63694098D01*
X119521998Y-63639669D01*
X119570379Y-63536860D01*
X119570379Y-63391717D01*
X118554379Y-64196050D02*
X118554379Y-64873384D01*
X119570379Y-64310955D01*
X118554379Y-65453955D02*
X118554379Y-65550717D01*
X118602760Y-65641431D01*
X118651140Y-65683765D01*
X118747902Y-65720050D01*
X118941426Y-65744241D01*
X119183331Y-65714003D01*
X119376855Y-65641431D01*
X119473617Y-65580955D01*
X119521998Y-65526526D01*
X119570379Y-65423717D01*
X119570379Y-65326955D01*
X119521998Y-65236241D01*
X119473617Y-65193907D01*
X119376855Y-65157622D01*
X119183331Y-65133431D01*
X118941426Y-65163669D01*
X118747902Y-65236241D01*
X118651140Y-65296717D01*
X118602760Y-65351145D01*
X118554379Y-65453955D01*
X118554379Y-66131288D02*
X118554379Y-66808622D01*
X119570379Y-66246193D01*
X119957426Y-66923526D02*
X119909045Y-66977955D01*
X119763902Y-67092860D01*
X119667140Y-67153336D01*
X119521998Y-67219860D01*
X119280093Y-67298479D01*
X119086569Y-67322669D01*
X118844664Y-67304526D01*
X118699521Y-67274288D01*
X118602760Y-67238003D01*
X118457617Y-67159384D01*
X118409236Y-67117050D01*
X42600638Y-80455104D02*
X42600638Y-79874533D01*
X42561933Y-79758419D01*
X42484523Y-79681009D01*
X42368409Y-79642304D01*
X42291000Y-79642304D01*
X43374733Y-79642304D02*
X42987685Y-79642304D01*
X42987685Y-80455104D01*
X44110123Y-79719714D02*
X44071419Y-79681009D01*
X43955304Y-79642304D01*
X43877895Y-79642304D01*
X43761780Y-79681009D01*
X43684371Y-79758419D01*
X43645666Y-79835828D01*
X43606961Y-79990647D01*
X43606961Y-80106761D01*
X43645666Y-80261580D01*
X43684371Y-80338990D01*
X43761780Y-80416400D01*
X43877895Y-80455104D01*
X43955304Y-80455104D01*
X44071419Y-80416400D01*
X44110123Y-80377695D01*
X44690695Y-80455104D02*
X44690695Y-79874533D01*
X44651990Y-79758419D01*
X44574580Y-79681009D01*
X44458466Y-79642304D01*
X44381057Y-79642304D01*
X45464790Y-79642304D02*
X45077742Y-79642304D01*
X45077742Y-80455104D01*
X46200180Y-79719714D02*
X46161476Y-79681009D01*
X46045361Y-79642304D01*
X45967952Y-79642304D01*
X45851838Y-79681009D01*
X45774428Y-79758419D01*
X45735723Y-79835828D01*
X45697019Y-79990647D01*
X45697019Y-80106761D01*
X45735723Y-80261580D01*
X45774428Y-80338990D01*
X45851838Y-80416400D01*
X45967952Y-80455104D01*
X46045361Y-80455104D01*
X46161476Y-80416400D01*
X46200180Y-80377695D01*
X46780752Y-80455104D02*
X46780752Y-79874533D01*
X46742047Y-79758419D01*
X46664638Y-79681009D01*
X46548523Y-79642304D01*
X46471114Y-79642304D01*
X47554847Y-79642304D02*
X47167800Y-79642304D01*
X47167800Y-80455104D01*
X48290238Y-79719714D02*
X48251533Y-79681009D01*
X48135419Y-79642304D01*
X48058009Y-79642304D01*
X47941895Y-79681009D01*
X47864485Y-79758419D01*
X47825780Y-79835828D01*
X47787076Y-79990647D01*
X47787076Y-80106761D01*
X47825780Y-80261580D01*
X47864485Y-80338990D01*
X47941895Y-80416400D01*
X48058009Y-80455104D01*
X48135419Y-80455104D01*
X48251533Y-80416400D01*
X48290238Y-80377695D01*
X48870809Y-80455104D02*
X48870809Y-79874533D01*
X48832104Y-79758419D01*
X48754695Y-79681009D01*
X48638580Y-79642304D01*
X48561171Y-79642304D01*
X49644904Y-79642304D02*
X49257857Y-79642304D01*
X49257857Y-80455104D01*
X50380295Y-79719714D02*
X50341590Y-79681009D01*
X50225476Y-79642304D01*
X50148066Y-79642304D01*
X50031952Y-79681009D01*
X49954542Y-79758419D01*
X49915838Y-79835828D01*
X49877133Y-79990647D01*
X49877133Y-80106761D01*
X49915838Y-80261580D01*
X49954542Y-80338990D01*
X50031952Y-80416400D01*
X50148066Y-80455104D01*
X50225476Y-80455104D01*
X50341590Y-80416400D01*
X50380295Y-80377695D01*
X96520000Y-121920000D02*
G75*
G03*
X96520000Y-121920000I-3810000J0D01*
G01*
X43180000Y-83820000D02*
G75*
G03*
X43180000Y-83820000I-3810000J0D01*
G01*
D11*
X64704322Y-86759142D02*
X64704322Y-87267142D01*
X65502608Y-87484857D02*
X65502608Y-86759142D01*
X63978608Y-86759142D01*
X63978608Y-87484857D01*
X63978608Y-87992857D02*
X63978608Y-89008857D01*
X65502608Y-88355714D01*
X63978608Y-89879714D02*
X63978608Y-90024857D01*
X64051180Y-90170000D01*
X64123751Y-90242571D01*
X64268894Y-90315142D01*
X64559180Y-90387714D01*
X64922037Y-90387714D01*
X65212322Y-90315142D01*
X65357465Y-90242571D01*
X65430037Y-90170000D01*
X65502608Y-90024857D01*
X65502608Y-89879714D01*
X65430037Y-89734571D01*
X65357465Y-89662000D01*
X65212322Y-89589428D01*
X64922037Y-89516857D01*
X64559180Y-89516857D01*
X64268894Y-89589428D01*
X64123751Y-89662000D01*
X64051180Y-89734571D01*
X63978608Y-89879714D01*
X63978608Y-90895714D02*
X63978608Y-91911714D01*
X65502608Y-91258571D01*
X64704322Y-94161428D02*
X64776894Y-94379142D01*
X64849465Y-94451714D01*
X64994608Y-94524285D01*
X65212322Y-94524285D01*
X65357465Y-94451714D01*
X65430037Y-94379142D01*
X65502608Y-94234000D01*
X65502608Y-93653428D01*
X63978608Y-93653428D01*
X63978608Y-94161428D01*
X64051180Y-94306571D01*
X64123751Y-94379142D01*
X64268894Y-94451714D01*
X64414037Y-94451714D01*
X64559180Y-94379142D01*
X64631751Y-94306571D01*
X64704322Y-94161428D01*
X64704322Y-93653428D01*
X65502608Y-95830571D02*
X64704322Y-95830571D01*
X64559180Y-95758000D01*
X64486608Y-95612857D01*
X64486608Y-95322571D01*
X64559180Y-95177428D01*
X65430037Y-95830571D02*
X65502608Y-95685428D01*
X65502608Y-95322571D01*
X65430037Y-95177428D01*
X65284894Y-95104857D01*
X65139751Y-95104857D01*
X64994608Y-95177428D01*
X64922037Y-95322571D01*
X64922037Y-95685428D01*
X64849465Y-95830571D01*
X65430037Y-96483714D02*
X65502608Y-96628857D01*
X65502608Y-96919142D01*
X65430037Y-97064285D01*
X65284894Y-97136857D01*
X65212322Y-97136857D01*
X65067180Y-97064285D01*
X64994608Y-96919142D01*
X64994608Y-96701428D01*
X64922037Y-96556285D01*
X64776894Y-96483714D01*
X64704322Y-96483714D01*
X64559180Y-96556285D01*
X64486608Y-96701428D01*
X64486608Y-96919142D01*
X64559180Y-97064285D01*
X65502608Y-97790000D02*
X64486608Y-97790000D01*
X63978608Y-97790000D02*
X64051180Y-97717428D01*
X64123751Y-97790000D01*
X64051180Y-97862571D01*
X63978608Y-97790000D01*
X64123751Y-97790000D01*
X65430037Y-99168857D02*
X65502608Y-99023714D01*
X65502608Y-98733428D01*
X65430037Y-98588285D01*
X65357465Y-98515714D01*
X65212322Y-98443142D01*
X64776894Y-98443142D01*
X64631751Y-98515714D01*
X64559180Y-98588285D01*
X64486608Y-98733428D01*
X64486608Y-99023714D01*
X64559180Y-99168857D01*
X65502608Y-100983142D02*
X63978608Y-100983142D01*
X65502608Y-101854000D01*
X63978608Y-101854000D01*
X65502608Y-102797428D02*
X65430037Y-102652285D01*
X65357465Y-102579714D01*
X65212322Y-102507142D01*
X64776894Y-102507142D01*
X64631751Y-102579714D01*
X64559180Y-102652285D01*
X64486608Y-102797428D01*
X64486608Y-103015142D01*
X64559180Y-103160285D01*
X64631751Y-103232857D01*
X64776894Y-103305428D01*
X65212322Y-103305428D01*
X65357465Y-103232857D01*
X65430037Y-103160285D01*
X65502608Y-103015142D01*
X65502608Y-102797428D01*
X65502608Y-104611714D02*
X63978608Y-104611714D01*
X65430037Y-104611714D02*
X65502608Y-104466571D01*
X65502608Y-104176285D01*
X65430037Y-104031142D01*
X65357465Y-103958571D01*
X65212322Y-103886000D01*
X64776894Y-103886000D01*
X64631751Y-103958571D01*
X64559180Y-104031142D01*
X64486608Y-104176285D01*
X64486608Y-104466571D01*
X64559180Y-104611714D01*
X65430037Y-105918000D02*
X65502608Y-105772857D01*
X65502608Y-105482571D01*
X65430037Y-105337428D01*
X65284894Y-105264857D01*
X64704322Y-105264857D01*
X64559180Y-105337428D01*
X64486608Y-105482571D01*
X64486608Y-105772857D01*
X64559180Y-105918000D01*
X64704322Y-105990571D01*
X64849465Y-105990571D01*
X64994608Y-105264857D01*
X65502608Y-106643714D02*
X63978608Y-106643714D01*
X65067180Y-107151714D01*
X63978608Y-107659714D01*
X65502608Y-107659714D01*
X65357465Y-109256285D02*
X65430037Y-109183714D01*
X65502608Y-108966000D01*
X65502608Y-108820857D01*
X65430037Y-108603142D01*
X65284894Y-108458000D01*
X65139751Y-108385428D01*
X64849465Y-108312857D01*
X64631751Y-108312857D01*
X64341465Y-108385428D01*
X64196322Y-108458000D01*
X64051180Y-108603142D01*
X63978608Y-108820857D01*
X63978608Y-108966000D01*
X64051180Y-109183714D01*
X64123751Y-109256285D01*
X63978608Y-109909428D02*
X65212322Y-109909428D01*
X65357465Y-109982000D01*
X65430037Y-110054571D01*
X65502608Y-110199714D01*
X65502608Y-110490000D01*
X65430037Y-110635142D01*
X65357465Y-110707714D01*
X65212322Y-110780285D01*
X63978608Y-110780285D01*
X65430037Y-112594571D02*
X65502608Y-112812285D01*
X65502608Y-113175142D01*
X65430037Y-113320285D01*
X65357465Y-113392857D01*
X65212322Y-113465428D01*
X65067180Y-113465428D01*
X64922037Y-113392857D01*
X64849465Y-113320285D01*
X64776894Y-113175142D01*
X64704322Y-112884857D01*
X64631751Y-112739714D01*
X64559180Y-112667142D01*
X64414037Y-112594571D01*
X64268894Y-112594571D01*
X64123751Y-112667142D01*
X64051180Y-112739714D01*
X63978608Y-112884857D01*
X63978608Y-113247714D01*
X64051180Y-113465428D01*
X65502608Y-114118571D02*
X63978608Y-114118571D01*
X65502608Y-114771714D02*
X64704322Y-114771714D01*
X64559180Y-114699142D01*
X64486608Y-114554000D01*
X64486608Y-114336285D01*
X64559180Y-114191142D01*
X64631751Y-114118571D01*
X65502608Y-115497428D02*
X64486608Y-115497428D01*
X63978608Y-115497428D02*
X64051180Y-115424857D01*
X64123751Y-115497428D01*
X64051180Y-115570000D01*
X63978608Y-115497428D01*
X64123751Y-115497428D01*
X65430037Y-116803714D02*
X65502608Y-116658571D01*
X65502608Y-116368285D01*
X65430037Y-116223142D01*
X65284894Y-116150571D01*
X64704322Y-116150571D01*
X64559180Y-116223142D01*
X64486608Y-116368285D01*
X64486608Y-116658571D01*
X64559180Y-116803714D01*
X64704322Y-116876285D01*
X64849465Y-116876285D01*
X64994608Y-116150571D01*
X65502608Y-117747142D02*
X65430037Y-117602000D01*
X65284894Y-117529428D01*
X63978608Y-117529428D01*
X65502608Y-118980857D02*
X63978608Y-118980857D01*
X65430037Y-118980857D02*
X65502608Y-118835714D01*
X65502608Y-118545428D01*
X65430037Y-118400285D01*
X65357465Y-118327714D01*
X65212322Y-118255142D01*
X64776894Y-118255142D01*
X64631751Y-118327714D01*
X64559180Y-118400285D01*
X64486608Y-118545428D01*
X64486608Y-118835714D01*
X64559180Y-118980857D01*
X66432248Y-99822000D02*
X67956248Y-100330000D01*
X66432248Y-100838000D01*
X67956248Y-102144285D02*
X67956248Y-101273428D01*
X67956248Y-101708857D02*
X66432248Y-101708857D01*
X66649962Y-101563714D01*
X66795105Y-101418571D01*
X66867677Y-101273428D01*
X67811105Y-102797428D02*
X67883677Y-102870000D01*
X67956248Y-102797428D01*
X67883677Y-102724857D01*
X67811105Y-102797428D01*
X67956248Y-102797428D01*
X67956248Y-104321428D02*
X67956248Y-103450571D01*
X67956248Y-103886000D02*
X66432248Y-103886000D01*
X66649962Y-103740857D01*
X66795105Y-103595714D01*
X66867677Y-103450571D01*
X67883677Y-104902000D02*
X67956248Y-105119714D01*
X67956248Y-105482571D01*
X67883677Y-105627714D01*
X67811105Y-105700285D01*
X67665962Y-105772857D01*
X67520820Y-105772857D01*
X67375677Y-105700285D01*
X67303105Y-105627714D01*
X67230534Y-105482571D01*
X67157962Y-105192285D01*
X67085391Y-105047142D01*
X67012820Y-104974571D01*
X66867677Y-104902000D01*
X66722534Y-104902000D01*
X66577391Y-104974571D01*
X66504820Y-105047142D01*
X66432248Y-105192285D01*
X66432248Y-105555142D01*
X66504820Y-105772857D01*
D10*
X96520000Y-83820000D02*
G75*
G03*
X96520000Y-83820000I-3810000J0D01*
G01*
X43180000Y-121920000D02*
G75*
G03*
X43180000Y-121920000I-3810000J0D01*
G01*
X40002097Y-91150288D02*
X40050478Y-91095860D01*
X40098859Y-90944669D01*
X40098859Y-90847907D01*
X40050478Y-90708812D01*
X39953716Y-90624145D01*
X39856954Y-90587860D01*
X39663430Y-90563669D01*
X39518287Y-90581812D01*
X39324763Y-90654384D01*
X39228001Y-90714860D01*
X39131240Y-90823717D01*
X39082859Y-90974907D01*
X39082859Y-91071669D01*
X39131240Y-91210765D01*
X39179620Y-91253098D01*
X40098859Y-91718765D02*
X40050478Y-91628050D01*
X40002097Y-91585717D01*
X39905335Y-91549431D01*
X39615049Y-91585717D01*
X39518287Y-91646193D01*
X39469906Y-91700622D01*
X39421525Y-91803431D01*
X39421525Y-91948574D01*
X39469906Y-92039288D01*
X39518287Y-92081622D01*
X39615049Y-92117907D01*
X39905335Y-92081622D01*
X40002097Y-92021145D01*
X40050478Y-91966717D01*
X40098859Y-91863907D01*
X40098859Y-91718765D01*
X39421525Y-92577526D02*
X40098859Y-92492860D01*
X39518287Y-92565431D02*
X39469906Y-92619860D01*
X39421525Y-92722669D01*
X39421525Y-92867812D01*
X39469906Y-92958526D01*
X39566668Y-92994812D01*
X40098859Y-92928288D01*
X40050478Y-93853574D02*
X40098859Y-93750765D01*
X40098859Y-93557241D01*
X40050478Y-93466526D01*
X40002097Y-93424193D01*
X39905335Y-93387907D01*
X39615049Y-93424193D01*
X39518287Y-93484669D01*
X39469906Y-93539098D01*
X39421525Y-93641907D01*
X39421525Y-93835431D01*
X39469906Y-93926145D01*
X40050478Y-94676050D02*
X40098859Y-94573241D01*
X40098859Y-94379717D01*
X40050478Y-94289003D01*
X39953716Y-94252717D01*
X39566668Y-94301098D01*
X39469906Y-94361574D01*
X39421525Y-94464384D01*
X39421525Y-94657907D01*
X39469906Y-94748622D01*
X39566668Y-94784907D01*
X39663430Y-94772812D01*
X39760192Y-94276907D01*
X39421525Y-95238479D02*
X40437525Y-95111479D01*
X39469906Y-95232431D02*
X39421525Y-95335241D01*
X39421525Y-95528765D01*
X39469906Y-95619479D01*
X39518287Y-95661812D01*
X39615049Y-95698098D01*
X39905335Y-95661812D01*
X40002097Y-95601336D01*
X40050478Y-95546907D01*
X40098859Y-95444098D01*
X40098859Y-95250574D01*
X40050478Y-95159860D01*
X39421525Y-96012574D02*
X39421525Y-96399622D01*
X39082859Y-96200050D02*
X39953716Y-96091193D01*
X40050478Y-96127479D01*
X40098859Y-96218193D01*
X40098859Y-96314955D01*
X40098859Y-97427717D02*
X39082859Y-97554717D01*
X39469906Y-97506336D02*
X39421525Y-97609145D01*
X39421525Y-97802669D01*
X39469906Y-97893384D01*
X39518287Y-97935717D01*
X39615049Y-97972003D01*
X39905335Y-97935717D01*
X40002097Y-97875241D01*
X40050478Y-97820812D01*
X40098859Y-97718003D01*
X40098859Y-97524479D01*
X40050478Y-97433765D01*
X39421525Y-98334860D02*
X40098859Y-98492098D01*
X39421525Y-98818669D02*
X40098859Y-98492098D01*
X40340763Y-98365098D01*
X40389144Y-98310669D01*
X40437525Y-98207860D01*
X40098859Y-99895145D02*
X39082859Y-100022145D01*
X39808573Y-100270098D01*
X39082859Y-100699479D01*
X40098859Y-100572479D01*
X40098859Y-101491717D02*
X39566668Y-101558241D01*
X39469906Y-101521955D01*
X39421525Y-101431241D01*
X39421525Y-101237717D01*
X39469906Y-101134907D01*
X40050478Y-101497765D02*
X40098859Y-101394955D01*
X40098859Y-101153050D01*
X40050478Y-101062336D01*
X39953716Y-101026050D01*
X39856954Y-101038145D01*
X39760192Y-101098622D01*
X39711811Y-101201431D01*
X39711811Y-101443336D01*
X39663430Y-101546145D01*
X40098859Y-101975526D02*
X39421525Y-102060193D01*
X39615049Y-102036003D02*
X39518287Y-102096479D01*
X39469906Y-102150907D01*
X39421525Y-102253717D01*
X39421525Y-102350479D01*
X40098859Y-102604479D02*
X39082859Y-102731479D01*
X39711811Y-102749622D02*
X40098859Y-102991526D01*
X39421525Y-103076193D02*
X39808573Y-102640765D01*
X40098859Y-104201050D02*
X39082859Y-104328050D01*
X39808573Y-104576003D01*
X39082859Y-105005384D01*
X40098859Y-104878384D01*
X40098859Y-105507336D02*
X40050478Y-105416622D01*
X40002097Y-105374288D01*
X39905335Y-105338003D01*
X39615049Y-105374288D01*
X39518287Y-105434765D01*
X39469906Y-105489193D01*
X39421525Y-105592003D01*
X39421525Y-105737145D01*
X39469906Y-105827860D01*
X39518287Y-105870193D01*
X39615049Y-105906479D01*
X39905335Y-105870193D01*
X40002097Y-105809717D01*
X40050478Y-105755288D01*
X40098859Y-105652479D01*
X40098859Y-105507336D01*
X40098859Y-106281431D02*
X39421525Y-106366098D01*
X39615049Y-106341907D02*
X39518287Y-106402384D01*
X39469906Y-106456812D01*
X39421525Y-106559622D01*
X39421525Y-106656384D01*
X39421525Y-106849907D02*
X39421525Y-107236955D01*
X39082859Y-107037384D02*
X39953716Y-106928526D01*
X40050478Y-106964812D01*
X40098859Y-107055526D01*
X40098859Y-107152288D01*
X40098859Y-107636098D02*
X40050478Y-107545384D01*
X40002097Y-107503050D01*
X39905335Y-107466765D01*
X39615049Y-107503050D01*
X39518287Y-107563526D01*
X39469906Y-107617955D01*
X39421525Y-107720765D01*
X39421525Y-107865907D01*
X39469906Y-107956622D01*
X39518287Y-107998955D01*
X39615049Y-108035241D01*
X39905335Y-107998955D01*
X40002097Y-107938479D01*
X40050478Y-107884050D01*
X40098859Y-107781241D01*
X40098859Y-107636098D01*
X39421525Y-108494860D02*
X40098859Y-108410193D01*
X39518287Y-108482765D02*
X39469906Y-108537193D01*
X39421525Y-108640003D01*
X39421525Y-108785145D01*
X39469906Y-108875860D01*
X39566668Y-108912145D01*
X40098859Y-108845622D01*
X39082859Y-110133765D02*
X40098859Y-110248669D01*
X39373144Y-110532907D01*
X40098859Y-110635717D01*
X39082859Y-111004622D01*
X40098859Y-111796860D02*
X40098859Y-111216288D01*
X40098859Y-111506574D02*
X39082859Y-111633574D01*
X39228001Y-111518669D01*
X39324763Y-111409812D01*
X39373144Y-111307003D01*
X40098859Y-112232288D02*
X39082859Y-112359288D01*
X39808573Y-112607241D01*
X39082859Y-113036622D01*
X40098859Y-112909622D01*
X39566668Y-113459955D02*
X39566668Y-113798622D01*
X40098859Y-113877241D02*
X40098859Y-113393431D01*
X39082859Y-113520431D01*
X39082859Y-114004241D01*
X40098859Y-114312669D02*
X39082859Y-114439669D01*
X39808573Y-114687622D01*
X39082859Y-115117003D01*
X40098859Y-114990003D01*
X43370379Y-87485431D02*
X42354379Y-87612431D01*
X42354379Y-87854336D01*
X42402760Y-87993431D01*
X42499521Y-88078098D01*
X42596283Y-88114384D01*
X42789807Y-88138574D01*
X42934950Y-88120431D01*
X43128474Y-88047860D01*
X43225236Y-87987384D01*
X43321998Y-87878526D01*
X43370379Y-87727336D01*
X43370379Y-87485431D01*
X43321998Y-88894526D02*
X43370379Y-88791717D01*
X43370379Y-88598193D01*
X43321998Y-88507479D01*
X43225236Y-88471193D01*
X42838188Y-88519574D01*
X42741426Y-88580050D01*
X42693045Y-88682860D01*
X42693045Y-88876384D01*
X42741426Y-88967098D01*
X42838188Y-89003384D01*
X42934950Y-88991288D01*
X43031712Y-88495384D01*
X43321998Y-89329955D02*
X43370379Y-89420669D01*
X43370379Y-89614193D01*
X43321998Y-89717003D01*
X43225236Y-89777479D01*
X43176855Y-89783526D01*
X43080093Y-89747241D01*
X43031712Y-89656526D01*
X43031712Y-89511384D01*
X42983331Y-89420669D01*
X42886569Y-89384384D01*
X42838188Y-89390431D01*
X42741426Y-89450907D01*
X42693045Y-89553717D01*
X42693045Y-89698860D01*
X42741426Y-89789574D01*
X43370379Y-90194765D02*
X42693045Y-90279431D01*
X42354379Y-90321765D02*
X42402760Y-90267336D01*
X42451140Y-90309669D01*
X42402760Y-90364098D01*
X42354379Y-90321765D01*
X42451140Y-90309669D01*
X42693045Y-91198669D02*
X43515521Y-91095860D01*
X43612283Y-91035384D01*
X43660664Y-90980955D01*
X43709045Y-90878145D01*
X43709045Y-90733003D01*
X43660664Y-90642288D01*
X43321998Y-91120050D02*
X43370379Y-91017241D01*
X43370379Y-90823717D01*
X43321998Y-90733003D01*
X43273617Y-90690669D01*
X43176855Y-90654384D01*
X42886569Y-90690669D01*
X42789807Y-90751145D01*
X42741426Y-90805574D01*
X42693045Y-90908384D01*
X42693045Y-91101907D01*
X42741426Y-91192622D01*
X42693045Y-91682479D02*
X43370379Y-91597812D01*
X42789807Y-91670384D02*
X42741426Y-91724812D01*
X42693045Y-91827622D01*
X42693045Y-91972765D01*
X42741426Y-92063479D01*
X42838188Y-92099765D01*
X43370379Y-92033241D01*
X43321998Y-92910145D02*
X43370379Y-92807336D01*
X43370379Y-92613812D01*
X43321998Y-92523098D01*
X43225236Y-92486812D01*
X42838188Y-92535193D01*
X42741426Y-92595669D01*
X42693045Y-92698479D01*
X42693045Y-92892003D01*
X42741426Y-92982717D01*
X42838188Y-93019003D01*
X42934950Y-93006907D01*
X43031712Y-92511003D01*
X43370379Y-93823336D02*
X42354379Y-93950336D01*
X43321998Y-93829384D02*
X43370379Y-93726574D01*
X43370379Y-93533050D01*
X43321998Y-93442336D01*
X43273617Y-93400003D01*
X43176855Y-93363717D01*
X42886569Y-93400003D01*
X42789807Y-93460479D01*
X42741426Y-93514907D01*
X42693045Y-93617717D01*
X42693045Y-93811241D01*
X42741426Y-93901955D01*
X43370379Y-95081241D02*
X42354379Y-95208241D01*
X42741426Y-95159860D02*
X42693045Y-95262669D01*
X42693045Y-95456193D01*
X42741426Y-95546907D01*
X42789807Y-95589241D01*
X42886569Y-95625526D01*
X43176855Y-95589241D01*
X43273617Y-95528765D01*
X43321998Y-95474336D01*
X43370379Y-95371526D01*
X43370379Y-95178003D01*
X43321998Y-95087288D01*
X42693045Y-95988384D02*
X43370379Y-96145622D01*
X42693045Y-96472193D02*
X43370379Y-96145622D01*
X43612283Y-96018622D01*
X43660664Y-95964193D01*
X43709045Y-95861384D01*
X42354379Y-97965955D02*
X43080093Y-97875241D01*
X43225236Y-97808717D01*
X43321998Y-97699860D01*
X43370379Y-97548669D01*
X43370379Y-97451907D01*
X43370379Y-98758193D02*
X42838188Y-98824717D01*
X42741426Y-98788431D01*
X42693045Y-98697717D01*
X42693045Y-98504193D01*
X42741426Y-98401384D01*
X43321998Y-98764241D02*
X43370379Y-98661431D01*
X43370379Y-98419526D01*
X43321998Y-98328812D01*
X43225236Y-98292526D01*
X43128474Y-98304622D01*
X43031712Y-98365098D01*
X42983331Y-98467907D01*
X42983331Y-98709812D01*
X42934950Y-98812622D01*
X43370379Y-99242003D02*
X42693045Y-99326669D01*
X42789807Y-99314574D02*
X42741426Y-99369003D01*
X42693045Y-99471812D01*
X42693045Y-99616955D01*
X42741426Y-99707669D01*
X42838188Y-99743955D01*
X43370379Y-99677431D01*
X42838188Y-99743955D02*
X42741426Y-99804431D01*
X42693045Y-99907241D01*
X42693045Y-100052384D01*
X42741426Y-100143098D01*
X42838188Y-100179384D01*
X43370379Y-100112860D01*
X43370379Y-101032098D02*
X42838188Y-101098622D01*
X42741426Y-101062336D01*
X42693045Y-100971622D01*
X42693045Y-100778098D01*
X42741426Y-100675288D01*
X43321998Y-101038145D02*
X43370379Y-100935336D01*
X43370379Y-100693431D01*
X43321998Y-100602717D01*
X43225236Y-100566431D01*
X43128474Y-100578526D01*
X43031712Y-100639003D01*
X42983331Y-100741812D01*
X42983331Y-100983717D01*
X42934950Y-101086526D01*
X43370379Y-101661050D02*
X43321998Y-101570336D01*
X43225236Y-101534050D01*
X42354379Y-101642907D01*
X42838188Y-103227384D02*
X42886569Y-103366479D01*
X42934950Y-103408812D01*
X43031712Y-103445098D01*
X43176855Y-103426955D01*
X43273617Y-103366479D01*
X43321998Y-103312050D01*
X43370379Y-103209241D01*
X43370379Y-102822193D01*
X42354379Y-102949193D01*
X42354379Y-103287860D01*
X42402760Y-103378574D01*
X42451140Y-103420907D01*
X42547902Y-103457193D01*
X42644664Y-103445098D01*
X42741426Y-103384622D01*
X42789807Y-103330193D01*
X42838188Y-103227384D01*
X42838188Y-102888717D01*
X43370379Y-103983336D02*
X43321998Y-103892622D01*
X43273617Y-103850288D01*
X43176855Y-103814003D01*
X42886569Y-103850288D01*
X42789807Y-103910765D01*
X42741426Y-103965193D01*
X42693045Y-104068003D01*
X42693045Y-104213145D01*
X42741426Y-104303860D01*
X42789807Y-104346193D01*
X42886569Y-104382479D01*
X43176855Y-104346193D01*
X43273617Y-104285717D01*
X43321998Y-104231288D01*
X43370379Y-104128479D01*
X43370379Y-103983336D01*
X42693045Y-105277526D02*
X43370379Y-105192860D01*
X42693045Y-104842098D02*
X43225236Y-104775574D01*
X43321998Y-104811860D01*
X43370379Y-104902574D01*
X43370379Y-105047717D01*
X43321998Y-105150526D01*
X43273617Y-105204955D01*
X43370379Y-106112098D02*
X42838188Y-106178622D01*
X42741426Y-106142336D01*
X42693045Y-106051622D01*
X42693045Y-105858098D01*
X42741426Y-105755288D01*
X43321998Y-106118145D02*
X43370379Y-106015336D01*
X43370379Y-105773431D01*
X43321998Y-105682717D01*
X43225236Y-105646431D01*
X43128474Y-105658526D01*
X43031712Y-105719003D01*
X42983331Y-105821812D01*
X42983331Y-106063717D01*
X42934950Y-106166526D01*
X42693045Y-106680574D02*
X43563902Y-106571717D01*
X43660664Y-106511241D01*
X43709045Y-106408431D01*
X43709045Y-106360050D01*
X42354379Y-106722907D02*
X42402760Y-106668479D01*
X42451140Y-106710812D01*
X42402760Y-106765241D01*
X42354379Y-106722907D01*
X42451140Y-106710812D01*
X42693045Y-107164384D02*
X43563902Y-107055526D01*
X43660664Y-106995050D01*
X43709045Y-106892241D01*
X43709045Y-106843860D01*
X42354379Y-107206717D02*
X42402760Y-107152288D01*
X42451140Y-107194622D01*
X42402760Y-107249050D01*
X42354379Y-107206717D01*
X42451140Y-107194622D01*
X43370379Y-107998955D02*
X42838188Y-108065479D01*
X42741426Y-108029193D01*
X42693045Y-107938479D01*
X42693045Y-107744955D01*
X42741426Y-107642145D01*
X43321998Y-108005003D02*
X43370379Y-107902193D01*
X43370379Y-107660288D01*
X43321998Y-107569574D01*
X43225236Y-107533288D01*
X43128474Y-107545384D01*
X43031712Y-107605860D01*
X42983331Y-107708669D01*
X42983331Y-107950574D01*
X42934950Y-108053384D01*
X42693045Y-108567431D02*
X43563902Y-108458574D01*
X43660664Y-108398098D01*
X43709045Y-108295288D01*
X43709045Y-108246907D01*
X42354379Y-108609765D02*
X42402760Y-108555336D01*
X42451140Y-108597669D01*
X42402760Y-108652098D01*
X42354379Y-108609765D01*
X42451140Y-108597669D01*
X43757426Y-109208479D02*
X43709045Y-109166145D01*
X43563902Y-109087526D01*
X43467140Y-109051241D01*
X43321998Y-109021003D01*
X43080093Y-109002860D01*
X42886569Y-109027050D01*
X42644664Y-109105669D01*
X42499521Y-109172193D01*
X42402760Y-109232669D01*
X42257617Y-109347574D01*
X42209236Y-109402003D01*
X42838188Y-109710431D02*
X42838188Y-110049098D01*
X43370379Y-110127717D02*
X43370379Y-109643907D01*
X42354379Y-109770907D01*
X42354379Y-110254717D01*
X43370379Y-110708288D02*
X43321998Y-110617574D01*
X43225236Y-110581288D01*
X42354379Y-110690145D01*
X43321998Y-111488431D02*
X43370379Y-111385622D01*
X43370379Y-111192098D01*
X43321998Y-111101384D01*
X43225236Y-111065098D01*
X42838188Y-111113479D01*
X42741426Y-111173955D01*
X42693045Y-111276765D01*
X42693045Y-111470288D01*
X42741426Y-111561003D01*
X42838188Y-111597288D01*
X42934950Y-111585193D01*
X43031712Y-111089288D01*
X43321998Y-112407669D02*
X43370379Y-112304860D01*
X43370379Y-112111336D01*
X43321998Y-112020622D01*
X43273617Y-111978288D01*
X43176855Y-111942003D01*
X42886569Y-111978288D01*
X42789807Y-112038765D01*
X42741426Y-112093193D01*
X42693045Y-112196003D01*
X42693045Y-112389526D01*
X42741426Y-112480241D01*
X42693045Y-112776574D02*
X42693045Y-113163622D01*
X42354379Y-112964050D02*
X43225236Y-112855193D01*
X43321998Y-112891479D01*
X43370379Y-112982193D01*
X43370379Y-113078955D01*
X43370379Y-113417622D02*
X42693045Y-113502288D01*
X42886569Y-113478098D02*
X42789807Y-113538574D01*
X42741426Y-113593003D01*
X42693045Y-113695812D01*
X42693045Y-113792574D01*
X43370379Y-114191717D02*
X43321998Y-114101003D01*
X43273617Y-114058669D01*
X43176855Y-114022384D01*
X42886569Y-114058669D01*
X42789807Y-114119145D01*
X42741426Y-114173574D01*
X42693045Y-114276384D01*
X42693045Y-114421526D01*
X42741426Y-114512241D01*
X42789807Y-114554574D01*
X42886569Y-114590860D01*
X43176855Y-114554574D01*
X43273617Y-114494098D01*
X43321998Y-114439669D01*
X43370379Y-114336860D01*
X43370379Y-114191717D01*
X42354379Y-114996050D02*
X42354379Y-115673384D01*
X43370379Y-115110955D01*
X42354379Y-116253955D02*
X42354379Y-116350717D01*
X42402760Y-116441431D01*
X42451140Y-116483765D01*
X42547902Y-116520050D01*
X42741426Y-116544241D01*
X42983331Y-116514003D01*
X43176855Y-116441431D01*
X43273617Y-116380955D01*
X43321998Y-116326526D01*
X43370379Y-116223717D01*
X43370379Y-116126955D01*
X43321998Y-116036241D01*
X43273617Y-115993907D01*
X43176855Y-115957622D01*
X42983331Y-115933431D01*
X42741426Y-115963669D01*
X42547902Y-116036241D01*
X42451140Y-116096717D01*
X42402760Y-116151145D01*
X42354379Y-116253955D01*
X42354379Y-116931288D02*
X42354379Y-117608622D01*
X43370379Y-117046193D01*
X43757426Y-117723526D02*
X43709045Y-117777955D01*
X43563902Y-117892860D01*
X43467140Y-117953336D01*
X43321998Y-118019860D01*
X43080093Y-118098479D01*
X42886569Y-118122669D01*
X42644664Y-118104526D01*
X42499521Y-118074288D01*
X42402760Y-118038003D01*
X42257617Y-117959384D01*
X42209236Y-117917050D01*
X96520000Y-33020000D02*
G75*
G03*
X96520000Y-33020000I-3810000J0D01*
G01*
X43180000Y-71120000D02*
G75*
G03*
X43180000Y-71120000I-3810000J0D01*
G01*
X43180000Y-33020000D02*
G75*
G03*
X43180000Y-33020000I-3810000J0D01*
G01*
X96520000Y-71120000D02*
G75*
G03*
X96520000Y-71120000I-3810000J0D01*
G01*
X42600638Y-29655104D02*
X42600638Y-29074533D01*
X42561933Y-28958419D01*
X42484523Y-28881009D01*
X42368409Y-28842304D01*
X42291000Y-28842304D01*
X43374733Y-28842304D02*
X42987685Y-28842304D01*
X42987685Y-29655104D01*
X44110123Y-28919714D02*
X44071419Y-28881009D01*
X43955304Y-28842304D01*
X43877895Y-28842304D01*
X43761780Y-28881009D01*
X43684371Y-28958419D01*
X43645666Y-29035828D01*
X43606961Y-29190647D01*
X43606961Y-29306761D01*
X43645666Y-29461580D01*
X43684371Y-29538990D01*
X43761780Y-29616400D01*
X43877895Y-29655104D01*
X43955304Y-29655104D01*
X44071419Y-29616400D01*
X44110123Y-29577695D01*
X44690695Y-29655104D02*
X44690695Y-29074533D01*
X44651990Y-28958419D01*
X44574580Y-28881009D01*
X44458466Y-28842304D01*
X44381057Y-28842304D01*
X45464790Y-28842304D02*
X45077742Y-28842304D01*
X45077742Y-29655104D01*
X46200180Y-28919714D02*
X46161476Y-28881009D01*
X46045361Y-28842304D01*
X45967952Y-28842304D01*
X45851838Y-28881009D01*
X45774428Y-28958419D01*
X45735723Y-29035828D01*
X45697019Y-29190647D01*
X45697019Y-29306761D01*
X45735723Y-29461580D01*
X45774428Y-29538990D01*
X45851838Y-29616400D01*
X45967952Y-29655104D01*
X46045361Y-29655104D01*
X46161476Y-29616400D01*
X46200180Y-29577695D01*
X46780752Y-29655104D02*
X46780752Y-29074533D01*
X46742047Y-28958419D01*
X46664638Y-28881009D01*
X46548523Y-28842304D01*
X46471114Y-28842304D01*
X47554847Y-28842304D02*
X47167800Y-28842304D01*
X47167800Y-29655104D01*
X48290238Y-28919714D02*
X48251533Y-28881009D01*
X48135419Y-28842304D01*
X48058009Y-28842304D01*
X47941895Y-28881009D01*
X47864485Y-28958419D01*
X47825780Y-29035828D01*
X47787076Y-29190647D01*
X47787076Y-29306761D01*
X47825780Y-29461580D01*
X47864485Y-29538990D01*
X47941895Y-29616400D01*
X48058009Y-29655104D01*
X48135419Y-29655104D01*
X48251533Y-29616400D01*
X48290238Y-29577695D01*
X48870809Y-29655104D02*
X48870809Y-29074533D01*
X48832104Y-28958419D01*
X48754695Y-28881009D01*
X48638580Y-28842304D01*
X48561171Y-28842304D01*
X49644904Y-28842304D02*
X49257857Y-28842304D01*
X49257857Y-29655104D01*
X50380295Y-28919714D02*
X50341590Y-28881009D01*
X50225476Y-28842304D01*
X50148066Y-28842304D01*
X50031952Y-28881009D01*
X49954542Y-28958419D01*
X49915838Y-29035828D01*
X49877133Y-29190647D01*
X49877133Y-29306761D01*
X49915838Y-29461580D01*
X49954542Y-29538990D01*
X50031952Y-29616400D01*
X50148066Y-29655104D01*
X50225476Y-29655104D01*
X50341590Y-29616400D01*
X50380295Y-29577695D01*
D11*
X64704322Y-35959142D02*
X64704322Y-36467142D01*
X65502608Y-36684857D02*
X65502608Y-35959142D01*
X63978608Y-35959142D01*
X63978608Y-36684857D01*
X63978608Y-37192857D02*
X63978608Y-38208857D01*
X65502608Y-37555714D01*
X63978608Y-39079714D02*
X63978608Y-39224857D01*
X64051180Y-39370000D01*
X64123751Y-39442571D01*
X64268894Y-39515142D01*
X64559180Y-39587714D01*
X64922037Y-39587714D01*
X65212322Y-39515142D01*
X65357465Y-39442571D01*
X65430037Y-39370000D01*
X65502608Y-39224857D01*
X65502608Y-39079714D01*
X65430037Y-38934571D01*
X65357465Y-38862000D01*
X65212322Y-38789428D01*
X64922037Y-38716857D01*
X64559180Y-38716857D01*
X64268894Y-38789428D01*
X64123751Y-38862000D01*
X64051180Y-38934571D01*
X63978608Y-39079714D01*
X63978608Y-40095714D02*
X63978608Y-41111714D01*
X65502608Y-40458571D01*
X64704322Y-43361428D02*
X64776894Y-43579142D01*
X64849465Y-43651714D01*
X64994608Y-43724285D01*
X65212322Y-43724285D01*
X65357465Y-43651714D01*
X65430037Y-43579142D01*
X65502608Y-43434000D01*
X65502608Y-42853428D01*
X63978608Y-42853428D01*
X63978608Y-43361428D01*
X64051180Y-43506571D01*
X64123751Y-43579142D01*
X64268894Y-43651714D01*
X64414037Y-43651714D01*
X64559180Y-43579142D01*
X64631751Y-43506571D01*
X64704322Y-43361428D01*
X64704322Y-42853428D01*
X65502608Y-45030571D02*
X64704322Y-45030571D01*
X64559180Y-44958000D01*
X64486608Y-44812857D01*
X64486608Y-44522571D01*
X64559180Y-44377428D01*
X65430037Y-45030571D02*
X65502608Y-44885428D01*
X65502608Y-44522571D01*
X65430037Y-44377428D01*
X65284894Y-44304857D01*
X65139751Y-44304857D01*
X64994608Y-44377428D01*
X64922037Y-44522571D01*
X64922037Y-44885428D01*
X64849465Y-45030571D01*
X65430037Y-45683714D02*
X65502608Y-45828857D01*
X65502608Y-46119142D01*
X65430037Y-46264285D01*
X65284894Y-46336857D01*
X65212322Y-46336857D01*
X65067180Y-46264285D01*
X64994608Y-46119142D01*
X64994608Y-45901428D01*
X64922037Y-45756285D01*
X64776894Y-45683714D01*
X64704322Y-45683714D01*
X64559180Y-45756285D01*
X64486608Y-45901428D01*
X64486608Y-46119142D01*
X64559180Y-46264285D01*
X65502608Y-46990000D02*
X64486608Y-46990000D01*
X63978608Y-46990000D02*
X64051180Y-46917428D01*
X64123751Y-46990000D01*
X64051180Y-47062571D01*
X63978608Y-46990000D01*
X64123751Y-46990000D01*
X65430037Y-48368857D02*
X65502608Y-48223714D01*
X65502608Y-47933428D01*
X65430037Y-47788285D01*
X65357465Y-47715714D01*
X65212322Y-47643142D01*
X64776894Y-47643142D01*
X64631751Y-47715714D01*
X64559180Y-47788285D01*
X64486608Y-47933428D01*
X64486608Y-48223714D01*
X64559180Y-48368857D01*
X65502608Y-50183142D02*
X63978608Y-50183142D01*
X65502608Y-51053999D01*
X63978608Y-51053999D01*
X65502608Y-51997428D02*
X65430037Y-51852285D01*
X65357465Y-51779714D01*
X65212322Y-51707142D01*
X64776894Y-51707142D01*
X64631751Y-51779714D01*
X64559180Y-51852285D01*
X64486608Y-51997428D01*
X64486608Y-52215142D01*
X64559180Y-52360285D01*
X64631751Y-52432857D01*
X64776894Y-52505428D01*
X65212322Y-52505428D01*
X65357465Y-52432857D01*
X65430037Y-52360285D01*
X65502608Y-52215142D01*
X65502608Y-51997428D01*
X65502608Y-53811714D02*
X63978608Y-53811714D01*
X65430037Y-53811714D02*
X65502608Y-53666571D01*
X65502608Y-53376285D01*
X65430037Y-53231142D01*
X65357465Y-53158571D01*
X65212322Y-53085999D01*
X64776894Y-53085999D01*
X64631751Y-53158571D01*
X64559180Y-53231142D01*
X64486608Y-53376285D01*
X64486608Y-53666571D01*
X64559180Y-53811714D01*
X65430037Y-55117999D02*
X65502608Y-54972857D01*
X65502608Y-54682571D01*
X65430037Y-54537428D01*
X65284894Y-54464857D01*
X64704322Y-54464857D01*
X64559180Y-54537428D01*
X64486608Y-54682571D01*
X64486608Y-54972857D01*
X64559180Y-55117999D01*
X64704322Y-55190571D01*
X64849465Y-55190571D01*
X64994608Y-54464857D01*
X65502608Y-55843714D02*
X63978608Y-55843714D01*
X65067180Y-56351714D01*
X63978608Y-56859714D01*
X65502608Y-56859714D01*
X65357465Y-58456285D02*
X65430037Y-58383714D01*
X65502608Y-58165999D01*
X65502608Y-58020857D01*
X65430037Y-57803142D01*
X65284894Y-57657999D01*
X65139751Y-57585428D01*
X64849465Y-57512857D01*
X64631751Y-57512857D01*
X64341465Y-57585428D01*
X64196322Y-57657999D01*
X64051180Y-57803142D01*
X63978608Y-58020857D01*
X63978608Y-58165999D01*
X64051180Y-58383714D01*
X64123751Y-58456285D01*
X63978608Y-59109428D02*
X65212322Y-59109428D01*
X65357465Y-59181999D01*
X65430037Y-59254571D01*
X65502608Y-59399714D01*
X65502608Y-59689999D01*
X65430037Y-59835142D01*
X65357465Y-59907714D01*
X65212322Y-59980285D01*
X63978608Y-59980285D01*
X65430037Y-61794571D02*
X65502608Y-62012285D01*
X65502608Y-62375142D01*
X65430037Y-62520285D01*
X65357465Y-62592857D01*
X65212322Y-62665428D01*
X65067180Y-62665428D01*
X64922037Y-62592857D01*
X64849465Y-62520285D01*
X64776894Y-62375142D01*
X64704322Y-62084857D01*
X64631751Y-61939714D01*
X64559180Y-61867142D01*
X64414037Y-61794571D01*
X64268894Y-61794571D01*
X64123751Y-61867142D01*
X64051180Y-61939714D01*
X63978608Y-62084857D01*
X63978608Y-62447714D01*
X64051180Y-62665428D01*
X65502608Y-63318571D02*
X63978608Y-63318571D01*
X65502608Y-63971714D02*
X64704322Y-63971714D01*
X64559180Y-63899142D01*
X64486608Y-63753999D01*
X64486608Y-63536285D01*
X64559180Y-63391142D01*
X64631751Y-63318571D01*
X65502608Y-64697428D02*
X64486608Y-64697428D01*
X63978608Y-64697428D02*
X64051180Y-64624857D01*
X64123751Y-64697428D01*
X64051180Y-64769999D01*
X63978608Y-64697428D01*
X64123751Y-64697428D01*
X65430037Y-66003714D02*
X65502608Y-65858571D01*
X65502608Y-65568285D01*
X65430037Y-65423142D01*
X65284894Y-65350571D01*
X64704322Y-65350571D01*
X64559180Y-65423142D01*
X64486608Y-65568285D01*
X64486608Y-65858571D01*
X64559180Y-66003714D01*
X64704322Y-66076285D01*
X64849465Y-66076285D01*
X64994608Y-65350571D01*
X65502608Y-66947142D02*
X65430037Y-66801999D01*
X65284894Y-66729428D01*
X63978608Y-66729428D01*
X65502608Y-68180857D02*
X63978608Y-68180857D01*
X65430037Y-68180857D02*
X65502608Y-68035714D01*
X65502608Y-67745428D01*
X65430037Y-67600285D01*
X65357465Y-67527714D01*
X65212322Y-67455142D01*
X64776894Y-67455142D01*
X64631751Y-67527714D01*
X64559180Y-67600285D01*
X64486608Y-67745428D01*
X64486608Y-68035714D01*
X64559180Y-68180857D01*
X66432248Y-49022000D02*
X67956248Y-49530000D01*
X66432248Y-50038000D01*
X67956248Y-51344285D02*
X67956248Y-50473428D01*
X67956248Y-50908857D02*
X66432248Y-50908857D01*
X66649962Y-50763714D01*
X66795105Y-50618571D01*
X66867677Y-50473428D01*
X67811105Y-51997428D02*
X67883677Y-52070000D01*
X67956248Y-51997428D01*
X67883677Y-51924857D01*
X67811105Y-51997428D01*
X67956248Y-51997428D01*
X67956248Y-53521428D02*
X67956248Y-52650571D01*
X67956248Y-53086000D02*
X66432248Y-53086000D01*
X66649962Y-52940857D01*
X66795105Y-52795714D01*
X66867677Y-52650571D01*
X67883677Y-54102000D02*
X67956248Y-54319714D01*
X67956248Y-54682571D01*
X67883677Y-54827714D01*
X67811105Y-54900285D01*
X67665962Y-54972857D01*
X67520820Y-54972857D01*
X67375677Y-54900285D01*
X67303105Y-54827714D01*
X67230534Y-54682571D01*
X67157962Y-54392285D01*
X67085391Y-54247142D01*
X67012820Y-54174571D01*
X66867677Y-54102000D01*
X66722534Y-54102000D01*
X66577391Y-54174571D01*
X66504820Y-54247142D01*
X66432248Y-54392285D01*
X66432248Y-54755142D01*
X66504820Y-54972857D01*
D10*
X40002097Y-40350288D02*
X40050478Y-40295860D01*
X40098859Y-40144669D01*
X40098859Y-40047907D01*
X40050478Y-39908812D01*
X39953716Y-39824145D01*
X39856954Y-39787860D01*
X39663430Y-39763669D01*
X39518287Y-39781812D01*
X39324763Y-39854384D01*
X39228001Y-39914860D01*
X39131240Y-40023717D01*
X39082859Y-40174907D01*
X39082859Y-40271669D01*
X39131240Y-40410765D01*
X39179620Y-40453098D01*
X40098859Y-40918765D02*
X40050478Y-40828050D01*
X40002097Y-40785717D01*
X39905335Y-40749431D01*
X39615049Y-40785717D01*
X39518287Y-40846193D01*
X39469906Y-40900622D01*
X39421525Y-41003431D01*
X39421525Y-41148574D01*
X39469906Y-41239288D01*
X39518287Y-41281622D01*
X39615049Y-41317907D01*
X39905335Y-41281622D01*
X40002097Y-41221145D01*
X40050478Y-41166717D01*
X40098859Y-41063907D01*
X40098859Y-40918765D01*
X39421525Y-41777526D02*
X40098859Y-41692860D01*
X39518287Y-41765431D02*
X39469906Y-41819860D01*
X39421525Y-41922669D01*
X39421525Y-42067812D01*
X39469906Y-42158526D01*
X39566668Y-42194812D01*
X40098859Y-42128288D01*
X40050478Y-43053574D02*
X40098859Y-42950765D01*
X40098859Y-42757241D01*
X40050478Y-42666526D01*
X40002097Y-42624193D01*
X39905335Y-42587907D01*
X39615049Y-42624193D01*
X39518287Y-42684669D01*
X39469906Y-42739098D01*
X39421525Y-42841907D01*
X39421525Y-43035431D01*
X39469906Y-43126145D01*
X40050478Y-43876050D02*
X40098859Y-43773241D01*
X40098859Y-43579717D01*
X40050478Y-43489003D01*
X39953716Y-43452717D01*
X39566668Y-43501098D01*
X39469906Y-43561574D01*
X39421525Y-43664384D01*
X39421525Y-43857907D01*
X39469906Y-43948622D01*
X39566668Y-43984907D01*
X39663430Y-43972812D01*
X39760192Y-43476907D01*
X39421525Y-44438479D02*
X40437525Y-44311479D01*
X39469906Y-44432431D02*
X39421525Y-44535241D01*
X39421525Y-44728765D01*
X39469906Y-44819479D01*
X39518287Y-44861812D01*
X39615049Y-44898098D01*
X39905335Y-44861812D01*
X40002097Y-44801336D01*
X40050478Y-44746907D01*
X40098859Y-44644098D01*
X40098859Y-44450574D01*
X40050478Y-44359860D01*
X39421525Y-45212574D02*
X39421525Y-45599622D01*
X39082859Y-45400050D02*
X39953716Y-45291193D01*
X40050478Y-45327479D01*
X40098859Y-45418193D01*
X40098859Y-45514955D01*
X40098859Y-46627717D02*
X39082859Y-46754717D01*
X39469906Y-46706336D02*
X39421525Y-46809145D01*
X39421525Y-47002669D01*
X39469906Y-47093384D01*
X39518287Y-47135717D01*
X39615049Y-47172003D01*
X39905335Y-47135717D01*
X40002097Y-47075241D01*
X40050478Y-47020812D01*
X40098859Y-46918003D01*
X40098859Y-46724479D01*
X40050478Y-46633765D01*
X39421525Y-47534860D02*
X40098859Y-47692098D01*
X39421525Y-48018669D02*
X40098859Y-47692098D01*
X40340763Y-47565098D01*
X40389144Y-47510669D01*
X40437525Y-47407860D01*
X40098859Y-49095145D02*
X39082859Y-49222145D01*
X39808573Y-49470098D01*
X39082859Y-49899479D01*
X40098859Y-49772479D01*
X40098859Y-50691717D02*
X39566668Y-50758241D01*
X39469906Y-50721955D01*
X39421525Y-50631241D01*
X39421525Y-50437717D01*
X39469906Y-50334907D01*
X40050478Y-50697765D02*
X40098859Y-50594955D01*
X40098859Y-50353050D01*
X40050478Y-50262336D01*
X39953716Y-50226050D01*
X39856954Y-50238145D01*
X39760192Y-50298622D01*
X39711811Y-50401431D01*
X39711811Y-50643336D01*
X39663430Y-50746145D01*
X40098859Y-51175526D02*
X39421525Y-51260193D01*
X39615049Y-51236003D02*
X39518287Y-51296479D01*
X39469906Y-51350907D01*
X39421525Y-51453717D01*
X39421525Y-51550479D01*
X40098859Y-51804479D02*
X39082859Y-51931479D01*
X39711811Y-51949622D02*
X40098859Y-52191526D01*
X39421525Y-52276193D02*
X39808573Y-51840765D01*
X40098859Y-53401050D02*
X39082859Y-53528050D01*
X39808573Y-53776003D01*
X39082859Y-54205384D01*
X40098859Y-54078384D01*
X40098859Y-54707336D02*
X40050478Y-54616622D01*
X40002097Y-54574288D01*
X39905335Y-54538003D01*
X39615049Y-54574288D01*
X39518287Y-54634765D01*
X39469906Y-54689193D01*
X39421525Y-54792003D01*
X39421525Y-54937145D01*
X39469906Y-55027860D01*
X39518287Y-55070193D01*
X39615049Y-55106479D01*
X39905335Y-55070193D01*
X40002097Y-55009717D01*
X40050478Y-54955288D01*
X40098859Y-54852479D01*
X40098859Y-54707336D01*
X40098859Y-55481431D02*
X39421525Y-55566098D01*
X39615049Y-55541907D02*
X39518287Y-55602384D01*
X39469906Y-55656812D01*
X39421525Y-55759622D01*
X39421525Y-55856384D01*
X39421525Y-56049907D02*
X39421525Y-56436955D01*
X39082859Y-56237384D02*
X39953716Y-56128526D01*
X40050478Y-56164812D01*
X40098859Y-56255526D01*
X40098859Y-56352288D01*
X40098859Y-56836098D02*
X40050478Y-56745384D01*
X40002097Y-56703050D01*
X39905335Y-56666765D01*
X39615049Y-56703050D01*
X39518287Y-56763526D01*
X39469906Y-56817955D01*
X39421525Y-56920765D01*
X39421525Y-57065907D01*
X39469906Y-57156622D01*
X39518287Y-57198955D01*
X39615049Y-57235241D01*
X39905335Y-57198955D01*
X40002097Y-57138479D01*
X40050478Y-57084050D01*
X40098859Y-56981241D01*
X40098859Y-56836098D01*
X39421525Y-57694860D02*
X40098859Y-57610193D01*
X39518287Y-57682765D02*
X39469906Y-57737193D01*
X39421525Y-57840003D01*
X39421525Y-57985145D01*
X39469906Y-58075860D01*
X39566668Y-58112145D01*
X40098859Y-58045622D01*
X39082859Y-59333765D02*
X40098859Y-59448669D01*
X39373144Y-59732907D01*
X40098859Y-59835717D01*
X39082859Y-60204622D01*
X40098859Y-60996860D02*
X40098859Y-60416288D01*
X40098859Y-60706574D02*
X39082859Y-60833574D01*
X39228001Y-60718669D01*
X39324763Y-60609812D01*
X39373144Y-60507003D01*
X40098859Y-61432288D02*
X39082859Y-61559288D01*
X39808573Y-61807241D01*
X39082859Y-62236622D01*
X40098859Y-62109622D01*
X39566668Y-62659955D02*
X39566668Y-62998622D01*
X40098859Y-63077241D02*
X40098859Y-62593431D01*
X39082859Y-62720431D01*
X39082859Y-63204241D01*
X40098859Y-63512669D02*
X39082859Y-63639669D01*
X39808573Y-63887622D01*
X39082859Y-64317003D01*
X40098859Y-64190003D01*
X43370379Y-36685431D02*
X42354379Y-36812431D01*
X42354379Y-37054336D01*
X42402760Y-37193431D01*
X42499521Y-37278098D01*
X42596283Y-37314384D01*
X42789807Y-37338574D01*
X42934950Y-37320431D01*
X43128474Y-37247860D01*
X43225236Y-37187384D01*
X43321998Y-37078526D01*
X43370379Y-36927336D01*
X43370379Y-36685431D01*
X43321998Y-38094526D02*
X43370379Y-37991717D01*
X43370379Y-37798193D01*
X43321998Y-37707479D01*
X43225236Y-37671193D01*
X42838188Y-37719574D01*
X42741426Y-37780050D01*
X42693045Y-37882860D01*
X42693045Y-38076384D01*
X42741426Y-38167098D01*
X42838188Y-38203384D01*
X42934950Y-38191288D01*
X43031712Y-37695384D01*
X43321998Y-38529955D02*
X43370379Y-38620669D01*
X43370379Y-38814193D01*
X43321998Y-38917003D01*
X43225236Y-38977479D01*
X43176855Y-38983526D01*
X43080093Y-38947241D01*
X43031712Y-38856526D01*
X43031712Y-38711384D01*
X42983331Y-38620669D01*
X42886569Y-38584384D01*
X42838188Y-38590431D01*
X42741426Y-38650907D01*
X42693045Y-38753717D01*
X42693045Y-38898860D01*
X42741426Y-38989574D01*
X43370379Y-39394764D02*
X42693045Y-39479431D01*
X42354379Y-39521764D02*
X42402760Y-39467336D01*
X42451140Y-39509669D01*
X42402760Y-39564098D01*
X42354379Y-39521764D01*
X42451140Y-39509669D01*
X42693045Y-40398669D02*
X43515521Y-40295860D01*
X43612283Y-40235384D01*
X43660664Y-40180955D01*
X43709045Y-40078145D01*
X43709045Y-39933003D01*
X43660664Y-39842288D01*
X43321998Y-40320050D02*
X43370379Y-40217241D01*
X43370379Y-40023717D01*
X43321998Y-39933003D01*
X43273617Y-39890669D01*
X43176855Y-39854384D01*
X42886569Y-39890669D01*
X42789807Y-39951145D01*
X42741426Y-40005574D01*
X42693045Y-40108384D01*
X42693045Y-40301907D01*
X42741426Y-40392622D01*
X42693045Y-40882479D02*
X43370379Y-40797812D01*
X42789807Y-40870384D02*
X42741426Y-40924812D01*
X42693045Y-41027622D01*
X42693045Y-41172765D01*
X42741426Y-41263479D01*
X42838188Y-41299764D01*
X43370379Y-41233241D01*
X43321998Y-42110145D02*
X43370379Y-42007336D01*
X43370379Y-41813812D01*
X43321998Y-41723098D01*
X43225236Y-41686812D01*
X42838188Y-41735193D01*
X42741426Y-41795669D01*
X42693045Y-41898479D01*
X42693045Y-42092003D01*
X42741426Y-42182717D01*
X42838188Y-42219003D01*
X42934950Y-42206907D01*
X43031712Y-41711003D01*
X43370379Y-43023336D02*
X42354379Y-43150336D01*
X43321998Y-43029384D02*
X43370379Y-42926574D01*
X43370379Y-42733050D01*
X43321998Y-42642336D01*
X43273617Y-42600003D01*
X43176855Y-42563717D01*
X42886569Y-42600003D01*
X42789807Y-42660479D01*
X42741426Y-42714907D01*
X42693045Y-42817717D01*
X42693045Y-43011241D01*
X42741426Y-43101955D01*
X43370379Y-44281241D02*
X42354379Y-44408241D01*
X42741426Y-44359860D02*
X42693045Y-44462669D01*
X42693045Y-44656193D01*
X42741426Y-44746907D01*
X42789807Y-44789241D01*
X42886569Y-44825526D01*
X43176855Y-44789241D01*
X43273617Y-44728765D01*
X43321998Y-44674336D01*
X43370379Y-44571526D01*
X43370379Y-44378003D01*
X43321998Y-44287288D01*
X42693045Y-45188384D02*
X43370379Y-45345622D01*
X42693045Y-45672193D02*
X43370379Y-45345622D01*
X43612283Y-45218622D01*
X43660664Y-45164193D01*
X43709045Y-45061384D01*
X42354379Y-47165955D02*
X43080093Y-47075241D01*
X43225236Y-47008717D01*
X43321998Y-46899860D01*
X43370379Y-46748669D01*
X43370379Y-46651907D01*
X43370379Y-47958193D02*
X42838188Y-48024717D01*
X42741426Y-47988431D01*
X42693045Y-47897717D01*
X42693045Y-47704193D01*
X42741426Y-47601384D01*
X43321998Y-47964241D02*
X43370379Y-47861431D01*
X43370379Y-47619526D01*
X43321998Y-47528812D01*
X43225236Y-47492526D01*
X43128474Y-47504622D01*
X43031712Y-47565098D01*
X42983331Y-47667907D01*
X42983331Y-47909812D01*
X42934950Y-48012622D01*
X43370379Y-48442003D02*
X42693045Y-48526669D01*
X42789807Y-48514574D02*
X42741426Y-48569003D01*
X42693045Y-48671812D01*
X42693045Y-48816955D01*
X42741426Y-48907669D01*
X42838188Y-48943955D01*
X43370379Y-48877431D01*
X42838188Y-48943955D02*
X42741426Y-49004431D01*
X42693045Y-49107241D01*
X42693045Y-49252384D01*
X42741426Y-49343098D01*
X42838188Y-49379384D01*
X43370379Y-49312860D01*
X43370379Y-50232098D02*
X42838188Y-50298622D01*
X42741426Y-50262336D01*
X42693045Y-50171622D01*
X42693045Y-49978098D01*
X42741426Y-49875288D01*
X43321998Y-50238145D02*
X43370379Y-50135336D01*
X43370379Y-49893431D01*
X43321998Y-49802717D01*
X43225236Y-49766431D01*
X43128474Y-49778526D01*
X43031712Y-49839003D01*
X42983331Y-49941812D01*
X42983331Y-50183717D01*
X42934950Y-50286526D01*
X43370379Y-50861050D02*
X43321998Y-50770336D01*
X43225236Y-50734050D01*
X42354379Y-50842907D01*
X42838188Y-52427384D02*
X42886569Y-52566479D01*
X42934950Y-52608812D01*
X43031712Y-52645098D01*
X43176855Y-52626955D01*
X43273617Y-52566479D01*
X43321998Y-52512050D01*
X43370379Y-52409241D01*
X43370379Y-52022193D01*
X42354379Y-52149193D01*
X42354379Y-52487860D01*
X42402760Y-52578574D01*
X42451140Y-52620907D01*
X42547902Y-52657193D01*
X42644664Y-52645098D01*
X42741426Y-52584622D01*
X42789807Y-52530193D01*
X42838188Y-52427384D01*
X42838188Y-52088717D01*
X43370379Y-53183336D02*
X43321998Y-53092622D01*
X43273617Y-53050288D01*
X43176855Y-53014003D01*
X42886569Y-53050288D01*
X42789807Y-53110765D01*
X42741426Y-53165193D01*
X42693045Y-53268003D01*
X42693045Y-53413145D01*
X42741426Y-53503860D01*
X42789807Y-53546193D01*
X42886569Y-53582479D01*
X43176855Y-53546193D01*
X43273617Y-53485717D01*
X43321998Y-53431288D01*
X43370379Y-53328479D01*
X43370379Y-53183336D01*
X42693045Y-54477526D02*
X43370379Y-54392860D01*
X42693045Y-54042098D02*
X43225236Y-53975574D01*
X43321998Y-54011860D01*
X43370379Y-54102574D01*
X43370379Y-54247717D01*
X43321998Y-54350526D01*
X43273617Y-54404955D01*
X43370379Y-55312098D02*
X42838188Y-55378622D01*
X42741426Y-55342336D01*
X42693045Y-55251622D01*
X42693045Y-55058098D01*
X42741426Y-54955288D01*
X43321998Y-55318145D02*
X43370379Y-55215336D01*
X43370379Y-54973431D01*
X43321998Y-54882717D01*
X43225236Y-54846431D01*
X43128474Y-54858526D01*
X43031712Y-54919003D01*
X42983331Y-55021812D01*
X42983331Y-55263717D01*
X42934950Y-55366526D01*
X42693045Y-55880574D02*
X43563902Y-55771717D01*
X43660664Y-55711241D01*
X43709045Y-55608431D01*
X43709045Y-55560050D01*
X42354379Y-55922907D02*
X42402760Y-55868479D01*
X42451140Y-55910812D01*
X42402760Y-55965241D01*
X42354379Y-55922907D01*
X42451140Y-55910812D01*
X42693045Y-56364384D02*
X43563902Y-56255526D01*
X43660664Y-56195050D01*
X43709045Y-56092241D01*
X43709045Y-56043860D01*
X42354379Y-56406717D02*
X42402760Y-56352288D01*
X42451140Y-56394622D01*
X42402760Y-56449050D01*
X42354379Y-56406717D01*
X42451140Y-56394622D01*
X43370379Y-57198955D02*
X42838188Y-57265479D01*
X42741426Y-57229193D01*
X42693045Y-57138479D01*
X42693045Y-56944955D01*
X42741426Y-56842145D01*
X43321998Y-57205003D02*
X43370379Y-57102193D01*
X43370379Y-56860288D01*
X43321998Y-56769574D01*
X43225236Y-56733288D01*
X43128474Y-56745384D01*
X43031712Y-56805860D01*
X42983331Y-56908669D01*
X42983331Y-57150574D01*
X42934950Y-57253384D01*
X42693045Y-57767431D02*
X43563902Y-57658574D01*
X43660664Y-57598098D01*
X43709045Y-57495288D01*
X43709045Y-57446907D01*
X42354379Y-57809765D02*
X42402760Y-57755336D01*
X42451140Y-57797669D01*
X42402760Y-57852098D01*
X42354379Y-57809765D01*
X42451140Y-57797669D01*
X43757426Y-58408479D02*
X43709045Y-58366145D01*
X43563902Y-58287526D01*
X43467140Y-58251241D01*
X43321998Y-58221003D01*
X43080093Y-58202860D01*
X42886569Y-58227050D01*
X42644664Y-58305669D01*
X42499521Y-58372193D01*
X42402760Y-58432669D01*
X42257617Y-58547574D01*
X42209236Y-58602003D01*
X42838188Y-58910431D02*
X42838188Y-59249098D01*
X43370379Y-59327717D02*
X43370379Y-58843907D01*
X42354379Y-58970907D01*
X42354379Y-59454717D01*
X43370379Y-59908288D02*
X43321998Y-59817574D01*
X43225236Y-59781288D01*
X42354379Y-59890145D01*
X43321998Y-60688431D02*
X43370379Y-60585622D01*
X43370379Y-60392098D01*
X43321998Y-60301384D01*
X43225236Y-60265098D01*
X42838188Y-60313479D01*
X42741426Y-60373955D01*
X42693045Y-60476765D01*
X42693045Y-60670288D01*
X42741426Y-60761003D01*
X42838188Y-60797288D01*
X42934950Y-60785193D01*
X43031712Y-60289288D01*
X43321998Y-61607669D02*
X43370379Y-61504860D01*
X43370379Y-61311336D01*
X43321998Y-61220622D01*
X43273617Y-61178288D01*
X43176855Y-61142003D01*
X42886569Y-61178288D01*
X42789807Y-61238765D01*
X42741426Y-61293193D01*
X42693045Y-61396003D01*
X42693045Y-61589526D01*
X42741426Y-61680241D01*
X42693045Y-61976574D02*
X42693045Y-62363622D01*
X42354379Y-62164050D02*
X43225236Y-62055193D01*
X43321998Y-62091479D01*
X43370379Y-62182193D01*
X43370379Y-62278955D01*
X43370379Y-62617622D02*
X42693045Y-62702288D01*
X42886569Y-62678098D02*
X42789807Y-62738574D01*
X42741426Y-62793003D01*
X42693045Y-62895812D01*
X42693045Y-62992574D01*
X43370379Y-63391717D02*
X43321998Y-63301003D01*
X43273617Y-63258669D01*
X43176855Y-63222384D01*
X42886569Y-63258669D01*
X42789807Y-63319145D01*
X42741426Y-63373574D01*
X42693045Y-63476384D01*
X42693045Y-63621526D01*
X42741426Y-63712241D01*
X42789807Y-63754574D01*
X42886569Y-63790860D01*
X43176855Y-63754574D01*
X43273617Y-63694098D01*
X43321998Y-63639669D01*
X43370379Y-63536860D01*
X43370379Y-63391717D01*
X42354379Y-64196050D02*
X42354379Y-64873384D01*
X43370379Y-64310955D01*
X42354379Y-65453955D02*
X42354379Y-65550717D01*
X42402760Y-65641431D01*
X42451140Y-65683765D01*
X42547902Y-65720050D01*
X42741426Y-65744241D01*
X42983331Y-65714003D01*
X43176855Y-65641431D01*
X43273617Y-65580955D01*
X43321998Y-65526526D01*
X43370379Y-65423717D01*
X43370379Y-65326955D01*
X43321998Y-65236241D01*
X43273617Y-65193907D01*
X43176855Y-65157622D01*
X42983331Y-65133431D01*
X42741426Y-65163669D01*
X42547902Y-65236241D01*
X42451140Y-65296717D01*
X42402760Y-65351145D01*
X42354379Y-65453955D01*
X42354379Y-66131288D02*
X42354379Y-66808622D01*
X43370379Y-66246193D01*
X43757426Y-66923526D02*
X43709045Y-66977955D01*
X43563902Y-67092860D01*
X43467140Y-67153336D01*
X43321998Y-67219860D01*
X43080093Y-67298479D01*
X42886569Y-67322669D01*
X42644664Y-67304526D01*
X42499521Y-67274288D01*
X42402760Y-67238003D01*
X42257617Y-67159384D01*
X42209236Y-67117050D01*
D12*
%TO.C,JP1*%
X137231333Y-162266380D02*
X137231333Y-162980666D01*
X137278952Y-163123523D01*
X137374190Y-163218761D01*
X137517047Y-163266380D01*
X137612285Y-163266380D01*
X136755142Y-163266380D02*
X136755142Y-162266380D01*
X136374190Y-162266380D01*
X136278952Y-162314000D01*
X136231333Y-162361619D01*
X136183714Y-162456857D01*
X136183714Y-162599714D01*
X136231333Y-162694952D01*
X136278952Y-162742571D01*
X136374190Y-162790190D01*
X136755142Y-162790190D01*
X135231333Y-163266380D02*
X135802761Y-163266380D01*
X135517047Y-163266380D02*
X135517047Y-162266380D01*
X135612285Y-162409238D01*
X135707523Y-162504476D01*
X135802761Y-162552095D01*
X61031333Y-162266380D02*
X61031333Y-162980666D01*
X61078952Y-163123523D01*
X61174190Y-163218761D01*
X61317047Y-163266380D01*
X61412285Y-163266380D01*
X60555142Y-163266380D02*
X60555142Y-162266380D01*
X60174190Y-162266380D01*
X60078952Y-162314000D01*
X60031333Y-162361619D01*
X59983714Y-162456857D01*
X59983714Y-162599714D01*
X60031333Y-162694952D01*
X60078952Y-162742571D01*
X60174190Y-162790190D01*
X60555142Y-162790190D01*
X59031333Y-163266380D02*
X59602761Y-163266380D01*
X59317047Y-163266380D02*
X59317047Y-162266380D01*
X59412285Y-162409238D01*
X59507523Y-162504476D01*
X59602761Y-162552095D01*
X137231333Y-111466380D02*
X137231333Y-112180666D01*
X137278952Y-112323523D01*
X137374190Y-112418761D01*
X137517047Y-112466380D01*
X137612285Y-112466380D01*
X136755142Y-112466380D02*
X136755142Y-111466380D01*
X136374190Y-111466380D01*
X136278952Y-111514000D01*
X136231333Y-111561619D01*
X136183714Y-111656857D01*
X136183714Y-111799714D01*
X136231333Y-111894952D01*
X136278952Y-111942571D01*
X136374190Y-111990190D01*
X136755142Y-111990190D01*
X135231333Y-112466380D02*
X135802761Y-112466380D01*
X135517047Y-112466380D02*
X135517047Y-111466380D01*
X135612285Y-111609238D01*
X135707523Y-111704476D01*
X135802761Y-111752095D01*
X137231333Y-60666380D02*
X137231333Y-61380666D01*
X137278952Y-61523523D01*
X137374190Y-61618761D01*
X137517047Y-61666380D01*
X137612285Y-61666380D01*
X136755142Y-61666380D02*
X136755142Y-60666380D01*
X136374190Y-60666380D01*
X136278952Y-60714000D01*
X136231333Y-60761619D01*
X136183714Y-60856857D01*
X136183714Y-60999714D01*
X136231333Y-61094952D01*
X136278952Y-61142571D01*
X136374190Y-61190190D01*
X136755142Y-61190190D01*
X135231333Y-61666380D02*
X135802761Y-61666380D01*
X135517047Y-61666380D02*
X135517047Y-60666380D01*
X135612285Y-60809238D01*
X135707523Y-60904476D01*
X135802761Y-60952095D01*
X61031333Y-111466380D02*
X61031333Y-112180666D01*
X61078952Y-112323523D01*
X61174190Y-112418761D01*
X61317047Y-112466380D01*
X61412285Y-112466380D01*
X60555142Y-112466380D02*
X60555142Y-111466380D01*
X60174190Y-111466380D01*
X60078952Y-111514000D01*
X60031333Y-111561619D01*
X59983714Y-111656857D01*
X59983714Y-111799714D01*
X60031333Y-111894952D01*
X60078952Y-111942571D01*
X60174190Y-111990190D01*
X60555142Y-111990190D01*
X59031333Y-112466380D02*
X59602761Y-112466380D01*
X59317047Y-112466380D02*
X59317047Y-111466380D01*
X59412285Y-111609238D01*
X59507523Y-111704476D01*
X59602761Y-111752095D01*
X61031333Y-60666380D02*
X61031333Y-61380666D01*
X61078952Y-61523523D01*
X61174190Y-61618761D01*
X61317047Y-61666380D01*
X61412285Y-61666380D01*
X60555142Y-61666380D02*
X60555142Y-60666380D01*
X60174190Y-60666380D01*
X60078952Y-60714000D01*
X60031333Y-60761619D01*
X59983714Y-60856857D01*
X59983714Y-60999714D01*
X60031333Y-61094952D01*
X60078952Y-61142571D01*
X60174190Y-61190190D01*
X60555142Y-61190190D01*
X59031333Y-61666380D02*
X59602761Y-61666380D01*
X59317047Y-61666380D02*
X59317047Y-60666380D01*
X59412285Y-60809238D01*
X59507523Y-60904476D01*
X59602761Y-60952095D01*
D13*
X138448000Y-166100000D02*
X138448000Y-164100000D01*
X138448000Y-164100000D02*
X134348000Y-164100000D01*
X134348000Y-164100000D02*
X134348000Y-166100000D01*
X137698000Y-166300000D02*
X137398000Y-166600000D01*
X137698000Y-166300000D02*
X137998000Y-166600000D01*
X134348000Y-166100000D02*
X138448000Y-166100000D01*
X137998000Y-166600000D02*
X137398000Y-166600000D01*
X62248000Y-166100000D02*
X62248000Y-164100000D01*
X62248000Y-164100000D02*
X58148000Y-164100000D01*
X58148000Y-164100000D02*
X58148000Y-166100000D01*
X61498000Y-166300000D02*
X61198000Y-166600000D01*
X61498000Y-166300000D02*
X61798000Y-166600000D01*
X58148000Y-166100000D02*
X62248000Y-166100000D01*
X61798000Y-166600000D02*
X61198000Y-166600000D01*
X138448000Y-115300000D02*
X138448000Y-113300000D01*
X138448000Y-113300000D02*
X134348000Y-113300000D01*
X134348000Y-113300000D02*
X134348000Y-115300000D01*
X137698000Y-115500000D02*
X137398000Y-115800000D01*
X137698000Y-115500000D02*
X137998000Y-115800000D01*
X134348000Y-115300000D02*
X138448000Y-115300000D01*
X137998000Y-115800000D02*
X137398000Y-115800000D01*
X138448000Y-64500000D02*
X138448000Y-62500000D01*
X138448000Y-62500000D02*
X134348000Y-62500000D01*
X134348000Y-62500000D02*
X134348000Y-64500000D01*
X137698000Y-64700000D02*
X137398000Y-65000000D01*
X137698000Y-64700000D02*
X137998000Y-65000000D01*
X134348000Y-64500000D02*
X138448000Y-64500000D01*
X137998000Y-65000000D02*
X137398000Y-65000000D01*
X62248000Y-115300000D02*
X62248000Y-113300000D01*
X62248000Y-113300000D02*
X58148000Y-113300000D01*
X58148000Y-113300000D02*
X58148000Y-115300000D01*
X61498000Y-115500000D02*
X61198000Y-115800000D01*
X61498000Y-115500000D02*
X61798000Y-115800000D01*
X58148000Y-115300000D02*
X62248000Y-115300000D01*
X61798000Y-115800000D02*
X61198000Y-115800000D01*
X61798000Y-65000000D02*
X61198000Y-65000000D01*
X62248000Y-64500000D02*
X62248000Y-62500000D01*
X62248000Y-62500000D02*
X58148000Y-62500000D01*
X58148000Y-64500000D02*
X62248000Y-64500000D01*
X61498000Y-64700000D02*
X61798000Y-65000000D01*
X61498000Y-64700000D02*
X61198000Y-65000000D01*
X58148000Y-62500000D02*
X58148000Y-64500000D01*
%TD*%
M02*
