M48
; DRILL file {KiCad (5.99.0-9801-g46d71f0d23)} date Wed Mar 17 23:59:59 2021
; FORMAT={-:-/ absolute / inch / decimal}
; #@! TF.CreationDate,2021-03-17T23:59:59-04:00
; #@! TF.GenerationSoftware,Kicad,Pcbnew,(5.99.0-9801-g46d71f0d23)
; #@! TF.FileFunction,NonPlated,1,2,NPTH
FMAT,2
INCH
; #@! TA.AperFunction,ComponentDrill,NonPlated,NPTH
T1C0.0315
%
G90
G05
T1
; not plated pad hole
X1.05Y-1.41
X1.05Y-1.45
X1.05Y-1.49
X1.05Y-1.53
X1.05Y-1.57
X1.05Y-1.61
X1.05Y-1.65
X1.05Y-1.69
X1.05Y-2.41
X1.05Y-2.45
X1.05Y-2.49
X1.05Y-2.53
X1.05Y-2.57
X1.05Y-2.61
X1.05Y-2.65
X1.05Y-2.69
X1.05Y-3.41
X1.05Y-3.45
X1.05Y-3.49
X1.05Y-3.53
X1.05Y-3.57
X1.05Y-3.61
X1.05Y-3.65
X1.05Y-3.69
X1.05Y-4.41
X1.05Y-4.45
X1.05Y-4.49
X1.05Y-4.53
X1.05Y-4.57
X1.05Y-4.61
X1.05Y-4.65
X1.05Y-4.69
X1.05Y-5.41
X1.05Y-5.45
X1.05Y-5.49
X1.05Y-5.53
X1.05Y-5.57
X1.05Y-5.61
X1.05Y-5.65
X1.05Y-5.69
X1.05Y-6.41
X1.05Y-6.45
X1.05Y-6.49
X1.05Y-6.53
X1.05Y-6.57
X1.05Y-6.61
X1.05Y-6.65
X1.05Y-6.69
X1.15Y-1.41
X1.15Y-1.45
X1.15Y-1.49
X1.15Y-1.53
X1.15Y-1.57
X1.15Y-1.61
X1.15Y-1.65
X1.15Y-1.69
X1.15Y-2.41
X1.15Y-2.45
X1.15Y-2.49
X1.15Y-2.53
X1.15Y-2.57
X1.15Y-2.61
X1.15Y-2.65
X1.15Y-2.69
X1.15Y-3.41
X1.15Y-3.45
X1.15Y-3.49
X1.15Y-3.53
X1.15Y-3.57
X1.15Y-3.61
X1.15Y-3.65
X1.15Y-3.69
X1.15Y-4.41
X1.15Y-4.45
X1.15Y-4.49
X1.15Y-4.53
X1.15Y-4.57
X1.15Y-4.61
X1.15Y-4.65
X1.15Y-4.69
X1.15Y-5.41
X1.15Y-5.45
X1.15Y-5.49
X1.15Y-5.53
X1.15Y-5.57
X1.15Y-5.61
X1.15Y-5.65
X1.15Y-5.69
X1.15Y-6.41
X1.15Y-6.45
X1.15Y-6.49
X1.15Y-6.53
X1.15Y-6.57
X1.15Y-6.61
X1.15Y-6.65
X1.15Y-6.69
X1.66Y-1.0
X1.66Y-1.1
X1.66Y-3.0
X1.66Y-3.1
X1.66Y-5.0
X1.66Y-5.1
X1.66Y-7.0
X1.66Y-7.1
X1.7Y-1.0
X1.7Y-1.1
X1.7Y-3.0
X1.7Y-3.1
X1.7Y-5.0
X1.7Y-5.1
X1.7Y-7.0
X1.7Y-7.1
X1.74Y-1.0
X1.74Y-1.1
X1.74Y-3.0
X1.74Y-3.1
X1.74Y-5.0
X1.74Y-5.1
X1.74Y-7.0
X1.74Y-7.1
X1.78Y-1.0
X1.78Y-1.1
X1.78Y-3.0
X1.78Y-3.1
X1.78Y-5.0
X1.78Y-5.1
X1.78Y-7.0
X1.78Y-7.1
X1.82Y-1.0
X1.82Y-1.1
X1.82Y-3.0
X1.82Y-3.1
X1.82Y-5.0
X1.82Y-5.1
X1.82Y-7.0
X1.82Y-7.1
X1.86Y-1.0
X1.86Y-1.1
X1.86Y-3.0
X1.86Y-3.1
X1.86Y-5.0
X1.86Y-5.1
X1.86Y-7.0
X1.86Y-7.1
X1.9Y-1.0
X1.9Y-1.1
X1.9Y-3.0
X1.9Y-3.1
X1.9Y-5.0
X1.9Y-5.1
X1.9Y-7.0
X1.9Y-7.1
X1.94Y-1.0
X1.94Y-1.1
X1.94Y-3.0
X1.94Y-3.1
X1.94Y-5.0
X1.94Y-5.1
X1.94Y-7.0
X1.94Y-7.1
X3.26Y-1.0
X3.26Y-1.1
X3.26Y-3.0
X3.26Y-3.1
X3.26Y-5.0
X3.26Y-5.1
X3.26Y-7.0
X3.26Y-7.1
X3.3Y-1.0
X3.3Y-1.1
X3.3Y-3.0
X3.3Y-3.1
X3.3Y-5.0
X3.3Y-5.1
X3.3Y-7.0
X3.3Y-7.1
X3.34Y-1.0
X3.34Y-1.1
X3.34Y-3.0
X3.34Y-3.1
X3.34Y-5.0
X3.34Y-5.1
X3.34Y-7.0
X3.34Y-7.1
X3.38Y-1.0
X3.38Y-1.1
X3.38Y-3.0
X3.38Y-3.1
X3.38Y-5.0
X3.38Y-5.1
X3.38Y-7.0
X3.38Y-7.1
X3.42Y-1.0
X3.42Y-1.1
X3.42Y-3.0
X3.42Y-3.1
X3.42Y-5.0
X3.42Y-5.1
X3.42Y-7.0
X3.42Y-7.1
X3.46Y-1.0
X3.46Y-1.1
X3.46Y-3.0
X3.46Y-3.1
X3.46Y-5.0
X3.46Y-5.1
X3.46Y-7.0
X3.46Y-7.1
X3.5Y-1.0
X3.5Y-1.1
X3.5Y-3.0
X3.5Y-3.1
X3.5Y-5.0
X3.5Y-5.1
X3.5Y-7.0
X3.5Y-7.1
X3.54Y-1.0
X3.54Y-1.1
X3.54Y-3.0
X3.54Y-3.1
X3.54Y-5.0
X3.54Y-5.1
X3.54Y-7.0
X3.54Y-7.1
X4.05Y-1.41
X4.05Y-1.45
X4.05Y-1.49
X4.05Y-1.53
X4.05Y-1.57
X4.05Y-1.61
X4.05Y-1.65
X4.05Y-1.69
X4.05Y-2.41
X4.05Y-2.45
X4.05Y-2.49
X4.05Y-2.53
X4.05Y-2.57
X4.05Y-2.61
X4.05Y-2.65
X4.05Y-2.69
X4.05Y-3.41
X4.05Y-3.45
X4.05Y-3.49
X4.05Y-3.53
X4.05Y-3.57
X4.05Y-3.61
X4.05Y-3.65
X4.05Y-3.69
X4.05Y-4.41
X4.05Y-4.45
X4.05Y-4.49
X4.05Y-4.53
X4.05Y-4.57
X4.05Y-4.61
X4.05Y-4.65
X4.05Y-4.69
X4.05Y-5.41
X4.05Y-5.45
X4.05Y-5.49
X4.05Y-5.53
X4.05Y-5.57
X4.05Y-5.61
X4.05Y-5.65
X4.05Y-5.69
X4.05Y-6.41
X4.05Y-6.45
X4.05Y-6.49
X4.05Y-6.53
X4.05Y-6.57
X4.05Y-6.61
X4.05Y-6.65
X4.05Y-6.69
X4.15Y-1.41
X4.15Y-1.45
X4.15Y-1.49
X4.15Y-1.53
X4.15Y-1.57
X4.15Y-1.61
X4.15Y-1.65
X4.15Y-1.69
X4.15Y-2.41
X4.15Y-2.45
X4.15Y-2.49
X4.15Y-2.53
X4.15Y-2.57
X4.15Y-2.61
X4.15Y-2.65
X4.15Y-2.69
X4.15Y-3.41
X4.15Y-3.45
X4.15Y-3.49
X4.15Y-3.53
X4.15Y-3.57
X4.15Y-3.61
X4.15Y-3.65
X4.15Y-3.69
X4.15Y-4.41
X4.15Y-4.45
X4.15Y-4.49
X4.15Y-4.53
X4.15Y-4.57
X4.15Y-4.61
X4.15Y-4.65
X4.15Y-4.69
X4.15Y-5.41
X4.15Y-5.45
X4.15Y-5.49
X4.15Y-5.53
X4.15Y-5.57
X4.15Y-5.61
X4.15Y-5.65
X4.15Y-5.69
X4.15Y-6.41
X4.15Y-6.45
X4.15Y-6.49
X4.15Y-6.53
X4.15Y-6.57
X4.15Y-6.61
X4.15Y-6.65
X4.15Y-6.69
X4.66Y-1.0
X4.66Y-1.1
X4.66Y-3.0
X4.66Y-3.1
X4.66Y-5.0
X4.66Y-5.1
X4.66Y-7.0
X4.66Y-7.1
X4.7Y-1.0
X4.7Y-1.1
X4.7Y-3.0
X4.7Y-3.1
X4.7Y-5.0
X4.7Y-5.1
X4.7Y-7.0
X4.7Y-7.1
X4.74Y-1.0
X4.74Y-1.1
X4.74Y-3.0
X4.74Y-3.1
X4.74Y-5.0
X4.74Y-5.1
X4.74Y-7.0
X4.74Y-7.1
X4.78Y-1.0
X4.78Y-1.1
X4.78Y-3.0
X4.78Y-3.1
X4.78Y-5.0
X4.78Y-5.1
X4.78Y-7.0
X4.78Y-7.1
X4.82Y-1.0
X4.82Y-1.1
X4.82Y-3.0
X4.82Y-3.1
X4.82Y-5.0
X4.82Y-5.1
X4.82Y-7.0
X4.82Y-7.1
X4.86Y-1.0
X4.86Y-1.1
X4.86Y-3.0
X4.86Y-3.1
X4.86Y-5.0
X4.86Y-5.1
X4.86Y-7.0
X4.86Y-7.1
X4.9Y-1.0
X4.9Y-1.1
X4.9Y-3.0
X4.9Y-3.1
X4.9Y-5.0
X4.9Y-5.1
X4.9Y-7.0
X4.9Y-7.1
X4.94Y-1.0
X4.94Y-1.1
X4.94Y-3.0
X4.94Y-3.1
X4.94Y-5.0
X4.94Y-5.1
X4.94Y-7.0
X4.94Y-7.1
X6.26Y-1.0
X6.26Y-1.1
X6.26Y-3.0
X6.26Y-3.1
X6.26Y-5.0
X6.26Y-5.1
X6.26Y-7.0
X6.26Y-7.1
X6.3Y-1.0
X6.3Y-1.1
X6.3Y-3.0
X6.3Y-3.1
X6.3Y-5.0
X6.3Y-5.1
X6.3Y-7.0
X6.3Y-7.1
X6.34Y-1.0
X6.34Y-1.1
X6.34Y-3.0
X6.34Y-3.1
X6.34Y-5.0
X6.34Y-5.1
X6.34Y-7.0
X6.34Y-7.1
X6.38Y-1.0
X6.38Y-1.1
X6.38Y-3.0
X6.38Y-3.1
X6.38Y-5.0
X6.38Y-5.1
X6.38Y-7.0
X6.38Y-7.1
X6.42Y-1.0
X6.42Y-1.1
X6.42Y-3.0
X6.42Y-3.1
X6.42Y-5.0
X6.42Y-5.1
X6.42Y-7.0
X6.42Y-7.1
X6.46Y-1.0
X6.46Y-1.1
X6.46Y-3.0
X6.46Y-3.1
X6.46Y-5.0
X6.46Y-5.1
X6.46Y-7.0
X6.46Y-7.1
X6.5Y-1.0
X6.5Y-1.1
X6.5Y-3.0
X6.5Y-3.1
X6.5Y-5.0
X6.5Y-5.1
X6.5Y-7.0
X6.5Y-7.1
X6.54Y-1.0
X6.54Y-1.1
X6.54Y-3.0
X6.54Y-3.1
X6.54Y-5.0
X6.54Y-5.1
X6.54Y-7.0
X6.54Y-7.1
X7.05Y-1.41
X7.05Y-1.45
X7.05Y-1.49
X7.05Y-1.53
X7.05Y-1.57
X7.05Y-1.61
X7.05Y-1.65
X7.05Y-1.69
X7.05Y-2.41
X7.05Y-2.45
X7.05Y-2.49
X7.05Y-2.53
X7.05Y-2.57
X7.05Y-2.61
X7.05Y-2.65
X7.05Y-2.69
X7.05Y-3.41
X7.05Y-3.45
X7.05Y-3.49
X7.05Y-3.53
X7.05Y-3.57
X7.05Y-3.61
X7.05Y-3.65
X7.05Y-3.69
X7.05Y-4.41
X7.05Y-4.45
X7.05Y-4.49
X7.05Y-4.53
X7.05Y-4.57
X7.05Y-4.61
X7.05Y-4.65
X7.05Y-4.69
X7.05Y-5.41
X7.05Y-5.45
X7.05Y-5.49
X7.05Y-5.53
X7.05Y-5.57
X7.05Y-5.61
X7.05Y-5.65
X7.05Y-5.69
X7.05Y-6.41
X7.05Y-6.45
X7.05Y-6.49
X7.05Y-6.53
X7.05Y-6.57
X7.05Y-6.61
X7.05Y-6.65
X7.05Y-6.69
X7.15Y-1.41
X7.15Y-1.45
X7.15Y-1.49
X7.15Y-1.53
X7.15Y-1.57
X7.15Y-1.61
X7.15Y-1.65
X7.15Y-1.69
X7.15Y-2.41
X7.15Y-2.45
X7.15Y-2.49
X7.15Y-2.53
X7.15Y-2.57
X7.15Y-2.61
X7.15Y-2.65
X7.15Y-2.69
X7.15Y-3.41
X7.15Y-3.45
X7.15Y-3.49
X7.15Y-3.53
X7.15Y-3.57
X7.15Y-3.61
X7.15Y-3.65
X7.15Y-3.69
X7.15Y-4.41
X7.15Y-4.45
X7.15Y-4.49
X7.15Y-4.53
X7.15Y-4.57
X7.15Y-4.61
X7.15Y-4.65
X7.15Y-4.69
X7.15Y-5.41
X7.15Y-5.45
X7.15Y-5.49
X7.15Y-5.53
X7.15Y-5.57
X7.15Y-5.61
X7.15Y-5.65
X7.15Y-5.69
X7.15Y-6.41
X7.15Y-6.45
X7.15Y-6.49
X7.15Y-6.53
X7.15Y-6.57
X7.15Y-6.61
X7.15Y-6.65
X7.15Y-6.69
T0
M30
