%FSLAX45Y45*%
G04 Gerber Fmt 4.5, Leading zero omitted, Abs format (unit mm)*
G04 Created by KiCad (PCBNEW (5.99.0-9801-g46d71f0d23)) date 2021-03-17 23:59:59*
%MOMM*%
%LPD*%
G01*
G04 APERTURE LIST*
%TA.AperFunction,Profile*%
%ADD10C,0.100000*%
%TD*%
%TA.AperFunction,Profile*%
%ADD11C,0.127000*%
%TD*%
%ADD12C,0.200000*%
%ADD13C,0.038100*%
%ADD14C,0.080000*%
%ADD15C,0.100000*%
G04 APERTURE END LIST*
D10*
X18161000Y-8509000D02*
X18161000Y-8255000D01*
X2921000Y-17399000D02*
X2921000Y-17145000D01*
X10541000Y-16129000D02*
X10541000Y-14605000D01*
X17526000Y-17780000D02*
X16764000Y-17780000D01*
X16764000Y-2540000D02*
G75*
G03*
X16764000Y-2794000I0J-127000D01*
G01*
X10541000Y-12319000D02*
X10541000Y-12065000D01*
X2921000Y-7239000D02*
X2921000Y-6985000D01*
X10287000Y-3175000D02*
G75*
G03*
X9906000Y-2794000I-381000J0D01*
G01*
X15748000Y-18034000D02*
G75*
G03*
X15748000Y-17780000I0J127000D01*
G01*
X9906000Y-17780000D02*
X9144000Y-17780000D01*
X4064000Y-2794000D02*
G75*
G03*
X4064000Y-2540000I0J127000D01*
G01*
X10541000Y-5969000D02*
X10541000Y-4445000D01*
X18161000Y-7239000D02*
X18161000Y-8255000D01*
X2921000Y-16129000D02*
X2921000Y-14605000D01*
X10287000Y-12065000D02*
X10287000Y-12319000D01*
X18923000Y-2159000D02*
X1905000Y-2159000D01*
X1905000Y-18415000D02*
X18923000Y-18415000D01*
X10287000Y-8255000D02*
X10287000Y-8509000D01*
X3302000Y-12954000D02*
X4064000Y-12954000D01*
X12700000Y-2540000D02*
X15748000Y-2540000D01*
X11684000Y-7620000D02*
X10922000Y-7620000D01*
X9906000Y-7874000D02*
G75*
G02*
X10287000Y-8255000I0J-381000D01*
G01*
X18161000Y-7239000D02*
X18161000Y-6985000D01*
X15748000Y-17780000D02*
X12700000Y-17780000D01*
X10541000Y-3175000D02*
G75*
G02*
X10922000Y-2794000I381000J0D01*
G01*
X15748000Y-12954000D02*
G75*
G03*
X15748000Y-12700000I0J127000D01*
G01*
X10922000Y-2794000D02*
X11684000Y-2794000D01*
X17526000Y-2540000D02*
X16764000Y-2540000D01*
X10287000Y-11049000D02*
G75*
G03*
X10541000Y-11049000I127000J0D01*
G01*
X17907000Y-4445000D02*
X17907000Y-5969000D01*
X17526000Y-17780000D02*
G75*
G03*
X17907000Y-17399000I0J381000D01*
G01*
D11*
X2476500Y-18034000D02*
G75*
G03*
X2476500Y-18034000I-190500J0D01*
G01*
D10*
X9144000Y-18034000D02*
X11684000Y-18034000D01*
X2667000Y-8255000D02*
X2667000Y-8509000D01*
X8128000Y-18034000D02*
G75*
G03*
X8128000Y-17780000I0J127000D01*
G01*
X4064000Y-7620000D02*
X3302000Y-7620000D01*
X17526000Y-12700000D02*
G75*
G03*
X17907000Y-12319000I0J381000D01*
G01*
D11*
X18732500Y-2540000D02*
G75*
G03*
X18732500Y-2540000I-190500J0D01*
G01*
D10*
X10541000Y-14605000D02*
G75*
G03*
X10287000Y-14605000I-127000J0D01*
G01*
X11684000Y-17780000D02*
X10922000Y-17780000D01*
X16764000Y-12700000D02*
G75*
G03*
X16764000Y-12954000I0J-127000D01*
G01*
X17907000Y-13335000D02*
X17907000Y-13589000D01*
X16764000Y-2794000D02*
X17526000Y-2794000D01*
X10541000Y-9525000D02*
G75*
G03*
X10287000Y-9525000I-127000J0D01*
G01*
X17907000Y-14605000D02*
X17907000Y-16129000D01*
X2921000Y-17145000D02*
G75*
G03*
X2667000Y-17145000I-127000J0D01*
G01*
X9144000Y-2540000D02*
G75*
G03*
X9144000Y-2794000I0J-127000D01*
G01*
X5080000Y-12954000D02*
X8128000Y-12954000D01*
X17907000Y-11049000D02*
G75*
G03*
X18161000Y-11049000I127000J0D01*
G01*
X18161000Y-12319000D02*
X18161000Y-13335000D01*
X10922000Y-12954000D02*
G75*
G03*
X10541000Y-13335000I0J-381000D01*
G01*
X5080000Y-12700000D02*
G75*
G03*
X5080000Y-12954000I0J-127000D01*
G01*
X18161000Y-17145000D02*
G75*
G03*
X17907000Y-17145000I-127000J0D01*
G01*
X4064000Y-12700000D02*
X3302000Y-12700000D01*
X10541000Y-11049000D02*
X10541000Y-9525000D01*
X10287000Y-16129000D02*
G75*
G03*
X10541000Y-16129000I127000J0D01*
G01*
X17907000Y-8255000D02*
G75*
G03*
X17526000Y-7874000I-381000J0D01*
G01*
X18161000Y-16129000D02*
X18161000Y-14605000D01*
X8128000Y-17780000D02*
X5080000Y-17780000D01*
X2667000Y-12065000D02*
X2667000Y-12319000D01*
X17907000Y-13589000D02*
G75*
G03*
X18161000Y-13589000I127000J0D01*
G01*
X3302000Y-2540000D02*
G75*
G03*
X2667000Y-3175000I0J-635000D01*
G01*
X10287000Y-5969000D02*
G75*
G03*
X10541000Y-5969000I127000J0D01*
G01*
X18161000Y-3175000D02*
G75*
G03*
X17526000Y-2540000I-635000J0D01*
G01*
X17907000Y-8509000D02*
G75*
G03*
X18161000Y-8509000I127000J0D01*
G01*
X9144000Y-7874000D02*
X9906000Y-7874000D01*
X2921000Y-17399000D02*
G75*
G03*
X3302000Y-17780000I381000J0D01*
G01*
D11*
X2476500Y-2540000D02*
G75*
G03*
X2476500Y-2540000I-190500J0D01*
G01*
D10*
X11684000Y-12954000D02*
G75*
G03*
X11684000Y-12700000I0J127000D01*
G01*
X10541000Y-17399000D02*
X10541000Y-17145000D01*
X17526000Y-7620000D02*
X16764000Y-7620000D01*
X17907000Y-3429000D02*
G75*
G03*
X18161000Y-3429000I127000J0D01*
G01*
X18161000Y-12065000D02*
G75*
G03*
X17907000Y-12065000I-127000J0D01*
G01*
X10541000Y-4445000D02*
G75*
G03*
X10287000Y-4445000I-127000J0D01*
G01*
X9906000Y-12954000D02*
G75*
G02*
X10287000Y-13335000I0J-381000D01*
G01*
X17526000Y-12700000D02*
X16764000Y-12700000D01*
X12700000Y-7874000D02*
X15748000Y-7874000D01*
X2921000Y-9525000D02*
G75*
G03*
X2667000Y-9525000I-127000J0D01*
G01*
X2921000Y-12319000D02*
G75*
G03*
X3302000Y-12700000I381000J0D01*
G01*
X18161000Y-3429000D02*
X18161000Y-3175000D01*
X17907000Y-3175000D02*
X17907000Y-3429000D01*
X5080000Y-17780000D02*
G75*
G03*
X5080000Y-18034000I0J-127000D01*
G01*
X9144000Y-12700000D02*
G75*
G03*
X9144000Y-12954000I0J-127000D01*
G01*
X17907000Y-17145000D02*
X17907000Y-17399000D01*
X8128000Y-2794000D02*
G75*
G03*
X8128000Y-2540000I0J127000D01*
G01*
X18161000Y-5969000D02*
X18161000Y-4445000D01*
X9144000Y-12954000D02*
X9906000Y-12954000D01*
X12700000Y-12954000D02*
X15748000Y-12954000D01*
X15748000Y-2794000D02*
G75*
G03*
X15748000Y-2540000I0J127000D01*
G01*
X4064000Y-18034000D02*
X3302000Y-18034000D01*
X17907000Y-6985000D02*
X17907000Y-7239000D01*
X2921000Y-12065000D02*
G75*
G03*
X2667000Y-12065000I-127000J0D01*
G01*
X5080000Y-2794000D02*
X8128000Y-2794000D01*
X2921000Y-4445000D02*
G75*
G03*
X2667000Y-4445000I-127000J0D01*
G01*
X10541000Y-17145000D02*
G75*
G03*
X10287000Y-17145000I-127000J0D01*
G01*
X11684000Y-2540000D02*
X9144000Y-2540000D01*
X8128000Y-7620000D02*
X5080000Y-7620000D01*
X2667000Y-14605000D02*
X2667000Y-16129000D01*
X18161000Y-17399000D02*
X18161000Y-17145000D01*
X10287000Y-4445000D02*
X10287000Y-5969000D01*
X10541000Y-12065000D02*
G75*
G03*
X10287000Y-12065000I-127000J0D01*
G01*
X2667000Y-12319000D02*
X2667000Y-13335000D01*
X1905000Y-2159000D02*
X1905000Y-18415000D01*
X2921000Y-12319000D02*
X2921000Y-12065000D01*
X11684000Y-7874000D02*
G75*
G03*
X11684000Y-7620000I0J127000D01*
G01*
X18161000Y-4445000D02*
G75*
G03*
X17907000Y-4445000I-127000J0D01*
G01*
X2667000Y-5969000D02*
G75*
G03*
X2921000Y-5969000I127000J0D01*
G01*
X15748000Y-7874000D02*
G75*
G03*
X15748000Y-7620000I0J127000D01*
G01*
X17907000Y-8255000D02*
X17907000Y-8509000D01*
X4064000Y-12954000D02*
G75*
G03*
X4064000Y-12700000I0J127000D01*
G01*
X18161000Y-9525000D02*
G75*
G03*
X17907000Y-9525000I-127000J0D01*
G01*
X10287000Y-3429000D02*
G75*
G03*
X10541000Y-3429000I127000J0D01*
G01*
X15748000Y-7620000D02*
X12700000Y-7620000D01*
X4064000Y-2540000D02*
X3302000Y-2540000D01*
X8128000Y-7874000D02*
G75*
G03*
X8128000Y-7620000I0J127000D01*
G01*
X3302000Y-2794000D02*
X4064000Y-2794000D01*
X12700000Y-7620000D02*
G75*
G03*
X12700000Y-7874000I0J-127000D01*
G01*
X16764000Y-12954000D02*
X17526000Y-12954000D01*
X3302000Y-7874000D02*
X4064000Y-7874000D01*
X2667000Y-17399000D02*
G75*
G03*
X3302000Y-18034000I635000J0D01*
G01*
X10541000Y-7239000D02*
G75*
G03*
X10922000Y-7620000I381000J0D01*
G01*
X10287000Y-13589000D02*
G75*
G03*
X10541000Y-13589000I127000J0D01*
G01*
X2921000Y-3175000D02*
G75*
G02*
X3302000Y-2794000I381000J0D01*
G01*
X8128000Y-12954000D02*
G75*
G03*
X8128000Y-12700000I0J127000D01*
G01*
X10541000Y-3429000D02*
X10541000Y-3175000D01*
X17907000Y-5969000D02*
G75*
G03*
X18161000Y-5969000I127000J0D01*
G01*
X2921000Y-13335000D02*
G75*
G02*
X3302000Y-12954000I381000J0D01*
G01*
X2921000Y-8255000D02*
G75*
G02*
X3302000Y-7874000I381000J0D01*
G01*
X10287000Y-6985000D02*
X10287000Y-7239000D01*
X2667000Y-9525000D02*
X2667000Y-11049000D01*
X10922000Y-7874000D02*
X11684000Y-7874000D01*
X11684000Y-2794000D02*
G75*
G03*
X11684000Y-2540000I0J127000D01*
G01*
X10287000Y-14605000D02*
X10287000Y-16129000D01*
X11684000Y-18034000D02*
G75*
G03*
X11684000Y-17780000I0J127000D01*
G01*
X16764000Y-7874000D02*
X17526000Y-7874000D01*
X17907000Y-7239000D02*
G75*
G02*
X17526000Y-7620000I-381000J0D01*
G01*
X8128000Y-18034000D02*
X5080000Y-18034000D01*
X2921000Y-6985000D02*
G75*
G03*
X2667000Y-6985000I-127000J0D01*
G01*
X17526000Y-18034000D02*
G75*
G03*
X18161000Y-17399000I0J635000D01*
G01*
X10287000Y-8509000D02*
G75*
G03*
X10541000Y-8509000I127000J0D01*
G01*
X17907000Y-9525000D02*
X17907000Y-11049000D01*
X9144000Y-2794000D02*
X9906000Y-2794000D01*
X16764000Y-7620000D02*
G75*
G03*
X16764000Y-7874000I0J-127000D01*
G01*
X4064000Y-7874000D02*
G75*
G03*
X4064000Y-7620000I0J127000D01*
G01*
X4064000Y-17780000D02*
X3302000Y-17780000D01*
X10287000Y-7239000D02*
G75*
G02*
X9906000Y-7620000I-381000J0D01*
G01*
X10541000Y-6985000D02*
G75*
G03*
X10287000Y-6985000I-127000J0D01*
G01*
X16764000Y-18034000D02*
X17526000Y-18034000D01*
X17526000Y-2794000D02*
G75*
G02*
X17907000Y-3175000I0J-381000D01*
G01*
X10541000Y-8509000D02*
X10541000Y-8255000D01*
X5080000Y-2540000D02*
G75*
G03*
X5080000Y-2794000I0J-127000D01*
G01*
X15748000Y-18034000D02*
X12700000Y-18034000D01*
X10541000Y-12319000D02*
G75*
G03*
X10922000Y-12700000I381000J0D01*
G01*
X18161000Y-6985000D02*
G75*
G03*
X17907000Y-6985000I-127000J0D01*
G01*
X15748000Y-12700000D02*
X12700000Y-12700000D01*
X9906000Y-7620000D02*
X9144000Y-7620000D01*
X10541000Y-7239000D02*
X10541000Y-6985000D01*
X2667000Y-11049000D02*
G75*
G03*
X2921000Y-11049000I127000J0D01*
G01*
X10922000Y-7874000D02*
G75*
G03*
X10541000Y-8255000I0J-381000D01*
G01*
X10922000Y-12954000D02*
X11684000Y-12954000D01*
X2667000Y-16129000D02*
G75*
G03*
X2921000Y-16129000I127000J0D01*
G01*
X2921000Y-8509000D02*
X2921000Y-8255000D01*
X10287000Y-9525000D02*
X10287000Y-11049000D01*
X4064000Y-18034000D02*
G75*
G03*
X4064000Y-17780000I0J127000D01*
G01*
X8128000Y-12700000D02*
X5080000Y-12700000D01*
X10287000Y-3175000D02*
X10287000Y-3429000D01*
X18161000Y-11049000D02*
X18161000Y-9525000D01*
X11684000Y-12700000D02*
X10922000Y-12700000D01*
D11*
X18732500Y-18034000D02*
G75*
G03*
X18732500Y-18034000I-190500J0D01*
G01*
D10*
X2667000Y-7239000D02*
X2667000Y-8255000D01*
X10287000Y-17145000D02*
X10287000Y-17399000D01*
X17907000Y-12065000D02*
X17907000Y-12319000D01*
X18161000Y-12319000D02*
X18161000Y-12065000D01*
X5080000Y-2540000D02*
X8128000Y-2540000D01*
X12700000Y-12700000D02*
G75*
G03*
X12700000Y-12954000I0J-127000D01*
G01*
X2667000Y-13589000D02*
G75*
G03*
X2921000Y-13589000I127000J0D01*
G01*
X18923000Y-18415000D02*
X18923000Y-2159000D01*
X17907000Y-13335000D02*
G75*
G03*
X17526000Y-12954000I-381000J0D01*
G01*
X9144000Y-17780000D02*
G75*
G03*
X9144000Y-18034000I0J-127000D01*
G01*
X2667000Y-3175000D02*
X2667000Y-3429000D01*
X9906000Y-12700000D02*
X9144000Y-12700000D01*
X2921000Y-13589000D02*
X2921000Y-13335000D01*
X2667000Y-8509000D02*
G75*
G03*
X2921000Y-8509000I127000J0D01*
G01*
X2921000Y-3429000D02*
X2921000Y-3175000D01*
X2667000Y-6985000D02*
X2667000Y-7239000D01*
X3302000Y-7620000D02*
G75*
G02*
X2921000Y-7239000I0J381000D01*
G01*
X12700000Y-17780000D02*
G75*
G03*
X12700000Y-18034000I0J-127000D01*
G01*
X2667000Y-3429000D02*
G75*
G03*
X2921000Y-3429000I127000J0D01*
G01*
X10287000Y-17399000D02*
G75*
G02*
X9906000Y-17780000I-381000J0D01*
G01*
X2667000Y-17145000D02*
X2667000Y-17399000D01*
X10541000Y-17399000D02*
G75*
G03*
X10922000Y-17780000I381000J0D01*
G01*
X2921000Y-11049000D02*
X2921000Y-9525000D01*
X2921000Y-14605000D02*
G75*
G03*
X2667000Y-14605000I-127000J0D01*
G01*
X16764000Y-17780000D02*
G75*
G03*
X16764000Y-18034000I0J-127000D01*
G01*
X17907000Y-16129000D02*
G75*
G03*
X18161000Y-16129000I127000J0D01*
G01*
X12700000Y-2540000D02*
G75*
G03*
X12700000Y-2794000I0J-127000D01*
G01*
X2667000Y-13335000D02*
X2667000Y-13589000D01*
X2667000Y-4445000D02*
X2667000Y-5969000D01*
X18161000Y-13589000D02*
X18161000Y-13335000D01*
X18161000Y-14605000D02*
G75*
G03*
X17907000Y-14605000I-127000J0D01*
G01*
X10287000Y-13335000D02*
X10287000Y-13589000D01*
X12700000Y-2794000D02*
X15748000Y-2794000D01*
X5080000Y-7620000D02*
G75*
G03*
X5080000Y-7874000I0J-127000D01*
G01*
X2921000Y-5969000D02*
X2921000Y-4445000D01*
X5080000Y-7874000D02*
X8128000Y-7874000D01*
X10541000Y-13589000D02*
X10541000Y-13335000D01*
X9144000Y-7620000D02*
G75*
G03*
X9144000Y-7874000I0J-127000D01*
G01*
X10287000Y-12319000D02*
G75*
G02*
X9906000Y-12700000I-381000J0D01*
G01*
D12*
D13*
X3028950Y-6584950D02*
X3067050Y-6623050D01*
X3067050Y-6584950D02*
X3028950Y-6623050D01*
X3028950Y-11664950D02*
X3067050Y-11703050D01*
X3067050Y-11664950D02*
X3028950Y-11703050D01*
X3028950Y-16744950D02*
X3067050Y-16783050D01*
X3067050Y-16744950D02*
X3028950Y-16783050D01*
X3092450Y-3790950D02*
X3130550Y-3829050D01*
X3130550Y-3790950D02*
X3092450Y-3829050D01*
X3092450Y-8870950D02*
X3130550Y-8909050D01*
X3130550Y-8870950D02*
X3092450Y-8909050D01*
X3092450Y-13950950D02*
X3130550Y-13989050D01*
X3130550Y-13950950D02*
X3092450Y-13989050D01*
X3663950Y-5568950D02*
X3702050Y-5607050D01*
X3702050Y-5568950D02*
X3663950Y-5607050D01*
X3663950Y-10648950D02*
X3702050Y-10687050D01*
X3702050Y-10648950D02*
X3663950Y-10687050D01*
X3663950Y-15728950D02*
X3702050Y-15767050D01*
X3702050Y-15728950D02*
X3663950Y-15767050D01*
X3917950Y-4883150D02*
X3956050Y-4921250D01*
X3956050Y-4883150D02*
X3917950Y-4921250D01*
X3917950Y-6788150D02*
X3956050Y-6826250D01*
X3956050Y-6788150D02*
X3917950Y-6826250D01*
X3917950Y-9963150D02*
X3956050Y-10001250D01*
X3956050Y-9963150D02*
X3917950Y-10001250D01*
X3917950Y-11868150D02*
X3956050Y-11906250D01*
X3956050Y-11868150D02*
X3917950Y-11906250D01*
X3917950Y-15043150D02*
X3956050Y-15081250D01*
X3956050Y-15043150D02*
X3917950Y-15081250D01*
X3917950Y-16948150D02*
X3956050Y-16986250D01*
X3956050Y-16948150D02*
X3917950Y-16986250D01*
X4171950Y-4883150D02*
X4210050Y-4921250D01*
X4210050Y-4883150D02*
X4171950Y-4921250D01*
X4171950Y-6788150D02*
X4210050Y-6826250D01*
X4210050Y-6788150D02*
X4171950Y-6826250D01*
X4171950Y-9963150D02*
X4210050Y-10001250D01*
X4210050Y-9963150D02*
X4171950Y-10001250D01*
X4171950Y-11868150D02*
X4210050Y-11906250D01*
X4210050Y-11868150D02*
X4171950Y-11906250D01*
X4171950Y-15043150D02*
X4210050Y-15081250D01*
X4210050Y-15043150D02*
X4171950Y-15081250D01*
X4171950Y-16948150D02*
X4210050Y-16986250D01*
X4210050Y-16948150D02*
X4171950Y-16986250D01*
X4425950Y-4883150D02*
X4464050Y-4921250D01*
X4464050Y-4883150D02*
X4425950Y-4921250D01*
X4425950Y-9963150D02*
X4464050Y-10001250D01*
X4464050Y-9963150D02*
X4425950Y-10001250D01*
X4425950Y-15043150D02*
X4464050Y-15081250D01*
X4464050Y-15043150D02*
X4425950Y-15081250D01*
X4679950Y-4883150D02*
X4718050Y-4921250D01*
X4718050Y-4883150D02*
X4679950Y-4921250D01*
X4679950Y-9963150D02*
X4718050Y-10001250D01*
X4718050Y-9963150D02*
X4679950Y-10001250D01*
X4679950Y-15043150D02*
X4718050Y-15081250D01*
X4718050Y-15043150D02*
X4679950Y-15081250D01*
X4870450Y-4171950D02*
X4908550Y-4210050D01*
X4908550Y-4171950D02*
X4870450Y-4210050D01*
X4870450Y-9251950D02*
X4908550Y-9290050D01*
X4908550Y-9251950D02*
X4870450Y-9290050D01*
X4870450Y-14331950D02*
X4908550Y-14370050D01*
X4908550Y-14331950D02*
X4870450Y-14370050D01*
X4997450Y-3409950D02*
X5035550Y-3448050D01*
X5035550Y-3409950D02*
X4997450Y-3448050D01*
X4997450Y-8489950D02*
X5035550Y-8528050D01*
X5035550Y-8489950D02*
X4997450Y-8528050D01*
X4997450Y-13569950D02*
X5035550Y-13608050D01*
X5035550Y-13569950D02*
X4997450Y-13608050D01*
X5060950Y-6584950D02*
X5099050Y-6623050D01*
X5099050Y-6584950D02*
X5060950Y-6623050D01*
X5060950Y-11664950D02*
X5099050Y-11703050D01*
X5099050Y-11664950D02*
X5060950Y-11703050D01*
X5060950Y-16744950D02*
X5099050Y-16783050D01*
X5099050Y-16744950D02*
X5060950Y-16783050D01*
X5213350Y-5378450D02*
X5251450Y-5416550D01*
X5251450Y-5378450D02*
X5213350Y-5416550D01*
X5213350Y-10458450D02*
X5251450Y-10496550D01*
X5251450Y-10458450D02*
X5213350Y-10496550D01*
X5213350Y-15538450D02*
X5251450Y-15576550D01*
X5251450Y-15538450D02*
X5213350Y-15576550D01*
X8172450Y-4616450D02*
X8210550Y-4654550D01*
X8210550Y-4616450D02*
X8172450Y-4654550D01*
X8172450Y-9696450D02*
X8210550Y-9734550D01*
X8210550Y-9696450D02*
X8172450Y-9734550D01*
X8172450Y-14776450D02*
X8210550Y-14814550D01*
X8210550Y-14776450D02*
X8172450Y-14814550D01*
X8859450Y-3583950D02*
X8897550Y-3622050D01*
X8897550Y-3583950D02*
X8859450Y-3622050D01*
X8859450Y-8663950D02*
X8897550Y-8702050D01*
X8897550Y-8663950D02*
X8859450Y-8702050D01*
X8859450Y-13743950D02*
X8897550Y-13782050D01*
X8897550Y-13743950D02*
X8859450Y-13782050D01*
X8922950Y-4790450D02*
X8961050Y-4828550D01*
X8961050Y-4790450D02*
X8922950Y-4828550D01*
X8922950Y-6060450D02*
X8961050Y-6098550D01*
X8961050Y-6060450D02*
X8922950Y-6098550D01*
X8922950Y-9870450D02*
X8961050Y-9908550D01*
X8961050Y-9870450D02*
X8922950Y-9908550D01*
X8922950Y-11140450D02*
X8961050Y-11178550D01*
X8961050Y-11140450D02*
X8922950Y-11178550D01*
X8922950Y-14950450D02*
X8961050Y-14988550D01*
X8961050Y-14950450D02*
X8922950Y-14988550D01*
X8922950Y-16220450D02*
X8961050Y-16258550D01*
X8961050Y-16220450D02*
X8922950Y-16258550D01*
X10648950Y-6584950D02*
X10687050Y-6623050D01*
X10687050Y-6584950D02*
X10648950Y-6623050D01*
X10648950Y-11664950D02*
X10687050Y-11703050D01*
X10687050Y-11664950D02*
X10648950Y-11703050D01*
X10648950Y-16744950D02*
X10687050Y-16783050D01*
X10687050Y-16744950D02*
X10648950Y-16783050D01*
X10712450Y-3790950D02*
X10750550Y-3829050D01*
X10750550Y-3790950D02*
X10712450Y-3829050D01*
X10712450Y-8870950D02*
X10750550Y-8909050D01*
X10750550Y-8870950D02*
X10712450Y-8909050D01*
X10712450Y-13950950D02*
X10750550Y-13989050D01*
X10750550Y-13950950D02*
X10712450Y-13989050D01*
X11283950Y-5568950D02*
X11322050Y-5607050D01*
X11322050Y-5568950D02*
X11283950Y-5607050D01*
X11283950Y-10648950D02*
X11322050Y-10687050D01*
X11322050Y-10648950D02*
X11283950Y-10687050D01*
X11283950Y-15728950D02*
X11322050Y-15767050D01*
X11322050Y-15728950D02*
X11283950Y-15767050D01*
X11537950Y-4883150D02*
X11576050Y-4921250D01*
X11576050Y-4883150D02*
X11537950Y-4921250D01*
X11537950Y-6788150D02*
X11576050Y-6826250D01*
X11576050Y-6788150D02*
X11537950Y-6826250D01*
X11537950Y-9963150D02*
X11576050Y-10001250D01*
X11576050Y-9963150D02*
X11537950Y-10001250D01*
X11537950Y-11868150D02*
X11576050Y-11906250D01*
X11576050Y-11868150D02*
X11537950Y-11906250D01*
X11537950Y-15043150D02*
X11576050Y-15081250D01*
X11576050Y-15043150D02*
X11537950Y-15081250D01*
X11537950Y-16948150D02*
X11576050Y-16986250D01*
X11576050Y-16948150D02*
X11537950Y-16986250D01*
X11791950Y-4883150D02*
X11830050Y-4921250D01*
X11830050Y-4883150D02*
X11791950Y-4921250D01*
X11791950Y-6788150D02*
X11830050Y-6826250D01*
X11830050Y-6788150D02*
X11791950Y-6826250D01*
X11791950Y-9963150D02*
X11830050Y-10001250D01*
X11830050Y-9963150D02*
X11791950Y-10001250D01*
X11791950Y-11868150D02*
X11830050Y-11906250D01*
X11830050Y-11868150D02*
X11791950Y-11906250D01*
X11791950Y-15043150D02*
X11830050Y-15081250D01*
X11830050Y-15043150D02*
X11791950Y-15081250D01*
X11791950Y-16948150D02*
X11830050Y-16986250D01*
X11830050Y-16948150D02*
X11791950Y-16986250D01*
X12045950Y-4883150D02*
X12084050Y-4921250D01*
X12084050Y-4883150D02*
X12045950Y-4921250D01*
X12045950Y-9963150D02*
X12084050Y-10001250D01*
X12084050Y-9963150D02*
X12045950Y-10001250D01*
X12045950Y-15043150D02*
X12084050Y-15081250D01*
X12084050Y-15043150D02*
X12045950Y-15081250D01*
X12299950Y-4883150D02*
X12338050Y-4921250D01*
X12338050Y-4883150D02*
X12299950Y-4921250D01*
X12299950Y-9963150D02*
X12338050Y-10001250D01*
X12338050Y-9963150D02*
X12299950Y-10001250D01*
X12299950Y-15043150D02*
X12338050Y-15081250D01*
X12338050Y-15043150D02*
X12299950Y-15081250D01*
X12490450Y-4171950D02*
X12528550Y-4210050D01*
X12528550Y-4171950D02*
X12490450Y-4210050D01*
X12490450Y-9251950D02*
X12528550Y-9290050D01*
X12528550Y-9251950D02*
X12490450Y-9290050D01*
X12490450Y-14331950D02*
X12528550Y-14370050D01*
X12528550Y-14331950D02*
X12490450Y-14370050D01*
X12617450Y-3409950D02*
X12655550Y-3448050D01*
X12655550Y-3409950D02*
X12617450Y-3448050D01*
X12617450Y-8489950D02*
X12655550Y-8528050D01*
X12655550Y-8489950D02*
X12617450Y-8528050D01*
X12617450Y-13569950D02*
X12655550Y-13608050D01*
X12655550Y-13569950D02*
X12617450Y-13608050D01*
X12680950Y-6584950D02*
X12719050Y-6623050D01*
X12719050Y-6584950D02*
X12680950Y-6623050D01*
X12680950Y-11664950D02*
X12719050Y-11703050D01*
X12719050Y-11664950D02*
X12680950Y-11703050D01*
X12680950Y-16744950D02*
X12719050Y-16783050D01*
X12719050Y-16744950D02*
X12680950Y-16783050D01*
X12833350Y-5378450D02*
X12871450Y-5416550D01*
X12871450Y-5378450D02*
X12833350Y-5416550D01*
X12833350Y-10458450D02*
X12871450Y-10496550D01*
X12871450Y-10458450D02*
X12833350Y-10496550D01*
X12833350Y-15538450D02*
X12871450Y-15576550D01*
X12871450Y-15538450D02*
X12833350Y-15576550D01*
X15792450Y-4616450D02*
X15830550Y-4654550D01*
X15830550Y-4616450D02*
X15792450Y-4654550D01*
X15792450Y-9696450D02*
X15830550Y-9734550D01*
X15830550Y-9696450D02*
X15792450Y-9734550D01*
X15792450Y-14776450D02*
X15830550Y-14814550D01*
X15830550Y-14776450D02*
X15792450Y-14814550D01*
X16479450Y-3583950D02*
X16517550Y-3622050D01*
X16517550Y-3583950D02*
X16479450Y-3622050D01*
X16479450Y-8663950D02*
X16517550Y-8702050D01*
X16517550Y-8663950D02*
X16479450Y-8702050D01*
X16479450Y-13743950D02*
X16517550Y-13782050D01*
X16517550Y-13743950D02*
X16479450Y-13782050D01*
X16542950Y-4790450D02*
X16581050Y-4828550D01*
X16581050Y-4790450D02*
X16542950Y-4828550D01*
X16542950Y-6060450D02*
X16581050Y-6098550D01*
X16581050Y-6060450D02*
X16542950Y-6098550D01*
X16542950Y-9870450D02*
X16581050Y-9908550D01*
X16581050Y-9870450D02*
X16542950Y-9908550D01*
X16542950Y-11140450D02*
X16581050Y-11178550D01*
X16581050Y-11140450D02*
X16542950Y-11178550D01*
X16542950Y-14950450D02*
X16581050Y-14988550D01*
X16581050Y-14950450D02*
X16542950Y-14988550D01*
X16542950Y-16220450D02*
X16581050Y-16258550D01*
X16581050Y-16220450D02*
X16542950Y-16258550D01*
D14*
X3342000Y-6096000D02*
G75*
G03*
X3342000Y-6096000I-40000J0D01*
G01*
X3342000Y-6350000D02*
G75*
G03*
X3342000Y-6350000I-40000J0D01*
G01*
X3342000Y-6604000D02*
G75*
G03*
X3342000Y-6604000I-40000J0D01*
G01*
X3342000Y-6858000D02*
G75*
G03*
X3342000Y-6858000I-40000J0D01*
G01*
X3342000Y-7112000D02*
G75*
G03*
X3342000Y-7112000I-40000J0D01*
G01*
X3342000Y-11176000D02*
G75*
G03*
X3342000Y-11176000I-40000J0D01*
G01*
X3342000Y-11430000D02*
G75*
G03*
X3342000Y-11430000I-40000J0D01*
G01*
X3342000Y-11684000D02*
G75*
G03*
X3342000Y-11684000I-40000J0D01*
G01*
X3342000Y-11938000D02*
G75*
G03*
X3342000Y-11938000I-40000J0D01*
G01*
X3342000Y-12192000D02*
G75*
G03*
X3342000Y-12192000I-40000J0D01*
G01*
X3342000Y-16256000D02*
G75*
G03*
X3342000Y-16256000I-40000J0D01*
G01*
X3342000Y-16510000D02*
G75*
G03*
X3342000Y-16510000I-40000J0D01*
G01*
X3342000Y-16764000D02*
G75*
G03*
X3342000Y-16764000I-40000J0D01*
G01*
X3342000Y-17018000D02*
G75*
G03*
X3342000Y-17018000I-40000J0D01*
G01*
X3342000Y-17272000D02*
G75*
G03*
X3342000Y-17272000I-40000J0D01*
G01*
X4866000Y-6096000D02*
G75*
G03*
X4866000Y-6096000I-40000J0D01*
G01*
X4866000Y-6350000D02*
G75*
G03*
X4866000Y-6350000I-40000J0D01*
G01*
X4866000Y-6604000D02*
G75*
G03*
X4866000Y-6604000I-40000J0D01*
G01*
X4866000Y-6858000D02*
G75*
G03*
X4866000Y-6858000I-40000J0D01*
G01*
X4866000Y-7112000D02*
G75*
G03*
X4866000Y-7112000I-40000J0D01*
G01*
X4866000Y-11176000D02*
G75*
G03*
X4866000Y-11176000I-40000J0D01*
G01*
X4866000Y-11430000D02*
G75*
G03*
X4866000Y-11430000I-40000J0D01*
G01*
X4866000Y-11684000D02*
G75*
G03*
X4866000Y-11684000I-40000J0D01*
G01*
X4866000Y-11938000D02*
G75*
G03*
X4866000Y-11938000I-40000J0D01*
G01*
X4866000Y-12192000D02*
G75*
G03*
X4866000Y-12192000I-40000J0D01*
G01*
X4866000Y-16256000D02*
G75*
G03*
X4866000Y-16256000I-40000J0D01*
G01*
X4866000Y-16510000D02*
G75*
G03*
X4866000Y-16510000I-40000J0D01*
G01*
X4866000Y-16764000D02*
G75*
G03*
X4866000Y-16764000I-40000J0D01*
G01*
X4866000Y-17018000D02*
G75*
G03*
X4866000Y-17018000I-40000J0D01*
G01*
X4866000Y-17272000D02*
G75*
G03*
X4866000Y-17272000I-40000J0D01*
G01*
X10962000Y-6096000D02*
G75*
G03*
X10962000Y-6096000I-40000J0D01*
G01*
X10962000Y-6350000D02*
G75*
G03*
X10962000Y-6350000I-40000J0D01*
G01*
X10962000Y-6604000D02*
G75*
G03*
X10962000Y-6604000I-40000J0D01*
G01*
X10962000Y-6858000D02*
G75*
G03*
X10962000Y-6858000I-40000J0D01*
G01*
X10962000Y-7112000D02*
G75*
G03*
X10962000Y-7112000I-40000J0D01*
G01*
X10962000Y-11176000D02*
G75*
G03*
X10962000Y-11176000I-40000J0D01*
G01*
X10962000Y-11430000D02*
G75*
G03*
X10962000Y-11430000I-40000J0D01*
G01*
X10962000Y-11684000D02*
G75*
G03*
X10962000Y-11684000I-40000J0D01*
G01*
X10962000Y-11938000D02*
G75*
G03*
X10962000Y-11938000I-40000J0D01*
G01*
X10962000Y-12192000D02*
G75*
G03*
X10962000Y-12192000I-40000J0D01*
G01*
X10962000Y-16256000D02*
G75*
G03*
X10962000Y-16256000I-40000J0D01*
G01*
X10962000Y-16510000D02*
G75*
G03*
X10962000Y-16510000I-40000J0D01*
G01*
X10962000Y-16764000D02*
G75*
G03*
X10962000Y-16764000I-40000J0D01*
G01*
X10962000Y-17018000D02*
G75*
G03*
X10962000Y-17018000I-40000J0D01*
G01*
X10962000Y-17272000D02*
G75*
G03*
X10962000Y-17272000I-40000J0D01*
G01*
X12486000Y-6096000D02*
G75*
G03*
X12486000Y-6096000I-40000J0D01*
G01*
X12486000Y-6350000D02*
G75*
G03*
X12486000Y-6350000I-40000J0D01*
G01*
X12486000Y-6604000D02*
G75*
G03*
X12486000Y-6604000I-40000J0D01*
G01*
X12486000Y-6858000D02*
G75*
G03*
X12486000Y-6858000I-40000J0D01*
G01*
X12486000Y-7112000D02*
G75*
G03*
X12486000Y-7112000I-40000J0D01*
G01*
X12486000Y-11176000D02*
G75*
G03*
X12486000Y-11176000I-40000J0D01*
G01*
X12486000Y-11430000D02*
G75*
G03*
X12486000Y-11430000I-40000J0D01*
G01*
X12486000Y-11684000D02*
G75*
G03*
X12486000Y-11684000I-40000J0D01*
G01*
X12486000Y-11938000D02*
G75*
G03*
X12486000Y-11938000I-40000J0D01*
G01*
X12486000Y-12192000D02*
G75*
G03*
X12486000Y-12192000I-40000J0D01*
G01*
X12486000Y-16256000D02*
G75*
G03*
X12486000Y-16256000I-40000J0D01*
G01*
X12486000Y-16510000D02*
G75*
G03*
X12486000Y-16510000I-40000J0D01*
G01*
X12486000Y-16764000D02*
G75*
G03*
X12486000Y-16764000I-40000J0D01*
G01*
X12486000Y-17018000D02*
G75*
G03*
X12486000Y-17018000I-40000J0D01*
G01*
X12486000Y-17272000D02*
G75*
G03*
X12486000Y-17272000I-40000J0D01*
G01*
D15*
X5461000Y-3379000D02*
X5461000Y-3479000D01*
X5411000Y-3429000D02*
X5511000Y-3429000D01*
X5461000Y-3633000D02*
X5461000Y-3733000D01*
X5411000Y-3683000D02*
X5511000Y-3683000D01*
X5461000Y-3887000D02*
X5461000Y-3987000D01*
X5411000Y-3937000D02*
X5511000Y-3937000D01*
X5461000Y-4141000D02*
X5461000Y-4241000D01*
X5411000Y-4191000D02*
X5511000Y-4191000D01*
X5461000Y-4395000D02*
X5461000Y-4495000D01*
X5411000Y-4445000D02*
X5511000Y-4445000D01*
X5461000Y-4649000D02*
X5461000Y-4749000D01*
X5411000Y-4699000D02*
X5511000Y-4699000D01*
X5461000Y-4903000D02*
X5461000Y-5003000D01*
X5411000Y-4953000D02*
X5511000Y-4953000D01*
X5461000Y-5157000D02*
X5461000Y-5257000D01*
X5411000Y-5207000D02*
X5511000Y-5207000D01*
X5461000Y-5411000D02*
X5461000Y-5511000D01*
X5411000Y-5461000D02*
X5511000Y-5461000D01*
X5461000Y-5665000D02*
X5461000Y-5765000D01*
X5411000Y-5715000D02*
X5511000Y-5715000D01*
X5461000Y-5919000D02*
X5461000Y-6019000D01*
X5411000Y-5969000D02*
X5511000Y-5969000D01*
X5461000Y-6173000D02*
X5461000Y-6273000D01*
X5411000Y-6223000D02*
X5511000Y-6223000D01*
X5461000Y-6427000D02*
X5461000Y-6527000D01*
X5411000Y-6477000D02*
X5511000Y-6477000D01*
X5461000Y-6681000D02*
X5461000Y-6781000D01*
X5411000Y-6731000D02*
X5511000Y-6731000D01*
X5461000Y-6935000D02*
X5461000Y-7035000D01*
X5411000Y-6985000D02*
X5511000Y-6985000D01*
X5461000Y-8459000D02*
X5461000Y-8559000D01*
X5411000Y-8509000D02*
X5511000Y-8509000D01*
X5461000Y-8713000D02*
X5461000Y-8813000D01*
X5411000Y-8763000D02*
X5511000Y-8763000D01*
X5461000Y-8967000D02*
X5461000Y-9067000D01*
X5411000Y-9017000D02*
X5511000Y-9017000D01*
X5461000Y-9221000D02*
X5461000Y-9321000D01*
X5411000Y-9271000D02*
X5511000Y-9271000D01*
X5461000Y-9475000D02*
X5461000Y-9575000D01*
X5411000Y-9525000D02*
X5511000Y-9525000D01*
X5461000Y-9729000D02*
X5461000Y-9829000D01*
X5411000Y-9779000D02*
X5511000Y-9779000D01*
X5461000Y-9983000D02*
X5461000Y-10083000D01*
X5411000Y-10033000D02*
X5511000Y-10033000D01*
X5461000Y-10237000D02*
X5461000Y-10337000D01*
X5411000Y-10287000D02*
X5511000Y-10287000D01*
X5461000Y-10491000D02*
X5461000Y-10591000D01*
X5411000Y-10541000D02*
X5511000Y-10541000D01*
X5461000Y-10745000D02*
X5461000Y-10845000D01*
X5411000Y-10795000D02*
X5511000Y-10795000D01*
X5461000Y-10999000D02*
X5461000Y-11099000D01*
X5411000Y-11049000D02*
X5511000Y-11049000D01*
X5461000Y-11253000D02*
X5461000Y-11353000D01*
X5411000Y-11303000D02*
X5511000Y-11303000D01*
X5461000Y-11507000D02*
X5461000Y-11607000D01*
X5411000Y-11557000D02*
X5511000Y-11557000D01*
X5461000Y-11761000D02*
X5461000Y-11861000D01*
X5411000Y-11811000D02*
X5511000Y-11811000D01*
X5461000Y-12015000D02*
X5461000Y-12115000D01*
X5411000Y-12065000D02*
X5511000Y-12065000D01*
X5461000Y-13539000D02*
X5461000Y-13639000D01*
X5411000Y-13589000D02*
X5511000Y-13589000D01*
X5461000Y-13793000D02*
X5461000Y-13893000D01*
X5411000Y-13843000D02*
X5511000Y-13843000D01*
X5461000Y-14047000D02*
X5461000Y-14147000D01*
X5411000Y-14097000D02*
X5511000Y-14097000D01*
X5461000Y-14301000D02*
X5461000Y-14401000D01*
X5411000Y-14351000D02*
X5511000Y-14351000D01*
X5461000Y-14555000D02*
X5461000Y-14655000D01*
X5411000Y-14605000D02*
X5511000Y-14605000D01*
X5461000Y-14809000D02*
X5461000Y-14909000D01*
X5411000Y-14859000D02*
X5511000Y-14859000D01*
X5461000Y-15063000D02*
X5461000Y-15163000D01*
X5411000Y-15113000D02*
X5511000Y-15113000D01*
X5461000Y-15317000D02*
X5461000Y-15417000D01*
X5411000Y-15367000D02*
X5511000Y-15367000D01*
X5461000Y-15571000D02*
X5461000Y-15671000D01*
X5411000Y-15621000D02*
X5511000Y-15621000D01*
X5461000Y-15825000D02*
X5461000Y-15925000D01*
X5411000Y-15875000D02*
X5511000Y-15875000D01*
X5461000Y-16079000D02*
X5461000Y-16179000D01*
X5411000Y-16129000D02*
X5511000Y-16129000D01*
X5461000Y-16333000D02*
X5461000Y-16433000D01*
X5411000Y-16383000D02*
X5511000Y-16383000D01*
X5461000Y-16587000D02*
X5461000Y-16687000D01*
X5411000Y-16637000D02*
X5511000Y-16637000D01*
X5461000Y-16841000D02*
X5461000Y-16941000D01*
X5411000Y-16891000D02*
X5511000Y-16891000D01*
X5461000Y-17095000D02*
X5461000Y-17195000D01*
X5411000Y-17145000D02*
X5511000Y-17145000D01*
X7747000Y-3379000D02*
X7747000Y-3479000D01*
X7697000Y-3429000D02*
X7797000Y-3429000D01*
X7747000Y-3633000D02*
X7747000Y-3733000D01*
X7697000Y-3683000D02*
X7797000Y-3683000D01*
X7747000Y-3887000D02*
X7747000Y-3987000D01*
X7697000Y-3937000D02*
X7797000Y-3937000D01*
X7747000Y-4141000D02*
X7747000Y-4241000D01*
X7697000Y-4191000D02*
X7797000Y-4191000D01*
X7747000Y-4395000D02*
X7747000Y-4495000D01*
X7697000Y-4445000D02*
X7797000Y-4445000D01*
X7747000Y-4649000D02*
X7747000Y-4749000D01*
X7697000Y-4699000D02*
X7797000Y-4699000D01*
X7747000Y-4903000D02*
X7747000Y-5003000D01*
X7697000Y-4953000D02*
X7797000Y-4953000D01*
X7747000Y-5157000D02*
X7747000Y-5257000D01*
X7697000Y-5207000D02*
X7797000Y-5207000D01*
X7747000Y-5411000D02*
X7747000Y-5511000D01*
X7697000Y-5461000D02*
X7797000Y-5461000D01*
X7747000Y-5665000D02*
X7747000Y-5765000D01*
X7697000Y-5715000D02*
X7797000Y-5715000D01*
X7747000Y-5919000D02*
X7747000Y-6019000D01*
X7697000Y-5969000D02*
X7797000Y-5969000D01*
X7747000Y-6173000D02*
X7747000Y-6273000D01*
X7697000Y-6223000D02*
X7797000Y-6223000D01*
X7747000Y-6427000D02*
X7747000Y-6527000D01*
X7697000Y-6477000D02*
X7797000Y-6477000D01*
X7747000Y-6681000D02*
X7747000Y-6781000D01*
X7697000Y-6731000D02*
X7797000Y-6731000D01*
X7747000Y-6935000D02*
X7747000Y-7035000D01*
X7697000Y-6985000D02*
X7797000Y-6985000D01*
X7747000Y-8459000D02*
X7747000Y-8559000D01*
X7697000Y-8509000D02*
X7797000Y-8509000D01*
X7747000Y-8713000D02*
X7747000Y-8813000D01*
X7697000Y-8763000D02*
X7797000Y-8763000D01*
X7747000Y-8967000D02*
X7747000Y-9067000D01*
X7697000Y-9017000D02*
X7797000Y-9017000D01*
X7747000Y-9221000D02*
X7747000Y-9321000D01*
X7697000Y-9271000D02*
X7797000Y-9271000D01*
X7747000Y-9475000D02*
X7747000Y-9575000D01*
X7697000Y-9525000D02*
X7797000Y-9525000D01*
X7747000Y-9729000D02*
X7747000Y-9829000D01*
X7697000Y-9779000D02*
X7797000Y-9779000D01*
X7747000Y-9983000D02*
X7747000Y-10083000D01*
X7697000Y-10033000D02*
X7797000Y-10033000D01*
X7747000Y-10237000D02*
X7747000Y-10337000D01*
X7697000Y-10287000D02*
X7797000Y-10287000D01*
X7747000Y-10491000D02*
X7747000Y-10591000D01*
X7697000Y-10541000D02*
X7797000Y-10541000D01*
X7747000Y-10745000D02*
X7747000Y-10845000D01*
X7697000Y-10795000D02*
X7797000Y-10795000D01*
X7747000Y-10999000D02*
X7747000Y-11099000D01*
X7697000Y-11049000D02*
X7797000Y-11049000D01*
X7747000Y-11253000D02*
X7747000Y-11353000D01*
X7697000Y-11303000D02*
X7797000Y-11303000D01*
X7747000Y-11507000D02*
X7747000Y-11607000D01*
X7697000Y-11557000D02*
X7797000Y-11557000D01*
X7747000Y-11761000D02*
X7747000Y-11861000D01*
X7697000Y-11811000D02*
X7797000Y-11811000D01*
X7747000Y-12015000D02*
X7747000Y-12115000D01*
X7697000Y-12065000D02*
X7797000Y-12065000D01*
X7747000Y-13539000D02*
X7747000Y-13639000D01*
X7697000Y-13589000D02*
X7797000Y-13589000D01*
X7747000Y-13793000D02*
X7747000Y-13893000D01*
X7697000Y-13843000D02*
X7797000Y-13843000D01*
X7747000Y-14047000D02*
X7747000Y-14147000D01*
X7697000Y-14097000D02*
X7797000Y-14097000D01*
X7747000Y-14301000D02*
X7747000Y-14401000D01*
X7697000Y-14351000D02*
X7797000Y-14351000D01*
X7747000Y-14555000D02*
X7747000Y-14655000D01*
X7697000Y-14605000D02*
X7797000Y-14605000D01*
X7747000Y-14809000D02*
X7747000Y-14909000D01*
X7697000Y-14859000D02*
X7797000Y-14859000D01*
X7747000Y-15063000D02*
X7747000Y-15163000D01*
X7697000Y-15113000D02*
X7797000Y-15113000D01*
X7747000Y-15317000D02*
X7747000Y-15417000D01*
X7697000Y-15367000D02*
X7797000Y-15367000D01*
X7747000Y-15571000D02*
X7747000Y-15671000D01*
X7697000Y-15621000D02*
X7797000Y-15621000D01*
X7747000Y-15825000D02*
X7747000Y-15925000D01*
X7697000Y-15875000D02*
X7797000Y-15875000D01*
X7747000Y-16079000D02*
X7747000Y-16179000D01*
X7697000Y-16129000D02*
X7797000Y-16129000D01*
X7747000Y-16333000D02*
X7747000Y-16433000D01*
X7697000Y-16383000D02*
X7797000Y-16383000D01*
X7747000Y-16587000D02*
X7747000Y-16687000D01*
X7697000Y-16637000D02*
X7797000Y-16637000D01*
X7747000Y-16841000D02*
X7747000Y-16941000D01*
X7697000Y-16891000D02*
X7797000Y-16891000D01*
X7747000Y-17095000D02*
X7747000Y-17195000D01*
X7697000Y-17145000D02*
X7797000Y-17145000D01*
X13081000Y-3379000D02*
X13081000Y-3479000D01*
X13031000Y-3429000D02*
X13131000Y-3429000D01*
X13081000Y-3633000D02*
X13081000Y-3733000D01*
X13031000Y-3683000D02*
X13131000Y-3683000D01*
X13081000Y-3887000D02*
X13081000Y-3987000D01*
X13031000Y-3937000D02*
X13131000Y-3937000D01*
X13081000Y-4141000D02*
X13081000Y-4241000D01*
X13031000Y-4191000D02*
X13131000Y-4191000D01*
X13081000Y-4395000D02*
X13081000Y-4495000D01*
X13031000Y-4445000D02*
X13131000Y-4445000D01*
X13081000Y-4649000D02*
X13081000Y-4749000D01*
X13031000Y-4699000D02*
X13131000Y-4699000D01*
X13081000Y-4903000D02*
X13081000Y-5003000D01*
X13031000Y-4953000D02*
X13131000Y-4953000D01*
X13081000Y-5157000D02*
X13081000Y-5257000D01*
X13031000Y-5207000D02*
X13131000Y-5207000D01*
X13081000Y-5411000D02*
X13081000Y-5511000D01*
X13031000Y-5461000D02*
X13131000Y-5461000D01*
X13081000Y-5665000D02*
X13081000Y-5765000D01*
X13031000Y-5715000D02*
X13131000Y-5715000D01*
X13081000Y-5919000D02*
X13081000Y-6019000D01*
X13031000Y-5969000D02*
X13131000Y-5969000D01*
X13081000Y-6173000D02*
X13081000Y-6273000D01*
X13031000Y-6223000D02*
X13131000Y-6223000D01*
X13081000Y-6427000D02*
X13081000Y-6527000D01*
X13031000Y-6477000D02*
X13131000Y-6477000D01*
X13081000Y-6681000D02*
X13081000Y-6781000D01*
X13031000Y-6731000D02*
X13131000Y-6731000D01*
X13081000Y-6935000D02*
X13081000Y-7035000D01*
X13031000Y-6985000D02*
X13131000Y-6985000D01*
X13081000Y-8459000D02*
X13081000Y-8559000D01*
X13031000Y-8509000D02*
X13131000Y-8509000D01*
X13081000Y-8713000D02*
X13081000Y-8813000D01*
X13031000Y-8763000D02*
X13131000Y-8763000D01*
X13081000Y-8967000D02*
X13081000Y-9067000D01*
X13031000Y-9017000D02*
X13131000Y-9017000D01*
X13081000Y-9221000D02*
X13081000Y-9321000D01*
X13031000Y-9271000D02*
X13131000Y-9271000D01*
X13081000Y-9475000D02*
X13081000Y-9575000D01*
X13031000Y-9525000D02*
X13131000Y-9525000D01*
X13081000Y-9729000D02*
X13081000Y-9829000D01*
X13031000Y-9779000D02*
X13131000Y-9779000D01*
X13081000Y-9983000D02*
X13081000Y-10083000D01*
X13031000Y-10033000D02*
X13131000Y-10033000D01*
X13081000Y-10237000D02*
X13081000Y-10337000D01*
X13031000Y-10287000D02*
X13131000Y-10287000D01*
X13081000Y-10491000D02*
X13081000Y-10591000D01*
X13031000Y-10541000D02*
X13131000Y-10541000D01*
X13081000Y-10745000D02*
X13081000Y-10845000D01*
X13031000Y-10795000D02*
X13131000Y-10795000D01*
X13081000Y-10999000D02*
X13081000Y-11099000D01*
X13031000Y-11049000D02*
X13131000Y-11049000D01*
X13081000Y-11253000D02*
X13081000Y-11353000D01*
X13031000Y-11303000D02*
X13131000Y-11303000D01*
X13081000Y-11507000D02*
X13081000Y-11607000D01*
X13031000Y-11557000D02*
X13131000Y-11557000D01*
X13081000Y-11761000D02*
X13081000Y-11861000D01*
X13031000Y-11811000D02*
X13131000Y-11811000D01*
X13081000Y-12015000D02*
X13081000Y-12115000D01*
X13031000Y-12065000D02*
X13131000Y-12065000D01*
X13081000Y-13539000D02*
X13081000Y-13639000D01*
X13031000Y-13589000D02*
X13131000Y-13589000D01*
X13081000Y-13793000D02*
X13081000Y-13893000D01*
X13031000Y-13843000D02*
X13131000Y-13843000D01*
X13081000Y-14047000D02*
X13081000Y-14147000D01*
X13031000Y-14097000D02*
X13131000Y-14097000D01*
X13081000Y-14301000D02*
X13081000Y-14401000D01*
X13031000Y-14351000D02*
X13131000Y-14351000D01*
X13081000Y-14555000D02*
X13081000Y-14655000D01*
X13031000Y-14605000D02*
X13131000Y-14605000D01*
X13081000Y-14809000D02*
X13081000Y-14909000D01*
X13031000Y-14859000D02*
X13131000Y-14859000D01*
X13081000Y-15063000D02*
X13081000Y-15163000D01*
X13031000Y-15113000D02*
X13131000Y-15113000D01*
X13081000Y-15317000D02*
X13081000Y-15417000D01*
X13031000Y-15367000D02*
X13131000Y-15367000D01*
X13081000Y-15571000D02*
X13081000Y-15671000D01*
X13031000Y-15621000D02*
X13131000Y-15621000D01*
X13081000Y-15825000D02*
X13081000Y-15925000D01*
X13031000Y-15875000D02*
X13131000Y-15875000D01*
X13081000Y-16079000D02*
X13081000Y-16179000D01*
X13031000Y-16129000D02*
X13131000Y-16129000D01*
X13081000Y-16333000D02*
X13081000Y-16433000D01*
X13031000Y-16383000D02*
X13131000Y-16383000D01*
X13081000Y-16587000D02*
X13081000Y-16687000D01*
X13031000Y-16637000D02*
X13131000Y-16637000D01*
X13081000Y-16841000D02*
X13081000Y-16941000D01*
X13031000Y-16891000D02*
X13131000Y-16891000D01*
X13081000Y-17095000D02*
X13081000Y-17195000D01*
X13031000Y-17145000D02*
X13131000Y-17145000D01*
X15367000Y-3379000D02*
X15367000Y-3479000D01*
X15317000Y-3429000D02*
X15417000Y-3429000D01*
X15367000Y-3633000D02*
X15367000Y-3733000D01*
X15317000Y-3683000D02*
X15417000Y-3683000D01*
X15367000Y-3887000D02*
X15367000Y-3987000D01*
X15317000Y-3937000D02*
X15417000Y-3937000D01*
X15367000Y-4141000D02*
X15367000Y-4241000D01*
X15317000Y-4191000D02*
X15417000Y-4191000D01*
X15367000Y-4395000D02*
X15367000Y-4495000D01*
X15317000Y-4445000D02*
X15417000Y-4445000D01*
X15367000Y-4649000D02*
X15367000Y-4749000D01*
X15317000Y-4699000D02*
X15417000Y-4699000D01*
X15367000Y-4903000D02*
X15367000Y-5003000D01*
X15317000Y-4953000D02*
X15417000Y-4953000D01*
X15367000Y-5157000D02*
X15367000Y-5257000D01*
X15317000Y-5207000D02*
X15417000Y-5207000D01*
X15367000Y-5411000D02*
X15367000Y-5511000D01*
X15317000Y-5461000D02*
X15417000Y-5461000D01*
X15367000Y-5665000D02*
X15367000Y-5765000D01*
X15317000Y-5715000D02*
X15417000Y-5715000D01*
X15367000Y-5919000D02*
X15367000Y-6019000D01*
X15317000Y-5969000D02*
X15417000Y-5969000D01*
X15367000Y-6173000D02*
X15367000Y-6273000D01*
X15317000Y-6223000D02*
X15417000Y-6223000D01*
X15367000Y-6427000D02*
X15367000Y-6527000D01*
X15317000Y-6477000D02*
X15417000Y-6477000D01*
X15367000Y-6681000D02*
X15367000Y-6781000D01*
X15317000Y-6731000D02*
X15417000Y-6731000D01*
X15367000Y-6935000D02*
X15367000Y-7035000D01*
X15317000Y-6985000D02*
X15417000Y-6985000D01*
X15367000Y-8459000D02*
X15367000Y-8559000D01*
X15317000Y-8509000D02*
X15417000Y-8509000D01*
X15367000Y-8713000D02*
X15367000Y-8813000D01*
X15317000Y-8763000D02*
X15417000Y-8763000D01*
X15367000Y-8967000D02*
X15367000Y-9067000D01*
X15317000Y-9017000D02*
X15417000Y-9017000D01*
X15367000Y-9221000D02*
X15367000Y-9321000D01*
X15317000Y-9271000D02*
X15417000Y-9271000D01*
X15367000Y-9475000D02*
X15367000Y-9575000D01*
X15317000Y-9525000D02*
X15417000Y-9525000D01*
X15367000Y-9729000D02*
X15367000Y-9829000D01*
X15317000Y-9779000D02*
X15417000Y-9779000D01*
X15367000Y-9983000D02*
X15367000Y-10083000D01*
X15317000Y-10033000D02*
X15417000Y-10033000D01*
X15367000Y-10237000D02*
X15367000Y-10337000D01*
X15317000Y-10287000D02*
X15417000Y-10287000D01*
X15367000Y-10491000D02*
X15367000Y-10591000D01*
X15317000Y-10541000D02*
X15417000Y-10541000D01*
X15367000Y-10745000D02*
X15367000Y-10845000D01*
X15317000Y-10795000D02*
X15417000Y-10795000D01*
X15367000Y-10999000D02*
X15367000Y-11099000D01*
X15317000Y-11049000D02*
X15417000Y-11049000D01*
X15367000Y-11253000D02*
X15367000Y-11353000D01*
X15317000Y-11303000D02*
X15417000Y-11303000D01*
X15367000Y-11507000D02*
X15367000Y-11607000D01*
X15317000Y-11557000D02*
X15417000Y-11557000D01*
X15367000Y-11761000D02*
X15367000Y-11861000D01*
X15317000Y-11811000D02*
X15417000Y-11811000D01*
X15367000Y-12015000D02*
X15367000Y-12115000D01*
X15317000Y-12065000D02*
X15417000Y-12065000D01*
X15367000Y-13539000D02*
X15367000Y-13639000D01*
X15317000Y-13589000D02*
X15417000Y-13589000D01*
X15367000Y-13793000D02*
X15367000Y-13893000D01*
X15317000Y-13843000D02*
X15417000Y-13843000D01*
X15367000Y-14047000D02*
X15367000Y-14147000D01*
X15317000Y-14097000D02*
X15417000Y-14097000D01*
X15367000Y-14301000D02*
X15367000Y-14401000D01*
X15317000Y-14351000D02*
X15417000Y-14351000D01*
X15367000Y-14555000D02*
X15367000Y-14655000D01*
X15317000Y-14605000D02*
X15417000Y-14605000D01*
X15367000Y-14809000D02*
X15367000Y-14909000D01*
X15317000Y-14859000D02*
X15417000Y-14859000D01*
X15367000Y-15063000D02*
X15367000Y-15163000D01*
X15317000Y-15113000D02*
X15417000Y-15113000D01*
X15367000Y-15317000D02*
X15367000Y-15417000D01*
X15317000Y-15367000D02*
X15417000Y-15367000D01*
X15367000Y-15571000D02*
X15367000Y-15671000D01*
X15317000Y-15621000D02*
X15417000Y-15621000D01*
X15367000Y-15825000D02*
X15367000Y-15925000D01*
X15317000Y-15875000D02*
X15417000Y-15875000D01*
X15367000Y-16079000D02*
X15367000Y-16179000D01*
X15317000Y-16129000D02*
X15417000Y-16129000D01*
X15367000Y-16333000D02*
X15367000Y-16433000D01*
X15317000Y-16383000D02*
X15417000Y-16383000D01*
X15367000Y-16587000D02*
X15367000Y-16687000D01*
X15317000Y-16637000D02*
X15417000Y-16637000D01*
X15367000Y-16841000D02*
X15367000Y-16941000D01*
X15317000Y-16891000D02*
X15417000Y-16891000D01*
X15367000Y-17095000D02*
X15367000Y-17195000D01*
X15317000Y-17145000D02*
X15417000Y-17145000D01*
D12*
X2157619Y-18730476D02*
X2157619Y-18530476D01*
X2205238Y-18530476D01*
X2233810Y-18540000D01*
X2252857Y-18559048D01*
X2262381Y-18578095D01*
X2271905Y-18616190D01*
X2271905Y-18644762D01*
X2262381Y-18682857D01*
X2252857Y-18701905D01*
X2233810Y-18720952D01*
X2205238Y-18730476D01*
X2157619Y-18730476D01*
X2357619Y-18730476D02*
X2357619Y-18597143D01*
X2357619Y-18635238D02*
X2367143Y-18616190D01*
X2376667Y-18606667D01*
X2395714Y-18597143D01*
X2414762Y-18597143D01*
X2481429Y-18730476D02*
X2481429Y-18597143D01*
X2481429Y-18530476D02*
X2471905Y-18540000D01*
X2481429Y-18549524D01*
X2490952Y-18540000D01*
X2481429Y-18530476D01*
X2481429Y-18549524D01*
X2605238Y-18730476D02*
X2586190Y-18720952D01*
X2576667Y-18701905D01*
X2576667Y-18530476D01*
X2710000Y-18730476D02*
X2690952Y-18720952D01*
X2681429Y-18701905D01*
X2681429Y-18530476D01*
X2938571Y-18730476D02*
X2938571Y-18530476D01*
X3005238Y-18673333D01*
X3071905Y-18530476D01*
X3071905Y-18730476D01*
X3252857Y-18730476D02*
X3252857Y-18625714D01*
X3243333Y-18606667D01*
X3224286Y-18597143D01*
X3186190Y-18597143D01*
X3167143Y-18606667D01*
X3252857Y-18720952D02*
X3233809Y-18730476D01*
X3186190Y-18730476D01*
X3167143Y-18720952D01*
X3157619Y-18701905D01*
X3157619Y-18682857D01*
X3167143Y-18663810D01*
X3186190Y-18654286D01*
X3233809Y-18654286D01*
X3252857Y-18644762D01*
X3348095Y-18597143D02*
X3348095Y-18797143D01*
X3348095Y-18606667D02*
X3367143Y-18597143D01*
X3405238Y-18597143D01*
X3424286Y-18606667D01*
X3433809Y-18616190D01*
X3443333Y-18635238D01*
X3443333Y-18692381D01*
X3433809Y-18711429D01*
X3424286Y-18720952D01*
X3405238Y-18730476D01*
X3367143Y-18730476D01*
X3348095Y-18720952D01*
X3529048Y-18711429D02*
X3538571Y-18720952D01*
X3529048Y-18730476D01*
X3519524Y-18720952D01*
X3529048Y-18711429D01*
X3529048Y-18730476D01*
X3529048Y-18606667D02*
X3538571Y-18616190D01*
X3529048Y-18625714D01*
X3519524Y-18616190D01*
X3529048Y-18606667D01*
X3529048Y-18625714D01*
D13*
X1861900Y-19040950D02*
X1900000Y-19079050D01*
X1900000Y-19040950D02*
X1861900Y-19079050D01*
D12*
X2195714Y-18950476D02*
X2214762Y-18950476D01*
X2233810Y-18960000D01*
X2243333Y-18969524D01*
X2252857Y-18988571D01*
X2262381Y-19026667D01*
X2262381Y-19074286D01*
X2252857Y-19112381D01*
X2243333Y-19131429D01*
X2233810Y-19140952D01*
X2214762Y-19150476D01*
X2195714Y-19150476D01*
X2176667Y-19140952D01*
X2167143Y-19131429D01*
X2157619Y-19112381D01*
X2148095Y-19074286D01*
X2148095Y-19026667D01*
X2157619Y-18988571D01*
X2167143Y-18969524D01*
X2176667Y-18960000D01*
X2195714Y-18950476D01*
X2348095Y-19131429D02*
X2357619Y-19140952D01*
X2348095Y-19150476D01*
X2338571Y-19140952D01*
X2348095Y-19131429D01*
X2348095Y-19150476D01*
X2424286Y-18950476D02*
X2548095Y-18950476D01*
X2481429Y-19026667D01*
X2510000Y-19026667D01*
X2529048Y-19036190D01*
X2538571Y-19045714D01*
X2548095Y-19064762D01*
X2548095Y-19112381D01*
X2538571Y-19131429D01*
X2529048Y-19140952D01*
X2510000Y-19150476D01*
X2452857Y-19150476D01*
X2433810Y-19140952D01*
X2424286Y-19131429D01*
X2662381Y-19036190D02*
X2643333Y-19026667D01*
X2633810Y-19017143D01*
X2624286Y-18998095D01*
X2624286Y-18988571D01*
X2633810Y-18969524D01*
X2643333Y-18960000D01*
X2662381Y-18950476D01*
X2700476Y-18950476D01*
X2719524Y-18960000D01*
X2729048Y-18969524D01*
X2738571Y-18988571D01*
X2738571Y-18998095D01*
X2729048Y-19017143D01*
X2719524Y-19026667D01*
X2700476Y-19036190D01*
X2662381Y-19036190D01*
X2643333Y-19045714D01*
X2633810Y-19055238D01*
X2624286Y-19074286D01*
X2624286Y-19112381D01*
X2633810Y-19131429D01*
X2643333Y-19140952D01*
X2662381Y-19150476D01*
X2700476Y-19150476D01*
X2719524Y-19140952D01*
X2729048Y-19131429D01*
X2738571Y-19112381D01*
X2738571Y-19074286D01*
X2729048Y-19055238D01*
X2719524Y-19045714D01*
X2700476Y-19036190D01*
X2929048Y-19150476D02*
X2814762Y-19150476D01*
X2871905Y-19150476D02*
X2871905Y-18950476D01*
X2852857Y-18979048D01*
X2833809Y-18998095D01*
X2814762Y-19007619D01*
X3014762Y-19150476D02*
X3014762Y-19017143D01*
X3014762Y-19036190D02*
X3024286Y-19026667D01*
X3043333Y-19017143D01*
X3071905Y-19017143D01*
X3090952Y-19026667D01*
X3100476Y-19045714D01*
X3100476Y-19150476D01*
X3100476Y-19045714D02*
X3110000Y-19026667D01*
X3129048Y-19017143D01*
X3157619Y-19017143D01*
X3176667Y-19026667D01*
X3186190Y-19045714D01*
X3186190Y-19150476D01*
X3281428Y-19150476D02*
X3281428Y-19017143D01*
X3281428Y-19036190D02*
X3290952Y-19026667D01*
X3310000Y-19017143D01*
X3338571Y-19017143D01*
X3357619Y-19026667D01*
X3367143Y-19045714D01*
X3367143Y-19150476D01*
X3367143Y-19045714D02*
X3376667Y-19026667D01*
X3395714Y-19017143D01*
X3424286Y-19017143D01*
X3443333Y-19026667D01*
X3452857Y-19045714D01*
X3452857Y-19150476D01*
X3843333Y-18940952D02*
X3671905Y-19198095D01*
X4100476Y-18950476D02*
X4119524Y-18950476D01*
X4138571Y-18960000D01*
X4148095Y-18969524D01*
X4157619Y-18988571D01*
X4167143Y-19026667D01*
X4167143Y-19074286D01*
X4157619Y-19112381D01*
X4148095Y-19131429D01*
X4138571Y-19140952D01*
X4119524Y-19150476D01*
X4100476Y-19150476D01*
X4081428Y-19140952D01*
X4071905Y-19131429D01*
X4062381Y-19112381D01*
X4052857Y-19074286D01*
X4052857Y-19026667D01*
X4062381Y-18988571D01*
X4071905Y-18969524D01*
X4081428Y-18960000D01*
X4100476Y-18950476D01*
X4252857Y-19131429D02*
X4262381Y-19140952D01*
X4252857Y-19150476D01*
X4243333Y-19140952D01*
X4252857Y-19131429D01*
X4252857Y-19150476D01*
X4386190Y-18950476D02*
X4405238Y-18950476D01*
X4424286Y-18960000D01*
X4433810Y-18969524D01*
X4443333Y-18988571D01*
X4452857Y-19026667D01*
X4452857Y-19074286D01*
X4443333Y-19112381D01*
X4433810Y-19131429D01*
X4424286Y-19140952D01*
X4405238Y-19150476D01*
X4386190Y-19150476D01*
X4367143Y-19140952D01*
X4357619Y-19131429D01*
X4348095Y-19112381D01*
X4338571Y-19074286D01*
X4338571Y-19026667D01*
X4348095Y-18988571D01*
X4357619Y-18969524D01*
X4367143Y-18960000D01*
X4386190Y-18950476D01*
X4643333Y-19150476D02*
X4529048Y-19150476D01*
X4586190Y-19150476D02*
X4586190Y-18950476D01*
X4567143Y-18979048D01*
X4548095Y-18998095D01*
X4529048Y-19007619D01*
X4824286Y-18950476D02*
X4729048Y-18950476D01*
X4719524Y-19045714D01*
X4729048Y-19036190D01*
X4748095Y-19026667D01*
X4795714Y-19026667D01*
X4814762Y-19036190D01*
X4824286Y-19045714D01*
X4833810Y-19064762D01*
X4833810Y-19112381D01*
X4824286Y-19131429D01*
X4814762Y-19140952D01*
X4795714Y-19150476D01*
X4748095Y-19150476D01*
X4729048Y-19140952D01*
X4719524Y-19131429D01*
X4957619Y-18950476D02*
X4976667Y-18950476D01*
X4995714Y-18960000D01*
X5005238Y-18969524D01*
X5014762Y-18988571D01*
X5024286Y-19026667D01*
X5024286Y-19074286D01*
X5014762Y-19112381D01*
X5005238Y-19131429D01*
X4995714Y-19140952D01*
X4976667Y-19150476D01*
X4957619Y-19150476D01*
X4938571Y-19140952D01*
X4929048Y-19131429D01*
X4919524Y-19112381D01*
X4910000Y-19074286D01*
X4910000Y-19026667D01*
X4919524Y-18988571D01*
X4929048Y-18969524D01*
X4938571Y-18960000D01*
X4957619Y-18950476D01*
X5100476Y-18950476D02*
X5100476Y-18988571D01*
X5176667Y-18950476D02*
X5176667Y-18988571D01*
X5471905Y-19226667D02*
X5462381Y-19217143D01*
X5443333Y-19188571D01*
X5433810Y-19169524D01*
X5424286Y-19140952D01*
X5414762Y-19093333D01*
X5414762Y-19055238D01*
X5424286Y-19007619D01*
X5433810Y-18979048D01*
X5443333Y-18960000D01*
X5462381Y-18931429D01*
X5471905Y-18921905D01*
X5652857Y-19150476D02*
X5538571Y-19150476D01*
X5595714Y-19150476D02*
X5595714Y-18950476D01*
X5576667Y-18979048D01*
X5557619Y-18998095D01*
X5538571Y-19007619D01*
X5776667Y-18950476D02*
X5795714Y-18950476D01*
X5814762Y-18960000D01*
X5824286Y-18969524D01*
X5833809Y-18988571D01*
X5843333Y-19026667D01*
X5843333Y-19074286D01*
X5833809Y-19112381D01*
X5824286Y-19131429D01*
X5814762Y-19140952D01*
X5795714Y-19150476D01*
X5776667Y-19150476D01*
X5757619Y-19140952D01*
X5748095Y-19131429D01*
X5738571Y-19112381D01*
X5729048Y-19074286D01*
X5729048Y-19026667D01*
X5738571Y-18988571D01*
X5748095Y-18969524D01*
X5757619Y-18960000D01*
X5776667Y-18950476D01*
X5919524Y-18969524D02*
X5929048Y-18960000D01*
X5948095Y-18950476D01*
X5995714Y-18950476D01*
X6014762Y-18960000D01*
X6024286Y-18969524D01*
X6033809Y-18988571D01*
X6033809Y-19007619D01*
X6024286Y-19036190D01*
X5910000Y-19150476D01*
X6033809Y-19150476D01*
X6271905Y-19150476D02*
X6271905Y-18950476D01*
X6357619Y-19150476D02*
X6357619Y-19045714D01*
X6348095Y-19026667D01*
X6329048Y-19017143D01*
X6300476Y-19017143D01*
X6281428Y-19026667D01*
X6271905Y-19036190D01*
X6481428Y-19150476D02*
X6462381Y-19140952D01*
X6452857Y-19131429D01*
X6443333Y-19112381D01*
X6443333Y-19055238D01*
X6452857Y-19036190D01*
X6462381Y-19026667D01*
X6481428Y-19017143D01*
X6510000Y-19017143D01*
X6529048Y-19026667D01*
X6538571Y-19036190D01*
X6548095Y-19055238D01*
X6548095Y-19112381D01*
X6538571Y-19131429D01*
X6529048Y-19140952D01*
X6510000Y-19150476D01*
X6481428Y-19150476D01*
X6662381Y-19150476D02*
X6643333Y-19140952D01*
X6633809Y-19121905D01*
X6633809Y-18950476D01*
X6814762Y-19140952D02*
X6795714Y-19150476D01*
X6757619Y-19150476D01*
X6738571Y-19140952D01*
X6729048Y-19121905D01*
X6729048Y-19045714D01*
X6738571Y-19026667D01*
X6757619Y-19017143D01*
X6795714Y-19017143D01*
X6814762Y-19026667D01*
X6824286Y-19045714D01*
X6824286Y-19064762D01*
X6729048Y-19083810D01*
X6900476Y-19140952D02*
X6919524Y-19150476D01*
X6957619Y-19150476D01*
X6976667Y-19140952D01*
X6986190Y-19121905D01*
X6986190Y-19112381D01*
X6976667Y-19093333D01*
X6957619Y-19083810D01*
X6929048Y-19083810D01*
X6910000Y-19074286D01*
X6900476Y-19055238D01*
X6900476Y-19045714D01*
X6910000Y-19026667D01*
X6929048Y-19017143D01*
X6957619Y-19017143D01*
X6976667Y-19026667D01*
X7052857Y-19226667D02*
X7062381Y-19217143D01*
X7081428Y-19188571D01*
X7090952Y-19169524D01*
X7100476Y-19140952D01*
X7110000Y-19093333D01*
X7110000Y-19055238D01*
X7100476Y-19007619D01*
X7090952Y-18979048D01*
X7081428Y-18960000D01*
X7062381Y-18931429D01*
X7052857Y-18921905D01*
D14*
X1900000Y-19324000D02*
G75*
G03*
X1900000Y-19324000I-40000J0D01*
G01*
D12*
X2195714Y-19214476D02*
X2214762Y-19214476D01*
X2233810Y-19224000D01*
X2243333Y-19233524D01*
X2252857Y-19252571D01*
X2262381Y-19290667D01*
X2262381Y-19338286D01*
X2252857Y-19376381D01*
X2243333Y-19395429D01*
X2233810Y-19404952D01*
X2214762Y-19414476D01*
X2195714Y-19414476D01*
X2176667Y-19404952D01*
X2167143Y-19395429D01*
X2157619Y-19376381D01*
X2148095Y-19338286D01*
X2148095Y-19290667D01*
X2157619Y-19252571D01*
X2167143Y-19233524D01*
X2176667Y-19224000D01*
X2195714Y-19214476D01*
X2348095Y-19395429D02*
X2357619Y-19404952D01*
X2348095Y-19414476D01*
X2338571Y-19404952D01*
X2348095Y-19395429D01*
X2348095Y-19414476D01*
X2471905Y-19300190D02*
X2452857Y-19290667D01*
X2443333Y-19281143D01*
X2433810Y-19262095D01*
X2433810Y-19252571D01*
X2443333Y-19233524D01*
X2452857Y-19224000D01*
X2471905Y-19214476D01*
X2510000Y-19214476D01*
X2529048Y-19224000D01*
X2538571Y-19233524D01*
X2548095Y-19252571D01*
X2548095Y-19262095D01*
X2538571Y-19281143D01*
X2529048Y-19290667D01*
X2510000Y-19300190D01*
X2471905Y-19300190D01*
X2452857Y-19309714D01*
X2443333Y-19319238D01*
X2433810Y-19338286D01*
X2433810Y-19376381D01*
X2443333Y-19395429D01*
X2452857Y-19404952D01*
X2471905Y-19414476D01*
X2510000Y-19414476D01*
X2529048Y-19404952D01*
X2538571Y-19395429D01*
X2548095Y-19376381D01*
X2548095Y-19338286D01*
X2538571Y-19319238D01*
X2529048Y-19309714D01*
X2510000Y-19300190D01*
X2671905Y-19214476D02*
X2690952Y-19214476D01*
X2710000Y-19224000D01*
X2719524Y-19233524D01*
X2729048Y-19252571D01*
X2738571Y-19290667D01*
X2738571Y-19338286D01*
X2729048Y-19376381D01*
X2719524Y-19395429D01*
X2710000Y-19404952D01*
X2690952Y-19414476D01*
X2671905Y-19414476D01*
X2652857Y-19404952D01*
X2643333Y-19395429D01*
X2633810Y-19376381D01*
X2624286Y-19338286D01*
X2624286Y-19290667D01*
X2633810Y-19252571D01*
X2643333Y-19233524D01*
X2652857Y-19224000D01*
X2671905Y-19214476D01*
X2862381Y-19214476D02*
X2881428Y-19214476D01*
X2900476Y-19224000D01*
X2910000Y-19233524D01*
X2919524Y-19252571D01*
X2929048Y-19290667D01*
X2929048Y-19338286D01*
X2919524Y-19376381D01*
X2910000Y-19395429D01*
X2900476Y-19404952D01*
X2881428Y-19414476D01*
X2862381Y-19414476D01*
X2843333Y-19404952D01*
X2833809Y-19395429D01*
X2824286Y-19376381D01*
X2814762Y-19338286D01*
X2814762Y-19290667D01*
X2824286Y-19252571D01*
X2833809Y-19233524D01*
X2843333Y-19224000D01*
X2862381Y-19214476D01*
X3014762Y-19414476D02*
X3014762Y-19281143D01*
X3014762Y-19300190D02*
X3024286Y-19290667D01*
X3043333Y-19281143D01*
X3071905Y-19281143D01*
X3090952Y-19290667D01*
X3100476Y-19309714D01*
X3100476Y-19414476D01*
X3100476Y-19309714D02*
X3110000Y-19290667D01*
X3129048Y-19281143D01*
X3157619Y-19281143D01*
X3176667Y-19290667D01*
X3186190Y-19309714D01*
X3186190Y-19414476D01*
X3281428Y-19414476D02*
X3281428Y-19281143D01*
X3281428Y-19300190D02*
X3290952Y-19290667D01*
X3310000Y-19281143D01*
X3338571Y-19281143D01*
X3357619Y-19290667D01*
X3367143Y-19309714D01*
X3367143Y-19414476D01*
X3367143Y-19309714D02*
X3376667Y-19290667D01*
X3395714Y-19281143D01*
X3424286Y-19281143D01*
X3443333Y-19290667D01*
X3452857Y-19309714D01*
X3452857Y-19414476D01*
X3843333Y-19204952D02*
X3671905Y-19462095D01*
X4100476Y-19214476D02*
X4119524Y-19214476D01*
X4138571Y-19224000D01*
X4148095Y-19233524D01*
X4157619Y-19252571D01*
X4167143Y-19290667D01*
X4167143Y-19338286D01*
X4157619Y-19376381D01*
X4148095Y-19395429D01*
X4138571Y-19404952D01*
X4119524Y-19414476D01*
X4100476Y-19414476D01*
X4081428Y-19404952D01*
X4071905Y-19395429D01*
X4062381Y-19376381D01*
X4052857Y-19338286D01*
X4052857Y-19290667D01*
X4062381Y-19252571D01*
X4071905Y-19233524D01*
X4081428Y-19224000D01*
X4100476Y-19214476D01*
X4252857Y-19395429D02*
X4262381Y-19404952D01*
X4252857Y-19414476D01*
X4243333Y-19404952D01*
X4252857Y-19395429D01*
X4252857Y-19414476D01*
X4386190Y-19214476D02*
X4405238Y-19214476D01*
X4424286Y-19224000D01*
X4433810Y-19233524D01*
X4443333Y-19252571D01*
X4452857Y-19290667D01*
X4452857Y-19338286D01*
X4443333Y-19376381D01*
X4433810Y-19395429D01*
X4424286Y-19404952D01*
X4405238Y-19414476D01*
X4386190Y-19414476D01*
X4367143Y-19404952D01*
X4357619Y-19395429D01*
X4348095Y-19376381D01*
X4338571Y-19338286D01*
X4338571Y-19290667D01*
X4348095Y-19252571D01*
X4357619Y-19233524D01*
X4367143Y-19224000D01*
X4386190Y-19214476D01*
X4519524Y-19214476D02*
X4643333Y-19214476D01*
X4576667Y-19290667D01*
X4605238Y-19290667D01*
X4624286Y-19300190D01*
X4633810Y-19309714D01*
X4643333Y-19328762D01*
X4643333Y-19376381D01*
X4633810Y-19395429D01*
X4624286Y-19404952D01*
X4605238Y-19414476D01*
X4548095Y-19414476D01*
X4529048Y-19404952D01*
X4519524Y-19395429D01*
X4833810Y-19414476D02*
X4719524Y-19414476D01*
X4776667Y-19414476D02*
X4776667Y-19214476D01*
X4757619Y-19243048D01*
X4738571Y-19262095D01*
X4719524Y-19271619D01*
X5014762Y-19214476D02*
X4919524Y-19214476D01*
X4910000Y-19309714D01*
X4919524Y-19300190D01*
X4938571Y-19290667D01*
X4986190Y-19290667D01*
X5005238Y-19300190D01*
X5014762Y-19309714D01*
X5024286Y-19328762D01*
X5024286Y-19376381D01*
X5014762Y-19395429D01*
X5005238Y-19404952D01*
X4986190Y-19414476D01*
X4938571Y-19414476D01*
X4919524Y-19404952D01*
X4910000Y-19395429D01*
X5100476Y-19214476D02*
X5100476Y-19252571D01*
X5176667Y-19214476D02*
X5176667Y-19252571D01*
X5471905Y-19490667D02*
X5462381Y-19481143D01*
X5443333Y-19452571D01*
X5433810Y-19433524D01*
X5424286Y-19404952D01*
X5414762Y-19357333D01*
X5414762Y-19319238D01*
X5424286Y-19271619D01*
X5433810Y-19243048D01*
X5443333Y-19224000D01*
X5462381Y-19195429D01*
X5471905Y-19185905D01*
X5633809Y-19214476D02*
X5595714Y-19214476D01*
X5576667Y-19224000D01*
X5567143Y-19233524D01*
X5548095Y-19262095D01*
X5538571Y-19300190D01*
X5538571Y-19376381D01*
X5548095Y-19395429D01*
X5557619Y-19404952D01*
X5576667Y-19414476D01*
X5614762Y-19414476D01*
X5633809Y-19404952D01*
X5643333Y-19395429D01*
X5652857Y-19376381D01*
X5652857Y-19328762D01*
X5643333Y-19309714D01*
X5633809Y-19300190D01*
X5614762Y-19290667D01*
X5576667Y-19290667D01*
X5557619Y-19300190D01*
X5548095Y-19309714D01*
X5538571Y-19328762D01*
X5776667Y-19214476D02*
X5795714Y-19214476D01*
X5814762Y-19224000D01*
X5824286Y-19233524D01*
X5833809Y-19252571D01*
X5843333Y-19290667D01*
X5843333Y-19338286D01*
X5833809Y-19376381D01*
X5824286Y-19395429D01*
X5814762Y-19404952D01*
X5795714Y-19414476D01*
X5776667Y-19414476D01*
X5757619Y-19404952D01*
X5748095Y-19395429D01*
X5738571Y-19376381D01*
X5729048Y-19338286D01*
X5729048Y-19290667D01*
X5738571Y-19252571D01*
X5748095Y-19233524D01*
X5757619Y-19224000D01*
X5776667Y-19214476D01*
X6081428Y-19414476D02*
X6081428Y-19214476D01*
X6167143Y-19414476D02*
X6167143Y-19309714D01*
X6157619Y-19290667D01*
X6138571Y-19281143D01*
X6110000Y-19281143D01*
X6090952Y-19290667D01*
X6081428Y-19300190D01*
X6290952Y-19414476D02*
X6271905Y-19404952D01*
X6262381Y-19395429D01*
X6252857Y-19376381D01*
X6252857Y-19319238D01*
X6262381Y-19300190D01*
X6271905Y-19290667D01*
X6290952Y-19281143D01*
X6319524Y-19281143D01*
X6338571Y-19290667D01*
X6348095Y-19300190D01*
X6357619Y-19319238D01*
X6357619Y-19376381D01*
X6348095Y-19395429D01*
X6338571Y-19404952D01*
X6319524Y-19414476D01*
X6290952Y-19414476D01*
X6471905Y-19414476D02*
X6452857Y-19404952D01*
X6443333Y-19385905D01*
X6443333Y-19214476D01*
X6624286Y-19404952D02*
X6605238Y-19414476D01*
X6567143Y-19414476D01*
X6548095Y-19404952D01*
X6538571Y-19385905D01*
X6538571Y-19309714D01*
X6548095Y-19290667D01*
X6567143Y-19281143D01*
X6605238Y-19281143D01*
X6624286Y-19290667D01*
X6633809Y-19309714D01*
X6633809Y-19328762D01*
X6538571Y-19347810D01*
X6710000Y-19404952D02*
X6729048Y-19414476D01*
X6767143Y-19414476D01*
X6786190Y-19404952D01*
X6795714Y-19385905D01*
X6795714Y-19376381D01*
X6786190Y-19357333D01*
X6767143Y-19347810D01*
X6738571Y-19347810D01*
X6719524Y-19338286D01*
X6710000Y-19319238D01*
X6710000Y-19309714D01*
X6719524Y-19290667D01*
X6738571Y-19281143D01*
X6767143Y-19281143D01*
X6786190Y-19290667D01*
X6862381Y-19490667D02*
X6871905Y-19481143D01*
X6890952Y-19452571D01*
X6900476Y-19433524D01*
X6910000Y-19404952D01*
X6919524Y-19357333D01*
X6919524Y-19319238D01*
X6910000Y-19271619D01*
X6900476Y-19243048D01*
X6890952Y-19224000D01*
X6871905Y-19195429D01*
X6862381Y-19185905D01*
D15*
X1850000Y-19538000D02*
X1850000Y-19638000D01*
X1800000Y-19588000D02*
X1900000Y-19588000D01*
D12*
X2262381Y-19678476D02*
X2148095Y-19678476D01*
X2205238Y-19678476D02*
X2205238Y-19478476D01*
X2186190Y-19507048D01*
X2167143Y-19526095D01*
X2148095Y-19535619D01*
X2348095Y-19659429D02*
X2357619Y-19668952D01*
X2348095Y-19678476D01*
X2338571Y-19668952D01*
X2348095Y-19659429D01*
X2348095Y-19678476D01*
X2481429Y-19478476D02*
X2500476Y-19478476D01*
X2519524Y-19488000D01*
X2529048Y-19497524D01*
X2538571Y-19516571D01*
X2548095Y-19554667D01*
X2548095Y-19602286D01*
X2538571Y-19640381D01*
X2529048Y-19659429D01*
X2519524Y-19668952D01*
X2500476Y-19678476D01*
X2481429Y-19678476D01*
X2462381Y-19668952D01*
X2452857Y-19659429D01*
X2443333Y-19640381D01*
X2433810Y-19602286D01*
X2433810Y-19554667D01*
X2443333Y-19516571D01*
X2452857Y-19497524D01*
X2462381Y-19488000D01*
X2481429Y-19478476D01*
X2671905Y-19478476D02*
X2690952Y-19478476D01*
X2710000Y-19488000D01*
X2719524Y-19497524D01*
X2729048Y-19516571D01*
X2738571Y-19554667D01*
X2738571Y-19602286D01*
X2729048Y-19640381D01*
X2719524Y-19659429D01*
X2710000Y-19668952D01*
X2690952Y-19678476D01*
X2671905Y-19678476D01*
X2652857Y-19668952D01*
X2643333Y-19659429D01*
X2633810Y-19640381D01*
X2624286Y-19602286D01*
X2624286Y-19554667D01*
X2633810Y-19516571D01*
X2643333Y-19497524D01*
X2652857Y-19488000D01*
X2671905Y-19478476D01*
X2862381Y-19478476D02*
X2881428Y-19478476D01*
X2900476Y-19488000D01*
X2910000Y-19497524D01*
X2919524Y-19516571D01*
X2929048Y-19554667D01*
X2929048Y-19602286D01*
X2919524Y-19640381D01*
X2910000Y-19659429D01*
X2900476Y-19668952D01*
X2881428Y-19678476D01*
X2862381Y-19678476D01*
X2843333Y-19668952D01*
X2833809Y-19659429D01*
X2824286Y-19640381D01*
X2814762Y-19602286D01*
X2814762Y-19554667D01*
X2824286Y-19516571D01*
X2833809Y-19497524D01*
X2843333Y-19488000D01*
X2862381Y-19478476D01*
X3014762Y-19678476D02*
X3014762Y-19545143D01*
X3014762Y-19564190D02*
X3024286Y-19554667D01*
X3043333Y-19545143D01*
X3071905Y-19545143D01*
X3090952Y-19554667D01*
X3100476Y-19573714D01*
X3100476Y-19678476D01*
X3100476Y-19573714D02*
X3110000Y-19554667D01*
X3129048Y-19545143D01*
X3157619Y-19545143D01*
X3176667Y-19554667D01*
X3186190Y-19573714D01*
X3186190Y-19678476D01*
X3281428Y-19678476D02*
X3281428Y-19545143D01*
X3281428Y-19564190D02*
X3290952Y-19554667D01*
X3310000Y-19545143D01*
X3338571Y-19545143D01*
X3357619Y-19554667D01*
X3367143Y-19573714D01*
X3367143Y-19678476D01*
X3367143Y-19573714D02*
X3376667Y-19554667D01*
X3395714Y-19545143D01*
X3424286Y-19545143D01*
X3443333Y-19554667D01*
X3452857Y-19573714D01*
X3452857Y-19678476D01*
X3843333Y-19468952D02*
X3671905Y-19726095D01*
X4100476Y-19478476D02*
X4119524Y-19478476D01*
X4138571Y-19488000D01*
X4148095Y-19497524D01*
X4157619Y-19516571D01*
X4167143Y-19554667D01*
X4167143Y-19602286D01*
X4157619Y-19640381D01*
X4148095Y-19659429D01*
X4138571Y-19668952D01*
X4119524Y-19678476D01*
X4100476Y-19678476D01*
X4081428Y-19668952D01*
X4071905Y-19659429D01*
X4062381Y-19640381D01*
X4052857Y-19602286D01*
X4052857Y-19554667D01*
X4062381Y-19516571D01*
X4071905Y-19497524D01*
X4081428Y-19488000D01*
X4100476Y-19478476D01*
X4252857Y-19659429D02*
X4262381Y-19668952D01*
X4252857Y-19678476D01*
X4243333Y-19668952D01*
X4252857Y-19659429D01*
X4252857Y-19678476D01*
X4386190Y-19478476D02*
X4405238Y-19478476D01*
X4424286Y-19488000D01*
X4433810Y-19497524D01*
X4443333Y-19516571D01*
X4452857Y-19554667D01*
X4452857Y-19602286D01*
X4443333Y-19640381D01*
X4433810Y-19659429D01*
X4424286Y-19668952D01*
X4405238Y-19678476D01*
X4386190Y-19678476D01*
X4367143Y-19668952D01*
X4357619Y-19659429D01*
X4348095Y-19640381D01*
X4338571Y-19602286D01*
X4338571Y-19554667D01*
X4348095Y-19516571D01*
X4357619Y-19497524D01*
X4367143Y-19488000D01*
X4386190Y-19478476D01*
X4519524Y-19478476D02*
X4643333Y-19478476D01*
X4576667Y-19554667D01*
X4605238Y-19554667D01*
X4624286Y-19564190D01*
X4633810Y-19573714D01*
X4643333Y-19592762D01*
X4643333Y-19640381D01*
X4633810Y-19659429D01*
X4624286Y-19668952D01*
X4605238Y-19678476D01*
X4548095Y-19678476D01*
X4529048Y-19668952D01*
X4519524Y-19659429D01*
X4738571Y-19678476D02*
X4776667Y-19678476D01*
X4795714Y-19668952D01*
X4805238Y-19659429D01*
X4824286Y-19630857D01*
X4833810Y-19592762D01*
X4833810Y-19516571D01*
X4824286Y-19497524D01*
X4814762Y-19488000D01*
X4795714Y-19478476D01*
X4757619Y-19478476D01*
X4738571Y-19488000D01*
X4729048Y-19497524D01*
X4719524Y-19516571D01*
X4719524Y-19564190D01*
X4729048Y-19583238D01*
X4738571Y-19592762D01*
X4757619Y-19602286D01*
X4795714Y-19602286D01*
X4814762Y-19592762D01*
X4824286Y-19583238D01*
X4833810Y-19564190D01*
X5005238Y-19545143D02*
X5005238Y-19678476D01*
X4957619Y-19468952D02*
X4910000Y-19611810D01*
X5033810Y-19611810D01*
X5100476Y-19478476D02*
X5100476Y-19516571D01*
X5176667Y-19478476D02*
X5176667Y-19516571D01*
X5471905Y-19754667D02*
X5462381Y-19745143D01*
X5443333Y-19716571D01*
X5433810Y-19697524D01*
X5424286Y-19668952D01*
X5414762Y-19621333D01*
X5414762Y-19583238D01*
X5424286Y-19535619D01*
X5433810Y-19507048D01*
X5443333Y-19488000D01*
X5462381Y-19459429D01*
X5471905Y-19449905D01*
X5652857Y-19678476D02*
X5538571Y-19678476D01*
X5595714Y-19678476D02*
X5595714Y-19478476D01*
X5576667Y-19507048D01*
X5557619Y-19526095D01*
X5538571Y-19535619D01*
X5767143Y-19564190D02*
X5748095Y-19554667D01*
X5738571Y-19545143D01*
X5729048Y-19526095D01*
X5729048Y-19516571D01*
X5738571Y-19497524D01*
X5748095Y-19488000D01*
X5767143Y-19478476D01*
X5805238Y-19478476D01*
X5824286Y-19488000D01*
X5833809Y-19497524D01*
X5843333Y-19516571D01*
X5843333Y-19526095D01*
X5833809Y-19545143D01*
X5824286Y-19554667D01*
X5805238Y-19564190D01*
X5767143Y-19564190D01*
X5748095Y-19573714D01*
X5738571Y-19583238D01*
X5729048Y-19602286D01*
X5729048Y-19640381D01*
X5738571Y-19659429D01*
X5748095Y-19668952D01*
X5767143Y-19678476D01*
X5805238Y-19678476D01*
X5824286Y-19668952D01*
X5833809Y-19659429D01*
X5843333Y-19640381D01*
X5843333Y-19602286D01*
X5833809Y-19583238D01*
X5824286Y-19573714D01*
X5805238Y-19564190D01*
X5967143Y-19478476D02*
X5986190Y-19478476D01*
X6005238Y-19488000D01*
X6014762Y-19497524D01*
X6024286Y-19516571D01*
X6033809Y-19554667D01*
X6033809Y-19602286D01*
X6024286Y-19640381D01*
X6014762Y-19659429D01*
X6005238Y-19668952D01*
X5986190Y-19678476D01*
X5967143Y-19678476D01*
X5948095Y-19668952D01*
X5938571Y-19659429D01*
X5929048Y-19640381D01*
X5919524Y-19602286D01*
X5919524Y-19554667D01*
X5929048Y-19516571D01*
X5938571Y-19497524D01*
X5948095Y-19488000D01*
X5967143Y-19478476D01*
X6271905Y-19678476D02*
X6271905Y-19478476D01*
X6357619Y-19678476D02*
X6357619Y-19573714D01*
X6348095Y-19554667D01*
X6329048Y-19545143D01*
X6300476Y-19545143D01*
X6281428Y-19554667D01*
X6271905Y-19564190D01*
X6481428Y-19678476D02*
X6462381Y-19668952D01*
X6452857Y-19659429D01*
X6443333Y-19640381D01*
X6443333Y-19583238D01*
X6452857Y-19564190D01*
X6462381Y-19554667D01*
X6481428Y-19545143D01*
X6510000Y-19545143D01*
X6529048Y-19554667D01*
X6538571Y-19564190D01*
X6548095Y-19583238D01*
X6548095Y-19640381D01*
X6538571Y-19659429D01*
X6529048Y-19668952D01*
X6510000Y-19678476D01*
X6481428Y-19678476D01*
X6662381Y-19678476D02*
X6643333Y-19668952D01*
X6633809Y-19649905D01*
X6633809Y-19478476D01*
X6814762Y-19668952D02*
X6795714Y-19678476D01*
X6757619Y-19678476D01*
X6738571Y-19668952D01*
X6729048Y-19649905D01*
X6729048Y-19573714D01*
X6738571Y-19554667D01*
X6757619Y-19545143D01*
X6795714Y-19545143D01*
X6814762Y-19554667D01*
X6824286Y-19573714D01*
X6824286Y-19592762D01*
X6729048Y-19611810D01*
X6900476Y-19668952D02*
X6919524Y-19678476D01*
X6957619Y-19678476D01*
X6976667Y-19668952D01*
X6986190Y-19649905D01*
X6986190Y-19640381D01*
X6976667Y-19621333D01*
X6957619Y-19611810D01*
X6929048Y-19611810D01*
X6910000Y-19602286D01*
X6900476Y-19583238D01*
X6900476Y-19573714D01*
X6910000Y-19554667D01*
X6929048Y-19545143D01*
X6957619Y-19545143D01*
X6976667Y-19554667D01*
X7052857Y-19754667D02*
X7062381Y-19745143D01*
X7081428Y-19716571D01*
X7090952Y-19697524D01*
X7100476Y-19668952D01*
X7110000Y-19621333D01*
X7110000Y-19583238D01*
X7100476Y-19535619D01*
X7090952Y-19507048D01*
X7081428Y-19488000D01*
X7062381Y-19459429D01*
X7052857Y-19449905D01*
M02*
