M48
; DRILL file {KiCad (5.99.0-9801-g46d71f0d23)} date Wed Mar 17 23:59:59 2021
; FORMAT={-:-/ absolute / inch / decimal}
; #@! TF.CreationDate,2021-03-17T23:59:59-04:00
; #@! TF.GenerationSoftware,Kicad,Pcbnew,(5.99.0-9801-g46d71f0d23)
; #@! TF.FileFunction,Plated,1,2,PTH
FMAT,2
INCH
; #@! TA.AperFunction,ViaDrill
T1C0.0150
; #@! TA.AperFunction,ComponentDrill,Plated,PTH
T2C0.0315
; #@! TA.AperFunction,ComponentDrill,Plated,PTH
T3C0.0394
%
G90
G05
T1
; via hole
X1.2Y-2.6
X1.2Y-4.6
X1.2Y-6.6
X1.225Y-1.5
X1.225Y-3.5
X1.225Y-5.5
X1.45Y-2.2
X1.45Y-4.2
X1.45Y-6.2
X1.55Y-1.93
X1.55Y-2.68
X1.55Y-3.93
X1.55Y-4.68
X1.55Y-5.93
X1.55Y-6.68
X1.65Y-1.93
X1.65Y-2.68
X1.65Y-3.93
X1.65Y-4.68
X1.65Y-5.93
X1.65Y-6.68
X1.75Y-1.93
X1.75Y-3.93
X1.75Y-5.93
X1.85Y-1.93
X1.85Y-3.93
X1.85Y-5.93
X1.925Y-1.65
X1.925Y-3.65
X1.925Y-5.65
X1.975Y-1.35
X1.975Y-3.35
X1.975Y-5.35
X2.0Y-2.6
X2.0Y-4.6
X2.0Y-6.6
X2.06Y-2.125
X2.06Y-4.125
X2.06Y-6.125
X3.225Y-1.825
X3.225Y-3.825
X3.225Y-5.825
X3.4955Y-1.4185
X3.4955Y-3.4185
X3.4955Y-5.4185
X3.5205Y-1.8935
X3.5205Y-2.3935
X3.5205Y-3.8935
X3.5205Y-4.3935
X3.5205Y-5.8935
X3.5205Y-6.3935
X4.2Y-2.6
X4.2Y-4.6
X4.2Y-6.6
X4.225Y-1.5
X4.225Y-3.5
X4.225Y-5.5
X4.45Y-2.2
X4.45Y-4.2
X4.45Y-6.2
X4.55Y-1.93
X4.55Y-2.68
X4.55Y-3.93
X4.55Y-4.68
X4.55Y-5.93
X4.55Y-6.68
X4.65Y-1.93
X4.65Y-2.68
X4.65Y-3.93
X4.65Y-4.68
X4.65Y-5.93
X4.65Y-6.68
X4.75Y-1.93
X4.75Y-3.93
X4.75Y-5.93
X4.85Y-1.93
X4.85Y-3.93
X4.85Y-5.93
X4.925Y-1.65
X4.925Y-3.65
X4.925Y-5.65
X4.975Y-1.35
X4.975Y-3.35
X4.975Y-5.35
X5.0Y-2.6
X5.0Y-4.6
X5.0Y-6.6
X5.06Y-2.125
X5.06Y-4.125
X5.06Y-6.125
X6.225Y-1.825
X6.225Y-3.825
X6.225Y-5.825
X6.4955Y-1.4185
X6.4955Y-3.4185
X6.4955Y-5.4185
X6.5205Y-1.8935
X6.5205Y-2.3935
X6.5205Y-3.8935
X6.5205Y-4.3935
X6.5205Y-5.8935
X6.5205Y-6.3935
T2
; plated pad hole
X1.3Y-2.4
X1.3Y-2.5
X1.3Y-2.6
X1.3Y-2.7
X1.3Y-2.8
X1.3Y-4.4
X1.3Y-4.5
X1.3Y-4.6
X1.3Y-4.7
X1.3Y-4.8
X1.3Y-6.4
X1.3Y-6.5
X1.3Y-6.6
X1.3Y-6.7
X1.3Y-6.8
X1.9Y-2.4
X1.9Y-2.5
X1.9Y-2.6
X1.9Y-2.7
X1.9Y-2.8
X1.9Y-4.4
X1.9Y-4.5
X1.9Y-4.6
X1.9Y-4.7
X1.9Y-4.8
X1.9Y-6.4
X1.9Y-6.5
X1.9Y-6.6
X1.9Y-6.7
X1.9Y-6.8
X4.3Y-2.4
X4.3Y-2.5
X4.3Y-2.6
X4.3Y-2.7
X4.3Y-2.8
X4.3Y-4.4
X4.3Y-4.5
X4.3Y-4.6
X4.3Y-4.7
X4.3Y-4.8
X4.3Y-6.4
X4.3Y-6.5
X4.3Y-6.6
X4.3Y-6.7
X4.3Y-6.8
X4.9Y-2.4
X4.9Y-2.5
X4.9Y-2.6
X4.9Y-2.7
X4.9Y-2.8
X4.9Y-4.4
X4.9Y-4.5
X4.9Y-4.6
X4.9Y-4.7
X4.9Y-4.8
X4.9Y-6.4
X4.9Y-6.5
X4.9Y-6.6
X4.9Y-6.7
X4.9Y-6.8
T3
X2.15Y-1.35
X2.15Y-1.45
X2.15Y-1.55
X2.15Y-1.65
X2.15Y-1.75
X2.15Y-1.85
X2.15Y-1.95
X2.15Y-2.05
X2.15Y-2.15
X2.15Y-2.25
X2.15Y-2.35
X2.15Y-2.45
X2.15Y-2.55
X2.15Y-2.65
X2.15Y-2.75
X2.15Y-3.35
X2.15Y-3.45
X2.15Y-3.55
X2.15Y-3.65
X2.15Y-3.75
X2.15Y-3.85
X2.15Y-3.95
X2.15Y-4.05
X2.15Y-4.15
X2.15Y-4.25
X2.15Y-4.35
X2.15Y-4.45
X2.15Y-4.55
X2.15Y-4.65
X2.15Y-4.75
X2.15Y-5.35
X2.15Y-5.45
X2.15Y-5.55
X2.15Y-5.65
X2.15Y-5.75
X2.15Y-5.85
X2.15Y-5.95
X2.15Y-6.05
X2.15Y-6.15
X2.15Y-6.25
X2.15Y-6.35
X2.15Y-6.45
X2.15Y-6.55
X2.15Y-6.65
X2.15Y-6.75
X3.05Y-1.35
X3.05Y-1.45
X3.05Y-1.55
X3.05Y-1.65
X3.05Y-1.75
X3.05Y-1.85
X3.05Y-1.95
X3.05Y-2.05
X3.05Y-2.15
X3.05Y-2.25
X3.05Y-2.35
X3.05Y-2.45
X3.05Y-2.55
X3.05Y-2.65
X3.05Y-2.75
X3.05Y-3.35
X3.05Y-3.45
X3.05Y-3.55
X3.05Y-3.65
X3.05Y-3.75
X3.05Y-3.85
X3.05Y-3.95
X3.05Y-4.05
X3.05Y-4.15
X3.05Y-4.25
X3.05Y-4.35
X3.05Y-4.45
X3.05Y-4.55
X3.05Y-4.65
X3.05Y-4.75
X3.05Y-5.35
X3.05Y-5.45
X3.05Y-5.55
X3.05Y-5.65
X3.05Y-5.75
X3.05Y-5.85
X3.05Y-5.95
X3.05Y-6.05
X3.05Y-6.15
X3.05Y-6.25
X3.05Y-6.35
X3.05Y-6.45
X3.05Y-6.55
X3.05Y-6.65
X3.05Y-6.75
X5.15Y-1.35
X5.15Y-1.45
X5.15Y-1.55
X5.15Y-1.65
X5.15Y-1.75
X5.15Y-1.85
X5.15Y-1.95
X5.15Y-2.05
X5.15Y-2.15
X5.15Y-2.25
X5.15Y-2.35
X5.15Y-2.45
X5.15Y-2.55
X5.15Y-2.65
X5.15Y-2.75
X5.15Y-3.35
X5.15Y-3.45
X5.15Y-3.55
X5.15Y-3.65
X5.15Y-3.75
X5.15Y-3.85
X5.15Y-3.95
X5.15Y-4.05
X5.15Y-4.15
X5.15Y-4.25
X5.15Y-4.35
X5.15Y-4.45
X5.15Y-4.55
X5.15Y-4.65
X5.15Y-4.75
X5.15Y-5.35
X5.15Y-5.45
X5.15Y-5.55
X5.15Y-5.65
X5.15Y-5.75
X5.15Y-5.85
X5.15Y-5.95
X5.15Y-6.05
X5.15Y-6.15
X5.15Y-6.25
X5.15Y-6.35
X5.15Y-6.45
X5.15Y-6.55
X5.15Y-6.65
X5.15Y-6.75
X6.05Y-1.35
X6.05Y-1.45
X6.05Y-1.55
X6.05Y-1.65
X6.05Y-1.75
X6.05Y-1.85
X6.05Y-1.95
X6.05Y-2.05
X6.05Y-2.15
X6.05Y-2.25
X6.05Y-2.35
X6.05Y-2.45
X6.05Y-2.55
X6.05Y-2.65
X6.05Y-2.75
X6.05Y-3.35
X6.05Y-3.45
X6.05Y-3.55
X6.05Y-3.65
X6.05Y-3.75
X6.05Y-3.85
X6.05Y-3.95
X6.05Y-4.05
X6.05Y-4.15
X6.05Y-4.25
X6.05Y-4.35
X6.05Y-4.45
X6.05Y-4.55
X6.05Y-4.65
X6.05Y-4.75
X6.05Y-5.35
X6.05Y-5.45
X6.05Y-5.55
X6.05Y-5.65
X6.05Y-5.75
X6.05Y-5.85
X6.05Y-5.95
X6.05Y-6.05
X6.05Y-6.15
X6.05Y-6.25
X6.05Y-6.35
X6.05Y-6.45
X6.05Y-6.55
X6.05Y-6.65
X6.05Y-6.75
T0
M30
