%TF.GenerationSoftware,KiCad,Pcbnew,(5.99.0-9801-g46d71f0d23)*%
%TF.CreationDate,2021-03-17T23:59:57-04:00*%
%TF.ProjectId,PCB-S-Panelization,5043422d-532d-4506-916e-656c697a6174,rev?*%
%TF.SameCoordinates,Original*%
%TF.FileFunction,Profile,NP*%
%FSLAX46Y46*%
G04 Gerber Fmt 4.6, Leading zero omitted, Abs format (unit mm)*
G04 Created by KiCad (PCBNEW (5.99.0-9801-g46d71f0d23)) date 2021-03-17 23:59:57*
%MOMM*%
%LPD*%
G01*
G04 APERTURE LIST*
%TA.AperFunction,Profile*%
%ADD10C,0.100000*%
%TD*%
%TA.AperFunction,Profile*%
%ADD11C,0.127000*%
%TD*%
G04 APERTURE END LIST*
D10*
X181610000Y-85090000D02*
X181610000Y-82550000D01*
X29210000Y-173990000D02*
X29210000Y-171450000D01*
X105410000Y-161290000D02*
X105410000Y-146050000D01*
X175260000Y-177800000D02*
X167640000Y-177800000D01*
X167640000Y-25400000D02*
G75*
G03*
X167640000Y-27940000I0J-1270000D01*
G01*
X105410000Y-123190000D02*
X105410000Y-120650000D01*
X29210000Y-72390000D02*
X29210000Y-69850000D01*
X102870000Y-31750000D02*
G75*
G03*
X99060000Y-27940000I-3810000J0D01*
G01*
X157480000Y-180340000D02*
G75*
G03*
X157480000Y-177800000I0J1270000D01*
G01*
X99060000Y-177800000D02*
X91440000Y-177800000D01*
X40640000Y-27940000D02*
G75*
G03*
X40640000Y-25400000I0J1270000D01*
G01*
X105410000Y-59690000D02*
X105410000Y-44450000D01*
X181610000Y-72390000D02*
X181610000Y-82550000D01*
X29210000Y-161290000D02*
X29210000Y-146050000D01*
X102870000Y-120650000D02*
X102870000Y-123190000D01*
X189230000Y-21590000D02*
X19050000Y-21590000D01*
X19050000Y-184150000D02*
X189230000Y-184150000D01*
X102870000Y-82550000D02*
X102870000Y-85090000D01*
X33020000Y-129540000D02*
X40640000Y-129540000D01*
X127000000Y-25400000D02*
X157480000Y-25400000D01*
X116840000Y-76200000D02*
X109220000Y-76200000D01*
X99060000Y-78740000D02*
G75*
G02*
X102870000Y-82550000I0J-3810000D01*
G01*
X181610000Y-72390000D02*
X181610000Y-69850000D01*
X157480000Y-177800000D02*
X127000000Y-177800000D01*
X105410000Y-31750000D02*
G75*
G02*
X109220000Y-27940000I3810000J0D01*
G01*
X157480000Y-129540000D02*
G75*
G03*
X157480000Y-127000000I0J1270000D01*
G01*
X109220000Y-27940000D02*
X116840000Y-27940000D01*
X175260000Y-25400000D02*
X167640000Y-25400000D01*
X102870000Y-110490000D02*
G75*
G03*
X105410000Y-110490000I1270000J0D01*
G01*
X179070000Y-44450000D02*
X179070000Y-59690000D01*
X175260000Y-177800000D02*
G75*
G03*
X179070000Y-173990000I0J3810000D01*
G01*
D11*
X24765000Y-180340000D02*
G75*
G03*
X24765000Y-180340000I-1905000J0D01*
G01*
D10*
X91440000Y-180340000D02*
X116840000Y-180340000D01*
X26670000Y-82550000D02*
X26670000Y-85090000D01*
X81280000Y-180340000D02*
G75*
G03*
X81280000Y-177800000I0J1270000D01*
G01*
X40640000Y-76200000D02*
X33020000Y-76200000D01*
X175260000Y-127000000D02*
G75*
G03*
X179070000Y-123190000I0J3810000D01*
G01*
D11*
X187325000Y-25400000D02*
G75*
G03*
X187325000Y-25400000I-1905000J0D01*
G01*
D10*
X105410000Y-146050000D02*
G75*
G03*
X102870000Y-146050000I-1270000J0D01*
G01*
X116840000Y-177800000D02*
X109220000Y-177800000D01*
X167640000Y-127000000D02*
G75*
G03*
X167640000Y-129540000I0J-1270000D01*
G01*
X179070000Y-133350000D02*
X179070000Y-135890000D01*
X167640000Y-27940000D02*
X175260000Y-27940000D01*
X105410000Y-95250000D02*
G75*
G03*
X102870000Y-95250000I-1270000J0D01*
G01*
X179070000Y-146050000D02*
X179070000Y-161290000D01*
X29210000Y-171450000D02*
G75*
G03*
X26670000Y-171450000I-1270000J0D01*
G01*
X91440000Y-25400000D02*
G75*
G03*
X91440000Y-27940000I0J-1270000D01*
G01*
X50800000Y-129540000D02*
X81280000Y-129540000D01*
X179070000Y-110490000D02*
G75*
G03*
X181610000Y-110490000I1270000J0D01*
G01*
X181610000Y-123190000D02*
X181610000Y-133350000D01*
X109220000Y-129540000D02*
G75*
G03*
X105410000Y-133350000I0J-3810000D01*
G01*
X50800000Y-127000000D02*
G75*
G03*
X50800000Y-129540000I0J-1270000D01*
G01*
X181610000Y-171450000D02*
G75*
G03*
X179070000Y-171450000I-1270000J0D01*
G01*
X40640000Y-127000000D02*
X33020000Y-127000000D01*
X105410000Y-110490000D02*
X105410000Y-95250000D01*
X102870000Y-161290000D02*
G75*
G03*
X105410000Y-161290000I1270000J0D01*
G01*
X179070000Y-82550000D02*
G75*
G03*
X175260000Y-78740000I-3810000J0D01*
G01*
X181610000Y-161290000D02*
X181610000Y-146050000D01*
X81280000Y-177800000D02*
X50800000Y-177800000D01*
X26670000Y-120650000D02*
X26670000Y-123190000D01*
X179070000Y-135890000D02*
G75*
G03*
X181610000Y-135890000I1270000J0D01*
G01*
X33020000Y-25400000D02*
G75*
G03*
X26670000Y-31750000I0J-6350000D01*
G01*
X102870000Y-59690000D02*
G75*
G03*
X105410000Y-59690000I1270000J0D01*
G01*
X181610000Y-31750000D02*
G75*
G03*
X175260000Y-25400000I-6350000J0D01*
G01*
X179070000Y-85090000D02*
G75*
G03*
X181610000Y-85090000I1270000J0D01*
G01*
X91440000Y-78740000D02*
X99060000Y-78740000D01*
X29210000Y-173990000D02*
G75*
G03*
X33020000Y-177800000I3810000J0D01*
G01*
D11*
X24765000Y-25400000D02*
G75*
G03*
X24765000Y-25400000I-1905000J0D01*
G01*
D10*
X116840000Y-129540000D02*
G75*
G03*
X116840000Y-127000000I0J1270000D01*
G01*
X105410000Y-173990000D02*
X105410000Y-171450000D01*
X175260000Y-76200000D02*
X167640000Y-76200000D01*
X179070000Y-34290000D02*
G75*
G03*
X181610000Y-34290000I1270000J0D01*
G01*
X181610000Y-120650000D02*
G75*
G03*
X179070000Y-120650000I-1270000J0D01*
G01*
X105410000Y-44450000D02*
G75*
G03*
X102870000Y-44450000I-1270000J0D01*
G01*
X99060000Y-129540000D02*
G75*
G02*
X102870000Y-133350000I0J-3810000D01*
G01*
X175260000Y-127000000D02*
X167640000Y-127000000D01*
X127000000Y-78740000D02*
X157480000Y-78740000D01*
X29210000Y-95250000D02*
G75*
G03*
X26670000Y-95250000I-1270000J0D01*
G01*
X29210000Y-123190000D02*
G75*
G03*
X33020000Y-127000000I3810000J0D01*
G01*
X181610000Y-34290000D02*
X181610000Y-31750000D01*
X179070000Y-31750000D02*
X179070000Y-34290000D01*
X50800000Y-177800000D02*
G75*
G03*
X50800000Y-180340000I0J-1270000D01*
G01*
X91440000Y-127000000D02*
G75*
G03*
X91440000Y-129540000I0J-1270000D01*
G01*
X179070000Y-171450000D02*
X179070000Y-173990000D01*
X81280000Y-27940000D02*
G75*
G03*
X81280000Y-25400000I0J1270000D01*
G01*
X181610000Y-59690000D02*
X181610000Y-44450000D01*
X91440000Y-129540000D02*
X99060000Y-129540000D01*
X127000000Y-129540000D02*
X157480000Y-129540000D01*
X157480000Y-27940000D02*
G75*
G03*
X157480000Y-25400000I0J1270000D01*
G01*
X40640000Y-180340000D02*
X33020000Y-180340000D01*
X179070000Y-69850000D02*
X179070000Y-72390000D01*
X29210000Y-120650000D02*
G75*
G03*
X26670000Y-120650000I-1270000J0D01*
G01*
X50800000Y-27940000D02*
X81280000Y-27940000D01*
X29210000Y-44450000D02*
G75*
G03*
X26670000Y-44450000I-1270000J0D01*
G01*
X105410000Y-171450000D02*
G75*
G03*
X102870000Y-171450000I-1270000J0D01*
G01*
X116840000Y-25400000D02*
X91440000Y-25400000D01*
X81280000Y-76200000D02*
X50800000Y-76200000D01*
X26670000Y-146050000D02*
X26670000Y-161290000D01*
X181610000Y-173990000D02*
X181610000Y-171450000D01*
X102870000Y-44450000D02*
X102870000Y-59690000D01*
X105410000Y-120650000D02*
G75*
G03*
X102870000Y-120650000I-1270000J0D01*
G01*
X26670000Y-123190000D02*
X26670000Y-133350000D01*
X19050000Y-21590000D02*
X19050000Y-184150000D01*
X29210000Y-123190000D02*
X29210000Y-120650000D01*
X116840000Y-78740000D02*
G75*
G03*
X116840000Y-76200000I0J1270000D01*
G01*
X181610000Y-44450000D02*
G75*
G03*
X179070000Y-44450000I-1270000J0D01*
G01*
X26670000Y-59690000D02*
G75*
G03*
X29210000Y-59690000I1270000J0D01*
G01*
X157480000Y-78740000D02*
G75*
G03*
X157480000Y-76200000I0J1270000D01*
G01*
X179070000Y-82550000D02*
X179070000Y-85090000D01*
X40640000Y-129540000D02*
G75*
G03*
X40640000Y-127000000I0J1270000D01*
G01*
X181610000Y-95250000D02*
G75*
G03*
X179070000Y-95250000I-1270000J0D01*
G01*
X102870000Y-34290000D02*
G75*
G03*
X105410000Y-34290000I1270000J0D01*
G01*
X157480000Y-76200000D02*
X127000000Y-76200000D01*
X40640000Y-25400000D02*
X33020000Y-25400000D01*
X81280000Y-78740000D02*
G75*
G03*
X81280000Y-76200000I0J1270000D01*
G01*
X33020000Y-27940000D02*
X40640000Y-27940000D01*
X127000000Y-76200000D02*
G75*
G03*
X127000000Y-78740000I0J-1270000D01*
G01*
X167640000Y-129540000D02*
X175260000Y-129540000D01*
X33020000Y-78740000D02*
X40640000Y-78740000D01*
X26670000Y-173990000D02*
G75*
G03*
X33020000Y-180340000I6350000J0D01*
G01*
X105410000Y-72390000D02*
G75*
G03*
X109220000Y-76200000I3810000J0D01*
G01*
X102870000Y-135890000D02*
G75*
G03*
X105410000Y-135890000I1270000J0D01*
G01*
X29210000Y-31750000D02*
G75*
G02*
X33020000Y-27940000I3810000J0D01*
G01*
X81280000Y-129540000D02*
G75*
G03*
X81280000Y-127000000I0J1270000D01*
G01*
X105410000Y-34290000D02*
X105410000Y-31750000D01*
X179070000Y-59690000D02*
G75*
G03*
X181610000Y-59690000I1270000J0D01*
G01*
X29210000Y-133350000D02*
G75*
G02*
X33020000Y-129540000I3810000J0D01*
G01*
X29210000Y-82550000D02*
G75*
G02*
X33020000Y-78740000I3810000J0D01*
G01*
X102870000Y-69850000D02*
X102870000Y-72390000D01*
X26670000Y-95250000D02*
X26670000Y-110490000D01*
X109220000Y-78740000D02*
X116840000Y-78740000D01*
X116840000Y-27940000D02*
G75*
G03*
X116840000Y-25400000I0J1270000D01*
G01*
X102870000Y-146050000D02*
X102870000Y-161290000D01*
X116840000Y-180340000D02*
G75*
G03*
X116840000Y-177800000I0J1270000D01*
G01*
X167640000Y-78740000D02*
X175260000Y-78740000D01*
X179070000Y-72390000D02*
G75*
G02*
X175260000Y-76200000I-3810000J0D01*
G01*
X81280000Y-180340000D02*
X50800000Y-180340000D01*
X29210000Y-69850000D02*
G75*
G03*
X26670000Y-69850000I-1270000J0D01*
G01*
X175260000Y-180340000D02*
G75*
G03*
X181610000Y-173990000I0J6350000D01*
G01*
X102870000Y-85090000D02*
G75*
G03*
X105410000Y-85090000I1270000J0D01*
G01*
X179070000Y-95250000D02*
X179070000Y-110490000D01*
X91440000Y-27940000D02*
X99060000Y-27940000D01*
X167640000Y-76200000D02*
G75*
G03*
X167640000Y-78740000I0J-1270000D01*
G01*
X40640000Y-78740000D02*
G75*
G03*
X40640000Y-76200000I0J1270000D01*
G01*
X40640000Y-177800000D02*
X33020000Y-177800000D01*
X102870000Y-72390000D02*
G75*
G02*
X99060000Y-76200000I-3810000J0D01*
G01*
X105410000Y-69850000D02*
G75*
G03*
X102870000Y-69850000I-1270000J0D01*
G01*
X167640000Y-180340000D02*
X175260000Y-180340000D01*
X175260000Y-27940000D02*
G75*
G02*
X179070000Y-31750000I0J-3810000D01*
G01*
X105410000Y-85090000D02*
X105410000Y-82550000D01*
X50800000Y-25400000D02*
G75*
G03*
X50800000Y-27940000I0J-1270000D01*
G01*
X157480000Y-180340000D02*
X127000000Y-180340000D01*
X105410000Y-123190000D02*
G75*
G03*
X109220000Y-127000000I3810000J0D01*
G01*
X181610000Y-69850000D02*
G75*
G03*
X179070000Y-69850000I-1270000J0D01*
G01*
X157480000Y-127000000D02*
X127000000Y-127000000D01*
X99060000Y-76200000D02*
X91440000Y-76200000D01*
X105410000Y-72390000D02*
X105410000Y-69850000D01*
X26670000Y-110490000D02*
G75*
G03*
X29210000Y-110490000I1270000J0D01*
G01*
X109220000Y-78740000D02*
G75*
G03*
X105410000Y-82550000I0J-3810000D01*
G01*
X109220000Y-129540000D02*
X116840000Y-129540000D01*
X26670000Y-161290000D02*
G75*
G03*
X29210000Y-161290000I1270000J0D01*
G01*
X29210000Y-85090000D02*
X29210000Y-82550000D01*
X102870000Y-95250000D02*
X102870000Y-110490000D01*
X40640000Y-180340000D02*
G75*
G03*
X40640000Y-177800000I0J1270000D01*
G01*
X81280000Y-127000000D02*
X50800000Y-127000000D01*
X102870000Y-31750000D02*
X102870000Y-34290000D01*
X181610000Y-110490000D02*
X181610000Y-95250000D01*
X116840000Y-127000000D02*
X109220000Y-127000000D01*
D11*
X187325000Y-180340000D02*
G75*
G03*
X187325000Y-180340000I-1905000J0D01*
G01*
D10*
X26670000Y-72390000D02*
X26670000Y-82550000D01*
X102870000Y-171450000D02*
X102870000Y-173990000D01*
X179070000Y-120650000D02*
X179070000Y-123190000D01*
X181610000Y-123190000D02*
X181610000Y-120650000D01*
X50800000Y-25400000D02*
X81280000Y-25400000D01*
X127000000Y-127000000D02*
G75*
G03*
X127000000Y-129540000I0J-1270000D01*
G01*
X26670000Y-135890000D02*
G75*
G03*
X29210000Y-135890000I1270000J0D01*
G01*
X189230000Y-184150000D02*
X189230000Y-21590000D01*
X179070000Y-133350000D02*
G75*
G03*
X175260000Y-129540000I-3810000J0D01*
G01*
X91440000Y-177800000D02*
G75*
G03*
X91440000Y-180340000I0J-1270000D01*
G01*
X26670000Y-31750000D02*
X26670000Y-34290000D01*
X99060000Y-127000000D02*
X91440000Y-127000000D01*
X29210000Y-135890000D02*
X29210000Y-133350000D01*
X26670000Y-85090000D02*
G75*
G03*
X29210000Y-85090000I1270000J0D01*
G01*
X29210000Y-34290000D02*
X29210000Y-31750000D01*
X26670000Y-69850000D02*
X26670000Y-72390000D01*
X33020000Y-76200000D02*
G75*
G02*
X29210000Y-72390000I0J3810000D01*
G01*
X127000000Y-177800000D02*
G75*
G03*
X127000000Y-180340000I0J-1270000D01*
G01*
X26670000Y-34290000D02*
G75*
G03*
X29210000Y-34290000I1270000J0D01*
G01*
X102870000Y-173990000D02*
G75*
G02*
X99060000Y-177800000I-3810000J0D01*
G01*
X26670000Y-171450000D02*
X26670000Y-173990000D01*
X105410000Y-173990000D02*
G75*
G03*
X109220000Y-177800000I3810000J0D01*
G01*
X29210000Y-110490000D02*
X29210000Y-95250000D01*
X29210000Y-146050000D02*
G75*
G03*
X26670000Y-146050000I-1270000J0D01*
G01*
X167640000Y-177800000D02*
G75*
G03*
X167640000Y-180340000I0J-1270000D01*
G01*
X179070000Y-161290000D02*
G75*
G03*
X181610000Y-161290000I1270000J0D01*
G01*
X127000000Y-25400000D02*
G75*
G03*
X127000000Y-27940000I0J-1270000D01*
G01*
X26670000Y-133350000D02*
X26670000Y-135890000D01*
X26670000Y-44450000D02*
X26670000Y-59690000D01*
X181610000Y-135890000D02*
X181610000Y-133350000D01*
X181610000Y-146050000D02*
G75*
G03*
X179070000Y-146050000I-1270000J0D01*
G01*
X102870000Y-133350000D02*
X102870000Y-135890000D01*
X127000000Y-27940000D02*
X157480000Y-27940000D01*
X50800000Y-76200000D02*
G75*
G03*
X50800000Y-78740000I0J-1270000D01*
G01*
X29210000Y-59690000D02*
X29210000Y-44450000D01*
X50800000Y-78740000D02*
X81280000Y-78740000D01*
X105410000Y-135890000D02*
X105410000Y-133350000D01*
X91440000Y-76200000D02*
G75*
G03*
X91440000Y-78740000I0J-1270000D01*
G01*
X102870000Y-123190000D02*
G75*
G02*
X99060000Y-127000000I-3810000J0D01*
G01*
M02*
